<svg height="600" viewBox="0 0 1200 600" width="1200" xmlns="http://www.w3.org/2000/svg">
<rect fill="#F5F5F5" height="600" width="1200"/>
<g id="header">
<text fill="#333333" font-family="Arial, sans-serif" font-size="24" font-weight="bold" text-anchor="middle" x="600" y="30">
Scenario: cut_in_left
</text>
<text fill="#333333" font-family="Arial, sans-serif" font-size="12" text-anchor="middle" x="600" y="55">
ID: 7c790716 | Duration: 10.0s | Time Step: 0.10s
</text>
</g>
<g id="metrics">
<text fill="#333333" font-family="Arial, sans-serif" font-size="14" text-anchor="middle" x="600" y="80">
Min TTC: 0.01s | Min Distance: 0.00m | Max Accel: 3.00 m/s² | Max Decel: -8.00 m/s² | Constraints: 
</text>
<text fill="#F44336" font-family="Arial, sans-serif" font-size="14" font-weight="bold" text-anchor="start" x="920" y="80">
✗ VIOLATED
</text>
</g>
<rect fill="#2A2A2A" height="400" width="1040" x="80" y="120"/>
<g id="lane_markings">
<line opacity="0.6" stroke="#FFFFFF" stroke-dasharray="10,10" stroke-width="2" x1="80" x2="1120" y1="375.55555555555554" y2="375.55555555555554"/>
<line opacity="0.6" stroke="#FFFFFF" stroke-dasharray="10,10" stroke-width="2" x1="80" x2="1120" y1="264.44444444444446" y2="264.44444444444446"/>
<line stroke="#FFFFFF" stroke-width="3" x1="80" x2="1120" y1="153.33333333333334" y2="153.33333333333334"/>
<line stroke="#FFFFFF" stroke-width="3" x1="80" x2="1120" y1="486.6666666666667" y2="486.6666666666667"/>
</g>
<g id="trajectories">
<path d="M 166.66666666666669 321.58730158730157 L 185.09933884092789 321.58730158730157 L 202.4787154623741 321.58730158730157 L 218.80479653100548 321.58730158730157 L 234.07758204682185 321.58730158730157 L 248.29707200982332 321.58730158730157 L 261.46326642000986 321.58730158730157 L 273.5761652773815 321.58730158730157 L 284.6357685819383 321.58730158730157 L 294.64207633367994 321.58730158730157 L 303.5950885326069 321.58730158730157 L 311.49480517871876 321.58730158730157 L 318.3412262720159 321.58730158730157 L 324.1343518124979 321.58730158730157 L 328.8741818001651 321.58730158730157 L 332.56071623501737 321.58730158730157 L 335.1939551170547 321.58730158730157 L 336.773898446277 321.58730158730157 L 338.748827607805 321.58730158730157 L 341.11874260163853 321.58730158730157 L 343.8836434277778 321.58730158730157 L 347.0435300862225 321.58730158730157 L 350.59840257697283 321.58730158730157 L 354.54826090002894 321.58730158730157 L 358.8931050553905 321.58730158730157 L 362.18465365793713 321.58730158730157 L 364.42290670766886 321.58730158730157 L 365.6078642045855 321.58730158730157 L 365.82074067754604 321.58730158730157 L 366.428602982812 321.58730158730157 L 367.4314511203837 321.58730158730157 L 368.8292850902609 321.58730158730157 L 370.6221048924437 321.58730158730157 L 372.8099105269321 321.58730158730157 L 375.39270199372606 321.58730158730157 L 378.3704792928257 321.58730158730157 L 381.7432424242309 321.58730158730157 L 385.5109913879418 321.58730158730157 L 389.67372618395825 321.58730158730157 L 394.2314468122801 321.58730158730157 L 399.1841532729078 321.58730158730157 L 404.5318455658409 321.58730158730157 L 410.27452369107976 321.58730158730157 L 416.4121876486241 321.58730158730157 L 422.94483743847405 321.58730158730157 L 429.8724730606298 321.58730158730157 L 437.19509451509094 321.58730158730157 L 444.91270180185774 321.58730158730157 L 453.0252949209301 321.58730158730157 L 461.5328738723081 321.58730158730157 L 470.4354386559915 321.58730158730157 L 479.7329892719807 321.58730158730157 L 489.4255257202756 321.58730158730157 L 499.5130480008758 321.58730158730157 L 509.9955561137819 321.58730158730157 L 520.8730500589934 321.58730158730157 L 532.1455298365104 321.58730158730157 L 543.8129954463332 321.58730158730157 L 555.8754468884617 321.58730158730157 L 568.3328841628957 321.58730158730157 L 581.1853072696351 321.58730158730157 L 594.4327162086801 321.58730158730157 L 608.0751109800309 321.58730158730157 L 622.1124915836872 321.58730158730157 L 636.5448580196492 321.58730158730157 L 651.3722102879166 321.58730158730157 L 666.5945483884898 321.58730158730157 L 682.2118723213684 321.58730158730157 L 698.2241820865527 321.58730158730157 L 714.6314776840427 321.58730158730157 L 731.4337591138382 321.58730158730157 L 748.6310263759393 321.58730158730157 L 766.223279470346 321.58730158730157 L 784.2105183970583 321.58730158730157 L 802.5927431560762 321.58730158730157 L 821.3699537473996 321.58730158730157 L 840.5421501710287 321.58730158730157 L 860.1093324269634 321.58730158730157 L 878.623219130083 321.58730158730157 L 896.0838102803881 321.58730158730157 L 912.4911058778779 321.58730158730157 L 927.8451059225528 321.58730158730157 L 942.1458104144128 321.58730158730157 L 955.3932193534581 321.58730158730157 L 967.5873327396883 321.58730158730157 L 978.7281505731036 321.58730158730157 L 988.815672853704 321.58730158730157 L 997.8498995814894 321.58730158730157 L 1005.8308307564599 321.58730158730157 L 1012.7584663786155 321.58730158730157 L 1018.632806447956 321.58730158730157 L 1023.4538509644817 321.58730158730157 L 1027.2215999281925 321.58730158730157 L 1029.9360533390882 321.58730158730157 L 1031.5972111971696 321.58730158730157 L 1032.2050735024354 321.58730158730157 L 1032.2050735024354 321.58730158730157 L 1032.2050735024354 321.58730158730157 L 1032.2050735024354 321.58730158730157 L 1032.2050735024354 321.58730158730157 L 1032.2050735024354 321.58730158730157 " fill="none" opacity="0.7" stroke="#8BC34A" stroke-width="3"/>
<circle cx="166.66666666666669" cy="321.58730158730157" fill="#8BC34A" opacity="0.5" r="2"/>
<circle cx="185.09933884092789" cy="321.58730158730157" fill="#8BC34A" opacity="0.5" r="2"/>
<circle cx="202.4787154623741" cy="321.58730158730157" fill="#8BC34A" opacity="0.5" r="2"/>
<circle cx="218.80479653100548" cy="321.58730158730157" fill="#8BC34A" opacity="0.5" r="2"/>
<circle cx="234.07758204682185" cy="321.58730158730157" fill="#8BC34A" opacity="0.5" r="2"/>
<circle cx="248.29707200982332" cy="321.58730158730157" fill="#8BC34A" opacity="0.5" r="2"/>
<circle cx="261.46326642000986" cy="321.58730158730157" fill="#8BC34A" opacity="0.5" r="2"/>
<circle cx="273.5761652773815" cy="321.58730158730157" fill="#8BC34A" opacity="0.5" r="2"/>
<circle cx="284.6357685819383" cy="321.58730158730157" fill="#8BC34A" opacity="0.5" r="2"/>
<circle cx="294.64207633367994" cy="321.58730158730157" fill="#8BC34A" opacity="0.5" r="2"/>
<circle cx="303.5950885326069" cy="321.58730158730157" fill="#8BC34A" opacity="0.5" r="2"/>
<circle cx="311.49480517871876" cy="321.58730158730157" fill="#8BC34A" opacity="0.5" r="2"/>
<circle cx="318.3412262720159" cy="321.58730158730157" fill="#8BC34A" opacity="0.5" r="2"/>
<circle cx="324.1343518124979" cy="321.58730158730157" fill="#8BC34A" opacity="0.5" r="2"/>
<circle cx="328.8741818001651" cy="321.58730158730157" fill="#8BC34A" opacity="0.5" r="2"/>
<circle cx="332.56071623501737" cy="321.58730158730157" fill="#8BC34A" opacity="0.5" r="2"/>
<circle cx="335.1939551170547" cy="321.58730158730157" fill="#8BC34A" opacity="0.5" r="2"/>
<circle cx="336.773898446277" cy="321.58730158730157" fill="#8BC34A" opacity="0.5" r="2"/>
<circle cx="338.748827607805" cy="321.58730158730157" fill="#8BC34A" opacity="0.5" r="2"/>
<circle cx="341.11874260163853" cy="321.58730158730157" fill="#8BC34A" opacity="0.5" r="2"/>
<circle cx="343.8836434277778" cy="321.58730158730157" fill="#8BC34A" opacity="0.5" r="2"/>
<circle cx="347.0435300862225" cy="321.58730158730157" fill="#8BC34A" opacity="0.5" r="2"/>
<circle cx="350.59840257697283" cy="321.58730158730157" fill="#8BC34A" opacity="0.5" r="2"/>
<circle cx="354.54826090002894" cy="321.58730158730157" fill="#8BC34A" opacity="0.5" r="2"/>
<circle cx="358.8931050553905" cy="321.58730158730157" fill="#8BC34A" opacity="0.5" r="2"/>
<circle cx="362.18465365793713" cy="321.58730158730157" fill="#8BC34A" opacity="0.5" r="2"/>
<circle cx="364.42290670766886" cy="321.58730158730157" fill="#8BC34A" opacity="0.5" r="2"/>
<circle cx="365.6078642045855" cy="321.58730158730157" fill="#8BC34A" opacity="0.5" r="2"/>
<circle cx="365.82074067754604" cy="321.58730158730157" fill="#8BC34A" opacity="0.5" r="2"/>
<circle cx="366.428602982812" cy="321.58730158730157" fill="#8BC34A" opacity="0.5" r="2"/>
<circle cx="367.4314511203837" cy="321.58730158730157" fill="#8BC34A" opacity="0.5" r="2"/>
<circle cx="368.8292850902609" cy="321.58730158730157" fill="#8BC34A" opacity="0.5" r="2"/>
<circle cx="370.6221048924437" cy="321.58730158730157" fill="#8BC34A" opacity="0.5" r="2"/>
<circle cx="372.8099105269321" cy="321.58730158730157" fill="#8BC34A" opacity="0.5" r="2"/>
<circle cx="375.39270199372606" cy="321.58730158730157" fill="#8BC34A" opacity="0.5" r="2"/>
<circle cx="378.3704792928257" cy="321.58730158730157" fill="#8BC34A" opacity="0.5" r="2"/>
<circle cx="381.7432424242309" cy="321.58730158730157" fill="#8BC34A" opacity="0.5" r="2"/>
<circle cx="385.5109913879418" cy="321.58730158730157" fill="#8BC34A" opacity="0.5" r="2"/>
<circle cx="389.67372618395825" cy="321.58730158730157" fill="#8BC34A" opacity="0.5" r="2"/>
<circle cx="394.2314468122801" cy="321.58730158730157" fill="#8BC34A" opacity="0.5" r="2"/>
<circle cx="399.1841532729078" cy="321.58730158730157" fill="#8BC34A" opacity="0.5" r="2"/>
<circle cx="404.5318455658409" cy="321.58730158730157" fill="#8BC34A" opacity="0.5" r="2"/>
<circle cx="410.27452369107976" cy="321.58730158730157" fill="#8BC34A" opacity="0.5" r="2"/>
<circle cx="416.4121876486241" cy="321.58730158730157" fill="#8BC34A" opacity="0.5" r="2"/>
<circle cx="422.94483743847405" cy="321.58730158730157" fill="#8BC34A" opacity="0.5" r="2"/>
<circle cx="429.8724730606298" cy="321.58730158730157" fill="#8BC34A" opacity="0.5" r="2"/>
<circle cx="437.19509451509094" cy="321.58730158730157" fill="#8BC34A" opacity="0.5" r="2"/>
<circle cx="444.91270180185774" cy="321.58730158730157" fill="#8BC34A" opacity="0.5" r="2"/>
<circle cx="453.0252949209301" cy="321.58730158730157" fill="#8BC34A" opacity="0.5" r="2"/>
<circle cx="461.5328738723081" cy="321.58730158730157" fill="#8BC34A" opacity="0.5" r="2"/>
<circle cx="470.4354386559915" cy="321.58730158730157" fill="#8BC34A" opacity="0.5" r="2"/>
<circle cx="479.7329892719807" cy="321.58730158730157" fill="#8BC34A" opacity="0.5" r="2"/>
<circle cx="489.4255257202756" cy="321.58730158730157" fill="#8BC34A" opacity="0.5" r="2"/>
<circle cx="499.5130480008758" cy="321.58730158730157" fill="#8BC34A" opacity="0.5" r="2"/>
<circle cx="509.9955561137819" cy="321.58730158730157" fill="#8BC34A" opacity="0.5" r="2"/>
<circle cx="520.8730500589934" cy="321.58730158730157" fill="#8BC34A" opacity="0.5" r="2"/>
<circle cx="532.1455298365104" cy="321.58730158730157" fill="#8BC34A" opacity="0.5" r="2"/>
<circle cx="543.8129954463332" cy="321.58730158730157" fill="#8BC34A" opacity="0.5" r="2"/>
<circle cx="555.8754468884617" cy="321.58730158730157" fill="#8BC34A" opacity="0.5" r="2"/>
<circle cx="568.3328841628957" cy="321.58730158730157" fill="#8BC34A" opacity="0.5" r="2"/>
<circle cx="581.1853072696351" cy="321.58730158730157" fill="#8BC34A" opacity="0.5" r="2"/>
<circle cx="594.4327162086801" cy="321.58730158730157" fill="#8BC34A" opacity="0.5" r="2"/>
<circle cx="608.0751109800309" cy="321.58730158730157" fill="#8BC34A" opacity="0.5" r="2"/>
<circle cx="622.1124915836872" cy="321.58730158730157" fill="#8BC34A" opacity="0.5" r="2"/>
<circle cx="636.5448580196492" cy="321.58730158730157" fill="#8BC34A" opacity="0.5" r="2"/>
<circle cx="651.3722102879166" cy="321.58730158730157" fill="#8BC34A" opacity="0.5" r="2"/>
<circle cx="666.5945483884898" cy="321.58730158730157" fill="#8BC34A" opacity="0.5" r="2"/>
<circle cx="682.2118723213684" cy="321.58730158730157" fill="#8BC34A" opacity="0.5" r="2"/>
<circle cx="698.2241820865527" cy="321.58730158730157" fill="#8BC34A" opacity="0.5" r="2"/>
<circle cx="714.6314776840427" cy="321.58730158730157" fill="#8BC34A" opacity="0.5" r="2"/>
<circle cx="731.4337591138382" cy="321.58730158730157" fill="#8BC34A" opacity="0.5" r="2"/>
<circle cx="748.6310263759393" cy="321.58730158730157" fill="#8BC34A" opacity="0.5" r="2"/>
<circle cx="766.223279470346" cy="321.58730158730157" fill="#8BC34A" opacity="0.5" r="2"/>
<circle cx="784.2105183970583" cy="321.58730158730157" fill="#8BC34A" opacity="0.5" r="2"/>
<circle cx="802.5927431560762" cy="321.58730158730157" fill="#8BC34A" opacity="0.5" r="2"/>
<circle cx="821.3699537473996" cy="321.58730158730157" fill="#8BC34A" opacity="0.5" r="2"/>
<circle cx="840.5421501710287" cy="321.58730158730157" fill="#8BC34A" opacity="0.5" r="2"/>
<circle cx="860.1093324269634" cy="321.58730158730157" fill="#8BC34A" opacity="0.5" r="2"/>
<circle cx="878.623219130083" cy="321.58730158730157" fill="#8BC34A" opacity="0.5" r="2"/>
<circle cx="896.0838102803881" cy="321.58730158730157" fill="#8BC34A" opacity="0.5" r="2"/>
<circle cx="912.4911058778779" cy="321.58730158730157" fill="#8BC34A" opacity="0.5" r="2"/>
<circle cx="927.8451059225528" cy="321.58730158730157" fill="#8BC34A" opacity="0.5" r="2"/>
<circle cx="942.1458104144128" cy="321.58730158730157" fill="#8BC34A" opacity="0.5" r="2"/>
<circle cx="955.3932193534581" cy="321.58730158730157" fill="#8BC34A" opacity="0.5" r="2"/>
<circle cx="967.5873327396883" cy="321.58730158730157" fill="#8BC34A" opacity="0.5" r="2"/>
<circle cx="978.7281505731036" cy="321.58730158730157" fill="#8BC34A" opacity="0.5" r="2"/>
<circle cx="988.815672853704" cy="321.58730158730157" fill="#8BC34A" opacity="0.5" r="2"/>
<circle cx="997.8498995814894" cy="321.58730158730157" fill="#8BC34A" opacity="0.5" r="2"/>
<circle cx="1005.8308307564599" cy="321.58730158730157" fill="#8BC34A" opacity="0.5" r="2"/>
<circle cx="1012.7584663786155" cy="321.58730158730157" fill="#8BC34A" opacity="0.5" r="2"/>
<circle cx="1018.632806447956" cy="321.58730158730157" fill="#8BC34A" opacity="0.5" r="2"/>
<circle cx="1023.4538509644817" cy="321.58730158730157" fill="#8BC34A" opacity="0.5" r="2"/>
<circle cx="1027.2215999281925" cy="321.58730158730157" fill="#8BC34A" opacity="0.5" r="2"/>
<circle cx="1029.9360533390882" cy="321.58730158730157" fill="#8BC34A" opacity="0.5" r="2"/>
<circle cx="1031.5972111971696" cy="321.58730158730157" fill="#8BC34A" opacity="0.5" r="2"/>
<circle cx="1032.2050735024354" cy="321.58730158730157" fill="#8BC34A" opacity="0.5" r="2"/>
<circle cx="1032.2050735024354" cy="321.58730158730157" fill="#8BC34A" opacity="0.5" r="2"/>
<circle cx="1032.2050735024354" cy="321.58730158730157" fill="#8BC34A" opacity="0.5" r="2"/>
<circle cx="1032.2050735024354" cy="321.58730158730157" fill="#8BC34A" opacity="0.5" r="2"/>
<circle cx="1032.2050735024354" cy="321.58730158730157" fill="#8BC34A" opacity="0.5" r="2"/>
<circle cx="1032.2050735024354" cy="321.58730158730157" fill="#8BC34A" opacity="0.5" r="2"/>
<path d="M 168.03903485879155 432.6984126984127 L 189.10494591509007 432.6984126984127 L 209.1175614185736 432.6984126984127 L 228.0768813692422 432.6984126984127 L 245.9829057670959 432.6984126984127 L 262.8356346121348 432.6984126984127 L 278.6350679043585 432.6984126984127 L 293.38120564376754 432.6984126984127 L 307.0740478303617 432.6984126984127 L 319.71359446414067 432.6984126984127 L 331.29984554510474 432.6984126984127 L 341.8328010732542 432.6984126984127 L 351.3124610485885 432.6984126984127 L 359.7388254711079 432.6984126984127 L 367.1118943408124 432.6984126984127 L 373.4316676577018 432.6984126984127 L 378.6981454217765 432.6984126984127 L 382.9113276330361 432.6984126984127 L 386.071214291481 432.6984126984127 L 388.17780539711083 432.6984126984127 L 389.2311009499257 432.6984126984127 L 389.2311009499257 432.6984126984127 L 389.2311009499257 432.6984126984127 L 389.2311009499257 432.6984126984127 L 389.2311009499257 432.6984126984127 L 389.2311009499257 432.6984126984127 L 389.2311009499257 432.6984126984127 L 389.4066502087282 432.6984126984127 L 389.9771852998363 432.6984126984127 L 390.9427062232499 432.6984126984127 L 392.30321297896927 432.6984126984127 L 394.0587055669942 432.6984126984127 L 396.2091839873246 432.6984126984127 L 398.7546482399606 432.6984126984127 L 401.6950983249024 432.6984126984127 L 405.0305342421496 432.6984126984127 L 408.7609559917025 432.6984126984127 L 412.8863635735609 426.3492063492063 L 417.406756987725 424.7142857142857 L 422.3221362341946 422.93650793650795 L 427.6325013129699 421.015873015873 L 433.3378522240506 418.95238095238096 L 439.4381889674371 416.74603174603175 L 445.9335115431292 414.39682539682536 L 452.8238199511268 411.90476190476187 L 460.1091141914301 409.26984126984127 L 467.7893942640389 406.49206349206344 L 475.86466016895326 403.57142857142856 L 484.3349119061732 400.5079365079365 L 493.2001494756988 397.3015873015873 L 502.46037287753006 393.95238095238096 L 512.1155821116669 390.46031746031747 L 522.1657771781092 386.82539682539687 L 532.6109580768573 383.0476190476191 L 543.451124807911 379.12698412698415 L 554.6862773712701 383.1904761904762 L 566.316415766935 378.984126984127 L 578.3415399949052 374.6349206349206 L 590.7616500551815 370.1428571428571 L 603.5767459477629 365.5079365079365 L 616.78682767265 360.7301587301587 L 630.3918952298428 355.80952380952385 L 644.3919486193412 350.74603174603175 L 658.7869878411451 345.53968253968253 L 673.5770128952547 340.1904761904762 L 688.7620237816699 334.6984126984127 L 704.3420205003907 340.33333333333337 L 720.317003051417 334.55555555555554 L 736.686971434749 340.4761904761905 L 753.4519256503867 334.41269841269843 L 770.6118656983298 328.3174603174603 L 788.1667915785785 321.968253968254 L 804.6684219060122 316 L 820.1167566806313 321.58730158730157 L 834.5117959024352 321.58730158730157 L 847.8535395714241 321.58730158730157 L 860.1419876875983 321.58730158730157 L 872.6181660315532 321.58730158730157 L 885.4893302078134 321.58730158730157 L 898.7554802163793 321.58730158730157 L 912.4166160572508 321.58730158730157 L 926.4727377304279 321.58730158730157 L 940.9238452359106 321.58730158730157 L 954.3216571885786 321.58730158730157 L 966.6661735884314 321.58730158730157 L 977.9573944354693 321.58730158730157 L 988.1953197296924 321.58730158730157 L 997.3799494711004 321.58730158730157 L 1005.5112836596937 321.58730158730157 L 1012.5893222954719 321.58730158730157 L 1018.614065378435 321.58730158730157 L 1023.5855129085835 321.58730158730157 L 1027.5036648859173 321.58730158730157 L 1030.3685213104359 321.58730158730157 L 1032.1800821821394 321.58730158730157 L 1032.9383475010281 321.58730158730157 L 1032.9383475010281 321.58730158730157 L 1033.3333333333337 321.58730158730157 L 1033.3333333333337 321.58730158730157 L 1033.3333333333337 321.58730158730157 L 1033.3333333333337 321.58730158730157 " fill="none" opacity="0.7" stroke="#64B5F6" stroke-width="3"/>
<circle cx="168.03903485879155" cy="432.6984126984127" fill="#64B5F6" opacity="0.5" r="2"/>
<circle cx="189.10494591509007" cy="432.6984126984127" fill="#64B5F6" opacity="0.5" r="2"/>
<circle cx="209.1175614185736" cy="432.6984126984127" fill="#64B5F6" opacity="0.5" r="2"/>
<circle cx="228.0768813692422" cy="432.6984126984127" fill="#64B5F6" opacity="0.5" r="2"/>
<circle cx="245.9829057670959" cy="432.6984126984127" fill="#64B5F6" opacity="0.5" r="2"/>
<circle cx="262.8356346121348" cy="432.6984126984127" fill="#64B5F6" opacity="0.5" r="2"/>
<circle cx="278.6350679043585" cy="432.6984126984127" fill="#64B5F6" opacity="0.5" r="2"/>
<circle cx="293.38120564376754" cy="432.6984126984127" fill="#64B5F6" opacity="0.5" r="2"/>
<circle cx="307.0740478303617" cy="432.6984126984127" fill="#64B5F6" opacity="0.5" r="2"/>
<circle cx="319.71359446414067" cy="432.6984126984127" fill="#64B5F6" opacity="0.5" r="2"/>
<circle cx="331.29984554510474" cy="432.6984126984127" fill="#64B5F6" opacity="0.5" r="2"/>
<circle cx="341.8328010732542" cy="432.6984126984127" fill="#64B5F6" opacity="0.5" r="2"/>
<circle cx="351.3124610485885" cy="432.6984126984127" fill="#64B5F6" opacity="0.5" r="2"/>
<circle cx="359.7388254711079" cy="432.6984126984127" fill="#64B5F6" opacity="0.5" r="2"/>
<circle cx="367.1118943408124" cy="432.6984126984127" fill="#64B5F6" opacity="0.5" r="2"/>
<circle cx="373.4316676577018" cy="432.6984126984127" fill="#64B5F6" opacity="0.5" r="2"/>
<circle cx="378.6981454217765" cy="432.6984126984127" fill="#64B5F6" opacity="0.5" r="2"/>
<circle cx="382.9113276330361" cy="432.6984126984127" fill="#64B5F6" opacity="0.5" r="2"/>
<circle cx="386.071214291481" cy="432.6984126984127" fill="#64B5F6" opacity="0.5" r="2"/>
<circle cx="388.17780539711083" cy="432.6984126984127" fill="#64B5F6" opacity="0.5" r="2"/>
<circle cx="389.2311009499257" cy="432.6984126984127" fill="#64B5F6" opacity="0.5" r="2"/>
<circle cx="389.2311009499257" cy="432.6984126984127" fill="#64B5F6" opacity="0.5" r="2"/>
<circle cx="389.2311009499257" cy="432.6984126984127" fill="#64B5F6" opacity="0.5" r="2"/>
<circle cx="389.2311009499257" cy="432.6984126984127" fill="#64B5F6" opacity="0.5" r="2"/>
<circle cx="389.2311009499257" cy="432.6984126984127" fill="#64B5F6" opacity="0.5" r="2"/>
<circle cx="389.2311009499257" cy="432.6984126984127" fill="#64B5F6" opacity="0.5" r="2"/>
<circle cx="389.2311009499257" cy="432.6984126984127" fill="#64B5F6" opacity="0.5" r="2"/>
<circle cx="389.4066502087282" cy="432.6984126984127" fill="#64B5F6" opacity="0.5" r="2"/>
<circle cx="389.9771852998363" cy="432.6984126984127" fill="#64B5F6" opacity="0.5" r="2"/>
<circle cx="390.9427062232499" cy="432.6984126984127" fill="#64B5F6" opacity="0.5" r="2"/>
<circle cx="392.30321297896927" cy="432.6984126984127" fill="#64B5F6" opacity="0.5" r="2"/>
<circle cx="394.0587055669942" cy="432.6984126984127" fill="#64B5F6" opacity="0.5" r="2"/>
<circle cx="396.2091839873246" cy="432.6984126984127" fill="#64B5F6" opacity="0.5" r="2"/>
<circle cx="398.7546482399606" cy="432.6984126984127" fill="#64B5F6" opacity="0.5" r="2"/>
<circle cx="401.6950983249024" cy="432.6984126984127" fill="#64B5F6" opacity="0.5" r="2"/>
<circle cx="405.0305342421496" cy="432.6984126984127" fill="#64B5F6" opacity="0.5" r="2"/>
<circle cx="408.7609559917025" cy="432.6984126984127" fill="#64B5F6" opacity="0.5" r="2"/>
<circle cx="412.8863635735609" cy="426.3492063492063" fill="#64B5F6" opacity="0.5" r="2"/>
<circle cx="417.406756987725" cy="424.7142857142857" fill="#64B5F6" opacity="0.5" r="2"/>
<circle cx="422.3221362341946" cy="422.93650793650795" fill="#64B5F6" opacity="0.5" r="2"/>
<circle cx="427.6325013129699" cy="421.015873015873" fill="#64B5F6" opacity="0.5" r="2"/>
<circle cx="433.3378522240506" cy="418.95238095238096" fill="#64B5F6" opacity="0.5" r="2"/>
<circle cx="439.4381889674371" cy="416.74603174603175" fill="#64B5F6" opacity="0.5" r="2"/>
<circle cx="445.9335115431292" cy="414.39682539682536" fill="#64B5F6" opacity="0.5" r="2"/>
<circle cx="452.8238199511268" cy="411.90476190476187" fill="#64B5F6" opacity="0.5" r="2"/>
<circle cx="460.1091141914301" cy="409.26984126984127" fill="#64B5F6" opacity="0.5" r="2"/>
<circle cx="467.7893942640389" cy="406.49206349206344" fill="#64B5F6" opacity="0.5" r="2"/>
<circle cx="475.86466016895326" cy="403.57142857142856" fill="#64B5F6" opacity="0.5" r="2"/>
<circle cx="484.3349119061732" cy="400.5079365079365" fill="#64B5F6" opacity="0.5" r="2"/>
<circle cx="493.2001494756988" cy="397.3015873015873" fill="#64B5F6" opacity="0.5" r="2"/>
<circle cx="502.46037287753006" cy="393.95238095238096" fill="#64B5F6" opacity="0.5" r="2"/>
<circle cx="512.1155821116669" cy="390.46031746031747" fill="#64B5F6" opacity="0.5" r="2"/>
<circle cx="522.1657771781092" cy="386.82539682539687" fill="#64B5F6" opacity="0.5" r="2"/>
<circle cx="532.6109580768573" cy="383.0476190476191" fill="#64B5F6" opacity="0.5" r="2"/>
<circle cx="543.451124807911" cy="379.12698412698415" fill="#64B5F6" opacity="0.5" r="2"/>
<circle cx="554.6862773712701" cy="383.1904761904762" fill="#64B5F6" opacity="0.5" r="2"/>
<circle cx="566.316415766935" cy="378.984126984127" fill="#64B5F6" opacity="0.5" r="2"/>
<circle cx="578.3415399949052" cy="374.6349206349206" fill="#64B5F6" opacity="0.5" r="2"/>
<circle cx="590.7616500551815" cy="370.1428571428571" fill="#64B5F6" opacity="0.5" r="2"/>
<circle cx="603.5767459477629" cy="365.5079365079365" fill="#64B5F6" opacity="0.5" r="2"/>
<circle cx="616.78682767265" cy="360.7301587301587" fill="#64B5F6" opacity="0.5" r="2"/>
<circle cx="630.3918952298428" cy="355.80952380952385" fill="#64B5F6" opacity="0.5" r="2"/>
<circle cx="644.3919486193412" cy="350.74603174603175" fill="#64B5F6" opacity="0.5" r="2"/>
<circle cx="658.7869878411451" cy="345.53968253968253" fill="#64B5F6" opacity="0.5" r="2"/>
<circle cx="673.5770128952547" cy="340.1904761904762" fill="#64B5F6" opacity="0.5" r="2"/>
<circle cx="688.7620237816699" cy="334.6984126984127" fill="#64B5F6" opacity="0.5" r="2"/>
<circle cx="704.3420205003907" cy="340.33333333333337" fill="#64B5F6" opacity="0.5" r="2"/>
<circle cx="720.317003051417" cy="334.55555555555554" fill="#64B5F6" opacity="0.5" r="2"/>
<circle cx="736.686971434749" cy="340.4761904761905" fill="#64B5F6" opacity="0.5" r="2"/>
<circle cx="753.4519256503867" cy="334.41269841269843" fill="#64B5F6" opacity="0.5" r="2"/>
<circle cx="770.6118656983298" cy="328.3174603174603" fill="#64B5F6" opacity="0.5" r="2"/>
<circle cx="788.1667915785785" cy="321.968253968254" fill="#64B5F6" opacity="0.5" r="2"/>
<circle cx="804.6684219060122" cy="316" fill="#64B5F6" opacity="0.5" r="2"/>
<circle cx="820.1167566806313" cy="321.58730158730157" fill="#64B5F6" opacity="0.5" r="2"/>
<circle cx="834.5117959024352" cy="321.58730158730157" fill="#64B5F6" opacity="0.5" r="2"/>
<circle cx="847.8535395714241" cy="321.58730158730157" fill="#64B5F6" opacity="0.5" r="2"/>
<circle cx="860.1419876875983" cy="321.58730158730157" fill="#64B5F6" opacity="0.5" r="2"/>
<circle cx="872.6181660315532" cy="321.58730158730157" fill="#64B5F6" opacity="0.5" r="2"/>
<circle cx="885.4893302078134" cy="321.58730158730157" fill="#64B5F6" opacity="0.5" r="2"/>
<circle cx="898.7554802163793" cy="321.58730158730157" fill="#64B5F6" opacity="0.5" r="2"/>
<circle cx="912.4166160572508" cy="321.58730158730157" fill="#64B5F6" opacity="0.5" r="2"/>
<circle cx="926.4727377304279" cy="321.58730158730157" fill="#64B5F6" opacity="0.5" r="2"/>
<circle cx="940.9238452359106" cy="321.58730158730157" fill="#64B5F6" opacity="0.5" r="2"/>
<circle cx="954.3216571885786" cy="321.58730158730157" fill="#64B5F6" opacity="0.5" r="2"/>
<circle cx="966.6661735884314" cy="321.58730158730157" fill="#64B5F6" opacity="0.5" r="2"/>
<circle cx="977.9573944354693" cy="321.58730158730157" fill="#64B5F6" opacity="0.5" r="2"/>
<circle cx="988.1953197296924" cy="321.58730158730157" fill="#64B5F6" opacity="0.5" r="2"/>
<circle cx="997.3799494711004" cy="321.58730158730157" fill="#64B5F6" opacity="0.5" r="2"/>
<circle cx="1005.5112836596937" cy="321.58730158730157" fill="#64B5F6" opacity="0.5" r="2"/>
<circle cx="1012.5893222954719" cy="321.58730158730157" fill="#64B5F6" opacity="0.5" r="2"/>
<circle cx="1018.614065378435" cy="321.58730158730157" fill="#64B5F6" opacity="0.5" r="2"/>
<circle cx="1023.5855129085835" cy="321.58730158730157" fill="#64B5F6" opacity="0.5" r="2"/>
<circle cx="1027.5036648859173" cy="321.58730158730157" fill="#64B5F6" opacity="0.5" r="2"/>
<circle cx="1030.3685213104359" cy="321.58730158730157" fill="#64B5F6" opacity="0.5" r="2"/>
<circle cx="1032.1800821821394" cy="321.58730158730157" fill="#64B5F6" opacity="0.5" r="2"/>
<circle cx="1032.9383475010281" cy="321.58730158730157" fill="#64B5F6" opacity="0.5" r="2"/>
<circle cx="1032.9383475010281" cy="321.58730158730157" fill="#64B5F6" opacity="0.5" r="2"/>
<circle cx="1033.3333333333337" cy="321.58730158730157" fill="#64B5F6" opacity="0.5" r="2"/>
<circle cx="1033.3333333333337" cy="321.58730158730157" fill="#64B5F6" opacity="0.5" r="2"/>
<circle cx="1033.3333333333337" cy="321.58730158730157" fill="#64B5F6" opacity="0.5" r="2"/>
<circle cx="1033.3333333333337" cy="321.58730158730157" fill="#64B5F6" opacity="0.5" r="2"/>
<circle cx="766.223279470346" cy="321.58730158730157" fill="none" r="8" stroke="#F44336" stroke-width="3"/>
<circle cx="804.6684219060122" cy="316" fill="none" r="8" stroke="#F44336" stroke-width="3"/>
<circle cx="766.223279470346" cy="321.58730158730157" fill="none" r="8" stroke="#F44336" stroke-width="3"/>
<circle cx="804.6684219060122" cy="316" fill="none" r="8" stroke="#F44336" stroke-width="3"/>
<circle cx="784.2105183970583" cy="321.58730158730157" fill="none" r="8" stroke="#F44336" stroke-width="3"/>
<circle cx="820.1167566806313" cy="321.58730158730157" fill="none" r="8" stroke="#F44336" stroke-width="3"/>
<circle cx="784.2105183970583" cy="321.58730158730157" fill="none" r="8" stroke="#F44336" stroke-width="3"/>
<circle cx="820.1167566806313" cy="321.58730158730157" fill="none" r="8" stroke="#F44336" stroke-width="3"/>
<circle cx="802.5927431560762" cy="321.58730158730157" fill="none" r="8" stroke="#F44336" stroke-width="3"/>
<circle cx="834.5117959024352" cy="321.58730158730157" fill="none" r="8" stroke="#F44336" stroke-width="3"/>
<circle cx="802.5927431560762" cy="321.58730158730157" fill="none" r="8" stroke="#F44336" stroke-width="3"/>
<circle cx="834.5117959024352" cy="321.58730158730157" fill="none" r="8" stroke="#F44336" stroke-width="3"/>
<circle cx="821.3699537473996" cy="321.58730158730157" fill="none" r="8" stroke="#F44336" stroke-width="3"/>
<circle cx="847.8535395714241" cy="321.58730158730157" fill="none" r="8" stroke="#F44336" stroke-width="3"/>
<circle cx="821.3699537473996" cy="321.58730158730157" fill="none" r="8" stroke="#F44336" stroke-width="3"/>
<circle cx="847.8535395714241" cy="321.58730158730157" fill="none" r="8" stroke="#F44336" stroke-width="3"/>
<circle cx="840.5421501710287" cy="321.58730158730157" fill="none" r="8" stroke="#F44336" stroke-width="3"/>
<circle cx="860.1419876875983" cy="321.58730158730157" fill="none" r="8" stroke="#F44336" stroke-width="3"/>
<circle cx="840.5421501710287" cy="321.58730158730157" fill="none" r="8" stroke="#F44336" stroke-width="3"/>
<circle cx="860.1419876875983" cy="321.58730158730157" fill="none" r="8" stroke="#F44336" stroke-width="3"/>
<circle cx="860.1093324269634" cy="321.58730158730157" fill="none" r="8" stroke="#F44336" stroke-width="3"/>
<circle cx="872.6181660315532" cy="321.58730158730157" fill="none" r="8" stroke="#F44336" stroke-width="3"/>
<circle cx="860.1093324269634" cy="321.58730158730157" fill="none" r="8" stroke="#F44336" stroke-width="3"/>
<circle cx="872.6181660315532" cy="321.58730158730157" fill="none" r="8" stroke="#F44336" stroke-width="3"/>
<circle cx="878.623219130083" cy="321.58730158730157" fill="none" r="8" stroke="#F44336" stroke-width="3"/>
<circle cx="885.4893302078134" cy="321.58730158730157" fill="none" r="8" stroke="#F44336" stroke-width="3"/>
<circle cx="878.623219130083" cy="321.58730158730157" fill="none" r="8" stroke="#F44336" stroke-width="3"/>
<circle cx="885.4893302078134" cy="321.58730158730157" fill="none" r="8" stroke="#F44336" stroke-width="3"/>
<circle cx="896.0838102803881" cy="321.58730158730157" fill="none" r="8" stroke="#F44336" stroke-width="3"/>
<circle cx="898.7554802163793" cy="321.58730158730157" fill="none" r="8" stroke="#F44336" stroke-width="3"/>
<circle cx="896.0838102803881" cy="321.58730158730157" fill="none" r="8" stroke="#F44336" stroke-width="3"/>
<circle cx="898.7554802163793" cy="321.58730158730157" fill="none" r="8" stroke="#F44336" stroke-width="3"/>
<circle cx="912.4911058778779" cy="321.58730158730157" fill="none" r="8" stroke="#F44336" stroke-width="3"/>
<circle cx="912.4166160572508" cy="321.58730158730157" fill="none" r="8" stroke="#F44336" stroke-width="3"/>
<circle cx="927.8451059225528" cy="321.58730158730157" fill="none" r="8" stroke="#F44336" stroke-width="3"/>
<circle cx="926.4727377304279" cy="321.58730158730157" fill="none" r="8" stroke="#F44336" stroke-width="3"/>
<circle cx="927.8451059225528" cy="321.58730158730157" fill="none" r="8" stroke="#F44336" stroke-width="3"/>
<circle cx="926.4727377304279" cy="321.58730158730157" fill="none" r="8" stroke="#F44336" stroke-width="3"/>
<circle cx="942.1458104144128" cy="321.58730158730157" fill="none" r="8" stroke="#F44336" stroke-width="3"/>
<circle cx="940.9238452359106" cy="321.58730158730157" fill="none" r="8" stroke="#F44336" stroke-width="3"/>
<circle cx="942.1458104144128" cy="321.58730158730157" fill="none" r="8" stroke="#F44336" stroke-width="3"/>
<circle cx="940.9238452359106" cy="321.58730158730157" fill="none" r="8" stroke="#F44336" stroke-width="3"/>
<circle cx="955.3932193534581" cy="321.58730158730157" fill="none" r="8" stroke="#F44336" stroke-width="3"/>
<circle cx="954.3216571885786" cy="321.58730158730157" fill="none" r="8" stroke="#F44336" stroke-width="3"/>
<circle cx="955.3932193534581" cy="321.58730158730157" fill="none" r="8" stroke="#F44336" stroke-width="3"/>
<circle cx="954.3216571885786" cy="321.58730158730157" fill="none" r="8" stroke="#F44336" stroke-width="3"/>
<circle cx="967.5873327396883" cy="321.58730158730157" fill="none" r="8" stroke="#F44336" stroke-width="3"/>
<circle cx="966.6661735884314" cy="321.58730158730157" fill="none" r="8" stroke="#F44336" stroke-width="3"/>
<circle cx="967.5873327396883" cy="321.58730158730157" fill="none" r="8" stroke="#F44336" stroke-width="3"/>
<circle cx="966.6661735884314" cy="321.58730158730157" fill="none" r="8" stroke="#F44336" stroke-width="3"/>
<circle cx="978.7281505731036" cy="321.58730158730157" fill="none" r="8" stroke="#F44336" stroke-width="3"/>
<circle cx="977.9573944354693" cy="321.58730158730157" fill="none" r="8" stroke="#F44336" stroke-width="3"/>
<circle cx="978.7281505731036" cy="321.58730158730157" fill="none" r="8" stroke="#F44336" stroke-width="3"/>
<circle cx="977.9573944354693" cy="321.58730158730157" fill="none" r="8" stroke="#F44336" stroke-width="3"/>
<circle cx="988.815672853704" cy="321.58730158730157" fill="none" r="8" stroke="#F44336" stroke-width="3"/>
<circle cx="988.1953197296924" cy="321.58730158730157" fill="none" r="8" stroke="#F44336" stroke-width="3"/>
<circle cx="988.815672853704" cy="321.58730158730157" fill="none" r="8" stroke="#F44336" stroke-width="3"/>
<circle cx="988.1953197296924" cy="321.58730158730157" fill="none" r="8" stroke="#F44336" stroke-width="3"/>
<circle cx="997.8498995814894" cy="321.58730158730157" fill="none" r="8" stroke="#F44336" stroke-width="3"/>
<circle cx="997.3799494711004" cy="321.58730158730157" fill="none" r="8" stroke="#F44336" stroke-width="3"/>
<circle cx="997.8498995814894" cy="321.58730158730157" fill="none" r="8" stroke="#F44336" stroke-width="3"/>
<circle cx="997.3799494711004" cy="321.58730158730157" fill="none" r="8" stroke="#F44336" stroke-width="3"/>
<circle cx="1005.8308307564599" cy="321.58730158730157" fill="none" r="8" stroke="#F44336" stroke-width="3"/>
<circle cx="1005.5112836596937" cy="321.58730158730157" fill="none" r="8" stroke="#F44336" stroke-width="3"/>
<circle cx="1005.8308307564599" cy="321.58730158730157" fill="none" r="8" stroke="#F44336" stroke-width="3"/>
<circle cx="1005.5112836596937" cy="321.58730158730157" fill="none" r="8" stroke="#F44336" stroke-width="3"/>
<circle cx="1012.7584663786155" cy="321.58730158730157" fill="none" r="8" stroke="#F44336" stroke-width="3"/>
<circle cx="1012.5893222954719" cy="321.58730158730157" fill="none" r="8" stroke="#F44336" stroke-width="3"/>
<circle cx="1012.7584663786155" cy="321.58730158730157" fill="none" r="8" stroke="#F44336" stroke-width="3"/>
<circle cx="1012.5893222954719" cy="321.58730158730157" fill="none" r="8" stroke="#F44336" stroke-width="3"/>
<circle cx="1018.632806447956" cy="321.58730158730157" fill="none" r="8" stroke="#F44336" stroke-width="3"/>
<circle cx="1018.614065378435" cy="321.58730158730157" fill="none" r="8" stroke="#F44336" stroke-width="3"/>
<circle cx="1018.632806447956" cy="321.58730158730157" fill="none" r="8" stroke="#F44336" stroke-width="3"/>
<circle cx="1018.614065378435" cy="321.58730158730157" fill="none" r="8" stroke="#F44336" stroke-width="3"/>
<circle cx="1023.4538509644817" cy="321.58730158730157" fill="none" r="8" stroke="#F44336" stroke-width="3"/>
<circle cx="1023.5855129085835" cy="321.58730158730157" fill="none" r="8" stroke="#F44336" stroke-width="3"/>
<circle cx="1027.2215999281925" cy="321.58730158730157" fill="none" r="8" stroke="#F44336" stroke-width="3"/>
<circle cx="1027.5036648859173" cy="321.58730158730157" fill="none" r="8" stroke="#F44336" stroke-width="3"/>
<circle cx="1029.9360533390882" cy="321.58730158730157" fill="none" r="8" stroke="#F44336" stroke-width="3"/>
<circle cx="1030.3685213104359" cy="321.58730158730157" fill="none" r="8" stroke="#F44336" stroke-width="3"/>
<circle cx="1031.5972111971696" cy="321.58730158730157" fill="none" r="8" stroke="#F44336" stroke-width="3"/>
<circle cx="1032.1800821821394" cy="321.58730158730157" fill="none" r="8" stroke="#F44336" stroke-width="3"/>
<circle cx="1032.2050735024354" cy="321.58730158730157" fill="none" r="8" stroke="#F44336" stroke-width="3"/>
<circle cx="1032.9383475010281" cy="321.58730158730157" fill="none" r="8" stroke="#F44336" stroke-width="3"/>
<circle cx="1032.2050735024354" cy="321.58730158730157" fill="none" r="8" stroke="#F44336" stroke-width="3"/>
<circle cx="1032.9383475010281" cy="321.58730158730157" fill="none" r="8" stroke="#F44336" stroke-width="3"/>
<circle cx="1032.2050735024354" cy="321.58730158730157" fill="none" r="8" stroke="#F44336" stroke-width="3"/>
<circle cx="1033.3333333333337" cy="321.58730158730157" fill="none" r="8" stroke="#F44336" stroke-width="3"/>
<circle cx="1032.2050735024354" cy="321.58730158730157" fill="none" r="8" stroke="#F44336" stroke-width="3"/>
<circle cx="1033.3333333333337" cy="321.58730158730157" fill="none" r="8" stroke="#F44336" stroke-width="3"/>
<circle cx="1032.2050735024354" cy="321.58730158730157" fill="none" r="8" stroke="#F44336" stroke-width="3"/>
<circle cx="1033.3333333333337" cy="321.58730158730157" fill="none" r="8" stroke="#F44336" stroke-width="3"/>
<circle cx="1032.2050735024354" cy="321.58730158730157" fill="none" r="8" stroke="#F44336" stroke-width="3"/>
<circle cx="1033.3333333333337" cy="321.58730158730157" fill="none" r="8" stroke="#F44336" stroke-width="3"/>
</g>
<g id="vehicles">
<rect fill="#4CAF50" height="6" rx="1" stroke="#333333" stroke-width="1" width="12" x="160.66666666666669" y="318.58730158730157"/>
<text fill="#333333" font-family="Arial, sans-serif" font-size="10" font-weight="bold" text-anchor="middle" x="166.66666666666669" y="313.58730158730157">
ego (t=0)
</text>
<rect fill="#4CAF50" height="6" opacity="0.8" rx="1" stroke="#333333" stroke-dasharray="3,3" stroke-width="2" width="12" x="1026.2050735024354" y="318.58730158730157"/>
<text fill="#333333" font-family="Arial, sans-serif" font-size="10" font-weight="bold" text-anchor="middle" x="1032.2050735024354" y="339.58730158730157">
ego (t=10.0)
</text>
<rect fill="#2196F3" height="6" rx="1" stroke="#333333" stroke-width="1" width="12" x="162.03903485879155" y="429.6984126984127"/>
<text fill="#333333" font-family="Arial, sans-serif" font-size="10" font-weight="bold" text-anchor="middle" x="168.03903485879155" y="424.6984126984127">
npc (t=0)
</text>
<rect fill="#2196F3" height="6" opacity="0.8" rx="1" stroke="#333333" stroke-dasharray="3,3" stroke-width="2" width="12" x="1027.3333333333337" y="318.58730158730157"/>
<text fill="#333333" font-family="Arial, sans-serif" font-size="10" font-weight="bold" text-anchor="middle" x="1033.3333333333337" y="339.58730158730157">
npc (t=10.0)
</text>
</g>
<g id="legend">
<rect fill="white" height="100" rx="3" stroke="#333333" stroke-width="1" width="150" x="970" y="420"/>
<text fill="#333333" font-family="Arial, sans-serif" font-size="12" font-weight="bold" text-anchor="middle" x="1045" y="435">
Legend
</text>
<rect fill="#4CAF50" height="8" width="12" x="980" y="445"/>
<text fill="#333333" font-family="Arial, sans-serif" font-size="10" text-anchor="start" x="1000" y="452">
Ego Vehicle
</text>
<rect fill="#2196F3" height="8" width="12" x="980" y="460"/>
<text fill="#333333" font-family="Arial, sans-serif" font-size="10" text-anchor="start" x="1000" y="467">
NPC Vehicle
</text>
<circle cx="986" cy="479" fill="#FF9800" r="4"/>
<text fill="#333333" font-family="Arial, sans-serif" font-size="10" text-anchor="start" x="1000" y="482">
Pedestrian
</text>
<circle cx="986" cy="498" fill="none" r="6" stroke="#F44336" stroke-width="2"/>
<text fill="#333333" font-family="Arial, sans-serif" font-size="10" text-anchor="start" x="1000" y="501">
Safety Violation
</text>
</g>
</svg>