<svg height="600" viewBox="0 0 1200 600" width="1200" xmlns="http://www.w3.org/2000/svg">
<rect fill="#F5F5F5" height="600" width="1200"/>
<g id="header">
<text fill="#333333" font-family="Arial, sans-serif" font-size="24" font-weight="bold" text-anchor="middle" x="600" y="30">
Scenario: cut_in_left
</text>
<text fill="#333333" font-family="Arial, sans-serif" font-size="12" text-anchor="middle" x="600" y="55">
ID: 2d54048d | Duration: 10.0s | Time Step: 0.10s
</text>
</g>
<g id="metrics">
<text fill="#333333" font-family="Arial, sans-serif" font-size="14" text-anchor="middle" x="600" y="80">
Min TTC: 0.06s | Min Distance: 0.00m | Max Accel: 3.00 m/s² | Max Decel: -8.00 m/s² | Constraints: 
</text>
<text fill="#F44336" font-family="Arial, sans-serif" font-size="14" font-weight="bold" text-anchor="start" x="920" y="80">
✗ VIOLATED
</text>
</g>
<rect fill="#2A2A2A" height="400" width="1040" x="80" y="120"/>
<g id="lane_markings">
<line opacity="0.6" stroke="#FFFFFF" stroke-dasharray="10,10" stroke-width="2" x1="80" x2="1120" y1="375.55555555555554" y2="375.55555555555554"/>
<line opacity="0.6" stroke="#FFFFFF" stroke-dasharray="10,10" stroke-width="2" x1="80" x2="1120" y1="264.44444444444446" y2="264.44444444444446"/>
<line stroke="#FFFFFF" stroke-width="3" x1="80" x2="1120" y1="153.33333333333334" y2="153.33333333333334"/>
<line stroke="#FFFFFF" stroke-width="3" x1="80" x2="1120" y1="486.6666666666667" y2="486.6666666666667"/>
</g>
<g id="trajectories">
<path d="M 166.66666666666669 321.58730158730157 L 186.16340892019315 321.58730158730157 L 204.5460516163753 321.58730158730157 L 221.8145947552131 321.58730158730157 L 237.96903833670655 321.58730158730157 L 253.00938236085554 321.58730158730157 L 266.9356268276602 321.58730158730157 L 279.7477717371205 321.58730158730157 L 291.44581708923624 321.58730158730157 L 302.0297628840079 321.58730158730157 L 311.4996091214351 321.58730158730157 L 319.8553558015178 321.58730158730157 L 327.09700292425623 321.58730158730157 L 333.22455048965026 321.58730158730157 L 338.2379984976999 321.58730158730157 L 342.1373469484052 321.58730158730157 L 344.92259584176617 321.58730158730157 L 348.1256320691313 321.58730158730157 L 351.7464556305006 321.58730158730157 L 355.78506652587384 321.58730158730157 L 360.2414647552514 321.58730158730157 L 365.11565031863296 321.58730158730157 L 370.4076232160187 321.58730158730157 L 374.5854965560602 321.58730158730157 L 377.6492703387572 321.58730158730157 L 379.5989445641099 321.58730158730157 L 380.434519232118 321.58730158730157 L 381.6878812341305 321.58730158730157 L 383.35903057014707 321.58730158730157 L 385.44796724016766 321.58730158730157 L 387.9546912441926 321.58730158730157 L 390.87920258222147 321.58730158730157 L 394.22150125425475 321.58730158730157 L 397.9815872602919 321.58730158730157 L 402.15946060033326 321.58730158730157 L 406.7551212743788 321.58730158730157 L 411.7685692824285 321.58730158730157 L 417.1998046244823 321.58730158730157 L 423.04882730054027 321.58730158730157 L 429.3156373106024 321.58730158730157 L 436.0002346546687 321.58730158730157 L 443.1026193327389 321.58730158730157 L 450.62279134481355 321.58730158730157 L 458.56075069089206 321.58730158730157 L 466.916497370975 321.58730158730157 L 475.69003138506184 321.58730158730157 L 484.8813527331529 321.58730158730157 L 494.49046141524826 321.58730158730157 L 504.5173574313476 321.58730158730157 L 514.9620407814512 321.58730158730157 L 525.8245114655588 321.58730158730157 L 537.1047694836703 321.58730158730157 L 548.8028148357863 321.58730158730157 L 560.9186475219065 321.58730158730157 L 573.4522675420305 321.58730158730157 L 586.4036748961589 321.58730158730157 L 599.7728695842912 321.58730158730157 L 613.559851606428 321.58730158730157 L 627.7646209625686 321.58730158730157 L 642.3871776527135 321.58730158730157 L 657.4275216768625 321.58730158730157 L 672.8856530350157 321.58730158730157 L 688.761571727173 321.58730158730157 L 705.0552777533345 321.58730158730157 L 721.7667711135001 321.58730158730157 L 738.8960518076699 321.58730158730157 L 756.4431198358436 321.58730158730157 L 774.4079751980217 321.58730158730157 L 792.7906178942037 321.58730158730157 L 811.5910479243902 321.58730158730157 L 830.8092652885805 321.58730158730157 L 850.445269986775 321.58730158730157 L 870.0741457741117 321.58730158730157 L 888.5889220041038 321.58730158730157 L 905.9895986767516 321.58730158730157 L 922.276175792055 321.58730158730157 L 937.4486533500141 321.58730158730157 L 951.5070313506288 321.58730158730157 L 964.4513097938992 321.58730158730157 L 976.2814886798253 321.58730158730157 L 986.9975680084066 321.58730158730157 L 996.5995477796437 321.58730158730157 L 1005.0874279935367 321.58730158730157 L 1012.4612086500852 321.58730158730157 L 1018.7208897492894 321.58730158730157 L 1023.8664712911492 321.58730158730157 L 1027.8979532756643 321.58730158730157 L 1030.8153357028355 321.58730158730157 L 1032.618618572662 321.58730158730157 L 1033.3078018851443 321.58730158730157 L 1033.3078018851443 321.58730158730157 L 1033.3078018851443 321.58730158730157 L 1033.3078018851443 321.58730158730157 L 1033.3078018851443 321.58730158730157 L 1033.3078018851443 321.58730158730157 L 1033.3078018851443 321.58730158730157 L 1033.3078018851443 321.58730158730157 L 1033.3078018851443 321.58730158730157 L 1033.3078018851443 321.58730158730157 L 1033.3078018851443 321.58730158730157 L 1033.3078018851443 321.58730158730157 " fill="none" opacity="0.7" stroke="#8BC34A" stroke-width="3"/>
<circle cx="166.66666666666669" cy="321.58730158730157" fill="#8BC34A" opacity="0.5" r="2"/>
<circle cx="186.16340892019315" cy="321.58730158730157" fill="#8BC34A" opacity="0.5" r="2"/>
<circle cx="204.5460516163753" cy="321.58730158730157" fill="#8BC34A" opacity="0.5" r="2"/>
<circle cx="221.8145947552131" cy="321.58730158730157" fill="#8BC34A" opacity="0.5" r="2"/>
<circle cx="237.96903833670655" cy="321.58730158730157" fill="#8BC34A" opacity="0.5" r="2"/>
<circle cx="253.00938236085554" cy="321.58730158730157" fill="#8BC34A" opacity="0.5" r="2"/>
<circle cx="266.9356268276602" cy="321.58730158730157" fill="#8BC34A" opacity="0.5" r="2"/>
<circle cx="279.7477717371205" cy="321.58730158730157" fill="#8BC34A" opacity="0.5" r="2"/>
<circle cx="291.44581708923624" cy="321.58730158730157" fill="#8BC34A" opacity="0.5" r="2"/>
<circle cx="302.0297628840079" cy="321.58730158730157" fill="#8BC34A" opacity="0.5" r="2"/>
<circle cx="311.4996091214351" cy="321.58730158730157" fill="#8BC34A" opacity="0.5" r="2"/>
<circle cx="319.8553558015178" cy="321.58730158730157" fill="#8BC34A" opacity="0.5" r="2"/>
<circle cx="327.09700292425623" cy="321.58730158730157" fill="#8BC34A" opacity="0.5" r="2"/>
<circle cx="333.22455048965026" cy="321.58730158730157" fill="#8BC34A" opacity="0.5" r="2"/>
<circle cx="338.2379984976999" cy="321.58730158730157" fill="#8BC34A" opacity="0.5" r="2"/>
<circle cx="342.1373469484052" cy="321.58730158730157" fill="#8BC34A" opacity="0.5" r="2"/>
<circle cx="344.92259584176617" cy="321.58730158730157" fill="#8BC34A" opacity="0.5" r="2"/>
<circle cx="348.1256320691313" cy="321.58730158730157" fill="#8BC34A" opacity="0.5" r="2"/>
<circle cx="351.7464556305006" cy="321.58730158730157" fill="#8BC34A" opacity="0.5" r="2"/>
<circle cx="355.78506652587384" cy="321.58730158730157" fill="#8BC34A" opacity="0.5" r="2"/>
<circle cx="360.2414647552514" cy="321.58730158730157" fill="#8BC34A" opacity="0.5" r="2"/>
<circle cx="365.11565031863296" cy="321.58730158730157" fill="#8BC34A" opacity="0.5" r="2"/>
<circle cx="370.4076232160187" cy="321.58730158730157" fill="#8BC34A" opacity="0.5" r="2"/>
<circle cx="374.5854965560602" cy="321.58730158730157" fill="#8BC34A" opacity="0.5" r="2"/>
<circle cx="377.6492703387572" cy="321.58730158730157" fill="#8BC34A" opacity="0.5" r="2"/>
<circle cx="379.5989445641099" cy="321.58730158730157" fill="#8BC34A" opacity="0.5" r="2"/>
<circle cx="380.434519232118" cy="321.58730158730157" fill="#8BC34A" opacity="0.5" r="2"/>
<circle cx="381.6878812341305" cy="321.58730158730157" fill="#8BC34A" opacity="0.5" r="2"/>
<circle cx="383.35903057014707" cy="321.58730158730157" fill="#8BC34A" opacity="0.5" r="2"/>
<circle cx="385.44796724016766" cy="321.58730158730157" fill="#8BC34A" opacity="0.5" r="2"/>
<circle cx="387.9546912441926" cy="321.58730158730157" fill="#8BC34A" opacity="0.5" r="2"/>
<circle cx="390.87920258222147" cy="321.58730158730157" fill="#8BC34A" opacity="0.5" r="2"/>
<circle cx="394.22150125425475" cy="321.58730158730157" fill="#8BC34A" opacity="0.5" r="2"/>
<circle cx="397.9815872602919" cy="321.58730158730157" fill="#8BC34A" opacity="0.5" r="2"/>
<circle cx="402.15946060033326" cy="321.58730158730157" fill="#8BC34A" opacity="0.5" r="2"/>
<circle cx="406.7551212743788" cy="321.58730158730157" fill="#8BC34A" opacity="0.5" r="2"/>
<circle cx="411.7685692824285" cy="321.58730158730157" fill="#8BC34A" opacity="0.5" r="2"/>
<circle cx="417.1998046244823" cy="321.58730158730157" fill="#8BC34A" opacity="0.5" r="2"/>
<circle cx="423.04882730054027" cy="321.58730158730157" fill="#8BC34A" opacity="0.5" r="2"/>
<circle cx="429.3156373106024" cy="321.58730158730157" fill="#8BC34A" opacity="0.5" r="2"/>
<circle cx="436.0002346546687" cy="321.58730158730157" fill="#8BC34A" opacity="0.5" r="2"/>
<circle cx="443.1026193327389" cy="321.58730158730157" fill="#8BC34A" opacity="0.5" r="2"/>
<circle cx="450.62279134481355" cy="321.58730158730157" fill="#8BC34A" opacity="0.5" r="2"/>
<circle cx="458.56075069089206" cy="321.58730158730157" fill="#8BC34A" opacity="0.5" r="2"/>
<circle cx="466.916497370975" cy="321.58730158730157" fill="#8BC34A" opacity="0.5" r="2"/>
<circle cx="475.69003138506184" cy="321.58730158730157" fill="#8BC34A" opacity="0.5" r="2"/>
<circle cx="484.8813527331529" cy="321.58730158730157" fill="#8BC34A" opacity="0.5" r="2"/>
<circle cx="494.49046141524826" cy="321.58730158730157" fill="#8BC34A" opacity="0.5" r="2"/>
<circle cx="504.5173574313476" cy="321.58730158730157" fill="#8BC34A" opacity="0.5" r="2"/>
<circle cx="514.9620407814512" cy="321.58730158730157" fill="#8BC34A" opacity="0.5" r="2"/>
<circle cx="525.8245114655588" cy="321.58730158730157" fill="#8BC34A" opacity="0.5" r="2"/>
<circle cx="537.1047694836703" cy="321.58730158730157" fill="#8BC34A" opacity="0.5" r="2"/>
<circle cx="548.8028148357863" cy="321.58730158730157" fill="#8BC34A" opacity="0.5" r="2"/>
<circle cx="560.9186475219065" cy="321.58730158730157" fill="#8BC34A" opacity="0.5" r="2"/>
<circle cx="573.4522675420305" cy="321.58730158730157" fill="#8BC34A" opacity="0.5" r="2"/>
<circle cx="586.4036748961589" cy="321.58730158730157" fill="#8BC34A" opacity="0.5" r="2"/>
<circle cx="599.7728695842912" cy="321.58730158730157" fill="#8BC34A" opacity="0.5" r="2"/>
<circle cx="613.559851606428" cy="321.58730158730157" fill="#8BC34A" opacity="0.5" r="2"/>
<circle cx="627.7646209625686" cy="321.58730158730157" fill="#8BC34A" opacity="0.5" r="2"/>
<circle cx="642.3871776527135" cy="321.58730158730157" fill="#8BC34A" opacity="0.5" r="2"/>
<circle cx="657.4275216768625" cy="321.58730158730157" fill="#8BC34A" opacity="0.5" r="2"/>
<circle cx="672.8856530350157" cy="321.58730158730157" fill="#8BC34A" opacity="0.5" r="2"/>
<circle cx="688.761571727173" cy="321.58730158730157" fill="#8BC34A" opacity="0.5" r="2"/>
<circle cx="705.0552777533345" cy="321.58730158730157" fill="#8BC34A" opacity="0.5" r="2"/>
<circle cx="721.7667711135001" cy="321.58730158730157" fill="#8BC34A" opacity="0.5" r="2"/>
<circle cx="738.8960518076699" cy="321.58730158730157" fill="#8BC34A" opacity="0.5" r="2"/>
<circle cx="756.4431198358436" cy="321.58730158730157" fill="#8BC34A" opacity="0.5" r="2"/>
<circle cx="774.4079751980217" cy="321.58730158730157" fill="#8BC34A" opacity="0.5" r="2"/>
<circle cx="792.7906178942037" cy="321.58730158730157" fill="#8BC34A" opacity="0.5" r="2"/>
<circle cx="811.5910479243902" cy="321.58730158730157" fill="#8BC34A" opacity="0.5" r="2"/>
<circle cx="830.8092652885805" cy="321.58730158730157" fill="#8BC34A" opacity="0.5" r="2"/>
<circle cx="850.445269986775" cy="321.58730158730157" fill="#8BC34A" opacity="0.5" r="2"/>
<circle cx="870.0741457741117" cy="321.58730158730157" fill="#8BC34A" opacity="0.5" r="2"/>
<circle cx="888.5889220041038" cy="321.58730158730157" fill="#8BC34A" opacity="0.5" r="2"/>
<circle cx="905.9895986767516" cy="321.58730158730157" fill="#8BC34A" opacity="0.5" r="2"/>
<circle cx="922.276175792055" cy="321.58730158730157" fill="#8BC34A" opacity="0.5" r="2"/>
<circle cx="937.4486533500141" cy="321.58730158730157" fill="#8BC34A" opacity="0.5" r="2"/>
<circle cx="951.5070313506288" cy="321.58730158730157" fill="#8BC34A" opacity="0.5" r="2"/>
<circle cx="964.4513097938992" cy="321.58730158730157" fill="#8BC34A" opacity="0.5" r="2"/>
<circle cx="976.2814886798253" cy="321.58730158730157" fill="#8BC34A" opacity="0.5" r="2"/>
<circle cx="986.9975680084066" cy="321.58730158730157" fill="#8BC34A" opacity="0.5" r="2"/>
<circle cx="996.5995477796437" cy="321.58730158730157" fill="#8BC34A" opacity="0.5" r="2"/>
<circle cx="1005.0874279935367" cy="321.58730158730157" fill="#8BC34A" opacity="0.5" r="2"/>
<circle cx="1012.4612086500852" cy="321.58730158730157" fill="#8BC34A" opacity="0.5" r="2"/>
<circle cx="1018.7208897492894" cy="321.58730158730157" fill="#8BC34A" opacity="0.5" r="2"/>
<circle cx="1023.8664712911492" cy="321.58730158730157" fill="#8BC34A" opacity="0.5" r="2"/>
<circle cx="1027.8979532756643" cy="321.58730158730157" fill="#8BC34A" opacity="0.5" r="2"/>
<circle cx="1030.8153357028355" cy="321.58730158730157" fill="#8BC34A" opacity="0.5" r="2"/>
<circle cx="1032.618618572662" cy="321.58730158730157" fill="#8BC34A" opacity="0.5" r="2"/>
<circle cx="1033.3078018851443" cy="321.58730158730157" fill="#8BC34A" opacity="0.5" r="2"/>
<circle cx="1033.3078018851443" cy="321.58730158730157" fill="#8BC34A" opacity="0.5" r="2"/>
<circle cx="1033.3078018851443" cy="321.58730158730157" fill="#8BC34A" opacity="0.5" r="2"/>
<circle cx="1033.3078018851443" cy="321.58730158730157" fill="#8BC34A" opacity="0.5" r="2"/>
<circle cx="1033.3078018851443" cy="321.58730158730157" fill="#8BC34A" opacity="0.5" r="2"/>
<circle cx="1033.3078018851443" cy="321.58730158730157" fill="#8BC34A" opacity="0.5" r="2"/>
<circle cx="1033.3078018851443" cy="321.58730158730157" fill="#8BC34A" opacity="0.5" r="2"/>
<circle cx="1033.3078018851443" cy="321.58730158730157" fill="#8BC34A" opacity="0.5" r="2"/>
<circle cx="1033.3078018851443" cy="321.58730158730157" fill="#8BC34A" opacity="0.5" r="2"/>
<circle cx="1033.3078018851443" cy="321.58730158730157" fill="#8BC34A" opacity="0.5" r="2"/>
<circle cx="1033.3078018851443" cy="321.58730158730157" fill="#8BC34A" opacity="0.5" r="2"/>
<circle cx="1033.3078018851443" cy="321.58730158730157" fill="#8BC34A" opacity="0.5" r="2"/>
<path d="M 167.09605920439316 432.6984126984127 L 189.3780503512806 432.6984126984127 L 210.54594194082364 432.6984126984127 L 230.59973397302238 432.6984126984127 L 249.5394264478767 432.6984126984127 L 267.3650193653867 432.6984126984127 L 284.07651272555233 432.6984126984127 L 299.6739065283734 432.6984126984127 L 314.1572007738503 432.6984126984127 L 327.5263954619827 432.6984126984127 L 339.7814905927709 432.6984126984127 L 350.9224861662146 432.6984126984127 L 360.9493821823139 432.6984126984127 L 369.8621786410689 432.6984126984127 L 377.6608755424796 432.6984126984127 L 384.3454728865456 432.6984126984127 L 389.91597067326757 432.6984126984127 L 394.37236890264495 432.6984126984127 L 397.71466757467823 432.6984126984127 L 399.9428666893669 432.6984126984127 L 401.0569662467113 432.6984126984127 L 401.24872842250426 432.6984126984127 L 401.85827793230123 432.6984126984127 L 402.88561477610233 432.6984126984127 L 404.3307389539078 432.6984126984127 L 406.19365046571727 432.6984126984127 L 408.47434931153083 432.6984126984127 L 411.17283549134856 432.6984126984127 L 414.2891090051705 432.6984126984127 L 417.8231698529965 432.6984126984127 L 421.7750180348267 432.6984126984127 L 426.1446535506609 432.6984126984127 L 430.9320764004994 432.6984126984127 L 436.1372865843419 432.6984126984127 L 441.7602841021887 432.6984126984127 L 447.80106895403947 432.6984126984127 L 454.2596411398946 432.6984126984127 L 461.13600065975373 429.182917611489 L 468.430147513617 426.68877551020404 L 476.14208170148436 424.051776266062 L 484.2718032233559 421.27191987906275 L 492.8193120792316 418.3492063492063 L 500.8036922401997 415.61904761904765 L 507.6739728438232 413.26984126984127 L 514.9620407814512 410.77777777777777 L 522.6678960530829 408.14285714285717 L 530.7915386587189 405.36507936507934 L 539.3329685983592 402.4444444444444 L 548.2921858720035 399.3809523809524 L 557.6691904796519 396.1746031746032 L 567.4639824213045 392.82539682539687 L 577.6765616969614 389.33333333333337 L 588.3069283066222 385.6984126984127 L 599.3550822502871 381.92063492063494 L 610.8210235279563 378 L 622.7047521396297 382.06349206349205 L 635.006268085307 377.85714285714283 L 647.7255713649887 373.5079365079365 L 660.8626619786744 369.015873015873 L 674.4175399263642 364.3809523809524 L 688.3902052080583 359.6031746031746 L 702.7806578237564 354.6825396825397 L 717.5888977734587 349.6190476190476 L 732.8149250571652 344.41269841269843 L 748.4587396748758 339.06349206349205 L 764.5203416265905 333.57142857142856 L 780.9997309123091 339.2063492063492 L 797.8969075320322 333.42857142857144 L 815.2118714857593 339.3492063492064 L 832.9446227734906 333.2857142857143 L 851.0951613952259 339.4920634920635 L 869.6634873509656 333.1428571428571 L 887.1177137493607 327.1746031746032 L 903.4578405904115 321.58730158730157 L 918.6838678741179 321.58730158730157 L 932.79579560048 321.58730158730157 L 945.7936237694977 321.58730158730157 L 957.6773523811709 321.58730158730157 L 968.4469814354999 321.58730158730157 L 978.8021389283167 321.58730158730157 L 988.0431968637893 321.58730158730157 L 996.1701552419172 321.58730158730157 L 1004.7149009540498 321.58730158730157 L 1012.1455471088377 321.58730158730157 L 1018.4620937062812 321.58730158730157 L 1023.6645407463801 321.58730158730157 L 1027.7528882291354 321.58730158730157 L 1030.7271361545454 321.58730158730157 L 1032.5872845226115 321.58730158730157 L 1033.3333333333335 321.58730158730157 L 1033.3333333333335 321.58730158730157 L 1033.3333333333335 321.58730158730157 L 1033.3333333333335 321.58730158730157 L 1033.3333333333335 321.58730158730157 L 1033.3333333333335 321.58730158730157 L 1033.3333333333335 321.58730158730157 L 1033.3333333333335 321.58730158730157 L 1033.3333333333335 321.58730158730157 L 1033.3333333333335 321.58730158730157 L 1033.3333333333335 321.58730158730157 L 1033.3333333333335 321.58730158730157 " fill="none" opacity="0.7" stroke="#64B5F6" stroke-width="3"/>
<circle cx="167.09605920439316" cy="432.6984126984127" fill="#64B5F6" opacity="0.5" r="2"/>
<circle cx="189.3780503512806" cy="432.6984126984127" fill="#64B5F6" opacity="0.5" r="2"/>
<circle cx="210.54594194082364" cy="432.6984126984127" fill="#64B5F6" opacity="0.5" r="2"/>
<circle cx="230.59973397302238" cy="432.6984126984127" fill="#64B5F6" opacity="0.5" r="2"/>
<circle cx="249.5394264478767" cy="432.6984126984127" fill="#64B5F6" opacity="0.5" r="2"/>
<circle cx="267.3650193653867" cy="432.6984126984127" fill="#64B5F6" opacity="0.5" r="2"/>
<circle cx="284.07651272555233" cy="432.6984126984127" fill="#64B5F6" opacity="0.5" r="2"/>
<circle cx="299.6739065283734" cy="432.6984126984127" fill="#64B5F6" opacity="0.5" r="2"/>
<circle cx="314.1572007738503" cy="432.6984126984127" fill="#64B5F6" opacity="0.5" r="2"/>
<circle cx="327.5263954619827" cy="432.6984126984127" fill="#64B5F6" opacity="0.5" r="2"/>
<circle cx="339.7814905927709" cy="432.6984126984127" fill="#64B5F6" opacity="0.5" r="2"/>
<circle cx="350.9224861662146" cy="432.6984126984127" fill="#64B5F6" opacity="0.5" r="2"/>
<circle cx="360.9493821823139" cy="432.6984126984127" fill="#64B5F6" opacity="0.5" r="2"/>
<circle cx="369.8621786410689" cy="432.6984126984127" fill="#64B5F6" opacity="0.5" r="2"/>
<circle cx="377.6608755424796" cy="432.6984126984127" fill="#64B5F6" opacity="0.5" r="2"/>
<circle cx="384.3454728865456" cy="432.6984126984127" fill="#64B5F6" opacity="0.5" r="2"/>
<circle cx="389.91597067326757" cy="432.6984126984127" fill="#64B5F6" opacity="0.5" r="2"/>
<circle cx="394.37236890264495" cy="432.6984126984127" fill="#64B5F6" opacity="0.5" r="2"/>
<circle cx="397.71466757467823" cy="432.6984126984127" fill="#64B5F6" opacity="0.5" r="2"/>
<circle cx="399.9428666893669" cy="432.6984126984127" fill="#64B5F6" opacity="0.5" r="2"/>
<circle cx="401.0569662467113" cy="432.6984126984127" fill="#64B5F6" opacity="0.5" r="2"/>
<circle cx="401.24872842250426" cy="432.6984126984127" fill="#64B5F6" opacity="0.5" r="2"/>
<circle cx="401.85827793230123" cy="432.6984126984127" fill="#64B5F6" opacity="0.5" r="2"/>
<circle cx="402.88561477610233" cy="432.6984126984127" fill="#64B5F6" opacity="0.5" r="2"/>
<circle cx="404.3307389539078" cy="432.6984126984127" fill="#64B5F6" opacity="0.5" r="2"/>
<circle cx="406.19365046571727" cy="432.6984126984127" fill="#64B5F6" opacity="0.5" r="2"/>
<circle cx="408.47434931153083" cy="432.6984126984127" fill="#64B5F6" opacity="0.5" r="2"/>
<circle cx="411.17283549134856" cy="432.6984126984127" fill="#64B5F6" opacity="0.5" r="2"/>
<circle cx="414.2891090051705" cy="432.6984126984127" fill="#64B5F6" opacity="0.5" r="2"/>
<circle cx="417.8231698529965" cy="432.6984126984127" fill="#64B5F6" opacity="0.5" r="2"/>
<circle cx="421.7750180348267" cy="432.6984126984127" fill="#64B5F6" opacity="0.5" r="2"/>
<circle cx="426.1446535506609" cy="432.6984126984127" fill="#64B5F6" opacity="0.5" r="2"/>
<circle cx="430.9320764004994" cy="432.6984126984127" fill="#64B5F6" opacity="0.5" r="2"/>
<circle cx="436.1372865843419" cy="432.6984126984127" fill="#64B5F6" opacity="0.5" r="2"/>
<circle cx="441.7602841021887" cy="432.6984126984127" fill="#64B5F6" opacity="0.5" r="2"/>
<circle cx="447.80106895403947" cy="432.6984126984127" fill="#64B5F6" opacity="0.5" r="2"/>
<circle cx="454.2596411398946" cy="432.6984126984127" fill="#64B5F6" opacity="0.5" r="2"/>
<circle cx="461.13600065975373" cy="429.182917611489" fill="#64B5F6" opacity="0.5" r="2"/>
<circle cx="468.430147513617" cy="426.68877551020404" fill="#64B5F6" opacity="0.5" r="2"/>
<circle cx="476.14208170148436" cy="424.051776266062" fill="#64B5F6" opacity="0.5" r="2"/>
<circle cx="484.2718032233559" cy="421.27191987906275" fill="#64B5F6" opacity="0.5" r="2"/>
<circle cx="492.8193120792316" cy="418.3492063492063" fill="#64B5F6" opacity="0.5" r="2"/>
<circle cx="500.8036922401997" cy="415.61904761904765" fill="#64B5F6" opacity="0.5" r="2"/>
<circle cx="507.6739728438232" cy="413.26984126984127" fill="#64B5F6" opacity="0.5" r="2"/>
<circle cx="514.9620407814512" cy="410.77777777777777" fill="#64B5F6" opacity="0.5" r="2"/>
<circle cx="522.6678960530829" cy="408.14285714285717" fill="#64B5F6" opacity="0.5" r="2"/>
<circle cx="530.7915386587189" cy="405.36507936507934" fill="#64B5F6" opacity="0.5" r="2"/>
<circle cx="539.3329685983592" cy="402.4444444444444" fill="#64B5F6" opacity="0.5" r="2"/>
<circle cx="548.2921858720035" cy="399.3809523809524" fill="#64B5F6" opacity="0.5" r="2"/>
<circle cx="557.6691904796519" cy="396.1746031746032" fill="#64B5F6" opacity="0.5" r="2"/>
<circle cx="567.4639824213045" cy="392.82539682539687" fill="#64B5F6" opacity="0.5" r="2"/>
<circle cx="577.6765616969614" cy="389.33333333333337" fill="#64B5F6" opacity="0.5" r="2"/>
<circle cx="588.3069283066222" cy="385.6984126984127" fill="#64B5F6" opacity="0.5" r="2"/>
<circle cx="599.3550822502871" cy="381.92063492063494" fill="#64B5F6" opacity="0.5" r="2"/>
<circle cx="610.8210235279563" cy="378" fill="#64B5F6" opacity="0.5" r="2"/>
<circle cx="622.7047521396297" cy="382.06349206349205" fill="#64B5F6" opacity="0.5" r="2"/>
<circle cx="635.006268085307" cy="377.85714285714283" fill="#64B5F6" opacity="0.5" r="2"/>
<circle cx="647.7255713649887" cy="373.5079365079365" fill="#64B5F6" opacity="0.5" r="2"/>
<circle cx="660.8626619786744" cy="369.015873015873" fill="#64B5F6" opacity="0.5" r="2"/>
<circle cx="674.4175399263642" cy="364.3809523809524" fill="#64B5F6" opacity="0.5" r="2"/>
<circle cx="688.3902052080583" cy="359.6031746031746" fill="#64B5F6" opacity="0.5" r="2"/>
<circle cx="702.7806578237564" cy="354.6825396825397" fill="#64B5F6" opacity="0.5" r="2"/>
<circle cx="717.5888977734587" cy="349.6190476190476" fill="#64B5F6" opacity="0.5" r="2"/>
<circle cx="732.8149250571652" cy="344.41269841269843" fill="#64B5F6" opacity="0.5" r="2"/>
<circle cx="748.4587396748758" cy="339.06349206349205" fill="#64B5F6" opacity="0.5" r="2"/>
<circle cx="764.5203416265905" cy="333.57142857142856" fill="#64B5F6" opacity="0.5" r="2"/>
<circle cx="780.9997309123091" cy="339.2063492063492" fill="#64B5F6" opacity="0.5" r="2"/>
<circle cx="797.8969075320322" cy="333.42857142857144" fill="#64B5F6" opacity="0.5" r="2"/>
<circle cx="815.2118714857593" cy="339.3492063492064" fill="#64B5F6" opacity="0.5" r="2"/>
<circle cx="832.9446227734906" cy="333.2857142857143" fill="#64B5F6" opacity="0.5" r="2"/>
<circle cx="851.0951613952259" cy="339.4920634920635" fill="#64B5F6" opacity="0.5" r="2"/>
<circle cx="869.6634873509656" cy="333.1428571428571" fill="#64B5F6" opacity="0.5" r="2"/>
<circle cx="887.1177137493607" cy="327.1746031746032" fill="#64B5F6" opacity="0.5" r="2"/>
<circle cx="903.4578405904115" cy="321.58730158730157" fill="#64B5F6" opacity="0.5" r="2"/>
<circle cx="918.6838678741179" cy="321.58730158730157" fill="#64B5F6" opacity="0.5" r="2"/>
<circle cx="932.79579560048" cy="321.58730158730157" fill="#64B5F6" opacity="0.5" r="2"/>
<circle cx="945.7936237694977" cy="321.58730158730157" fill="#64B5F6" opacity="0.5" r="2"/>
<circle cx="957.6773523811709" cy="321.58730158730157" fill="#64B5F6" opacity="0.5" r="2"/>
<circle cx="968.4469814354999" cy="321.58730158730157" fill="#64B5F6" opacity="0.5" r="2"/>
<circle cx="978.8021389283167" cy="321.58730158730157" fill="#64B5F6" opacity="0.5" r="2"/>
<circle cx="988.0431968637893" cy="321.58730158730157" fill="#64B5F6" opacity="0.5" r="2"/>
<circle cx="996.1701552419172" cy="321.58730158730157" fill="#64B5F6" opacity="0.5" r="2"/>
<circle cx="1004.7149009540498" cy="321.58730158730157" fill="#64B5F6" opacity="0.5" r="2"/>
<circle cx="1012.1455471088377" cy="321.58730158730157" fill="#64B5F6" opacity="0.5" r="2"/>
<circle cx="1018.4620937062812" cy="321.58730158730157" fill="#64B5F6" opacity="0.5" r="2"/>
<circle cx="1023.6645407463801" cy="321.58730158730157" fill="#64B5F6" opacity="0.5" r="2"/>
<circle cx="1027.7528882291354" cy="321.58730158730157" fill="#64B5F6" opacity="0.5" r="2"/>
<circle cx="1030.7271361545454" cy="321.58730158730157" fill="#64B5F6" opacity="0.5" r="2"/>
<circle cx="1032.5872845226115" cy="321.58730158730157" fill="#64B5F6" opacity="0.5" r="2"/>
<circle cx="1033.3333333333335" cy="321.58730158730157" fill="#64B5F6" opacity="0.5" r="2"/>
<circle cx="1033.3333333333335" cy="321.58730158730157" fill="#64B5F6" opacity="0.5" r="2"/>
<circle cx="1033.3333333333335" cy="321.58730158730157" fill="#64B5F6" opacity="0.5" r="2"/>
<circle cx="1033.3333333333335" cy="321.58730158730157" fill="#64B5F6" opacity="0.5" r="2"/>
<circle cx="1033.3333333333335" cy="321.58730158730157" fill="#64B5F6" opacity="0.5" r="2"/>
<circle cx="1033.3333333333335" cy="321.58730158730157" fill="#64B5F6" opacity="0.5" r="2"/>
<circle cx="1033.3333333333335" cy="321.58730158730157" fill="#64B5F6" opacity="0.5" r="2"/>
<circle cx="1033.3333333333335" cy="321.58730158730157" fill="#64B5F6" opacity="0.5" r="2"/>
<circle cx="1033.3333333333335" cy="321.58730158730157" fill="#64B5F6" opacity="0.5" r="2"/>
<circle cx="1033.3333333333335" cy="321.58730158730157" fill="#64B5F6" opacity="0.5" r="2"/>
<circle cx="1033.3333333333335" cy="321.58730158730157" fill="#64B5F6" opacity="0.5" r="2"/>
<circle cx="1033.3333333333335" cy="321.58730158730157" fill="#64B5F6" opacity="0.5" r="2"/>
<circle cx="870.0741457741117" cy="321.58730158730157" fill="none" r="8" stroke="#F44336" stroke-width="3"/>
<circle cx="887.1177137493607" cy="327.1746031746032" fill="none" r="8" stroke="#F44336" stroke-width="3"/>
<circle cx="870.0741457741117" cy="321.58730158730157" fill="none" r="8" stroke="#F44336" stroke-width="3"/>
<circle cx="887.1177137493607" cy="327.1746031746032" fill="none" r="8" stroke="#F44336" stroke-width="3"/>
<circle cx="888.5889220041038" cy="321.58730158730157" fill="none" r="8" stroke="#F44336" stroke-width="3"/>
<circle cx="903.4578405904115" cy="321.58730158730157" fill="none" r="8" stroke="#F44336" stroke-width="3"/>
<circle cx="888.5889220041038" cy="321.58730158730157" fill="none" r="8" stroke="#F44336" stroke-width="3"/>
<circle cx="903.4578405904115" cy="321.58730158730157" fill="none" r="8" stroke="#F44336" stroke-width="3"/>
<circle cx="905.9895986767516" cy="321.58730158730157" fill="none" r="8" stroke="#F44336" stroke-width="3"/>
<circle cx="918.6838678741179" cy="321.58730158730157" fill="none" r="8" stroke="#F44336" stroke-width="3"/>
<circle cx="905.9895986767516" cy="321.58730158730157" fill="none" r="8" stroke="#F44336" stroke-width="3"/>
<circle cx="918.6838678741179" cy="321.58730158730157" fill="none" r="8" stroke="#F44336" stroke-width="3"/>
<circle cx="922.276175792055" cy="321.58730158730157" fill="none" r="8" stroke="#F44336" stroke-width="3"/>
<circle cx="932.79579560048" cy="321.58730158730157" fill="none" r="8" stroke="#F44336" stroke-width="3"/>
<circle cx="922.276175792055" cy="321.58730158730157" fill="none" r="8" stroke="#F44336" stroke-width="3"/>
<circle cx="932.79579560048" cy="321.58730158730157" fill="none" r="8" stroke="#F44336" stroke-width="3"/>
<circle cx="937.4486533500141" cy="321.58730158730157" fill="none" r="8" stroke="#F44336" stroke-width="3"/>
<circle cx="945.7936237694977" cy="321.58730158730157" fill="none" r="8" stroke="#F44336" stroke-width="3"/>
<circle cx="937.4486533500141" cy="321.58730158730157" fill="none" r="8" stroke="#F44336" stroke-width="3"/>
<circle cx="945.7936237694977" cy="321.58730158730157" fill="none" r="8" stroke="#F44336" stroke-width="3"/>
<circle cx="951.5070313506288" cy="321.58730158730157" fill="none" r="8" stroke="#F44336" stroke-width="3"/>
<circle cx="957.6773523811709" cy="321.58730158730157" fill="none" r="8" stroke="#F44336" stroke-width="3"/>
<circle cx="951.5070313506288" cy="321.58730158730157" fill="none" r="8" stroke="#F44336" stroke-width="3"/>
<circle cx="957.6773523811709" cy="321.58730158730157" fill="none" r="8" stroke="#F44336" stroke-width="3"/>
<circle cx="964.4513097938992" cy="321.58730158730157" fill="none" r="8" stroke="#F44336" stroke-width="3"/>
<circle cx="968.4469814354999" cy="321.58730158730157" fill="none" r="8" stroke="#F44336" stroke-width="3"/>
<circle cx="964.4513097938992" cy="321.58730158730157" fill="none" r="8" stroke="#F44336" stroke-width="3"/>
<circle cx="968.4469814354999" cy="321.58730158730157" fill="none" r="8" stroke="#F44336" stroke-width="3"/>
<circle cx="976.2814886798253" cy="321.58730158730157" fill="none" r="8" stroke="#F44336" stroke-width="3"/>
<circle cx="978.8021389283167" cy="321.58730158730157" fill="none" r="8" stroke="#F44336" stroke-width="3"/>
<circle cx="976.2814886798253" cy="321.58730158730157" fill="none" r="8" stroke="#F44336" stroke-width="3"/>
<circle cx="978.8021389283167" cy="321.58730158730157" fill="none" r="8" stroke="#F44336" stroke-width="3"/>
<circle cx="986.9975680084066" cy="321.58730158730157" fill="none" r="8" stroke="#F44336" stroke-width="3"/>
<circle cx="988.0431968637893" cy="321.58730158730157" fill="none" r="8" stroke="#F44336" stroke-width="3"/>
<circle cx="986.9975680084066" cy="321.58730158730157" fill="none" r="8" stroke="#F44336" stroke-width="3"/>
<circle cx="988.0431968637893" cy="321.58730158730157" fill="none" r="8" stroke="#F44336" stroke-width="3"/>
<circle cx="996.5995477796437" cy="321.58730158730157" fill="none" r="8" stroke="#F44336" stroke-width="3"/>
<circle cx="996.1701552419172" cy="321.58730158730157" fill="none" r="8" stroke="#F44336" stroke-width="3"/>
<circle cx="996.5995477796437" cy="321.58730158730157" fill="none" r="8" stroke="#F44336" stroke-width="3"/>
<circle cx="996.1701552419172" cy="321.58730158730157" fill="none" r="8" stroke="#F44336" stroke-width="3"/>
<circle cx="1005.0874279935367" cy="321.58730158730157" fill="none" r="8" stroke="#F44336" stroke-width="3"/>
<circle cx="1004.7149009540498" cy="321.58730158730157" fill="none" r="8" stroke="#F44336" stroke-width="3"/>
<circle cx="1005.0874279935367" cy="321.58730158730157" fill="none" r="8" stroke="#F44336" stroke-width="3"/>
<circle cx="1004.7149009540498" cy="321.58730158730157" fill="none" r="8" stroke="#F44336" stroke-width="3"/>
<circle cx="1012.4612086500852" cy="321.58730158730157" fill="none" r="8" stroke="#F44336" stroke-width="3"/>
<circle cx="1012.1455471088377" cy="321.58730158730157" fill="none" r="8" stroke="#F44336" stroke-width="3"/>
<circle cx="1012.4612086500852" cy="321.58730158730157" fill="none" r="8" stroke="#F44336" stroke-width="3"/>
<circle cx="1012.1455471088377" cy="321.58730158730157" fill="none" r="8" stroke="#F44336" stroke-width="3"/>
<circle cx="1018.7208897492894" cy="321.58730158730157" fill="none" r="8" stroke="#F44336" stroke-width="3"/>
<circle cx="1018.4620937062812" cy="321.58730158730157" fill="none" r="8" stroke="#F44336" stroke-width="3"/>
<circle cx="1018.7208897492894" cy="321.58730158730157" fill="none" r="8" stroke="#F44336" stroke-width="3"/>
<circle cx="1018.4620937062812" cy="321.58730158730157" fill="none" r="8" stroke="#F44336" stroke-width="3"/>
<circle cx="1023.8664712911492" cy="321.58730158730157" fill="none" r="8" stroke="#F44336" stroke-width="3"/>
<circle cx="1023.6645407463801" cy="321.58730158730157" fill="none" r="8" stroke="#F44336" stroke-width="3"/>
<circle cx="1023.8664712911492" cy="321.58730158730157" fill="none" r="8" stroke="#F44336" stroke-width="3"/>
<circle cx="1023.6645407463801" cy="321.58730158730157" fill="none" r="8" stroke="#F44336" stroke-width="3"/>
<circle cx="1027.8979532756643" cy="321.58730158730157" fill="none" r="8" stroke="#F44336" stroke-width="3"/>
<circle cx="1027.7528882291354" cy="321.58730158730157" fill="none" r="8" stroke="#F44336" stroke-width="3"/>
<circle cx="1027.8979532756643" cy="321.58730158730157" fill="none" r="8" stroke="#F44336" stroke-width="3"/>
<circle cx="1027.7528882291354" cy="321.58730158730157" fill="none" r="8" stroke="#F44336" stroke-width="3"/>
<circle cx="1030.8153357028355" cy="321.58730158730157" fill="none" r="8" stroke="#F44336" stroke-width="3"/>
<circle cx="1030.7271361545454" cy="321.58730158730157" fill="none" r="8" stroke="#F44336" stroke-width="3"/>
<circle cx="1030.8153357028355" cy="321.58730158730157" fill="none" r="8" stroke="#F44336" stroke-width="3"/>
<circle cx="1030.7271361545454" cy="321.58730158730157" fill="none" r="8" stroke="#F44336" stroke-width="3"/>
<circle cx="1032.618618572662" cy="321.58730158730157" fill="none" r="8" stroke="#F44336" stroke-width="3"/>
<circle cx="1032.5872845226115" cy="321.58730158730157" fill="none" r="8" stroke="#F44336" stroke-width="3"/>
<circle cx="1032.618618572662" cy="321.58730158730157" fill="none" r="8" stroke="#F44336" stroke-width="3"/>
<circle cx="1032.5872845226115" cy="321.58730158730157" fill="none" r="8" stroke="#F44336" stroke-width="3"/>
<circle cx="1033.3078018851443" cy="321.58730158730157" fill="none" r="8" stroke="#F44336" stroke-width="3"/>
<circle cx="1033.3333333333335" cy="321.58730158730157" fill="none" r="8" stroke="#F44336" stroke-width="3"/>
<circle cx="1033.3078018851443" cy="321.58730158730157" fill="none" r="8" stroke="#F44336" stroke-width="3"/>
<circle cx="1033.3333333333335" cy="321.58730158730157" fill="none" r="8" stroke="#F44336" stroke-width="3"/>
<circle cx="1033.3078018851443" cy="321.58730158730157" fill="none" r="8" stroke="#F44336" stroke-width="3"/>
<circle cx="1033.3333333333335" cy="321.58730158730157" fill="none" r="8" stroke="#F44336" stroke-width="3"/>
<circle cx="1033.3078018851443" cy="321.58730158730157" fill="none" r="8" stroke="#F44336" stroke-width="3"/>
<circle cx="1033.3333333333335" cy="321.58730158730157" fill="none" r="8" stroke="#F44336" stroke-width="3"/>
<circle cx="1033.3078018851443" cy="321.58730158730157" fill="none" r="8" stroke="#F44336" stroke-width="3"/>
<circle cx="1033.3333333333335" cy="321.58730158730157" fill="none" r="8" stroke="#F44336" stroke-width="3"/>
<circle cx="1033.3078018851443" cy="321.58730158730157" fill="none" r="8" stroke="#F44336" stroke-width="3"/>
<circle cx="1033.3333333333335" cy="321.58730158730157" fill="none" r="8" stroke="#F44336" stroke-width="3"/>
<circle cx="1033.3078018851443" cy="321.58730158730157" fill="none" r="8" stroke="#F44336" stroke-width="3"/>
<circle cx="1033.3333333333335" cy="321.58730158730157" fill="none" r="8" stroke="#F44336" stroke-width="3"/>
<circle cx="1033.3078018851443" cy="321.58730158730157" fill="none" r="8" stroke="#F44336" stroke-width="3"/>
<circle cx="1033.3333333333335" cy="321.58730158730157" fill="none" r="8" stroke="#F44336" stroke-width="3"/>
<circle cx="1033.3078018851443" cy="321.58730158730157" fill="none" r="8" stroke="#F44336" stroke-width="3"/>
<circle cx="1033.3333333333335" cy="321.58730158730157" fill="none" r="8" stroke="#F44336" stroke-width="3"/>
<circle cx="1033.3078018851443" cy="321.58730158730157" fill="none" r="8" stroke="#F44336" stroke-width="3"/>
<circle cx="1033.3333333333335" cy="321.58730158730157" fill="none" r="8" stroke="#F44336" stroke-width="3"/>
<circle cx="1033.3078018851443" cy="321.58730158730157" fill="none" r="8" stroke="#F44336" stroke-width="3"/>
<circle cx="1033.3333333333335" cy="321.58730158730157" fill="none" r="8" stroke="#F44336" stroke-width="3"/>
<circle cx="1033.3078018851443" cy="321.58730158730157" fill="none" r="8" stroke="#F44336" stroke-width="3"/>
<circle cx="1033.3333333333335" cy="321.58730158730157" fill="none" r="8" stroke="#F44336" stroke-width="3"/>
</g>
<g id="vehicles">
<rect fill="#4CAF50" height="6" rx="1" stroke="#333333" stroke-width="1" width="12" x="160.66666666666669" y="318.58730158730157"/>
<text fill="#333333" font-family="Arial, sans-serif" font-size="10" font-weight="bold" text-anchor="middle" x="166.66666666666669" y="313.58730158730157">
ego (t=0)
</text>
<rect fill="#4CAF50" height="6" opacity="0.8" rx="1" stroke="#333333" stroke-dasharray="3,3" stroke-width="2" width="12" x="1027.3078018851443" y="318.58730158730157"/>
<text fill="#333333" font-family="Arial, sans-serif" font-size="10" font-weight="bold" text-anchor="middle" x="1033.3078018851443" y="339.58730158730157">
ego (t=10.0)
</text>
<rect fill="#2196F3" height="6" rx="1" stroke="#333333" stroke-width="1" width="12" x="161.09605920439316" y="429.6984126984127"/>
<text fill="#333333" font-family="Arial, sans-serif" font-size="10" font-weight="bold" text-anchor="middle" x="167.09605920439316" y="424.6984126984127">
npc (t=0)
</text>
<rect fill="#2196F3" height="6" opacity="0.8" rx="1" stroke="#333333" stroke-dasharray="3,3" stroke-width="2" width="12" x="1027.3333333333335" y="318.58730158730157"/>
<text fill="#333333" font-family="Arial, sans-serif" font-size="10" font-weight="bold" text-anchor="middle" x="1033.3333333333335" y="339.58730158730157">
npc (t=10.0)
</text>
</g>
<g id="legend">
<rect fill="white" height="100" rx="3" stroke="#333333" stroke-width="1" width="150" x="970" y="420"/>
<text fill="#333333" font-family="Arial, sans-serif" font-size="12" font-weight="bold" text-anchor="middle" x="1045" y="435">
Legend
</text>
<rect fill="#4CAF50" height="8" width="12" x="980" y="445"/>
<text fill="#333333" font-family="Arial, sans-serif" font-size="10" text-anchor="start" x="1000" y="452">
Ego Vehicle
</text>
<rect fill="#2196F3" height="8" width="12" x="980" y="460"/>
<text fill="#333333" font-family="Arial, sans-serif" font-size="10" text-anchor="start" x="1000" y="467">
NPC Vehicle
</text>
<circle cx="986" cy="479" fill="#FF9800" r="4"/>
<text fill="#333333" font-family="Arial, sans-serif" font-size="10" text-anchor="start" x="1000" y="482">
Pedestrian
</text>
<circle cx="986" cy="498" fill="none" r="6" stroke="#F44336" stroke-width="2"/>
<text fill="#333333" font-family="Arial, sans-serif" font-size="10" text-anchor="start" x="1000" y="501">
Safety Violation
</text>
</g>
</svg>