<svg height="600" viewBox="0 0 1200 600" width="1200" xmlns="http://www.w3.org/2000/svg">
<rect fill="#F5F5F5" height="600" width="1200"/>
<g id="header">
<text fill="#333333" font-family="Arial, sans-serif" font-size="24" font-weight="bold" text-anchor="middle" x="600" y="30">
Scenario: overtake_left
</text>
<text fill="#333333" font-family="Arial, sans-serif" font-size="12" text-anchor="middle" x="600" y="55">
ID: c4cea0d1 | Duration: 12.0s | Time Step: 0.50s
</text>
</g>
<g id="metrics">
<text fill="#333333" font-family="Arial, sans-serif" font-size="14" text-anchor="middle" x="600" y="80">
Min TTC: 2.50s | Min Distance: 9.00m | Max Accel: 4.00 m/s² | Max Decel: -3.00 m/s² | Constraints: 
</text>
<text fill="#4CAF50" font-family="Arial, sans-serif" font-size="14" font-weight="bold" text-anchor="start" x="920" y="80">
✓ SAFE
</text>
</g>
<rect fill="#2A2A2A" height="400" width="1040" x="80" y="120"/>
<g id="lane_markings">
<line opacity="0.6" stroke="#FFFFFF" stroke-dasharray="10,10" stroke-width="2" x1="80" x2="1120" y1="375.55555555555554" y2="375.55555555555554"/>
<line opacity="0.6" stroke="#FFFFFF" stroke-dasharray="10,10" stroke-width="2" x1="80" x2="1120" y1="264.44444444444446" y2="264.44444444444446"/>
<line stroke="#FFFFFF" stroke-width="3" x1="80" x2="1120" y1="153.33333333333334" y2="153.33333333333334"/>
<line stroke="#FFFFFF" stroke-width="3" x1="80" x2="1120" y1="486.6666666666667" y2="486.6666666666667"/>
</g>
<g id="trajectories">
<path d="M 231.56086091517452 321.58730158730157 L 262.98516910833786 321.58730158730157 L 295.491047205643 321.58730158730157 L 329.0784952070899 321.58730158730157 L 363.7475131126785 321.58730158730157 L 396.2533912099837 321.58730158730157 L 427.84816422499546 321.58730158730157 L 460.52450714414897 321.58730158730157 L 494.28241996744435 321.58730158730157 L 529.1219026948816 321.58730158730157 L 562.4742268041236 321.58730158730157 L 593.6634111050823 321.58730158730157 L 622.6894555977573 321.58730158730157 L 649.5523602821487 321.58730158730157 L 674.2521251582565 321.58730158730157 L 696.7887502260807 321.58730158730157 L 717.1622354856213 321.58730158730157 L 735.3725809368783 321.58730158730157 L 754.664496292277 321.58730158730157 L 775.0379815518177 321.58730158730157 L 796.4930367155 321.58730158730157 L 819.0296617833243 321.58730158730157 L 842.6478567552903 321.58730158730157 L 867.347621631398 321.58730158730157 L 893.1289564116477 321.58730158730157 " fill="none" opacity="0.7" stroke="#8BC34A" stroke-width="3"/>
<circle cx="231.56086091517452" cy="321.58730158730157" fill="#8BC34A" opacity="0.5" r="2"/>
<circle cx="262.98516910833786" cy="321.58730158730157" fill="#8BC34A" opacity="0.5" r="2"/>
<circle cx="295.491047205643" cy="321.58730158730157" fill="#8BC34A" opacity="0.5" r="2"/>
<circle cx="329.0784952070899" cy="321.58730158730157" fill="#8BC34A" opacity="0.5" r="2"/>
<circle cx="363.7475131126785" cy="321.58730158730157" fill="#8BC34A" opacity="0.5" r="2"/>
<circle cx="396.2533912099837" cy="321.58730158730157" fill="#8BC34A" opacity="0.5" r="2"/>
<circle cx="427.84816422499546" cy="321.58730158730157" fill="#8BC34A" opacity="0.5" r="2"/>
<circle cx="460.52450714414897" cy="321.58730158730157" fill="#8BC34A" opacity="0.5" r="2"/>
<circle cx="494.28241996744435" cy="321.58730158730157" fill="#8BC34A" opacity="0.5" r="2"/>
<circle cx="529.1219026948816" cy="321.58730158730157" fill="#8BC34A" opacity="0.5" r="2"/>
<circle cx="562.4742268041236" cy="321.58730158730157" fill="#8BC34A" opacity="0.5" r="2"/>
<circle cx="593.6634111050823" cy="321.58730158730157" fill="#8BC34A" opacity="0.5" r="2"/>
<circle cx="622.6894555977573" cy="321.58730158730157" fill="#8BC34A" opacity="0.5" r="2"/>
<circle cx="649.5523602821487" cy="321.58730158730157" fill="#8BC34A" opacity="0.5" r="2"/>
<circle cx="674.2521251582565" cy="321.58730158730157" fill="#8BC34A" opacity="0.5" r="2"/>
<circle cx="696.7887502260807" cy="321.58730158730157" fill="#8BC34A" opacity="0.5" r="2"/>
<circle cx="717.1622354856213" cy="321.58730158730157" fill="#8BC34A" opacity="0.5" r="2"/>
<circle cx="735.3725809368783" cy="321.58730158730157" fill="#8BC34A" opacity="0.5" r="2"/>
<circle cx="754.664496292277" cy="321.58730158730157" fill="#8BC34A" opacity="0.5" r="2"/>
<circle cx="775.0379815518177" cy="321.58730158730157" fill="#8BC34A" opacity="0.5" r="2"/>
<circle cx="796.4930367155" cy="321.58730158730157" fill="#8BC34A" opacity="0.5" r="2"/>
<circle cx="819.0296617833243" cy="321.58730158730157" fill="#8BC34A" opacity="0.5" r="2"/>
<circle cx="842.6478567552903" cy="321.58730158730157" fill="#8BC34A" opacity="0.5" r="2"/>
<circle cx="867.347621631398" cy="321.58730158730157" fill="#8BC34A" opacity="0.5" r="2"/>
<circle cx="893.1289564116477" cy="321.58730158730157" fill="#8BC34A" opacity="0.5" r="2"/>
<path d="M 166.66666666666666 321.58730158730157 L 211.06981370953156 321.58730158730157 L 252.22825103997104 321.58730158730157 L 290.14197865798513 321.58730158730157 L 324.81099656357384 321.58730158730157 L 356.2353047567372 337.46031746031747 L 384.4149032374751 368.47739820565903 L 409.3497920057876 392.95117322291236 L 431.03997106167475 416.82539682539687 L 449.4854404051365 432.6984126984127 L 472.2571893651654 432.6984126984127 L 499.3552179417615 432.6984126984127 L 530.7795261349249 432.6984126984127 L 566.5301139446553 432.6984126984127 L 606.606981370953 432.6984126984127 L 651.010128413818 416.82539682539687 L 699.73955507325 385.0793650793651 L 752.7952613492494 369.2063492063492 L 802.6062579128233 337.46031746031747 L 849.1725447639717 321.58730158730157 L 892.4941219026948 321.58730158730157 L 932.5709893289926 321.58730158730157 L 969.4031470428648 321.58730158730157 L 1002.9905950443117 321.58730158730157 L 1033.3333333333333 321.58730158730157 " fill="none" opacity="0.7" stroke="#64B5F6" stroke-width="3"/>
<circle cx="166.66666666666666" cy="321.58730158730157" fill="#64B5F6" opacity="0.5" r="2"/>
<circle cx="211.06981370953156" cy="321.58730158730157" fill="#64B5F6" opacity="0.5" r="2"/>
<circle cx="252.22825103997104" cy="321.58730158730157" fill="#64B5F6" opacity="0.5" r="2"/>
<circle cx="290.14197865798513" cy="321.58730158730157" fill="#64B5F6" opacity="0.5" r="2"/>
<circle cx="324.81099656357384" cy="321.58730158730157" fill="#64B5F6" opacity="0.5" r="2"/>
<circle cx="356.2353047567372" cy="337.46031746031747" fill="#64B5F6" opacity="0.5" r="2"/>
<circle cx="384.4149032374751" cy="368.47739820565903" fill="#64B5F6" opacity="0.5" r="2"/>
<circle cx="409.3497920057876" cy="392.95117322291236" fill="#64B5F6" opacity="0.5" r="2"/>
<circle cx="431.03997106167475" cy="416.82539682539687" fill="#64B5F6" opacity="0.5" r="2"/>
<circle cx="449.4854404051365" cy="432.6984126984127" fill="#64B5F6" opacity="0.5" r="2"/>
<circle cx="472.2571893651654" cy="432.6984126984127" fill="#64B5F6" opacity="0.5" r="2"/>
<circle cx="499.3552179417615" cy="432.6984126984127" fill="#64B5F6" opacity="0.5" r="2"/>
<circle cx="530.7795261349249" cy="432.6984126984127" fill="#64B5F6" opacity="0.5" r="2"/>
<circle cx="566.5301139446553" cy="432.6984126984127" fill="#64B5F6" opacity="0.5" r="2"/>
<circle cx="606.606981370953" cy="432.6984126984127" fill="#64B5F6" opacity="0.5" r="2"/>
<circle cx="651.010128413818" cy="416.82539682539687" fill="#64B5F6" opacity="0.5" r="2"/>
<circle cx="699.73955507325" cy="385.0793650793651" fill="#64B5F6" opacity="0.5" r="2"/>
<circle cx="752.7952613492494" cy="369.2063492063492" fill="#64B5F6" opacity="0.5" r="2"/>
<circle cx="802.6062579128233" cy="337.46031746031747" fill="#64B5F6" opacity="0.5" r="2"/>
<circle cx="849.1725447639717" cy="321.58730158730157" fill="#64B5F6" opacity="0.5" r="2"/>
<circle cx="892.4941219026948" cy="321.58730158730157" fill="#64B5F6" opacity="0.5" r="2"/>
<circle cx="932.5709893289926" cy="321.58730158730157" fill="#64B5F6" opacity="0.5" r="2"/>
<circle cx="969.4031470428648" cy="321.58730158730157" fill="#64B5F6" opacity="0.5" r="2"/>
<circle cx="1002.9905950443117" cy="321.58730158730157" fill="#64B5F6" opacity="0.5" r="2"/>
<circle cx="1033.3333333333333" cy="321.58730158730157" fill="#64B5F6" opacity="0.5" r="2"/>
</g>
<g id="vehicles">
<rect fill="#4CAF50" height="6" rx="1" stroke="#333333" stroke-width="1" width="12" x="225.56086091517452" y="318.58730158730157"/>
<text fill="#333333" font-family="Arial, sans-serif" font-size="10" font-weight="bold" text-anchor="middle" x="231.56086091517452" y="313.58730158730157">
ego (t=0)
</text>
<rect fill="#4CAF50" height="6" opacity="0.8" rx="1" stroke="#333333" stroke-dasharray="3,3" stroke-width="2" width="12" x="887.1289564116477" y="318.58730158730157"/>
<text fill="#333333" font-family="Arial, sans-serif" font-size="10" font-weight="bold" text-anchor="middle" x="893.1289564116477" y="339.58730158730157">
ego (t=12.0)
</text>
<rect fill="#2196F3" height="6" rx="1" stroke="#333333" stroke-width="1" width="12" x="160.66666666666666" y="318.58730158730157"/>
<text fill="#333333" font-family="Arial, sans-serif" font-size="10" font-weight="bold" text-anchor="middle" x="166.66666666666666" y="313.58730158730157">
npc (t=0)
</text>
<rect fill="#2196F3" height="6" opacity="0.8" rx="1" stroke="#333333" stroke-dasharray="3,3" stroke-width="2" width="12" x="1027.3333333333333" y="318.58730158730157"/>
<text fill="#333333" font-family="Arial, sans-serif" font-size="10" font-weight="bold" text-anchor="middle" x="1033.3333333333333" y="339.58730158730157">
npc (t=12.0)
</text>
</g>
<g id="legend">
<rect fill="white" height="100" rx="3" stroke="#333333" stroke-width="1" width="150" x="970" y="420"/>
<text fill="#333333" font-family="Arial, sans-serif" font-size="12" font-weight="bold" text-anchor="middle" x="1045" y="435">
Legend
</text>
<rect fill="#4CAF50" height="8" width="12" x="980" y="445"/>
<text fill="#333333" font-family="Arial, sans-serif" font-size="10" text-anchor="start" x="1000" y="452">
Ego Vehicle
</text>
<rect fill="#2196F3" height="8" width="12" x="980" y="460"/>
<text fill="#333333" font-family="Arial, sans-serif" font-size="10" text-anchor="start" x="1000" y="467">
NPC Vehicle
</text>
<circle cx="986" cy="479" fill="#FF9800" r="4"/>
<text fill="#333333" font-family="Arial, sans-serif" font-size="10" text-anchor="start" x="1000" y="482">
Pedestrian
</text>
<circle cx="986" cy="498" fill="none" r="6" stroke="#F44336" stroke-width="2"/>
<text fill="#333333" font-family="Arial, sans-serif" font-size="10" text-anchor="start" x="1000" y="501">
Safety Violation
</text>
</g>
</svg>