<svg height="600" viewBox="0 0 1200 600" width="1200" xmlns="http://www.w3.org/2000/svg">
<rect fill="#F5F5F5" height="600" width="1200"/>
<g id="header">
<text fill="#333333" font-family="Arial, sans-serif" font-size="24" font-weight="bold" text-anchor="middle" x="600" y="30">
Scenario: overtake_left
</text>
<text fill="#333333" font-family="Arial, sans-serif" font-size="12" text-anchor="middle" x="600" y="55">
ID: 8bc78d53 | Duration: 12.0s | Time Step: 0.50s
</text>
</g>
<g id="metrics">
<text fill="#333333" font-family="Arial, sans-serif" font-size="14" text-anchor="middle" x="600" y="80">
Min TTC: 6.90s | Min Distance: 4.08m | Max Accel: 4.00 m/s² | Max Decel: -3.00 m/s² | Constraints: 
</text>
<text fill="#4CAF50" font-family="Arial, sans-serif" font-size="14" font-weight="bold" text-anchor="start" x="920" y="80">
✓ SAFE
</text>
</g>
<rect fill="#2A2A2A" height="400" width="1040" x="80" y="120"/>
<g id="lane_markings">
<line opacity="0.6" stroke="#FFFFFF" stroke-dasharray="10,10" stroke-width="2" x1="80" x2="1120" y1="375.55555555555554" y2="375.55555555555554"/>
<line opacity="0.6" stroke="#FFFFFF" stroke-dasharray="10,10" stroke-width="2" x1="80" x2="1120" y1="264.44444444444446" y2="264.44444444444446"/>
<line stroke="#FFFFFF" stroke-width="3" x1="80" x2="1120" y1="153.33333333333334" y2="153.33333333333334"/>
<line stroke="#FFFFFF" stroke-width="3" x1="80" x2="1120" y1="486.6666666666667" y2="486.6666666666667"/>
</g>
<g id="trajectories">
<path d="M 275.56679926155334 321.58730158730157 L 310.4148416919171 321.58730158730157 L 346.33010542171075 321.58730158730157 L 383.3343704774532 321.58730158730157 L 418.160632881298 321.58730158730157 L 450.8088926332451 321.58730158730157 L 481.27914973329433 321.58730158730157 L 512.8384081592925 321.58730158730157 L 542.2196639333929 321.58730158730157 L 572.6899210334423 321.58730158730157 L 604.2491794594405 321.58730158730157 L 633.6304352335408 321.58730158730157 L 660.8336883557436 321.58730158730157 L 685.8589388260486 321.58730158730157 L 708.7061866444558 321.58730158730157 L 729.3754318109653 321.58730158730157 L 747.8666743255772 321.58730158730157 L 764.179914188291 321.58730158730157 L 778.3151513991074 321.58730158730157 L 793.5393899358726 321.58730158730157 L 809.8526297985866 321.58730158730157 L 827.2548709872495 321.58730158730157 L 845.7461135018613 321.58730158730157 L 865.3263573424218 321.58730158730157 L 882.7285985310848 321.58730158730157 " fill="none" opacity="0.7" stroke="#8BC34A" stroke-width="3"/>
<circle cx="275.56679926155334" cy="321.58730158730157" fill="#8BC34A" opacity="0.5" r="2"/>
<circle cx="310.4148416919171" cy="321.58730158730157" fill="#8BC34A" opacity="0.5" r="2"/>
<circle cx="346.33010542171075" cy="321.58730158730157" fill="#8BC34A" opacity="0.5" r="2"/>
<circle cx="383.3343704774532" cy="321.58730158730157" fill="#8BC34A" opacity="0.5" r="2"/>
<circle cx="418.160632881298" cy="321.58730158730157" fill="#8BC34A" opacity="0.5" r="2"/>
<circle cx="450.8088926332451" cy="321.58730158730157" fill="#8BC34A" opacity="0.5" r="2"/>
<circle cx="481.27914973329433" cy="321.58730158730157" fill="#8BC34A" opacity="0.5" r="2"/>
<circle cx="512.8384081592925" cy="321.58730158730157" fill="#8BC34A" opacity="0.5" r="2"/>
<circle cx="542.2196639333929" cy="321.58730158730157" fill="#8BC34A" opacity="0.5" r="2"/>
<circle cx="572.6899210334423" cy="321.58730158730157" fill="#8BC34A" opacity="0.5" r="2"/>
<circle cx="604.2491794594405" cy="321.58730158730157" fill="#8BC34A" opacity="0.5" r="2"/>
<circle cx="633.6304352335408" cy="321.58730158730157" fill="#8BC34A" opacity="0.5" r="2"/>
<circle cx="660.8336883557436" cy="321.58730158730157" fill="#8BC34A" opacity="0.5" r="2"/>
<circle cx="685.8589388260486" cy="321.58730158730157" fill="#8BC34A" opacity="0.5" r="2"/>
<circle cx="708.7061866444558" cy="321.58730158730157" fill="#8BC34A" opacity="0.5" r="2"/>
<circle cx="729.3754318109653" cy="321.58730158730157" fill="#8BC34A" opacity="0.5" r="2"/>
<circle cx="747.8666743255772" cy="321.58730158730157" fill="#8BC34A" opacity="0.5" r="2"/>
<circle cx="764.179914188291" cy="321.58730158730157" fill="#8BC34A" opacity="0.5" r="2"/>
<circle cx="778.3151513991074" cy="321.58730158730157" fill="#8BC34A" opacity="0.5" r="2"/>
<circle cx="793.5393899358726" cy="321.58730158730157" fill="#8BC34A" opacity="0.5" r="2"/>
<circle cx="809.8526297985866" cy="321.58730158730157" fill="#8BC34A" opacity="0.5" r="2"/>
<circle cx="827.2548709872495" cy="321.58730158730157" fill="#8BC34A" opacity="0.5" r="2"/>
<circle cx="845.7461135018613" cy="321.58730158730157" fill="#8BC34A" opacity="0.5" r="2"/>
<circle cx="865.3263573424218" cy="321.58730158730157" fill="#8BC34A" opacity="0.5" r="2"/>
<circle cx="882.7285985310848" cy="321.58730158730157" fill="#8BC34A" opacity="0.5" r="2"/>
<path d="M 166.66666666666669 321.58730158730157 L 205.87071440082588 321.58730158730157 L 241.8077581571385 321.58730158730157 L 278.812023212881 321.58730158730157 L 314.7490669691936 321.58730158730157 L 347.4191067476596 337.46031746031747 L 377.8893638477089 369.2063492063492 L 412.71562625155366 385.0793650793651 L 449.35066800059354 416.82539682539687 L 482.71870577178674 432.6984126984127 L 512.8197395651334 432.6984126984127 L 539.6537693806334 432.6984126984127 L 563.2207952182869 432.6984126984127 L 591.1438263597358 432.6984126984127 L 623.4228628049801 432.6984126984127 L 660.0579045540201 416.82539682539687 L 701.0489516068553 385.0793650793651 L 746.3960039634861 353.33333333333337 L 796.0990616239125 337.46031746031747 L 842.5351153064921 321.58730158730157 L 885.704165011225 321.58730158730157 L 925.6062107381115 321.58730158730157 L 962.2412524871513 321.58730158730157 L 995.6092902583446 321.58730158730157 L 1033.3333333333335 321.58730158730157 " fill="none" opacity="0.7" stroke="#64B5F6" stroke-width="3"/>
<circle cx="166.66666666666669" cy="321.58730158730157" fill="#64B5F6" opacity="0.5" r="2"/>
<circle cx="205.87071440082588" cy="321.58730158730157" fill="#64B5F6" opacity="0.5" r="2"/>
<circle cx="241.8077581571385" cy="321.58730158730157" fill="#64B5F6" opacity="0.5" r="2"/>
<circle cx="278.812023212881" cy="321.58730158730157" fill="#64B5F6" opacity="0.5" r="2"/>
<circle cx="314.7490669691936" cy="321.58730158730157" fill="#64B5F6" opacity="0.5" r="2"/>
<circle cx="347.4191067476596" cy="337.46031746031747" fill="#64B5F6" opacity="0.5" r="2"/>
<circle cx="377.8893638477089" cy="369.2063492063492" fill="#64B5F6" opacity="0.5" r="2"/>
<circle cx="412.71562625155366" cy="385.0793650793651" fill="#64B5F6" opacity="0.5" r="2"/>
<circle cx="449.35066800059354" cy="416.82539682539687" fill="#64B5F6" opacity="0.5" r="2"/>
<circle cx="482.71870577178674" cy="432.6984126984127" fill="#64B5F6" opacity="0.5" r="2"/>
<circle cx="512.8197395651334" cy="432.6984126984127" fill="#64B5F6" opacity="0.5" r="2"/>
<circle cx="539.6537693806334" cy="432.6984126984127" fill="#64B5F6" opacity="0.5" r="2"/>
<circle cx="563.2207952182869" cy="432.6984126984127" fill="#64B5F6" opacity="0.5" r="2"/>
<circle cx="591.1438263597358" cy="432.6984126984127" fill="#64B5F6" opacity="0.5" r="2"/>
<circle cx="623.4228628049801" cy="432.6984126984127" fill="#64B5F6" opacity="0.5" r="2"/>
<circle cx="660.0579045540201" cy="416.82539682539687" fill="#64B5F6" opacity="0.5" r="2"/>
<circle cx="701.0489516068553" cy="385.0793650793651" fill="#64B5F6" opacity="0.5" r="2"/>
<circle cx="746.3960039634861" cy="353.33333333333337" fill="#64B5F6" opacity="0.5" r="2"/>
<circle cx="796.0990616239125" cy="337.46031746031747" fill="#64B5F6" opacity="0.5" r="2"/>
<circle cx="842.5351153064921" cy="321.58730158730157" fill="#64B5F6" opacity="0.5" r="2"/>
<circle cx="885.704165011225" cy="321.58730158730157" fill="#64B5F6" opacity="0.5" r="2"/>
<circle cx="925.6062107381115" cy="321.58730158730157" fill="#64B5F6" opacity="0.5" r="2"/>
<circle cx="962.2412524871513" cy="321.58730158730157" fill="#64B5F6" opacity="0.5" r="2"/>
<circle cx="995.6092902583446" cy="321.58730158730157" fill="#64B5F6" opacity="0.5" r="2"/>
<circle cx="1033.3333333333335" cy="321.58730158730157" fill="#64B5F6" opacity="0.5" r="2"/>
</g>
<g id="vehicles">
<rect fill="#4CAF50" height="6" rx="1" stroke="#333333" stroke-width="1" width="12" x="269.56679926155334" y="318.58730158730157"/>
<text fill="#333333" font-family="Arial, sans-serif" font-size="10" font-weight="bold" text-anchor="middle" x="275.56679926155334" y="313.58730158730157">
ego (t=0)
</text>
<rect fill="#4CAF50" height="6" opacity="0.8" rx="1" stroke="#333333" stroke-dasharray="3,3" stroke-width="2" width="12" x="876.7285985310848" y="318.58730158730157"/>
<text fill="#333333" font-family="Arial, sans-serif" font-size="10" font-weight="bold" text-anchor="middle" x="882.7285985310848" y="339.58730158730157">
ego (t=12.0)
</text>
<rect fill="#2196F3" height="6" rx="1" stroke="#333333" stroke-width="1" width="12" x="160.66666666666669" y="318.58730158730157"/>
<text fill="#333333" font-family="Arial, sans-serif" font-size="10" font-weight="bold" text-anchor="middle" x="166.66666666666669" y="313.58730158730157">
npc (t=0)
</text>
<rect fill="#2196F3" height="6" opacity="0.8" rx="1" stroke="#333333" stroke-dasharray="3,3" stroke-width="2" width="12" x="1027.3333333333335" y="318.58730158730157"/>
<text fill="#333333" font-family="Arial, sans-serif" font-size="10" font-weight="bold" text-anchor="middle" x="1033.3333333333335" y="339.58730158730157">
npc (t=12.0)
</text>
</g>
<g id="legend">
<rect fill="white" height="100" rx="3" stroke="#333333" stroke-width="1" width="150" x="970" y="420"/>
<text fill="#333333" font-family="Arial, sans-serif" font-size="12" font-weight="bold" text-anchor="middle" x="1045" y="435">
Legend
</text>
<rect fill="#4CAF50" height="8" width="12" x="980" y="445"/>
<text fill="#333333" font-family="Arial, sans-serif" font-size="10" text-anchor="start" x="1000" y="452">
Ego Vehicle
</text>
<rect fill="#2196F3" height="8" width="12" x="980" y="460"/>
<text fill="#333333" font-family="Arial, sans-serif" font-size="10" text-anchor="start" x="1000" y="467">
NPC Vehicle
</text>
<circle cx="986" cy="479" fill="#FF9800" r="4"/>
<text fill="#333333" font-family="Arial, sans-serif" font-size="10" text-anchor="start" x="1000" y="482">
Pedestrian
</text>
<circle cx="986" cy="498" fill="none" r="6" stroke="#F44336" stroke-width="2"/>
<text fill="#333333" font-family="Arial, sans-serif" font-size="10" text-anchor="start" x="1000" y="501">
Safety Violation
</text>
</g>
</svg>