<svg height="600" viewBox="0 0 1200 600" width="1200" xmlns="http://www.w3.org/2000/svg">
<rect fill="#F5F5F5" height="600" width="1200"/>
<g id="header">
<text fill="#333333" font-family="Arial, sans-serif" font-size="24" font-weight="bold" text-anchor="middle" x="600" y="30">
Scenario: overtake_left
</text>
<text fill="#333333" font-family="Arial, sans-serif" font-size="12" text-anchor="middle" x="600" y="55">
ID: 58885ce3 | Duration: 12.0s | Time Step: 0.50s
</text>
</g>
<g id="metrics">
<text fill="#333333" font-family="Arial, sans-serif" font-size="14" text-anchor="middle" x="600" y="80">
Min TTC: 4.59s | Min Distance: 21.05m | Max Accel: 4.00 m/s² | Max Decel: -3.00 m/s² | Constraints: 
</text>
<text fill="#4CAF50" font-family="Arial, sans-serif" font-size="14" font-weight="bold" text-anchor="start" x="920" y="80">
✓ SAFE
</text>
</g>
<rect fill="#2A2A2A" height="400" width="1040" x="80" y="120"/>
<g id="lane_markings">
<line opacity="0.6" stroke="#FFFFFF" stroke-dasharray="10,10" stroke-width="2" x1="80" x2="1120" y1="375.55555555555554" y2="375.55555555555554"/>
<line opacity="0.6" stroke="#FFFFFF" stroke-dasharray="10,10" stroke-width="2" x1="80" x2="1120" y1="264.44444444444446" y2="264.44444444444446"/>
<line stroke="#FFFFFF" stroke-width="3" x1="80" x2="1120" y1="153.33333333333334" y2="153.33333333333334"/>
<line stroke="#FFFFFF" stroke-width="3" x1="80" x2="1120" y1="486.6666666666667" y2="486.6666666666667"/>
</g>
<g id="trajectories">
<path d="M 302.422506439293 321.58730158730157 L 346.1253219646505 321.58730158730157 L 387.05702104982674 321.58730158730157 L 425.2176036948219 321.58730158730157 L 460.60706989963586 321.58730158730157 L 493.22541966426854 321.58730158730157 L 523.0726529887202 321.58730158730157 L 550.1487698729904 321.58730158730157 L 574.4537703170797 321.58730158730157 L 595.9876543209876 321.58730158730157 L 614.7504218847145 321.58730158730157 L 630.74207300826 321.58730158730157 L 643.9626076916245 321.58730158730157 L 658.5687005950795 321.58730158730157 L 674.560351718625 321.58730158730157 L 691.9375610622612 321.58730158730157 L 710.700328625988 321.58730158730157 L 730.8486544098055 321.58730158730157 L 752.3825384137134 321.58730158730157 L 775.301980637712 321.58730158730157 L 799.6069810818012 321.58730158730157 L 825.297539745981 321.58730158730157 L 848.2169819699794 321.58730158730157 L 872.5219824140687 321.58730158730157 L 894.0558664179766 321.58730158730157 " fill="none" opacity="0.7" stroke="#8BC34A" stroke-width="3"/>
<circle cx="302.422506439293" cy="321.58730158730157" fill="#8BC34A" opacity="0.5" r="2"/>
<circle cx="346.1253219646505" cy="321.58730158730157" fill="#8BC34A" opacity="0.5" r="2"/>
<circle cx="387.05702104982674" cy="321.58730158730157" fill="#8BC34A" opacity="0.5" r="2"/>
<circle cx="425.2176036948219" cy="321.58730158730157" fill="#8BC34A" opacity="0.5" r="2"/>
<circle cx="460.60706989963586" cy="321.58730158730157" fill="#8BC34A" opacity="0.5" r="2"/>
<circle cx="493.22541966426854" cy="321.58730158730157" fill="#8BC34A" opacity="0.5" r="2"/>
<circle cx="523.0726529887202" cy="321.58730158730157" fill="#8BC34A" opacity="0.5" r="2"/>
<circle cx="550.1487698729904" cy="321.58730158730157" fill="#8BC34A" opacity="0.5" r="2"/>
<circle cx="574.4537703170797" cy="321.58730158730157" fill="#8BC34A" opacity="0.5" r="2"/>
<circle cx="595.9876543209876" cy="321.58730158730157" fill="#8BC34A" opacity="0.5" r="2"/>
<circle cx="614.7504218847145" cy="321.58730158730157" fill="#8BC34A" opacity="0.5" r="2"/>
<circle cx="630.74207300826" cy="321.58730158730157" fill="#8BC34A" opacity="0.5" r="2"/>
<circle cx="643.9626076916245" cy="321.58730158730157" fill="#8BC34A" opacity="0.5" r="2"/>
<circle cx="658.5687005950795" cy="321.58730158730157" fill="#8BC34A" opacity="0.5" r="2"/>
<circle cx="674.560351718625" cy="321.58730158730157" fill="#8BC34A" opacity="0.5" r="2"/>
<circle cx="691.9375610622612" cy="321.58730158730157" fill="#8BC34A" opacity="0.5" r="2"/>
<circle cx="710.700328625988" cy="321.58730158730157" fill="#8BC34A" opacity="0.5" r="2"/>
<circle cx="730.8486544098055" cy="321.58730158730157" fill="#8BC34A" opacity="0.5" r="2"/>
<circle cx="752.3825384137134" cy="321.58730158730157" fill="#8BC34A" opacity="0.5" r="2"/>
<circle cx="775.301980637712" cy="321.58730158730157" fill="#8BC34A" opacity="0.5" r="2"/>
<circle cx="799.6069810818012" cy="321.58730158730157" fill="#8BC34A" opacity="0.5" r="2"/>
<circle cx="825.297539745981" cy="321.58730158730157" fill="#8BC34A" opacity="0.5" r="2"/>
<circle cx="848.2169819699794" cy="321.58730158730157" fill="#8BC34A" opacity="0.5" r="2"/>
<circle cx="872.5219824140687" cy="321.58730158730157" fill="#8BC34A" opacity="0.5" r="2"/>
<circle cx="894.0558664179766" cy="321.58730158730157" fill="#8BC34A" opacity="0.5" r="2"/>
<path d="M 166.66666666666666 321.58730158730157 L 216.54676258992805 321.58730158730157 L 262.2701838529176 321.58730158730157 L 303.8369304556355 321.58730158730157 L 341.2470023980815 321.58730158730157 L 374.5003996802558 337.46031746031747 L 403.5971223021582 362.46031746031747 L 433.5020872191136 388.15476190476187 L 468.9492850164313 416.82539682539687 L 509.93871569411135 432.6984126984127 L 556.4703792521539 432.6984126984127 L 608.5442756905586 432.6984126984127 L 666.1604050093258 432.6984126984127 L 719.6198596678213 432.6984126984127 L 768.9226396660449 432.6984126984127 L 814.0687450039968 416.82539682539687 L 855.0581756816767 385.0793650793651 L 891.8909316990852 353.43253968253964 L 924.5670130562216 337.46031746031747 L 953.0864197530863 321.58730158730157 L 977.4491517896793 321.58730158730157 L 997.6552091660005 321.58730158730157 L 1013.7045918820498 321.58730158730157 L 1025.5972999378273 321.58730158730157 L 1033.3333333333335 321.58730158730157 " fill="none" opacity="0.7" stroke="#64B5F6" stroke-width="3"/>
<circle cx="166.66666666666666" cy="321.58730158730157" fill="#64B5F6" opacity="0.5" r="2"/>
<circle cx="216.54676258992805" cy="321.58730158730157" fill="#64B5F6" opacity="0.5" r="2"/>
<circle cx="262.2701838529176" cy="321.58730158730157" fill="#64B5F6" opacity="0.5" r="2"/>
<circle cx="303.8369304556355" cy="321.58730158730157" fill="#64B5F6" opacity="0.5" r="2"/>
<circle cx="341.2470023980815" cy="321.58730158730157" fill="#64B5F6" opacity="0.5" r="2"/>
<circle cx="374.5003996802558" cy="337.46031746031747" fill="#64B5F6" opacity="0.5" r="2"/>
<circle cx="403.5971223021582" cy="362.46031746031747" fill="#64B5F6" opacity="0.5" r="2"/>
<circle cx="433.5020872191136" cy="388.15476190476187" fill="#64B5F6" opacity="0.5" r="2"/>
<circle cx="468.9492850164313" cy="416.82539682539687" fill="#64B5F6" opacity="0.5" r="2"/>
<circle cx="509.93871569411135" cy="432.6984126984127" fill="#64B5F6" opacity="0.5" r="2"/>
<circle cx="556.4703792521539" cy="432.6984126984127" fill="#64B5F6" opacity="0.5" r="2"/>
<circle cx="608.5442756905586" cy="432.6984126984127" fill="#64B5F6" opacity="0.5" r="2"/>
<circle cx="666.1604050093258" cy="432.6984126984127" fill="#64B5F6" opacity="0.5" r="2"/>
<circle cx="719.6198596678213" cy="432.6984126984127" fill="#64B5F6" opacity="0.5" r="2"/>
<circle cx="768.9226396660449" cy="432.6984126984127" fill="#64B5F6" opacity="0.5" r="2"/>
<circle cx="814.0687450039968" cy="416.82539682539687" fill="#64B5F6" opacity="0.5" r="2"/>
<circle cx="855.0581756816767" cy="385.0793650793651" fill="#64B5F6" opacity="0.5" r="2"/>
<circle cx="891.8909316990852" cy="353.43253968253964" fill="#64B5F6" opacity="0.5" r="2"/>
<circle cx="924.5670130562216" cy="337.46031746031747" fill="#64B5F6" opacity="0.5" r="2"/>
<circle cx="953.0864197530863" cy="321.58730158730157" fill="#64B5F6" opacity="0.5" r="2"/>
<circle cx="977.4491517896793" cy="321.58730158730157" fill="#64B5F6" opacity="0.5" r="2"/>
<circle cx="997.6552091660005" cy="321.58730158730157" fill="#64B5F6" opacity="0.5" r="2"/>
<circle cx="1013.7045918820498" cy="321.58730158730157" fill="#64B5F6" opacity="0.5" r="2"/>
<circle cx="1025.5972999378273" cy="321.58730158730157" fill="#64B5F6" opacity="0.5" r="2"/>
<circle cx="1033.3333333333335" cy="321.58730158730157" fill="#64B5F6" opacity="0.5" r="2"/>
</g>
<g id="vehicles">
<rect fill="#4CAF50" height="6" rx="1" stroke="#333333" stroke-width="1" width="12" x="296.422506439293" y="318.58730158730157"/>
<text fill="#333333" font-family="Arial, sans-serif" font-size="10" font-weight="bold" text-anchor="middle" x="302.422506439293" y="313.58730158730157">
ego (t=0)
</text>
<rect fill="#4CAF50" height="6" opacity="0.8" rx="1" stroke="#333333" stroke-dasharray="3,3" stroke-width="2" width="12" x="888.0558664179766" y="318.58730158730157"/>
<text fill="#333333" font-family="Arial, sans-serif" font-size="10" font-weight="bold" text-anchor="middle" x="894.0558664179766" y="339.58730158730157">
ego (t=12.0)
</text>
<rect fill="#2196F3" height="6" rx="1" stroke="#333333" stroke-width="1" width="12" x="160.66666666666666" y="318.58730158730157"/>
<text fill="#333333" font-family="Arial, sans-serif" font-size="10" font-weight="bold" text-anchor="middle" x="166.66666666666666" y="313.58730158730157">
npc (t=0)
</text>
<rect fill="#2196F3" height="6" opacity="0.8" rx="1" stroke="#333333" stroke-dasharray="3,3" stroke-width="2" width="12" x="1027.3333333333335" y="318.58730158730157"/>
<text fill="#333333" font-family="Arial, sans-serif" font-size="10" font-weight="bold" text-anchor="middle" x="1033.3333333333335" y="339.58730158730157">
npc (t=12.0)
</text>
</g>
<g id="legend">
<rect fill="white" height="100" rx="3" stroke="#333333" stroke-width="1" width="150" x="970" y="420"/>
<text fill="#333333" font-family="Arial, sans-serif" font-size="12" font-weight="bold" text-anchor="middle" x="1045" y="435">
Legend
</text>
<rect fill="#4CAF50" height="8" width="12" x="980" y="445"/>
<text fill="#333333" font-family="Arial, sans-serif" font-size="10" text-anchor="start" x="1000" y="452">
Ego Vehicle
</text>
<rect fill="#2196F3" height="8" width="12" x="980" y="460"/>
<text fill="#333333" font-family="Arial, sans-serif" font-size="10" text-anchor="start" x="1000" y="467">
NPC Vehicle
</text>
<circle cx="986" cy="479" fill="#FF9800" r="4"/>
<text fill="#333333" font-family="Arial, sans-serif" font-size="10" text-anchor="start" x="1000" y="482">
Pedestrian
</text>
<circle cx="986" cy="498" fill="none" r="6" stroke="#F44336" stroke-width="2"/>
<text fill="#333333" font-family="Arial, sans-serif" font-size="10" text-anchor="start" x="1000" y="501">
Safety Violation
</text>
</g>
</svg>