<svg height="600" viewBox="0 0 1200 600" width="1200" xmlns="http://www.w3.org/2000/svg">
<rect fill="#F5F5F5" height="600" width="1200"/>
<g id="header">
<text fill="#333333" font-family="Arial, sans-serif" font-size="24" font-weight="bold" text-anchor="middle" x="600" y="30">
Scenario: overtake_left
</text>
<text fill="#333333" font-family="Arial, sans-serif" font-size="12" text-anchor="middle" x="600" y="55">
ID: bcdbb156 | Duration: 12.0s | Time Step: 0.50s
</text>
</g>
<g id="metrics">
<text fill="#333333" font-family="Arial, sans-serif" font-size="14" text-anchor="middle" x="600" y="80">
Min TTC: 2.69s | Min Distance: 19.36m | Max Accel: 4.00 m/s² | Max Decel: -3.00 m/s² | Constraints: 
</text>
<text fill="#4CAF50" font-family="Arial, sans-serif" font-size="14" font-weight="bold" text-anchor="start" x="920" y="80">
✓ SAFE
</text>
</g>
<rect fill="#2A2A2A" height="400" width="1040" x="80" y="120"/>
<g id="lane_markings">
<line opacity="0.6" stroke="#FFFFFF" stroke-dasharray="10,10" stroke-width="2" x1="80" x2="1120" y1="375.55555555555554" y2="375.55555555555554"/>
<line opacity="0.6" stroke="#FFFFFF" stroke-dasharray="10,10" stroke-width="2" x1="80" x2="1120" y1="264.44444444444446" y2="264.44444444444446"/>
<line stroke="#FFFFFF" stroke-width="3" x1="80" x2="1120" y1="153.33333333333334" y2="153.33333333333334"/>
<line stroke="#FFFFFF" stroke-width="3" x1="80" x2="1120" y1="486.6666666666667" y2="486.6666666666667"/>
</g>
<g id="trajectories">
<path d="M 251.16922286899182 321.58730158730157 L 278.21004085373585 321.58730158730157 L 306.0958844005031 321.58730158730157 L 334.82675350929367 321.58730158730157 L 364.4026481801075 321.58730158730157 L 394.82356841294455 321.58730158730157 L 423.5544375217351 321.58730158730157 L 450.59525550647913 321.58730158730157 L 475.9460223671767 321.58730158730157 L 499.60673810382775 321.58730158730157 L 521.5774027164323 321.58730158730157 L 541.8580162049903 321.58730158730157 L 562.9836552555716 321.58730158730157 L 584.9543198681762 321.58730158730157 L 607.770010042804 321.58730158730157 L 631.430725779455 321.58730158730157 L 655.9364670781293 321.58730158730157 L 681.2872339388268 321.58730158730157 L 707.4830263615477 321.58730158730157 L 731.9887676602219 321.58730158730157 L 754.8044578348497 321.58730158730157 L 775.930096885431 321.58730158730157 L 795.3656848119658 321.58730158730157 L 813.111221614454 321.58730158730157 L 831.7017839789655 321.58730158730157 " fill="none" opacity="0.7" stroke="#8BC34A" stroke-width="3"/>
<circle cx="251.16922286899182" cy="321.58730158730157" fill="#8BC34A" opacity="0.5" r="2"/>
<circle cx="278.21004085373585" cy="321.58730158730157" fill="#8BC34A" opacity="0.5" r="2"/>
<circle cx="306.0958844005031" cy="321.58730158730157" fill="#8BC34A" opacity="0.5" r="2"/>
<circle cx="334.82675350929367" cy="321.58730158730157" fill="#8BC34A" opacity="0.5" r="2"/>
<circle cx="364.4026481801075" cy="321.58730158730157" fill="#8BC34A" opacity="0.5" r="2"/>
<circle cx="394.82356841294455" cy="321.58730158730157" fill="#8BC34A" opacity="0.5" r="2"/>
<circle cx="423.5544375217351" cy="321.58730158730157" fill="#8BC34A" opacity="0.5" r="2"/>
<circle cx="450.59525550647913" cy="321.58730158730157" fill="#8BC34A" opacity="0.5" r="2"/>
<circle cx="475.9460223671767" cy="321.58730158730157" fill="#8BC34A" opacity="0.5" r="2"/>
<circle cx="499.60673810382775" cy="321.58730158730157" fill="#8BC34A" opacity="0.5" r="2"/>
<circle cx="521.5774027164323" cy="321.58730158730157" fill="#8BC34A" opacity="0.5" r="2"/>
<circle cx="541.8580162049903" cy="321.58730158730157" fill="#8BC34A" opacity="0.5" r="2"/>
<circle cx="562.9836552555716" cy="321.58730158730157" fill="#8BC34A" opacity="0.5" r="2"/>
<circle cx="584.9543198681762" cy="321.58730158730157" fill="#8BC34A" opacity="0.5" r="2"/>
<circle cx="607.770010042804" cy="321.58730158730157" fill="#8BC34A" opacity="0.5" r="2"/>
<circle cx="631.430725779455" cy="321.58730158730157" fill="#8BC34A" opacity="0.5" r="2"/>
<circle cx="655.9364670781293" cy="321.58730158730157" fill="#8BC34A" opacity="0.5" r="2"/>
<circle cx="681.2872339388268" cy="321.58730158730157" fill="#8BC34A" opacity="0.5" r="2"/>
<circle cx="707.4830263615477" cy="321.58730158730157" fill="#8BC34A" opacity="0.5" r="2"/>
<circle cx="731.9887676602219" cy="321.58730158730157" fill="#8BC34A" opacity="0.5" r="2"/>
<circle cx="754.8044578348497" cy="321.58730158730157" fill="#8BC34A" opacity="0.5" r="2"/>
<circle cx="775.930096885431" cy="321.58730158730157" fill="#8BC34A" opacity="0.5" r="2"/>
<circle cx="795.3656848119658" cy="321.58730158730157" fill="#8BC34A" opacity="0.5" r="2"/>
<circle cx="813.111221614454" cy="321.58730158730157" fill="#8BC34A" opacity="0.5" r="2"/>
<circle cx="831.7017839789655" cy="321.58730158730157" fill="#8BC34A" opacity="0.5" r="2"/>
<path d="M 166.66666666666669 321.58730158730157 L 197.85139611584364 321.58730158730157 L 226.50104887895085 321.58730158730157 L 253.40572385648005 321.58730158730157 L 283.6905010821022 321.58730158730157 L 314.1283218261797 337.46031746031747 L 347.94624481835024 369.2063492063492 L 385.14427005861376 400.95238095238096 L 422.6765498545221 416.82539682539687 L 463.58893189852336 432.6984126984127 L 507.88141619061764 432.6984126984127 L 555.554002730805 432.6984126984127 L 600.6915125849225 432.6984126984127 L 649.2091246871331 432.6984126984127 L 695.1916601032739 432.6984126984127 L 738.6391188333449 416.82539682539687 L 779.5515008773461 385.0793650793651 L 817.9288062352778 353.33333333333337 L 853.7710349071396 337.46031746031747 L 887.0781868929315 321.58730158730157 L 917.8502621926538 321.58730158730157 L 946.0872608063063 321.58730158730157 L 971.7891827338889 321.58730158730157 L 1000.8712069095646 321.58730158730157 L 1033.3333333333335 321.58730158730157 " fill="none" opacity="0.7" stroke="#64B5F6" stroke-width="3"/>
<circle cx="166.66666666666669" cy="321.58730158730157" fill="#64B5F6" opacity="0.5" r="2"/>
<circle cx="197.85139611584364" cy="321.58730158730157" fill="#64B5F6" opacity="0.5" r="2"/>
<circle cx="226.50104887895085" cy="321.58730158730157" fill="#64B5F6" opacity="0.5" r="2"/>
<circle cx="253.40572385648005" cy="321.58730158730157" fill="#64B5F6" opacity="0.5" r="2"/>
<circle cx="283.6905010821022" cy="321.58730158730157" fill="#64B5F6" opacity="0.5" r="2"/>
<circle cx="314.1283218261797" cy="337.46031746031747" fill="#64B5F6" opacity="0.5" r="2"/>
<circle cx="347.94624481835024" cy="369.2063492063492" fill="#64B5F6" opacity="0.5" r="2"/>
<circle cx="385.14427005861376" cy="400.95238095238096" fill="#64B5F6" opacity="0.5" r="2"/>
<circle cx="422.6765498545221" cy="416.82539682539687" fill="#64B5F6" opacity="0.5" r="2"/>
<circle cx="463.58893189852336" cy="432.6984126984127" fill="#64B5F6" opacity="0.5" r="2"/>
<circle cx="507.88141619061764" cy="432.6984126984127" fill="#64B5F6" opacity="0.5" r="2"/>
<circle cx="555.554002730805" cy="432.6984126984127" fill="#64B5F6" opacity="0.5" r="2"/>
<circle cx="600.6915125849225" cy="432.6984126984127" fill="#64B5F6" opacity="0.5" r="2"/>
<circle cx="649.2091246871331" cy="432.6984126984127" fill="#64B5F6" opacity="0.5" r="2"/>
<circle cx="695.1916601032739" cy="432.6984126984127" fill="#64B5F6" opacity="0.5" r="2"/>
<circle cx="738.6391188333449" cy="416.82539682539687" fill="#64B5F6" opacity="0.5" r="2"/>
<circle cx="779.5515008773461" cy="385.0793650793651" fill="#64B5F6" opacity="0.5" r="2"/>
<circle cx="817.9288062352778" cy="353.33333333333337" fill="#64B5F6" opacity="0.5" r="2"/>
<circle cx="853.7710349071396" cy="337.46031746031747" fill="#64B5F6" opacity="0.5" r="2"/>
<circle cx="887.0781868929315" cy="321.58730158730157" fill="#64B5F6" opacity="0.5" r="2"/>
<circle cx="917.8502621926538" cy="321.58730158730157" fill="#64B5F6" opacity="0.5" r="2"/>
<circle cx="946.0872608063063" cy="321.58730158730157" fill="#64B5F6" opacity="0.5" r="2"/>
<circle cx="971.7891827338889" cy="321.58730158730157" fill="#64B5F6" opacity="0.5" r="2"/>
<circle cx="1000.8712069095646" cy="321.58730158730157" fill="#64B5F6" opacity="0.5" r="2"/>
<circle cx="1033.3333333333335" cy="321.58730158730157" fill="#64B5F6" opacity="0.5" r="2"/>
</g>
<g id="vehicles">
<rect fill="#4CAF50" height="6" rx="1" stroke="#333333" stroke-width="1" width="12" x="245.16922286899182" y="318.58730158730157"/>
<text fill="#333333" font-family="Arial, sans-serif" font-size="10" font-weight="bold" text-anchor="middle" x="251.16922286899182" y="313.58730158730157">
ego (t=0)
</text>
<rect fill="#4CAF50" height="6" opacity="0.8" rx="1" stroke="#333333" stroke-dasharray="3,3" stroke-width="2" width="12" x="825.7017839789655" y="318.58730158730157"/>
<text fill="#333333" font-family="Arial, sans-serif" font-size="10" font-weight="bold" text-anchor="middle" x="831.7017839789655" y="339.58730158730157">
ego (t=12.0)
</text>
<rect fill="#2196F3" height="6" rx="1" stroke="#333333" stroke-width="1" width="12" x="160.66666666666669" y="318.58730158730157"/>
<text fill="#333333" font-family="Arial, sans-serif" font-size="10" font-weight="bold" text-anchor="middle" x="166.66666666666669" y="313.58730158730157">
npc (t=0)
</text>
<rect fill="#2196F3" height="6" opacity="0.8" rx="1" stroke="#333333" stroke-dasharray="3,3" stroke-width="2" width="12" x="1027.3333333333335" y="318.58730158730157"/>
<text fill="#333333" font-family="Arial, sans-serif" font-size="10" font-weight="bold" text-anchor="middle" x="1033.3333333333335" y="339.58730158730157">
npc (t=12.0)
</text>
</g>
<g id="legend">
<rect fill="white" height="100" rx="3" stroke="#333333" stroke-width="1" width="150" x="970" y="420"/>
<text fill="#333333" font-family="Arial, sans-serif" font-size="12" font-weight="bold" text-anchor="middle" x="1045" y="435">
Legend
</text>
<rect fill="#4CAF50" height="8" width="12" x="980" y="445"/>
<text fill="#333333" font-family="Arial, sans-serif" font-size="10" text-anchor="start" x="1000" y="452">
Ego Vehicle
</text>
<rect fill="#2196F3" height="8" width="12" x="980" y="460"/>
<text fill="#333333" font-family="Arial, sans-serif" font-size="10" text-anchor="start" x="1000" y="467">
NPC Vehicle
</text>
<circle cx="986" cy="479" fill="#FF9800" r="4"/>
<text fill="#333333" font-family="Arial, sans-serif" font-size="10" text-anchor="start" x="1000" y="482">
Pedestrian
</text>
<circle cx="986" cy="498" fill="none" r="6" stroke="#F44336" stroke-width="2"/>
<text fill="#333333" font-family="Arial, sans-serif" font-size="10" text-anchor="start" x="1000" y="501">
Safety Violation
</text>
</g>
</svg>