<svg height="600" viewBox="0 0 1200 600" width="1200" xmlns="http://www.w3.org/2000/svg">
<rect fill="#F5F5F5" height="600" width="1200"/>
<g id="header">
<text fill="#333333" font-family="Arial, sans-serif" font-size="24" font-weight="bold" text-anchor="middle" x="600" y="30">
Scenario: overtake_left
</text>
<text fill="#333333" font-family="Arial, sans-serif" font-size="12" text-anchor="middle" x="600" y="55">
ID: 631536ad | Duration: 12.0s | Time Step: 0.50s
</text>
</g>
<g id="metrics">
<text fill="#333333" font-family="Arial, sans-serif" font-size="14" text-anchor="middle" x="600" y="80">
Min TTC: 3.18s | Min Distance: 10.93m | Max Accel: 4.00 m/s² | Max Decel: -3.00 m/s² | Constraints: 
</text>
<text fill="#4CAF50" font-family="Arial, sans-serif" font-size="14" font-weight="bold" text-anchor="start" x="920" y="80">
✓ SAFE
</text>
</g>
<rect fill="#2A2A2A" height="400" width="1040" x="80" y="120"/>
<g id="lane_markings">
<line opacity="0.6" stroke="#FFFFFF" stroke-dasharray="10,10" stroke-width="2" x1="80" x2="1120" y1="375.55555555555554" y2="375.55555555555554"/>
<line opacity="0.6" stroke="#FFFFFF" stroke-dasharray="10,10" stroke-width="2" x1="80" x2="1120" y1="264.44444444444446" y2="264.44444444444446"/>
<line stroke="#FFFFFF" stroke-width="3" x1="80" x2="1120" y1="153.33333333333334" y2="153.33333333333334"/>
<line stroke="#FFFFFF" stroke-width="3" x1="80" x2="1120" y1="486.6666666666667" y2="486.6666666666667"/>
</g>
<g id="trajectories">
<path d="M 217.16112392893487 321.58730158730157 L 244.09150113547793 321.58730158730157 L 271.86345262972543 321.58730158730157 L 300.4769784116774 321.58730158730157 L 329.93207848133386 321.58730158730157 L 360.2287528386948 321.58730158730157 L 391.3670014837602 321.58730158730157 L 423.34682441653 321.58730158730157 L 456.16822163700436 321.58730158730157 L 489.8311931451832 321.58730158730157 L 521.8110160779531 321.58730158730157 L 552.107690435314 321.58730158730157 L 580.7212162172659 321.58730158730157 L 607.651593423809 321.58730158730157 L 632.8988220549431 321.58730158730157 L 656.4629021106683 321.58730158730157 L 678.3438335909846 321.58730158730157 L 701.0663393590052 321.58730158730157 L 724.6304194147303 321.58730158730157 L 749.03607375816 321.58730158730157 L 771.7585795261807 321.58730158730157 L 792.7979367187925 321.58730158730157 L 812.1541453359953 321.58730158730157 L 832.3519282409026 321.58730158730157 L 850.8665625704009 321.58730158730157 " fill="none" opacity="0.7" stroke="#8BC34A" stroke-width="3"/>
<circle cx="217.16112392893487" cy="321.58730158730157" fill="#8BC34A" opacity="0.5" r="2"/>
<circle cx="244.09150113547793" cy="321.58730158730157" fill="#8BC34A" opacity="0.5" r="2"/>
<circle cx="271.86345262972543" cy="321.58730158730157" fill="#8BC34A" opacity="0.5" r="2"/>
<circle cx="300.4769784116774" cy="321.58730158730157" fill="#8BC34A" opacity="0.5" r="2"/>
<circle cx="329.93207848133386" cy="321.58730158730157" fill="#8BC34A" opacity="0.5" r="2"/>
<circle cx="360.2287528386948" cy="321.58730158730157" fill="#8BC34A" opacity="0.5" r="2"/>
<circle cx="391.3670014837602" cy="321.58730158730157" fill="#8BC34A" opacity="0.5" r="2"/>
<circle cx="423.34682441653" cy="321.58730158730157" fill="#8BC34A" opacity="0.5" r="2"/>
<circle cx="456.16822163700436" cy="321.58730158730157" fill="#8BC34A" opacity="0.5" r="2"/>
<circle cx="489.8311931451832" cy="321.58730158730157" fill="#8BC34A" opacity="0.5" r="2"/>
<circle cx="521.8110160779531" cy="321.58730158730157" fill="#8BC34A" opacity="0.5" r="2"/>
<circle cx="552.107690435314" cy="321.58730158730157" fill="#8BC34A" opacity="0.5" r="2"/>
<circle cx="580.7212162172659" cy="321.58730158730157" fill="#8BC34A" opacity="0.5" r="2"/>
<circle cx="607.651593423809" cy="321.58730158730157" fill="#8BC34A" opacity="0.5" r="2"/>
<circle cx="632.8988220549431" cy="321.58730158730157" fill="#8BC34A" opacity="0.5" r="2"/>
<circle cx="656.4629021106683" cy="321.58730158730157" fill="#8BC34A" opacity="0.5" r="2"/>
<circle cx="678.3438335909846" cy="321.58730158730157" fill="#8BC34A" opacity="0.5" r="2"/>
<circle cx="701.0663393590052" cy="321.58730158730157" fill="#8BC34A" opacity="0.5" r="2"/>
<circle cx="724.6304194147303" cy="321.58730158730157" fill="#8BC34A" opacity="0.5" r="2"/>
<circle cx="749.03607375816" cy="321.58730158730157" fill="#8BC34A" opacity="0.5" r="2"/>
<circle cx="771.7585795261807" cy="321.58730158730157" fill="#8BC34A" opacity="0.5" r="2"/>
<circle cx="792.7979367187925" cy="321.58730158730157" fill="#8BC34A" opacity="0.5" r="2"/>
<circle cx="812.1541453359953" cy="321.58730158730157" fill="#8BC34A" opacity="0.5" r="2"/>
<circle cx="832.3519282409026" cy="321.58730158730157" fill="#8BC34A" opacity="0.5" r="2"/>
<circle cx="850.8665625704009" cy="321.58730158730157" fill="#8BC34A" opacity="0.5" r="2"/>
<path d="M 166.66666666666669 321.58730158730157 L 201.52803996053666 321.58730158730157 L 233.8646903912932 321.58730158730157 L 263.67661795893633 321.58730158730157 L 291.9737118087114 321.58730158730157 L 321.50960300998753 337.46031746031747 L 348.5207713481502 369.2063492063492 L 373.0072168231995 385.7587301587302 L 394.96893943513527 416.82539682539687 L 420.296959197889 432.6984126984127 L 448.99127611146065 432.6984126984127 L 481.05189017585013 432.6984126984127 L 516.4788013910576 432.6984126984127 L 555.2720097570827 432.6984126984127 L 597.4315152739259 432.6984126984127 L 642.957317941587 416.82539682539687 L 691.8494177600659 400.95238095238096 L 738.2167947154313 369.2063492063492 L 782.0594488076835 337.46031746031747 L 823.377380036822 321.58730158730157 L 868.0616084167787 321.58730158730157 L 910.2211139336217 321.58730158730157 L 949.8558965873515 321.58730158730157 L 992.8569763918991 321.58730158730157 L 1033.3333333333333 321.58730158730157 " fill="none" opacity="0.7" stroke="#64B5F6" stroke-width="3"/>
<circle cx="166.66666666666669" cy="321.58730158730157" fill="#64B5F6" opacity="0.5" r="2"/>
<circle cx="201.52803996053666" cy="321.58730158730157" fill="#64B5F6" opacity="0.5" r="2"/>
<circle cx="233.8646903912932" cy="321.58730158730157" fill="#64B5F6" opacity="0.5" r="2"/>
<circle cx="263.67661795893633" cy="321.58730158730157" fill="#64B5F6" opacity="0.5" r="2"/>
<circle cx="291.9737118087114" cy="321.58730158730157" fill="#64B5F6" opacity="0.5" r="2"/>
<circle cx="321.50960300998753" cy="337.46031746031747" fill="#64B5F6" opacity="0.5" r="2"/>
<circle cx="348.5207713481502" cy="369.2063492063492" fill="#64B5F6" opacity="0.5" r="2"/>
<circle cx="373.0072168231995" cy="385.7587301587302" fill="#64B5F6" opacity="0.5" r="2"/>
<circle cx="394.96893943513527" cy="416.82539682539687" fill="#64B5F6" opacity="0.5" r="2"/>
<circle cx="420.296959197889" cy="432.6984126984127" fill="#64B5F6" opacity="0.5" r="2"/>
<circle cx="448.99127611146065" cy="432.6984126984127" fill="#64B5F6" opacity="0.5" r="2"/>
<circle cx="481.05189017585013" cy="432.6984126984127" fill="#64B5F6" opacity="0.5" r="2"/>
<circle cx="516.4788013910576" cy="432.6984126984127" fill="#64B5F6" opacity="0.5" r="2"/>
<circle cx="555.2720097570827" cy="432.6984126984127" fill="#64B5F6" opacity="0.5" r="2"/>
<circle cx="597.4315152739259" cy="432.6984126984127" fill="#64B5F6" opacity="0.5" r="2"/>
<circle cx="642.957317941587" cy="416.82539682539687" fill="#64B5F6" opacity="0.5" r="2"/>
<circle cx="691.8494177600659" cy="400.95238095238096" fill="#64B5F6" opacity="0.5" r="2"/>
<circle cx="738.2167947154313" cy="369.2063492063492" fill="#64B5F6" opacity="0.5" r="2"/>
<circle cx="782.0594488076835" cy="337.46031746031747" fill="#64B5F6" opacity="0.5" r="2"/>
<circle cx="823.377380036822" cy="321.58730158730157" fill="#64B5F6" opacity="0.5" r="2"/>
<circle cx="868.0616084167787" cy="321.58730158730157" fill="#64B5F6" opacity="0.5" r="2"/>
<circle cx="910.2211139336217" cy="321.58730158730157" fill="#64B5F6" opacity="0.5" r="2"/>
<circle cx="949.8558965873515" cy="321.58730158730157" fill="#64B5F6" opacity="0.5" r="2"/>
<circle cx="992.8569763918991" cy="321.58730158730157" fill="#64B5F6" opacity="0.5" r="2"/>
<circle cx="1033.3333333333333" cy="321.58730158730157" fill="#64B5F6" opacity="0.5" r="2"/>
</g>
<g id="vehicles">
<rect fill="#4CAF50" height="6" rx="1" stroke="#333333" stroke-width="1" width="12" x="211.16112392893487" y="318.58730158730157"/>
<text fill="#333333" font-family="Arial, sans-serif" font-size="10" font-weight="bold" text-anchor="middle" x="217.16112392893487" y="313.58730158730157">
ego (t=0)
</text>
<rect fill="#4CAF50" height="6" opacity="0.8" rx="1" stroke="#333333" stroke-dasharray="3,3" stroke-width="2" width="12" x="844.8665625704009" y="318.58730158730157"/>
<text fill="#333333" font-family="Arial, sans-serif" font-size="10" font-weight="bold" text-anchor="middle" x="850.8665625704009" y="339.58730158730157">
ego (t=12.0)
</text>
<rect fill="#2196F3" height="6" rx="1" stroke="#333333" stroke-width="1" width="12" x="160.66666666666669" y="318.58730158730157"/>
<text fill="#333333" font-family="Arial, sans-serif" font-size="10" font-weight="bold" text-anchor="middle" x="166.66666666666669" y="313.58730158730157">
npc (t=0)
</text>
<rect fill="#2196F3" height="6" opacity="0.8" rx="1" stroke="#333333" stroke-dasharray="3,3" stroke-width="2" width="12" x="1027.3333333333333" y="318.58730158730157"/>
<text fill="#333333" font-family="Arial, sans-serif" font-size="10" font-weight="bold" text-anchor="middle" x="1033.3333333333333" y="339.58730158730157">
npc (t=12.0)
</text>
</g>
<g id="legend">
<rect fill="white" height="100" rx="3" stroke="#333333" stroke-width="1" width="150" x="970" y="420"/>
<text fill="#333333" font-family="Arial, sans-serif" font-size="12" font-weight="bold" text-anchor="middle" x="1045" y="435">
Legend
</text>
<rect fill="#4CAF50" height="8" width="12" x="980" y="445"/>
<text fill="#333333" font-family="Arial, sans-serif" font-size="10" text-anchor="start" x="1000" y="452">
Ego Vehicle
</text>
<rect fill="#2196F3" height="8" width="12" x="980" y="460"/>
<text fill="#333333" font-family="Arial, sans-serif" font-size="10" text-anchor="start" x="1000" y="467">
NPC Vehicle
</text>
<circle cx="986" cy="479" fill="#FF9800" r="4"/>
<text fill="#333333" font-family="Arial, sans-serif" font-size="10" text-anchor="start" x="1000" y="482">
Pedestrian
</text>
<circle cx="986" cy="498" fill="none" r="6" stroke="#F44336" stroke-width="2"/>
<text fill="#333333" font-family="Arial, sans-serif" font-size="10" text-anchor="start" x="1000" y="501">
Safety Violation
</text>
</g>
</svg>