<svg height="600" viewBox="0 0 1200 600" width="1200" xmlns="http://www.w3.org/2000/svg">
<rect fill="#F5F5F5" height="600" width="1200"/>
<g id="header">
<text fill="#333333" font-family="Arial, sans-serif" font-size="24" font-weight="bold" text-anchor="middle" x="600" y="30">
Scenario: overtake_left
</text>
<text fill="#333333" font-family="Arial, sans-serif" font-size="12" text-anchor="middle" x="600" y="55">
ID: d79d8994 | Duration: 12.0s | Time Step: 0.50s
</text>
</g>
<g id="metrics">
<text fill="#333333" font-family="Arial, sans-serif" font-size="14" text-anchor="middle" x="600" y="80">
Min TTC: 6.74s | Min Distance: 4.03m | Max Accel: 4.00 m/s² | Max Decel: -3.00 m/s² | Constraints: 
</text>
<text fill="#4CAF50" font-family="Arial, sans-serif" font-size="14" font-weight="bold" text-anchor="start" x="920" y="80">
✓ SAFE
</text>
</g>
<rect fill="#2A2A2A" height="400" width="1040" x="80" y="120"/>
<g id="lane_markings">
<line opacity="0.6" stroke="#FFFFFF" stroke-dasharray="10,10" stroke-width="2" x1="80" x2="1120" y1="375.55555555555554" y2="375.55555555555554"/>
<line opacity="0.6" stroke="#FFFFFF" stroke-dasharray="10,10" stroke-width="2" x1="80" x2="1120" y1="264.44444444444446" y2="264.44444444444446"/>
<line stroke="#FFFFFF" stroke-width="3" x1="80" x2="1120" y1="153.33333333333334" y2="153.33333333333334"/>
<line stroke="#FFFFFF" stroke-width="3" x1="80" x2="1120" y1="486.6666666666667" y2="486.6666666666667"/>
</g>
<g id="trajectories">
<path d="M 214.33680725429284 321.58730158730157 L 239.7608822343601 321.58730158730157 L 265.9794595575545 321.58730158730157 L 292.99253922387595 321.58730158730157 L 320.8001212333246 321.58730158730157 L 349.4022055859003 321.58730158730157 L 378.7987922816031 321.58730158730157 L 408.98988132043297 321.58730158730157 L 439.97547270238994 321.58730158730157 L 471.7555664274741 321.58730158730157 L 504.3301624956853 321.58730158730157 L 537.6992609070236 321.58730158730157 L 569.9957811551403 321.58730158730157 L 600.7032967170028 321.58730158730157 L 629.8218075926112 321.58730158730157 L 657.3513137819652 321.58730158730157 L 683.2918152850651 321.58730158730157 L 707.6433121019109 321.58730158730157 L 730.4058042325023 321.58730158730157 L 753.962798706221 321.58730158730157 L 778.3142955230667 321.58730158730157 L 801.0767876536581 321.58730158730157 L 822.2502750979954 321.58730158730157 L 844.2182648854598 321.58730158730157 L 864.59724998667 321.58730158730157 " fill="none" opacity="0.7" stroke="#8BC34A" stroke-width="3"/>
<circle cx="214.33680725429284" cy="321.58730158730157" fill="#8BC34A" opacity="0.5" r="2"/>
<circle cx="239.7608822343601" cy="321.58730158730157" fill="#8BC34A" opacity="0.5" r="2"/>
<circle cx="265.9794595575545" cy="321.58730158730157" fill="#8BC34A" opacity="0.5" r="2"/>
<circle cx="292.99253922387595" cy="321.58730158730157" fill="#8BC34A" opacity="0.5" r="2"/>
<circle cx="320.8001212333246" cy="321.58730158730157" fill="#8BC34A" opacity="0.5" r="2"/>
<circle cx="349.4022055859003" cy="321.58730158730157" fill="#8BC34A" opacity="0.5" r="2"/>
<circle cx="378.7987922816031" cy="321.58730158730157" fill="#8BC34A" opacity="0.5" r="2"/>
<circle cx="408.98988132043297" cy="321.58730158730157" fill="#8BC34A" opacity="0.5" r="2"/>
<circle cx="439.97547270238994" cy="321.58730158730157" fill="#8BC34A" opacity="0.5" r="2"/>
<circle cx="471.7555664274741" cy="321.58730158730157" fill="#8BC34A" opacity="0.5" r="2"/>
<circle cx="504.3301624956853" cy="321.58730158730157" fill="#8BC34A" opacity="0.5" r="2"/>
<circle cx="537.6992609070236" cy="321.58730158730157" fill="#8BC34A" opacity="0.5" r="2"/>
<circle cx="569.9957811551403" cy="321.58730158730157" fill="#8BC34A" opacity="0.5" r="2"/>
<circle cx="600.7032967170028" cy="321.58730158730157" fill="#8BC34A" opacity="0.5" r="2"/>
<circle cx="629.8218075926112" cy="321.58730158730157" fill="#8BC34A" opacity="0.5" r="2"/>
<circle cx="657.3513137819652" cy="321.58730158730157" fill="#8BC34A" opacity="0.5" r="2"/>
<circle cx="683.2918152850651" cy="321.58730158730157" fill="#8BC34A" opacity="0.5" r="2"/>
<circle cx="707.6433121019109" cy="321.58730158730157" fill="#8BC34A" opacity="0.5" r="2"/>
<circle cx="730.4058042325023" cy="321.58730158730157" fill="#8BC34A" opacity="0.5" r="2"/>
<circle cx="753.962798706221" cy="321.58730158730157" fill="#8BC34A" opacity="0.5" r="2"/>
<circle cx="778.3142955230667" cy="321.58730158730157" fill="#8BC34A" opacity="0.5" r="2"/>
<circle cx="801.0767876536581" cy="321.58730158730157" fill="#8BC34A" opacity="0.5" r="2"/>
<circle cx="822.2502750979954" cy="321.58730158730157" fill="#8BC34A" opacity="0.5" r="2"/>
<circle cx="844.2182648854598" cy="321.58730158730157" fill="#8BC34A" opacity="0.5" r="2"/>
<circle cx="864.59724998667" cy="321.58730158730157" fill="#8BC34A" opacity="0.5" r="2"/>
<path d="M 166.66666666666669 321.58730158730157 L 195.62870922367955 321.58730158730157 L 222.20724475131112 321.58730158730157 L 246.40227324956135 321.58730158730157 L 268.21379471843034 321.58730158730157 L 293.2033255598077 337.46031746031747 L 321.37086577369337 369.2063492063492 L 352.7164153600876 385.0793650793651 L 385.97606702007675 416.82539682539687 L 416.8522116506847 432.6984126984127 L 445.3448492519112 432.6984126984127 L 471.45397982375647 432.6984126984127 L 500.7411197681101 432.6984126984127 L 533.2062690849721 432.6984126984127 L 568.8494277743428 432.6984126984127 L 607.6705958362215 416.82539682539687 L 649.6697732706089 400.95238095238096 L 694.8469600775045 369.2063492063492 L 743.2021562569087 337.46031746031747 L 789.1738454069315 321.58730158730157 L 838.3235439294627 321.58730158730157 L 890.6512518245024 321.58730158730157 L 940.5954526901606 321.58730158730157 L 988.1561465264377 321.58730158730157 L 1033.3333333333333 321.58730158730157 " fill="none" opacity="0.7" stroke="#64B5F6" stroke-width="3"/>
<circle cx="166.66666666666669" cy="321.58730158730157" fill="#64B5F6" opacity="0.5" r="2"/>
<circle cx="195.62870922367955" cy="321.58730158730157" fill="#64B5F6" opacity="0.5" r="2"/>
<circle cx="222.20724475131112" cy="321.58730158730157" fill="#64B5F6" opacity="0.5" r="2"/>
<circle cx="246.40227324956135" cy="321.58730158730157" fill="#64B5F6" opacity="0.5" r="2"/>
<circle cx="268.21379471843034" cy="321.58730158730157" fill="#64B5F6" opacity="0.5" r="2"/>
<circle cx="293.2033255598077" cy="337.46031746031747" fill="#64B5F6" opacity="0.5" r="2"/>
<circle cx="321.37086577369337" cy="369.2063492063492" fill="#64B5F6" opacity="0.5" r="2"/>
<circle cx="352.7164153600876" cy="385.0793650793651" fill="#64B5F6" opacity="0.5" r="2"/>
<circle cx="385.97606702007675" cy="416.82539682539687" fill="#64B5F6" opacity="0.5" r="2"/>
<circle cx="416.8522116506847" cy="432.6984126984127" fill="#64B5F6" opacity="0.5" r="2"/>
<circle cx="445.3448492519112" cy="432.6984126984127" fill="#64B5F6" opacity="0.5" r="2"/>
<circle cx="471.45397982375647" cy="432.6984126984127" fill="#64B5F6" opacity="0.5" r="2"/>
<circle cx="500.7411197681101" cy="432.6984126984127" fill="#64B5F6" opacity="0.5" r="2"/>
<circle cx="533.2062690849721" cy="432.6984126984127" fill="#64B5F6" opacity="0.5" r="2"/>
<circle cx="568.8494277743428" cy="432.6984126984127" fill="#64B5F6" opacity="0.5" r="2"/>
<circle cx="607.6705958362215" cy="416.82539682539687" fill="#64B5F6" opacity="0.5" r="2"/>
<circle cx="649.6697732706089" cy="400.95238095238096" fill="#64B5F6" opacity="0.5" r="2"/>
<circle cx="694.8469600775045" cy="369.2063492063492" fill="#64B5F6" opacity="0.5" r="2"/>
<circle cx="743.2021562569087" cy="337.46031746031747" fill="#64B5F6" opacity="0.5" r="2"/>
<circle cx="789.1738454069315" cy="321.58730158730157" fill="#64B5F6" opacity="0.5" r="2"/>
<circle cx="838.3235439294627" cy="321.58730158730157" fill="#64B5F6" opacity="0.5" r="2"/>
<circle cx="890.6512518245024" cy="321.58730158730157" fill="#64B5F6" opacity="0.5" r="2"/>
<circle cx="940.5954526901606" cy="321.58730158730157" fill="#64B5F6" opacity="0.5" r="2"/>
<circle cx="988.1561465264377" cy="321.58730158730157" fill="#64B5F6" opacity="0.5" r="2"/>
<circle cx="1033.3333333333333" cy="321.58730158730157" fill="#64B5F6" opacity="0.5" r="2"/>
</g>
<g id="vehicles">
<rect fill="#4CAF50" height="6" rx="1" stroke="#333333" stroke-width="1" width="12" x="208.33680725429284" y="318.58730158730157"/>
<text fill="#333333" font-family="Arial, sans-serif" font-size="10" font-weight="bold" text-anchor="middle" x="214.33680725429284" y="313.58730158730157">
ego (t=0)
</text>
<rect fill="#4CAF50" height="6" opacity="0.8" rx="1" stroke="#333333" stroke-dasharray="3,3" stroke-width="2" width="12" x="858.59724998667" y="318.58730158730157"/>
<text fill="#333333" font-family="Arial, sans-serif" font-size="10" font-weight="bold" text-anchor="middle" x="864.59724998667" y="339.58730158730157">
ego (t=12.0)
</text>
<rect fill="#2196F3" height="6" rx="1" stroke="#333333" stroke-width="1" width="12" x="160.66666666666669" y="318.58730158730157"/>
<text fill="#333333" font-family="Arial, sans-serif" font-size="10" font-weight="bold" text-anchor="middle" x="166.66666666666669" y="313.58730158730157">
npc (t=0)
</text>
<rect fill="#2196F3" height="6" opacity="0.8" rx="1" stroke="#333333" stroke-dasharray="3,3" stroke-width="2" width="12" x="1027.3333333333333" y="318.58730158730157"/>
<text fill="#333333" font-family="Arial, sans-serif" font-size="10" font-weight="bold" text-anchor="middle" x="1033.3333333333333" y="339.58730158730157">
npc (t=12.0)
</text>
</g>
<g id="legend">
<rect fill="white" height="100" rx="3" stroke="#333333" stroke-width="1" width="150" x="970" y="420"/>
<text fill="#333333" font-family="Arial, sans-serif" font-size="12" font-weight="bold" text-anchor="middle" x="1045" y="435">
Legend
</text>
<rect fill="#4CAF50" height="8" width="12" x="980" y="445"/>
<text fill="#333333" font-family="Arial, sans-serif" font-size="10" text-anchor="start" x="1000" y="452">
Ego Vehicle
</text>
<rect fill="#2196F3" height="8" width="12" x="980" y="460"/>
<text fill="#333333" font-family="Arial, sans-serif" font-size="10" text-anchor="start" x="1000" y="467">
NPC Vehicle
</text>
<circle cx="986" cy="479" fill="#FF9800" r="4"/>
<text fill="#333333" font-family="Arial, sans-serif" font-size="10" text-anchor="start" x="1000" y="482">
Pedestrian
</text>
<circle cx="986" cy="498" fill="none" r="6" stroke="#F44336" stroke-width="2"/>
<text fill="#333333" font-family="Arial, sans-serif" font-size="10" text-anchor="start" x="1000" y="501">
Safety Violation
</text>
</g>
</svg>