<svg height="600" viewBox="0 0 1200 600" width="1200" xmlns="http://www.w3.org/2000/svg">
<rect fill="#F5F5F5" height="600" width="1200"/>
<g id="header">
<text fill="#333333" font-family="Arial, sans-serif" font-size="24" font-weight="bold" text-anchor="middle" x="600" y="30">
Scenario: overtake_left
</text>
<text fill="#333333" font-family="Arial, sans-serif" font-size="12" text-anchor="middle" x="600" y="55">
ID: d7c4f843 | Duration: 12.0s | Time Step: 0.50s
</text>
</g>
<g id="metrics">
<text fill="#333333" font-family="Arial, sans-serif" font-size="14" text-anchor="middle" x="600" y="80">
Min TTC: 3.75s | Min Distance: 4.06m | Max Accel: 4.00 m/s² | Max Decel: -3.00 m/s² | Constraints: 
</text>
<text fill="#4CAF50" font-family="Arial, sans-serif" font-size="14" font-weight="bold" text-anchor="start" x="920" y="80">
✓ SAFE
</text>
</g>
<rect fill="#2A2A2A" height="400" width="1040" x="80" y="120"/>
<g id="lane_markings">
<line opacity="0.6" stroke="#FFFFFF" stroke-dasharray="10,10" stroke-width="2" x1="80" x2="1120" y1="375.55555555555554" y2="375.55555555555554"/>
<line opacity="0.6" stroke="#FFFFFF" stroke-dasharray="10,10" stroke-width="2" x1="80" x2="1120" y1="264.44444444444446" y2="264.44444444444446"/>
<line stroke="#FFFFFF" stroke-width="3" x1="80" x2="1120" y1="153.33333333333334" y2="153.33333333333334"/>
<line stroke="#FFFFFF" stroke-width="3" x1="80" x2="1120" y1="486.6666666666667" y2="486.6666666666667"/>
</g>
<g id="trajectories">
<path d="M 212.67418712674186 321.58730158730157 L 237.2115313721153 321.58730158730157 L 262.51566762515665 321.58730158730157 L 288.5865958858659 321.58730158730157 L 315.4243161542431 321.58730158730157 L 343.02882843028823 321.58730158730157 L 371.4001327140013 321.58730158730157 L 400.5382290053822 321.58730158730157 L 430.4431173044311 321.58730158730157 L 461.11479761114794 321.58730158730157 L 492.5532699255326 321.58730158730157 L 524.7585342475852 321.58730158730157 L 557.7305905773059 321.58730158730157 L 589.1690628916906 321.58730158730157 L 619.0739511907394 321.58730158730157 L 647.4452554744524 321.58730158730157 L 674.2829757428296 321.58730158730157 L 699.587111995871 321.58730158730157 L 723.3576642335765 321.58730158730157 L 745.5946324559462 321.58730158730157 L 766.2980166629801 321.58730158730157 L 787.7681928776818 321.58730158730157 L 807.7047850770477 321.58730158730157 L 828.4081692840816 321.58730158730157 L 849.8783454987833 321.58730158730157 " fill="none" opacity="0.7" stroke="#8BC34A" stroke-width="3"/>
<circle cx="212.67418712674186" cy="321.58730158730157" fill="#8BC34A" opacity="0.5" r="2"/>
<circle cx="237.2115313721153" cy="321.58730158730157" fill="#8BC34A" opacity="0.5" r="2"/>
<circle cx="262.51566762515665" cy="321.58730158730157" fill="#8BC34A" opacity="0.5" r="2"/>
<circle cx="288.5865958858659" cy="321.58730158730157" fill="#8BC34A" opacity="0.5" r="2"/>
<circle cx="315.4243161542431" cy="321.58730158730157" fill="#8BC34A" opacity="0.5" r="2"/>
<circle cx="343.02882843028823" cy="321.58730158730157" fill="#8BC34A" opacity="0.5" r="2"/>
<circle cx="371.4001327140013" cy="321.58730158730157" fill="#8BC34A" opacity="0.5" r="2"/>
<circle cx="400.5382290053822" cy="321.58730158730157" fill="#8BC34A" opacity="0.5" r="2"/>
<circle cx="430.4431173044311" cy="321.58730158730157" fill="#8BC34A" opacity="0.5" r="2"/>
<circle cx="461.11479761114794" cy="321.58730158730157" fill="#8BC34A" opacity="0.5" r="2"/>
<circle cx="492.5532699255326" cy="321.58730158730157" fill="#8BC34A" opacity="0.5" r="2"/>
<circle cx="524.7585342475852" cy="321.58730158730157" fill="#8BC34A" opacity="0.5" r="2"/>
<circle cx="557.7305905773059" cy="321.58730158730157" fill="#8BC34A" opacity="0.5" r="2"/>
<circle cx="589.1690628916906" cy="321.58730158730157" fill="#8BC34A" opacity="0.5" r="2"/>
<circle cx="619.0739511907394" cy="321.58730158730157" fill="#8BC34A" opacity="0.5" r="2"/>
<circle cx="647.4452554744524" cy="321.58730158730157" fill="#8BC34A" opacity="0.5" r="2"/>
<circle cx="674.2829757428296" cy="321.58730158730157" fill="#8BC34A" opacity="0.5" r="2"/>
<circle cx="699.587111995871" cy="321.58730158730157" fill="#8BC34A" opacity="0.5" r="2"/>
<circle cx="723.3576642335765" cy="321.58730158730157" fill="#8BC34A" opacity="0.5" r="2"/>
<circle cx="745.5946324559462" cy="321.58730158730157" fill="#8BC34A" opacity="0.5" r="2"/>
<circle cx="766.2980166629801" cy="321.58730158730157" fill="#8BC34A" opacity="0.5" r="2"/>
<circle cx="787.7681928776818" cy="321.58730158730157" fill="#8BC34A" opacity="0.5" r="2"/>
<circle cx="807.7047850770477" cy="321.58730158730157" fill="#8BC34A" opacity="0.5" r="2"/>
<circle cx="828.4081692840816" cy="321.58730158730157" fill="#8BC34A" opacity="0.5" r="2"/>
<circle cx="849.8783454987833" cy="321.58730158730157" fill="#8BC34A" opacity="0.5" r="2"/>
<path d="M 166.66666666666666 321.58730158730157 L 197.33834697338347 321.58730158730157 L 225.7096512570965 321.58730158730157 L 251.7805795178058 321.58730158730157 L 275.5511317555113 321.58730158730157 L 302.3888520238885 337.46031746031747 L 326.92619626926194 369.2063492063492 L 349.1631644916316 400.95238095238096 L 369.15726609157264 416.82539682539687 L 392.21853572218527 432.6984126984127 L 418.3469733834697 432.6984126984127 L 447.5425790754258 432.6984126984127 L 479.8053527980535 432.6984126984127 L 515.1352945513529 432.6984126984127 L 553.5324043353239 432.6984126984127 L 594.9966821499668 416.82539682539687 L 639.5281279952811 400.95238095238096 L 687.1267418712673 369.2063492063492 L 735.8180343581803 337.46031746031747 L 782.2089508220894 321.58730158730157 L 826.2994912629948 321.58730158730157 L 873.457199734572 321.58730158730157 L 923.6820762368208 321.58730158730157 L 976.9741207697411 321.58730158730157 L 1033.3333333333333 321.58730158730157 " fill="none" opacity="0.7" stroke="#64B5F6" stroke-width="3"/>
<circle cx="166.66666666666666" cy="321.58730158730157" fill="#64B5F6" opacity="0.5" r="2"/>
<circle cx="197.33834697338347" cy="321.58730158730157" fill="#64B5F6" opacity="0.5" r="2"/>
<circle cx="225.7096512570965" cy="321.58730158730157" fill="#64B5F6" opacity="0.5" r="2"/>
<circle cx="251.7805795178058" cy="321.58730158730157" fill="#64B5F6" opacity="0.5" r="2"/>
<circle cx="275.5511317555113" cy="321.58730158730157" fill="#64B5F6" opacity="0.5" r="2"/>
<circle cx="302.3888520238885" cy="337.46031746031747" fill="#64B5F6" opacity="0.5" r="2"/>
<circle cx="326.92619626926194" cy="369.2063492063492" fill="#64B5F6" opacity="0.5" r="2"/>
<circle cx="349.1631644916316" cy="400.95238095238096" fill="#64B5F6" opacity="0.5" r="2"/>
<circle cx="369.15726609157264" cy="416.82539682539687" fill="#64B5F6" opacity="0.5" r="2"/>
<circle cx="392.21853572218527" cy="432.6984126984127" fill="#64B5F6" opacity="0.5" r="2"/>
<circle cx="418.3469733834697" cy="432.6984126984127" fill="#64B5F6" opacity="0.5" r="2"/>
<circle cx="447.5425790754258" cy="432.6984126984127" fill="#64B5F6" opacity="0.5" r="2"/>
<circle cx="479.8053527980535" cy="432.6984126984127" fill="#64B5F6" opacity="0.5" r="2"/>
<circle cx="515.1352945513529" cy="432.6984126984127" fill="#64B5F6" opacity="0.5" r="2"/>
<circle cx="553.5324043353239" cy="432.6984126984127" fill="#64B5F6" opacity="0.5" r="2"/>
<circle cx="594.9966821499668" cy="416.82539682539687" fill="#64B5F6" opacity="0.5" r="2"/>
<circle cx="639.5281279952811" cy="400.95238095238096" fill="#64B5F6" opacity="0.5" r="2"/>
<circle cx="687.1267418712673" cy="369.2063492063492" fill="#64B5F6" opacity="0.5" r="2"/>
<circle cx="735.8180343581803" cy="337.46031746031747" fill="#64B5F6" opacity="0.5" r="2"/>
<circle cx="782.2089508220894" cy="321.58730158730157" fill="#64B5F6" opacity="0.5" r="2"/>
<circle cx="826.2994912629948" cy="321.58730158730157" fill="#64B5F6" opacity="0.5" r="2"/>
<circle cx="873.457199734572" cy="321.58730158730157" fill="#64B5F6" opacity="0.5" r="2"/>
<circle cx="923.6820762368208" cy="321.58730158730157" fill="#64B5F6" opacity="0.5" r="2"/>
<circle cx="976.9741207697411" cy="321.58730158730157" fill="#64B5F6" opacity="0.5" r="2"/>
<circle cx="1033.3333333333333" cy="321.58730158730157" fill="#64B5F6" opacity="0.5" r="2"/>
</g>
<g id="vehicles">
<rect fill="#4CAF50" height="6" rx="1" stroke="#333333" stroke-width="1" width="12" x="206.67418712674186" y="318.58730158730157"/>
<text fill="#333333" font-family="Arial, sans-serif" font-size="10" font-weight="bold" text-anchor="middle" x="212.67418712674186" y="313.58730158730157">
ego (t=0)
</text>
<rect fill="#4CAF50" height="6" opacity="0.8" rx="1" stroke="#333333" stroke-dasharray="3,3" stroke-width="2" width="12" x="843.8783454987833" y="318.58730158730157"/>
<text fill="#333333" font-family="Arial, sans-serif" font-size="10" font-weight="bold" text-anchor="middle" x="849.8783454987833" y="339.58730158730157">
ego (t=12.0)
</text>
<rect fill="#2196F3" height="6" rx="1" stroke="#333333" stroke-width="1" width="12" x="160.66666666666666" y="318.58730158730157"/>
<text fill="#333333" font-family="Arial, sans-serif" font-size="10" font-weight="bold" text-anchor="middle" x="166.66666666666666" y="313.58730158730157">
npc (t=0)
</text>
<rect fill="#2196F3" height="6" opacity="0.8" rx="1" stroke="#333333" stroke-dasharray="3,3" stroke-width="2" width="12" x="1027.3333333333333" y="318.58730158730157"/>
<text fill="#333333" font-family="Arial, sans-serif" font-size="10" font-weight="bold" text-anchor="middle" x="1033.3333333333333" y="339.58730158730157">
npc (t=12.0)
</text>
</g>
<g id="legend">
<rect fill="white" height="100" rx="3" stroke="#333333" stroke-width="1" width="150" x="970" y="420"/>
<text fill="#333333" font-family="Arial, sans-serif" font-size="12" font-weight="bold" text-anchor="middle" x="1045" y="435">
Legend
</text>
<rect fill="#4CAF50" height="8" width="12" x="980" y="445"/>
<text fill="#333333" font-family="Arial, sans-serif" font-size="10" text-anchor="start" x="1000" y="452">
Ego Vehicle
</text>
<rect fill="#2196F3" height="8" width="12" x="980" y="460"/>
<text fill="#333333" font-family="Arial, sans-serif" font-size="10" text-anchor="start" x="1000" y="467">
NPC Vehicle
</text>
<circle cx="986" cy="479" fill="#FF9800" r="4"/>
<text fill="#333333" font-family="Arial, sans-serif" font-size="10" text-anchor="start" x="1000" y="482">
Pedestrian
</text>
<circle cx="986" cy="498" fill="none" r="6" stroke="#F44336" stroke-width="2"/>
<text fill="#333333" font-family="Arial, sans-serif" font-size="10" text-anchor="start" x="1000" y="501">
Safety Violation
</text>
</g>
</svg>