<svg height="600" viewBox="0 0 1200 600" width="1200" xmlns="http://www.w3.org/2000/svg">
<rect fill="#F5F5F5" height="600" width="1200"/>
<g id="header">
<text fill="#333333" font-family="Arial, sans-serif" font-size="24" font-weight="bold" text-anchor="middle" x="600" y="30">
Scenario: overtake_left
</text>
<text fill="#333333" font-family="Arial, sans-serif" font-size="12" text-anchor="middle" x="600" y="55">
ID: 90fed616 | Duration: 12.0s | Time Step: 0.50s
</text>
</g>
<g id="metrics">
<text fill="#333333" font-family="Arial, sans-serif" font-size="14" text-anchor="middle" x="600" y="80">
Min TTC: 0.30s | Min Distance: 0.33m | Max Accel: 4.00 m/s² | Max Decel: -3.00 m/s² | Constraints: 
</text>
<text fill="#F44336" font-family="Arial, sans-serif" font-size="14" font-weight="bold" text-anchor="start" x="920" y="80">
✗ VIOLATED
</text>
</g>
<rect fill="#2A2A2A" height="400" width="1040" x="80" y="120"/>
<g id="lane_markings">
<line opacity="0.6" stroke="#FFFFFF" stroke-dasharray="10,10" stroke-width="2" x1="80" x2="1120" y1="375.55555555555554" y2="375.55555555555554"/>
<line opacity="0.6" stroke="#FFFFFF" stroke-dasharray="10,10" stroke-width="2" x1="80" x2="1120" y1="264.44444444444446" y2="264.44444444444446"/>
<line stroke="#FFFFFF" stroke-width="3" x1="80" x2="1120" y1="153.33333333333334" y2="153.33333333333334"/>
<line stroke="#FFFFFF" stroke-width="3" x1="80" x2="1120" y1="486.6666666666667" y2="486.6666666666667"/>
</g>
<g id="trajectories">
<path d="M 263.13804064165834 321.58730158730157 L 308.158015163321 321.58730158730157 L 349.96227721915074 321.58730158730157 L 388.5508268091474 321.58730158730157 L 426.0835508061955 321.58730158730157 L 465.2241310361602 321.58730158730157 L 505.97256749904136 321.58730158730157 L 548.3288601948391 321.58730158730157 L 592.2930091235534 321.58730158730157 L 633.0414455864345 321.58730158730157 L 670.5741695834827 321.58730158730157 L 704.8911811146978 321.58730158730157 L 735.9924801800797 321.58730158730157 L 763.8780667796287 321.58730158730157 L 788.5479409133446 321.58730158730157 L 810.0021025812275 321.58730158730157 L 828.2405517832774 321.58730158730157 L 843.263288519494 321.58730158730157 L 855.0703127898778 321.58730158730157 L 863.6616245944285 321.58730158730157 L 869.0372239331462 321.58730158730157 L 871.1971108060305 321.58730158730157 L 871.1971108060305 321.58730158730157 L 871.1971108060305 321.58730158730157 L 871.1971108060305 321.58730158730157 " fill="none" opacity="0.7" stroke="#8BC34A" stroke-width="3"/>
<circle cx="263.13804064165834" cy="321.58730158730157" fill="#8BC34A" opacity="0.5" r="2"/>
<circle cx="308.158015163321" cy="321.58730158730157" fill="#8BC34A" opacity="0.5" r="2"/>
<circle cx="349.96227721915074" cy="321.58730158730157" fill="#8BC34A" opacity="0.5" r="2"/>
<circle cx="388.5508268091474" cy="321.58730158730157" fill="#8BC34A" opacity="0.5" r="2"/>
<circle cx="426.0835508061955" cy="321.58730158730157" fill="#8BC34A" opacity="0.5" r="2"/>
<circle cx="465.2241310361602" cy="321.58730158730157" fill="#8BC34A" opacity="0.5" r="2"/>
<circle cx="505.97256749904136" cy="321.58730158730157" fill="#8BC34A" opacity="0.5" r="2"/>
<circle cx="548.3288601948391" cy="321.58730158730157" fill="#8BC34A" opacity="0.5" r="2"/>
<circle cx="592.2930091235534" cy="321.58730158730157" fill="#8BC34A" opacity="0.5" r="2"/>
<circle cx="633.0414455864345" cy="321.58730158730157" fill="#8BC34A" opacity="0.5" r="2"/>
<circle cx="670.5741695834827" cy="321.58730158730157" fill="#8BC34A" opacity="0.5" r="2"/>
<circle cx="704.8911811146978" cy="321.58730158730157" fill="#8BC34A" opacity="0.5" r="2"/>
<circle cx="735.9924801800797" cy="321.58730158730157" fill="#8BC34A" opacity="0.5" r="2"/>
<circle cx="763.8780667796287" cy="321.58730158730157" fill="#8BC34A" opacity="0.5" r="2"/>
<circle cx="788.5479409133446" cy="321.58730158730157" fill="#8BC34A" opacity="0.5" r="2"/>
<circle cx="810.0021025812275" cy="321.58730158730157" fill="#8BC34A" opacity="0.5" r="2"/>
<circle cx="828.2405517832774" cy="321.58730158730157" fill="#8BC34A" opacity="0.5" r="2"/>
<circle cx="843.263288519494" cy="321.58730158730157" fill="#8BC34A" opacity="0.5" r="2"/>
<circle cx="855.0703127898778" cy="321.58730158730157" fill="#8BC34A" opacity="0.5" r="2"/>
<circle cx="863.6616245944285" cy="321.58730158730157" fill="#8BC34A" opacity="0.5" r="2"/>
<circle cx="869.0372239331462" cy="321.58730158730157" fill="#8BC34A" opacity="0.5" r="2"/>
<circle cx="871.1971108060305" cy="321.58730158730157" fill="#8BC34A" opacity="0.5" r="2"/>
<circle cx="871.1971108060305" cy="321.58730158730157" fill="#8BC34A" opacity="0.5" r="2"/>
<circle cx="871.1971108060305" cy="321.58730158730157" fill="#8BC34A" opacity="0.5" r="2"/>
<circle cx="871.1971108060305" cy="321.58730158730157" fill="#8BC34A" opacity="0.5" r="2"/>
<path d="M 166.66666666666666 321.58730158730157 L 234.73794004757605 321.58730158730157 L 297.98564472973584 321.58730158730157 L 356.409780713146 321.58730158730157 L 410.0103479978067 321.58730158730157 L 458.7873465837177 337.46031746031747 L 502.74077647087915 369.2063492063492 L 550.4405113807361 385.0793650793651 L 593.3166775918436 416.82539682539687 L 631.3692751042014 432.6984126984127 L 664.5983039178096 432.6984126984127 L 693.0037640326683 432.6984126984127 L 716.5856554487773 432.6984126984127 L 735.3439781661368 432.6984126984127 L 758.9258695822459 432.6984126984127 L 788.939185930021 416.82539682539687 L 825.3839272094623 397.3809523809524 L 868.2600934205698 365.6349206349206 L 906.3126909329276 337.46031746031747 L 939.5417197465358 321.58730158730157 L 967.9471798613946 321.58730158730157 L 991.5290712775036 321.58730158730157 L 1010.287393994863 321.58730158730157 L 1024.222148013473 321.58730158730157 L 1033.3333333333333 321.58730158730157 " fill="none" opacity="0.7" stroke="#64B5F6" stroke-width="3"/>
<circle cx="166.66666666666666" cy="321.58730158730157" fill="#64B5F6" opacity="0.5" r="2"/>
<circle cx="234.73794004757605" cy="321.58730158730157" fill="#64B5F6" opacity="0.5" r="2"/>
<circle cx="297.98564472973584" cy="321.58730158730157" fill="#64B5F6" opacity="0.5" r="2"/>
<circle cx="356.409780713146" cy="321.58730158730157" fill="#64B5F6" opacity="0.5" r="2"/>
<circle cx="410.0103479978067" cy="321.58730158730157" fill="#64B5F6" opacity="0.5" r="2"/>
<circle cx="458.7873465837177" cy="337.46031746031747" fill="#64B5F6" opacity="0.5" r="2"/>
<circle cx="502.74077647087915" cy="369.2063492063492" fill="#64B5F6" opacity="0.5" r="2"/>
<circle cx="550.4405113807361" cy="385.0793650793651" fill="#64B5F6" opacity="0.5" r="2"/>
<circle cx="593.3166775918436" cy="416.82539682539687" fill="#64B5F6" opacity="0.5" r="2"/>
<circle cx="631.3692751042014" cy="432.6984126984127" fill="#64B5F6" opacity="0.5" r="2"/>
<circle cx="664.5983039178096" cy="432.6984126984127" fill="#64B5F6" opacity="0.5" r="2"/>
<circle cx="693.0037640326683" cy="432.6984126984127" fill="#64B5F6" opacity="0.5" r="2"/>
<circle cx="716.5856554487773" cy="432.6984126984127" fill="#64B5F6" opacity="0.5" r="2"/>
<circle cx="735.3439781661368" cy="432.6984126984127" fill="#64B5F6" opacity="0.5" r="2"/>
<circle cx="758.9258695822459" cy="432.6984126984127" fill="#64B5F6" opacity="0.5" r="2"/>
<circle cx="788.939185930021" cy="416.82539682539687" fill="#64B5F6" opacity="0.5" r="2"/>
<circle cx="825.3839272094623" cy="397.3809523809524" fill="#64B5F6" opacity="0.5" r="2"/>
<circle cx="868.2600934205698" cy="365.6349206349206" fill="#64B5F6" opacity="0.5" r="2"/>
<circle cx="906.3126909329276" cy="337.46031746031747" fill="#64B5F6" opacity="0.5" r="2"/>
<circle cx="939.5417197465358" cy="321.58730158730157" fill="#64B5F6" opacity="0.5" r="2"/>
<circle cx="967.9471798613946" cy="321.58730158730157" fill="#64B5F6" opacity="0.5" r="2"/>
<circle cx="991.5290712775036" cy="321.58730158730157" fill="#64B5F6" opacity="0.5" r="2"/>
<circle cx="1010.287393994863" cy="321.58730158730157" fill="#64B5F6" opacity="0.5" r="2"/>
<circle cx="1024.222148013473" cy="321.58730158730157" fill="#64B5F6" opacity="0.5" r="2"/>
<circle cx="1033.3333333333333" cy="321.58730158730157" fill="#64B5F6" opacity="0.5" r="2"/>
<circle cx="308.158015163321" cy="321.58730158730157" fill="none" r="8" stroke="#F44336" stroke-width="3"/>
<circle cx="234.73794004757605" cy="321.58730158730157" fill="none" r="8" stroke="#F44336" stroke-width="3"/>
<circle cx="349.96227721915074" cy="321.58730158730157" fill="none" r="8" stroke="#F44336" stroke-width="3"/>
<circle cx="297.98564472973584" cy="321.58730158730157" fill="none" r="8" stroke="#F44336" stroke-width="3"/>
<circle cx="388.5508268091474" cy="321.58730158730157" fill="none" r="8" stroke="#F44336" stroke-width="3"/>
<circle cx="356.409780713146" cy="321.58730158730157" fill="none" r="8" stroke="#F44336" stroke-width="3"/>
<circle cx="426.0835508061955" cy="321.58730158730157" fill="none" r="8" stroke="#F44336" stroke-width="3"/>
<circle cx="410.0103479978067" cy="321.58730158730157" fill="none" r="8" stroke="#F44336" stroke-width="3"/>
<circle cx="426.0835508061955" cy="321.58730158730157" fill="none" r="8" stroke="#F44336" stroke-width="3"/>
<circle cx="410.0103479978067" cy="321.58730158730157" fill="none" r="8" stroke="#F44336" stroke-width="3"/>
<circle cx="465.2241310361602" cy="321.58730158730157" fill="none" r="8" stroke="#F44336" stroke-width="3"/>
<circle cx="458.7873465837177" cy="337.46031746031747" fill="none" r="8" stroke="#F44336" stroke-width="3"/>
<circle cx="465.2241310361602" cy="321.58730158730157" fill="none" r="8" stroke="#F44336" stroke-width="3"/>
<circle cx="458.7873465837177" cy="337.46031746031747" fill="none" r="8" stroke="#F44336" stroke-width="3"/>
<circle cx="505.97256749904136" cy="321.58730158730157" fill="none" r="8" stroke="#F44336" stroke-width="3"/>
<circle cx="502.74077647087915" cy="369.2063492063492" fill="none" r="8" stroke="#F44336" stroke-width="3"/>
<circle cx="505.97256749904136" cy="321.58730158730157" fill="none" r="8" stroke="#F44336" stroke-width="3"/>
<circle cx="502.74077647087915" cy="369.2063492063492" fill="none" r="8" stroke="#F44336" stroke-width="3"/>
<circle cx="548.3288601948391" cy="321.58730158730157" fill="none" r="8" stroke="#F44336" stroke-width="3"/>
<circle cx="550.4405113807361" cy="385.0793650793651" fill="none" r="8" stroke="#F44336" stroke-width="3"/>
<circle cx="548.3288601948391" cy="321.58730158730157" fill="none" r="8" stroke="#F44336" stroke-width="3"/>
<circle cx="550.4405113807361" cy="385.0793650793651" fill="none" r="8" stroke="#F44336" stroke-width="3"/>
</g>
<g id="vehicles">
<rect fill="#4CAF50" height="6" rx="1" stroke="#333333" stroke-width="1" width="12" x="257.13804064165834" y="318.58730158730157"/>
<text fill="#333333" font-family="Arial, sans-serif" font-size="10" font-weight="bold" text-anchor="middle" x="263.13804064165834" y="313.58730158730157">
ego (t=0)
</text>
<rect fill="#4CAF50" height="6" opacity="0.8" rx="1" stroke="#333333" stroke-dasharray="3,3" stroke-width="2" width="12" x="865.1971108060305" y="318.58730158730157"/>
<text fill="#333333" font-family="Arial, sans-serif" font-size="10" font-weight="bold" text-anchor="middle" x="871.1971108060305" y="339.58730158730157">
ego (t=12.0)
</text>
<rect fill="#2196F3" height="6" rx="1" stroke="#333333" stroke-width="1" width="12" x="160.66666666666666" y="318.58730158730157"/>
<text fill="#333333" font-family="Arial, sans-serif" font-size="10" font-weight="bold" text-anchor="middle" x="166.66666666666666" y="313.58730158730157">
npc (t=0)
</text>
<rect fill="#2196F3" height="6" opacity="0.8" rx="1" stroke="#333333" stroke-dasharray="3,3" stroke-width="2" width="12" x="1027.3333333333333" y="318.58730158730157"/>
<text fill="#333333" font-family="Arial, sans-serif" font-size="10" font-weight="bold" text-anchor="middle" x="1033.3333333333333" y="339.58730158730157">
npc (t=12.0)
</text>
</g>
<g id="legend">
<rect fill="white" height="100" rx="3" stroke="#333333" stroke-width="1" width="150" x="970" y="420"/>
<text fill="#333333" font-family="Arial, sans-serif" font-size="12" font-weight="bold" text-anchor="middle" x="1045" y="435">
Legend
</text>
<rect fill="#4CAF50" height="8" width="12" x="980" y="445"/>
<text fill="#333333" font-family="Arial, sans-serif" font-size="10" text-anchor="start" x="1000" y="452">
Ego Vehicle
</text>
<rect fill="#2196F3" height="8" width="12" x="980" y="460"/>
<text fill="#333333" font-family="Arial, sans-serif" font-size="10" text-anchor="start" x="1000" y="467">
NPC Vehicle
</text>
<circle cx="986" cy="479" fill="#FF9800" r="4"/>
<text fill="#333333" font-family="Arial, sans-serif" font-size="10" text-anchor="start" x="1000" y="482">
Pedestrian
</text>
<circle cx="986" cy="498" fill="none" r="6" stroke="#F44336" stroke-width="2"/>
<text fill="#333333" font-family="Arial, sans-serif" font-size="10" text-anchor="start" x="1000" y="501">
Safety Violation
</text>
</g>
</svg>