<svg height="600" viewBox="0 0 1200 600" width="1200" xmlns="http://www.w3.org/2000/svg">
<rect fill="#F5F5F5" height="600" width="1200"/>
<g id="header">
<text fill="#333333" font-family="Arial, sans-serif" font-size="24" font-weight="bold" text-anchor="middle" x="600" y="30">
Scenario: cut_in_left
</text>
<text fill="#333333" font-family="Arial, sans-serif" font-size="12" text-anchor="middle" x="600" y="55">
ID: 4eba625b | Duration: 10.0s | Time Step: 0.10s
</text>
</g>
<g id="metrics">
<text fill="#333333" font-family="Arial, sans-serif" font-size="14" text-anchor="middle" x="600" y="80">
Min TTC: 0.03s | Min Distance: 0.00m | Max Accel: 3.00 m/s² | Max Decel: -8.00 m/s² | Constraints: 
</text>
<text fill="#F44336" font-family="Arial, sans-serif" font-size="14" font-weight="bold" text-anchor="start" x="920" y="80">
✗ VIOLATED
</text>
</g>
<rect fill="#2A2A2A" height="400" width="1040" x="80" y="120"/>
<g id="lane_markings">
<line opacity="0.6" stroke="#FFFFFF" stroke-dasharray="10,10" stroke-width="2" x1="80" x2="1120" y1="375.55555555555554" y2="375.55555555555554"/>
<line opacity="0.6" stroke="#FFFFFF" stroke-dasharray="10,10" stroke-width="2" x1="80" x2="1120" y1="264.44444444444446" y2="264.44444444444446"/>
<line stroke="#FFFFFF" stroke-width="3" x1="80" x2="1120" y1="153.33333333333334" y2="153.33333333333334"/>
<line stroke="#FFFFFF" stroke-width="3" x1="80" x2="1120" y1="486.6666666666667" y2="486.6666666666667"/>
</g>
<g id="trajectories">
<path d="M 166.66666666666663 321.58730158730157 L 187.4758647638651 321.58730158730157 L 207.0959658269379 321.58730158730157 L 225.52696985588497 321.58730158730157 L 242.76887685070656 321.58730158730157 L 258.8216868114025 321.58730158730157 L 273.68539973797283 321.58730158730157 L 287.3600156304173 321.58730158730157 L 299.8455344887364 321.58730158730157 L 311.1419563129299 321.58730158730157 L 321.24928110299754 321.58730158730157 L 330.16750885893987 321.58730158730157 L 337.89663958075636 321.58730158730157 L 344.43667326844724 321.58730158730157 L 349.78760992201256 321.58730158730157 L 353.9494495414522 321.58730158730157 L 356.92219212676633 321.58730158730157 L 358.70583767795483 321.58730158730157 L 360.93539461694024 321.58730158730157 L 363.610862943723 321.58730158730157 L 366.73224265830265 321.58730158730157 L 370.2995337606797 321.58730158730157 L 374.3127362508536 321.58730158730157 L 378.77185012882467 321.58730158730157 L 383.6768753945928 321.58730158730157 L 387.3928036262354 321.58730158730157 L 389.91963482375235 321.58730158730157 L 391.2573689871437 321.58730158730157 L 392.3116254838415 321.58730158730157 L 393.81179336833634 321.58730158730157 L 395.75787264062836 321.58730158730157 L 398.14986330071747 321.58730158730157 L 400.9877653486038 321.58730158730157 L 404.27157878428693 321.58730158730157 L 408.0013036077674 321.58730158730157 L 412.17693981904506 321.58730158730157 L 416.7984874181196 321.58730158730157 L 421.86594640499146 321.58730158730157 L 427.37931677966026 321.58730158730157 L 433.3385985421262 321.58730158730157 L 439.7437916923892 321.58730158730157 L 446.5948962304496 321.58730158730157 L 453.8919121563069 321.58730158730157 L 461.6348394699613 321.58730158730157 L 469.82367817141267 321.58730158730157 L 478.4584282606613 321.58730158730157 L 487.5390897377072 321.58730158730157 L 497.06566260255005 321.58730158730157 L 507.0381468551899 321.58730158730157 L 517.4565424956271 321.58730158730157 L 528.3208495238612 321.58730158730157 L 539.6310679398923 321.58730158730157 L 551.3871977437207 321.58730158730157 L 563.5892389353464 321.58730158730157 L 576.2371915147689 321.58730158730157 L 589.3310554819886 321.58730158730157 L 602.8708308370055 321.58730158730157 L 616.8565175798193 321.58730158730157 L 631.2881157104304 321.58730158730157 L 646.1656252288386 321.58730158730157 L 661.4890461350437 321.58730158730157 L 677.2583784290463 321.58730158730157 L 693.4736221108456 321.58730158730157 L 710.1347771804424 321.58730158730157 L 727.2418436378359 321.58730158730157 L 744.7948214830267 321.58730158730157 L 762.7937107160146 321.58730158730157 L 781.2385113367997 321.58730158730157 L 799.383875758889 321.58730158730157 L 816.6492444457773 321.58730158730157 L 834.3605245204628 321.58730158730157 L 852.5177159829452 321.58730158730157 L 871.1208188332249 321.58730158730157 L 890.1698330713016 321.58730158730157 L 908.0297502752526 321.58730158730157 L 924.7005704450783 321.58730158730157 L 940.182293580778 321.58730158730157 L 954.4749196823523 321.58730158730157 L 967.5784487498009 321.58730158730157 L 979.4928807831238 321.58730158730157 L 990.2182157823213 321.58730158730157 L 999.7544537473929 321.58730158730157 L 1008.1015946783392 321.58730158730157 L 1015.2596385751596 321.58730158730157 L 1021.2285854378545 321.58730158730157 L 1026.0084352664237 321.58730158730157 L 1029.5991880608674 321.58730158730157 L 1032.0008438211853 321.58730158730157 L 1033.2134025473774 321.58730158730157 L 1033.2368642394445 321.58730158730157 L 1033.2368642394445 321.58730158730157 L 1033.2368642394445 321.58730158730157 L 1033.2368642394445 321.58730158730157 L 1033.2368642394445 321.58730158730157 L 1033.2368642394445 321.58730158730157 L 1033.2368642394445 321.58730158730157 L 1033.2368642394445 321.58730158730157 L 1033.2368642394445 321.58730158730157 L 1033.2368642394445 321.58730158730157 L 1033.2368642394445 321.58730158730157 L 1033.2368642394445 321.58730158730157 " fill="none" opacity="0.7" stroke="#8BC34A" stroke-width="3"/>
<circle cx="166.66666666666663" cy="321.58730158730157" fill="#8BC34A" opacity="0.5" r="2"/>
<circle cx="187.4758647638651" cy="321.58730158730157" fill="#8BC34A" opacity="0.5" r="2"/>
<circle cx="207.0959658269379" cy="321.58730158730157" fill="#8BC34A" opacity="0.5" r="2"/>
<circle cx="225.52696985588497" cy="321.58730158730157" fill="#8BC34A" opacity="0.5" r="2"/>
<circle cx="242.76887685070656" cy="321.58730158730157" fill="#8BC34A" opacity="0.5" r="2"/>
<circle cx="258.8216868114025" cy="321.58730158730157" fill="#8BC34A" opacity="0.5" r="2"/>
<circle cx="273.68539973797283" cy="321.58730158730157" fill="#8BC34A" opacity="0.5" r="2"/>
<circle cx="287.3600156304173" cy="321.58730158730157" fill="#8BC34A" opacity="0.5" r="2"/>
<circle cx="299.8455344887364" cy="321.58730158730157" fill="#8BC34A" opacity="0.5" r="2"/>
<circle cx="311.1419563129299" cy="321.58730158730157" fill="#8BC34A" opacity="0.5" r="2"/>
<circle cx="321.24928110299754" cy="321.58730158730157" fill="#8BC34A" opacity="0.5" r="2"/>
<circle cx="330.16750885893987" cy="321.58730158730157" fill="#8BC34A" opacity="0.5" r="2"/>
<circle cx="337.89663958075636" cy="321.58730158730157" fill="#8BC34A" opacity="0.5" r="2"/>
<circle cx="344.43667326844724" cy="321.58730158730157" fill="#8BC34A" opacity="0.5" r="2"/>
<circle cx="349.78760992201256" cy="321.58730158730157" fill="#8BC34A" opacity="0.5" r="2"/>
<circle cx="353.9494495414522" cy="321.58730158730157" fill="#8BC34A" opacity="0.5" r="2"/>
<circle cx="356.92219212676633" cy="321.58730158730157" fill="#8BC34A" opacity="0.5" r="2"/>
<circle cx="358.70583767795483" cy="321.58730158730157" fill="#8BC34A" opacity="0.5" r="2"/>
<circle cx="360.93539461694024" cy="321.58730158730157" fill="#8BC34A" opacity="0.5" r="2"/>
<circle cx="363.610862943723" cy="321.58730158730157" fill="#8BC34A" opacity="0.5" r="2"/>
<circle cx="366.73224265830265" cy="321.58730158730157" fill="#8BC34A" opacity="0.5" r="2"/>
<circle cx="370.2995337606797" cy="321.58730158730157" fill="#8BC34A" opacity="0.5" r="2"/>
<circle cx="374.3127362508536" cy="321.58730158730157" fill="#8BC34A" opacity="0.5" r="2"/>
<circle cx="378.77185012882467" cy="321.58730158730157" fill="#8BC34A" opacity="0.5" r="2"/>
<circle cx="383.6768753945928" cy="321.58730158730157" fill="#8BC34A" opacity="0.5" r="2"/>
<circle cx="387.3928036262354" cy="321.58730158730157" fill="#8BC34A" opacity="0.5" r="2"/>
<circle cx="389.91963482375235" cy="321.58730158730157" fill="#8BC34A" opacity="0.5" r="2"/>
<circle cx="391.2573689871437" cy="321.58730158730157" fill="#8BC34A" opacity="0.5" r="2"/>
<circle cx="392.3116254838415" cy="321.58730158730157" fill="#8BC34A" opacity="0.5" r="2"/>
<circle cx="393.81179336833634" cy="321.58730158730157" fill="#8BC34A" opacity="0.5" r="2"/>
<circle cx="395.75787264062836" cy="321.58730158730157" fill="#8BC34A" opacity="0.5" r="2"/>
<circle cx="398.14986330071747" cy="321.58730158730157" fill="#8BC34A" opacity="0.5" r="2"/>
<circle cx="400.9877653486038" cy="321.58730158730157" fill="#8BC34A" opacity="0.5" r="2"/>
<circle cx="404.27157878428693" cy="321.58730158730157" fill="#8BC34A" opacity="0.5" r="2"/>
<circle cx="408.0013036077674" cy="321.58730158730157" fill="#8BC34A" opacity="0.5" r="2"/>
<circle cx="412.17693981904506" cy="321.58730158730157" fill="#8BC34A" opacity="0.5" r="2"/>
<circle cx="416.7984874181196" cy="321.58730158730157" fill="#8BC34A" opacity="0.5" r="2"/>
<circle cx="421.86594640499146" cy="321.58730158730157" fill="#8BC34A" opacity="0.5" r="2"/>
<circle cx="427.37931677966026" cy="321.58730158730157" fill="#8BC34A" opacity="0.5" r="2"/>
<circle cx="433.3385985421262" cy="321.58730158730157" fill="#8BC34A" opacity="0.5" r="2"/>
<circle cx="439.7437916923892" cy="321.58730158730157" fill="#8BC34A" opacity="0.5" r="2"/>
<circle cx="446.5948962304496" cy="321.58730158730157" fill="#8BC34A" opacity="0.5" r="2"/>
<circle cx="453.8919121563069" cy="321.58730158730157" fill="#8BC34A" opacity="0.5" r="2"/>
<circle cx="461.6348394699613" cy="321.58730158730157" fill="#8BC34A" opacity="0.5" r="2"/>
<circle cx="469.82367817141267" cy="321.58730158730157" fill="#8BC34A" opacity="0.5" r="2"/>
<circle cx="478.4584282606613" cy="321.58730158730157" fill="#8BC34A" opacity="0.5" r="2"/>
<circle cx="487.5390897377072" cy="321.58730158730157" fill="#8BC34A" opacity="0.5" r="2"/>
<circle cx="497.06566260255005" cy="321.58730158730157" fill="#8BC34A" opacity="0.5" r="2"/>
<circle cx="507.0381468551899" cy="321.58730158730157" fill="#8BC34A" opacity="0.5" r="2"/>
<circle cx="517.4565424956271" cy="321.58730158730157" fill="#8BC34A" opacity="0.5" r="2"/>
<circle cx="528.3208495238612" cy="321.58730158730157" fill="#8BC34A" opacity="0.5" r="2"/>
<circle cx="539.6310679398923" cy="321.58730158730157" fill="#8BC34A" opacity="0.5" r="2"/>
<circle cx="551.3871977437207" cy="321.58730158730157" fill="#8BC34A" opacity="0.5" r="2"/>
<circle cx="563.5892389353464" cy="321.58730158730157" fill="#8BC34A" opacity="0.5" r="2"/>
<circle cx="576.2371915147689" cy="321.58730158730157" fill="#8BC34A" opacity="0.5" r="2"/>
<circle cx="589.3310554819886" cy="321.58730158730157" fill="#8BC34A" opacity="0.5" r="2"/>
<circle cx="602.8708308370055" cy="321.58730158730157" fill="#8BC34A" opacity="0.5" r="2"/>
<circle cx="616.8565175798193" cy="321.58730158730157" fill="#8BC34A" opacity="0.5" r="2"/>
<circle cx="631.2881157104304" cy="321.58730158730157" fill="#8BC34A" opacity="0.5" r="2"/>
<circle cx="646.1656252288386" cy="321.58730158730157" fill="#8BC34A" opacity="0.5" r="2"/>
<circle cx="661.4890461350437" cy="321.58730158730157" fill="#8BC34A" opacity="0.5" r="2"/>
<circle cx="677.2583784290463" cy="321.58730158730157" fill="#8BC34A" opacity="0.5" r="2"/>
<circle cx="693.4736221108456" cy="321.58730158730157" fill="#8BC34A" opacity="0.5" r="2"/>
<circle cx="710.1347771804424" cy="321.58730158730157" fill="#8BC34A" opacity="0.5" r="2"/>
<circle cx="727.2418436378359" cy="321.58730158730157" fill="#8BC34A" opacity="0.5" r="2"/>
<circle cx="744.7948214830267" cy="321.58730158730157" fill="#8BC34A" opacity="0.5" r="2"/>
<circle cx="762.7937107160146" cy="321.58730158730157" fill="#8BC34A" opacity="0.5" r="2"/>
<circle cx="781.2385113367997" cy="321.58730158730157" fill="#8BC34A" opacity="0.5" r="2"/>
<circle cx="799.383875758889" cy="321.58730158730157" fill="#8BC34A" opacity="0.5" r="2"/>
<circle cx="816.6492444457773" cy="321.58730158730157" fill="#8BC34A" opacity="0.5" r="2"/>
<circle cx="834.3605245204628" cy="321.58730158730157" fill="#8BC34A" opacity="0.5" r="2"/>
<circle cx="852.5177159829452" cy="321.58730158730157" fill="#8BC34A" opacity="0.5" r="2"/>
<circle cx="871.1208188332249" cy="321.58730158730157" fill="#8BC34A" opacity="0.5" r="2"/>
<circle cx="890.1698330713016" cy="321.58730158730157" fill="#8BC34A" opacity="0.5" r="2"/>
<circle cx="908.0297502752526" cy="321.58730158730157" fill="#8BC34A" opacity="0.5" r="2"/>
<circle cx="924.7005704450783" cy="321.58730158730157" fill="#8BC34A" opacity="0.5" r="2"/>
<circle cx="940.182293580778" cy="321.58730158730157" fill="#8BC34A" opacity="0.5" r="2"/>
<circle cx="954.4749196823523" cy="321.58730158730157" fill="#8BC34A" opacity="0.5" r="2"/>
<circle cx="967.5784487498009" cy="321.58730158730157" fill="#8BC34A" opacity="0.5" r="2"/>
<circle cx="979.4928807831238" cy="321.58730158730157" fill="#8BC34A" opacity="0.5" r="2"/>
<circle cx="990.2182157823213" cy="321.58730158730157" fill="#8BC34A" opacity="0.5" r="2"/>
<circle cx="999.7544537473929" cy="321.58730158730157" fill="#8BC34A" opacity="0.5" r="2"/>
<circle cx="1008.1015946783392" cy="321.58730158730157" fill="#8BC34A" opacity="0.5" r="2"/>
<circle cx="1015.2596385751596" cy="321.58730158730157" fill="#8BC34A" opacity="0.5" r="2"/>
<circle cx="1021.2285854378545" cy="321.58730158730157" fill="#8BC34A" opacity="0.5" r="2"/>
<circle cx="1026.0084352664237" cy="321.58730158730157" fill="#8BC34A" opacity="0.5" r="2"/>
<circle cx="1029.5991880608674" cy="321.58730158730157" fill="#8BC34A" opacity="0.5" r="2"/>
<circle cx="1032.0008438211853" cy="321.58730158730157" fill="#8BC34A" opacity="0.5" r="2"/>
<circle cx="1033.2134025473774" cy="321.58730158730157" fill="#8BC34A" opacity="0.5" r="2"/>
<circle cx="1033.2368642394445" cy="321.58730158730157" fill="#8BC34A" opacity="0.5" r="2"/>
<circle cx="1033.2368642394445" cy="321.58730158730157" fill="#8BC34A" opacity="0.5" r="2"/>
<circle cx="1033.2368642394445" cy="321.58730158730157" fill="#8BC34A" opacity="0.5" r="2"/>
<circle cx="1033.2368642394445" cy="321.58730158730157" fill="#8BC34A" opacity="0.5" r="2"/>
<circle cx="1033.2368642394445" cy="321.58730158730157" fill="#8BC34A" opacity="0.5" r="2"/>
<circle cx="1033.2368642394445" cy="321.58730158730157" fill="#8BC34A" opacity="0.5" r="2"/>
<circle cx="1033.2368642394445" cy="321.58730158730157" fill="#8BC34A" opacity="0.5" r="2"/>
<circle cx="1033.2368642394445" cy="321.58730158730157" fill="#8BC34A" opacity="0.5" r="2"/>
<circle cx="1033.2368642394445" cy="321.58730158730157" fill="#8BC34A" opacity="0.5" r="2"/>
<circle cx="1033.2368642394445" cy="321.58730158730157" fill="#8BC34A" opacity="0.5" r="2"/>
<circle cx="1033.2368642394445" cy="321.58730158730157" fill="#8BC34A" opacity="0.5" r="2"/>
<circle cx="1033.2368642394445" cy="321.58730158730157" fill="#8BC34A" opacity="0.5" r="2"/>
<path d="M 166.7788697142857 432.6984126984127 L 190.56081039679816 432.6984126984127 L 213.15365404518494 432.6984126984127 L 234.55740065944622 432.6984126984127 L 254.7720502395818 432.6984126984127 L 273.7976027855918 432.6984126984127 L 291.63405829747614 432.6984126984127 L 308.28141677523473 432.6984126984127 L 323.73967821886794 432.6984126984127 L 338.0088426283753 432.6984126984127 L 351.0889100037573 432.6984126984127 L 362.9798803450135 432.6984126984127 L 373.6817536521441 432.6984126984127 L 383.1945299251491 432.6984126984127 L 391.51820916402846 432.6984126984127 L 398.65279136878206 432.6984126984127 L 404.5982765394102 432.6984126984127 L 409.35466467591266 432.6984126984127 L 412.92195577828966 432.6984126984127 L 415.3001498465408 432.6984126984127 L 416.4892468806664 432.6984126984127 L 416.4892468806664 432.6984126984127 L 416.4892468806664 432.6984126984127 L 416.4892468806664 432.6984126984127 L 416.4892468806664 432.6984126984127 L 416.4892468806664 432.6984126984127 L 416.4892468806664 432.6984126984127 L 416.6874297196874 432.6984126984127 L 417.3315239465055 432.6984126984127 L 418.4215295611205 432.6984126984127 L 419.95744656353287 432.6984126984127 L 421.9392749537423 432.6984126984127 L 424.3670147317487 432.6984126984127 L 427.2406658975522 432.6984126984127 L 430.5602284511531 432.6984126984127 L 434.3257023925508 432.6984126984127 L 438.5370877217457 432.6984126984127 L 443.1943844387377 426.3492063492063 L 448.29759254352683 424.7142857142857 L 453.8467120361131 422.93650793650795 L 459.8417429164965 421.015873015873 L 466.282685184677 418.95238095238096 L 473.1695388406544 416.74603174603175 L 480.5023038844292 414.39682539682536 L 488.28098031600086 411.90476190476187 L 496.5055681353699 409.26984126984127 L 505.1760673425358 406.49206349206344 L 514.2924779374989 403.57142857142856 L 523.854799920259 400.5079365079365 L 533.8630332908166 397.3015873015873 L 544.3171780491709 393.95238095238096 L 555.2172341953224 390.46031746031747 L 566.563201729271 386.82539682539687 L 578.3550806510168 383.0476190476191 L 590.5928709605598 379.12698412698415 L 603.2765726578996 382.1587301587302 L 616.4061857430368 377.95238095238096 L 629.9817102159709 373.6031746031746 L 644.0031460767024 369.11111111111114 L 658.4704933252307 364.4761904761905 L 673.3837519615562 359.6984126984127 L 688.7429219856788 354.7777777777778 L 704.5480033975984 349.7142857142857 L 720.7989961973153 344.5079365079365 L 737.4959003848293 339.1587301587302 L 754.6387159601404 333.6666666666667 L 772.2274429232486 328.031746031746 L 790.262081274154 322.25396825396825 L 808.7426310128562 328.1746031746032 L 827.6690921393558 322.1111111111111 L 847.0414646536524 328.3174603174603 L 866.859748555746 321.968253968254 L 885.4889354237142 316 L 902.9290252575568 321.58730158730157 L 919.1800180572736 321.58730158730157 L 934.2419138228646 321.58730158730157 L 948.1147125543303 321.58730158730157 L 960.7984142516704 321.58730158730157 L 972.2930189148846 321.58730158730157 L 982.5985265439734 321.58730158730157 L 991.7149371389365 321.58730158730157 L 999.642250699774 321.58730158730157 L 1008.0154756484085 321.58730158730157 L 1015.1996035629176 321.58730158730157 L 1021.1946344433009 321.58730158730157 L 1026.0005682895587 321.58730158730157 L 1029.6174051016906 321.58730158730157 L 1032.045144879697 321.58730158730157 L 1033.283787623578 321.58730158730157 L 1033.3333333333335 321.58730158730157 L 1033.3333333333335 321.58730158730157 L 1033.3333333333335 321.58730158730157 L 1033.3333333333335 321.58730158730157 L 1033.3333333333335 321.58730158730157 L 1033.3333333333335 321.58730158730157 L 1033.3333333333335 321.58730158730157 L 1033.3333333333335 321.58730158730157 L 1033.3333333333335 321.58730158730157 L 1033.3333333333335 321.58730158730157 L 1033.3333333333335 321.58730158730157 L 1033.3333333333335 321.58730158730157 " fill="none" opacity="0.7" stroke="#64B5F6" stroke-width="3"/>
<circle cx="166.7788697142857" cy="432.6984126984127" fill="#64B5F6" opacity="0.5" r="2"/>
<circle cx="190.56081039679816" cy="432.6984126984127" fill="#64B5F6" opacity="0.5" r="2"/>
<circle cx="213.15365404518494" cy="432.6984126984127" fill="#64B5F6" opacity="0.5" r="2"/>
<circle cx="234.55740065944622" cy="432.6984126984127" fill="#64B5F6" opacity="0.5" r="2"/>
<circle cx="254.7720502395818" cy="432.6984126984127" fill="#64B5F6" opacity="0.5" r="2"/>
<circle cx="273.7976027855918" cy="432.6984126984127" fill="#64B5F6" opacity="0.5" r="2"/>
<circle cx="291.63405829747614" cy="432.6984126984127" fill="#64B5F6" opacity="0.5" r="2"/>
<circle cx="308.28141677523473" cy="432.6984126984127" fill="#64B5F6" opacity="0.5" r="2"/>
<circle cx="323.73967821886794" cy="432.6984126984127" fill="#64B5F6" opacity="0.5" r="2"/>
<circle cx="338.0088426283753" cy="432.6984126984127" fill="#64B5F6" opacity="0.5" r="2"/>
<circle cx="351.0889100037573" cy="432.6984126984127" fill="#64B5F6" opacity="0.5" r="2"/>
<circle cx="362.9798803450135" cy="432.6984126984127" fill="#64B5F6" opacity="0.5" r="2"/>
<circle cx="373.6817536521441" cy="432.6984126984127" fill="#64B5F6" opacity="0.5" r="2"/>
<circle cx="383.1945299251491" cy="432.6984126984127" fill="#64B5F6" opacity="0.5" r="2"/>
<circle cx="391.51820916402846" cy="432.6984126984127" fill="#64B5F6" opacity="0.5" r="2"/>
<circle cx="398.65279136878206" cy="432.6984126984127" fill="#64B5F6" opacity="0.5" r="2"/>
<circle cx="404.5982765394102" cy="432.6984126984127" fill="#64B5F6" opacity="0.5" r="2"/>
<circle cx="409.35466467591266" cy="432.6984126984127" fill="#64B5F6" opacity="0.5" r="2"/>
<circle cx="412.92195577828966" cy="432.6984126984127" fill="#64B5F6" opacity="0.5" r="2"/>
<circle cx="415.3001498465408" cy="432.6984126984127" fill="#64B5F6" opacity="0.5" r="2"/>
<circle cx="416.4892468806664" cy="432.6984126984127" fill="#64B5F6" opacity="0.5" r="2"/>
<circle cx="416.4892468806664" cy="432.6984126984127" fill="#64B5F6" opacity="0.5" r="2"/>
<circle cx="416.4892468806664" cy="432.6984126984127" fill="#64B5F6" opacity="0.5" r="2"/>
<circle cx="416.4892468806664" cy="432.6984126984127" fill="#64B5F6" opacity="0.5" r="2"/>
<circle cx="416.4892468806664" cy="432.6984126984127" fill="#64B5F6" opacity="0.5" r="2"/>
<circle cx="416.4892468806664" cy="432.6984126984127" fill="#64B5F6" opacity="0.5" r="2"/>
<circle cx="416.4892468806664" cy="432.6984126984127" fill="#64B5F6" opacity="0.5" r="2"/>
<circle cx="416.6874297196874" cy="432.6984126984127" fill="#64B5F6" opacity="0.5" r="2"/>
<circle cx="417.3315239465055" cy="432.6984126984127" fill="#64B5F6" opacity="0.5" r="2"/>
<circle cx="418.4215295611205" cy="432.6984126984127" fill="#64B5F6" opacity="0.5" r="2"/>
<circle cx="419.95744656353287" cy="432.6984126984127" fill="#64B5F6" opacity="0.5" r="2"/>
<circle cx="421.9392749537423" cy="432.6984126984127" fill="#64B5F6" opacity="0.5" r="2"/>
<circle cx="424.3670147317487" cy="432.6984126984127" fill="#64B5F6" opacity="0.5" r="2"/>
<circle cx="427.2406658975522" cy="432.6984126984127" fill="#64B5F6" opacity="0.5" r="2"/>
<circle cx="430.5602284511531" cy="432.6984126984127" fill="#64B5F6" opacity="0.5" r="2"/>
<circle cx="434.3257023925508" cy="432.6984126984127" fill="#64B5F6" opacity="0.5" r="2"/>
<circle cx="438.5370877217457" cy="432.6984126984127" fill="#64B5F6" opacity="0.5" r="2"/>
<circle cx="443.1943844387377" cy="426.3492063492063" fill="#64B5F6" opacity="0.5" r="2"/>
<circle cx="448.29759254352683" cy="424.7142857142857" fill="#64B5F6" opacity="0.5" r="2"/>
<circle cx="453.8467120361131" cy="422.93650793650795" fill="#64B5F6" opacity="0.5" r="2"/>
<circle cx="459.8417429164965" cy="421.015873015873" fill="#64B5F6" opacity="0.5" r="2"/>
<circle cx="466.282685184677" cy="418.95238095238096" fill="#64B5F6" opacity="0.5" r="2"/>
<circle cx="473.1695388406544" cy="416.74603174603175" fill="#64B5F6" opacity="0.5" r="2"/>
<circle cx="480.5023038844292" cy="414.39682539682536" fill="#64B5F6" opacity="0.5" r="2"/>
<circle cx="488.28098031600086" cy="411.90476190476187" fill="#64B5F6" opacity="0.5" r="2"/>
<circle cx="496.5055681353699" cy="409.26984126984127" fill="#64B5F6" opacity="0.5" r="2"/>
<circle cx="505.1760673425358" cy="406.49206349206344" fill="#64B5F6" opacity="0.5" r="2"/>
<circle cx="514.2924779374989" cy="403.57142857142856" fill="#64B5F6" opacity="0.5" r="2"/>
<circle cx="523.854799920259" cy="400.5079365079365" fill="#64B5F6" opacity="0.5" r="2"/>
<circle cx="533.8630332908166" cy="397.3015873015873" fill="#64B5F6" opacity="0.5" r="2"/>
<circle cx="544.3171780491709" cy="393.95238095238096" fill="#64B5F6" opacity="0.5" r="2"/>
<circle cx="555.2172341953224" cy="390.46031746031747" fill="#64B5F6" opacity="0.5" r="2"/>
<circle cx="566.563201729271" cy="386.82539682539687" fill="#64B5F6" opacity="0.5" r="2"/>
<circle cx="578.3550806510168" cy="383.0476190476191" fill="#64B5F6" opacity="0.5" r="2"/>
<circle cx="590.5928709605598" cy="379.12698412698415" fill="#64B5F6" opacity="0.5" r="2"/>
<circle cx="603.2765726578996" cy="382.1587301587302" fill="#64B5F6" opacity="0.5" r="2"/>
<circle cx="616.4061857430368" cy="377.95238095238096" fill="#64B5F6" opacity="0.5" r="2"/>
<circle cx="629.9817102159709" cy="373.6031746031746" fill="#64B5F6" opacity="0.5" r="2"/>
<circle cx="644.0031460767024" cy="369.11111111111114" fill="#64B5F6" opacity="0.5" r="2"/>
<circle cx="658.4704933252307" cy="364.4761904761905" fill="#64B5F6" opacity="0.5" r="2"/>
<circle cx="673.3837519615562" cy="359.6984126984127" fill="#64B5F6" opacity="0.5" r="2"/>
<circle cx="688.7429219856788" cy="354.7777777777778" fill="#64B5F6" opacity="0.5" r="2"/>
<circle cx="704.5480033975984" cy="349.7142857142857" fill="#64B5F6" opacity="0.5" r="2"/>
<circle cx="720.7989961973153" cy="344.5079365079365" fill="#64B5F6" opacity="0.5" r="2"/>
<circle cx="737.4959003848293" cy="339.1587301587302" fill="#64B5F6" opacity="0.5" r="2"/>
<circle cx="754.6387159601404" cy="333.6666666666667" fill="#64B5F6" opacity="0.5" r="2"/>
<circle cx="772.2274429232486" cy="328.031746031746" fill="#64B5F6" opacity="0.5" r="2"/>
<circle cx="790.262081274154" cy="322.25396825396825" fill="#64B5F6" opacity="0.5" r="2"/>
<circle cx="808.7426310128562" cy="328.1746031746032" fill="#64B5F6" opacity="0.5" r="2"/>
<circle cx="827.6690921393558" cy="322.1111111111111" fill="#64B5F6" opacity="0.5" r="2"/>
<circle cx="847.0414646536524" cy="328.3174603174603" fill="#64B5F6" opacity="0.5" r="2"/>
<circle cx="866.859748555746" cy="321.968253968254" fill="#64B5F6" opacity="0.5" r="2"/>
<circle cx="885.4889354237142" cy="316" fill="#64B5F6" opacity="0.5" r="2"/>
<circle cx="902.9290252575568" cy="321.58730158730157" fill="#64B5F6" opacity="0.5" r="2"/>
<circle cx="919.1800180572736" cy="321.58730158730157" fill="#64B5F6" opacity="0.5" r="2"/>
<circle cx="934.2419138228646" cy="321.58730158730157" fill="#64B5F6" opacity="0.5" r="2"/>
<circle cx="948.1147125543303" cy="321.58730158730157" fill="#64B5F6" opacity="0.5" r="2"/>
<circle cx="960.7984142516704" cy="321.58730158730157" fill="#64B5F6" opacity="0.5" r="2"/>
<circle cx="972.2930189148846" cy="321.58730158730157" fill="#64B5F6" opacity="0.5" r="2"/>
<circle cx="982.5985265439734" cy="321.58730158730157" fill="#64B5F6" opacity="0.5" r="2"/>
<circle cx="991.7149371389365" cy="321.58730158730157" fill="#64B5F6" opacity="0.5" r="2"/>
<circle cx="999.642250699774" cy="321.58730158730157" fill="#64B5F6" opacity="0.5" r="2"/>
<circle cx="1008.0154756484085" cy="321.58730158730157" fill="#64B5F6" opacity="0.5" r="2"/>
<circle cx="1015.1996035629176" cy="321.58730158730157" fill="#64B5F6" opacity="0.5" r="2"/>
<circle cx="1021.1946344433009" cy="321.58730158730157" fill="#64B5F6" opacity="0.5" r="2"/>
<circle cx="1026.0005682895587" cy="321.58730158730157" fill="#64B5F6" opacity="0.5" r="2"/>
<circle cx="1029.6174051016906" cy="321.58730158730157" fill="#64B5F6" opacity="0.5" r="2"/>
<circle cx="1032.045144879697" cy="321.58730158730157" fill="#64B5F6" opacity="0.5" r="2"/>
<circle cx="1033.283787623578" cy="321.58730158730157" fill="#64B5F6" opacity="0.5" r="2"/>
<circle cx="1033.3333333333335" cy="321.58730158730157" fill="#64B5F6" opacity="0.5" r="2"/>
<circle cx="1033.3333333333335" cy="321.58730158730157" fill="#64B5F6" opacity="0.5" r="2"/>
<circle cx="1033.3333333333335" cy="321.58730158730157" fill="#64B5F6" opacity="0.5" r="2"/>
<circle cx="1033.3333333333335" cy="321.58730158730157" fill="#64B5F6" opacity="0.5" r="2"/>
<circle cx="1033.3333333333335" cy="321.58730158730157" fill="#64B5F6" opacity="0.5" r="2"/>
<circle cx="1033.3333333333335" cy="321.58730158730157" fill="#64B5F6" opacity="0.5" r="2"/>
<circle cx="1033.3333333333335" cy="321.58730158730157" fill="#64B5F6" opacity="0.5" r="2"/>
<circle cx="1033.3333333333335" cy="321.58730158730157" fill="#64B5F6" opacity="0.5" r="2"/>
<circle cx="1033.3333333333335" cy="321.58730158730157" fill="#64B5F6" opacity="0.5" r="2"/>
<circle cx="1033.3333333333335" cy="321.58730158730157" fill="#64B5F6" opacity="0.5" r="2"/>
<circle cx="1033.3333333333335" cy="321.58730158730157" fill="#64B5F6" opacity="0.5" r="2"/>
<circle cx="1033.3333333333335" cy="321.58730158730157" fill="#64B5F6" opacity="0.5" r="2"/>
<circle cx="871.1208188332249" cy="321.58730158730157" fill="none" r="8" stroke="#F44336" stroke-width="3"/>
<circle cx="885.4889354237142" cy="316" fill="none" r="8" stroke="#F44336" stroke-width="3"/>
<circle cx="871.1208188332249" cy="321.58730158730157" fill="none" r="8" stroke="#F44336" stroke-width="3"/>
<circle cx="885.4889354237142" cy="316" fill="none" r="8" stroke="#F44336" stroke-width="3"/>
<circle cx="890.1698330713016" cy="321.58730158730157" fill="none" r="8" stroke="#F44336" stroke-width="3"/>
<circle cx="902.9290252575568" cy="321.58730158730157" fill="none" r="8" stroke="#F44336" stroke-width="3"/>
<circle cx="890.1698330713016" cy="321.58730158730157" fill="none" r="8" stroke="#F44336" stroke-width="3"/>
<circle cx="902.9290252575568" cy="321.58730158730157" fill="none" r="8" stroke="#F44336" stroke-width="3"/>
<circle cx="908.0297502752526" cy="321.58730158730157" fill="none" r="8" stroke="#F44336" stroke-width="3"/>
<circle cx="919.1800180572736" cy="321.58730158730157" fill="none" r="8" stroke="#F44336" stroke-width="3"/>
<circle cx="908.0297502752526" cy="321.58730158730157" fill="none" r="8" stroke="#F44336" stroke-width="3"/>
<circle cx="919.1800180572736" cy="321.58730158730157" fill="none" r="8" stroke="#F44336" stroke-width="3"/>
<circle cx="924.7005704450783" cy="321.58730158730157" fill="none" r="8" stroke="#F44336" stroke-width="3"/>
<circle cx="934.2419138228646" cy="321.58730158730157" fill="none" r="8" stroke="#F44336" stroke-width="3"/>
<circle cx="924.7005704450783" cy="321.58730158730157" fill="none" r="8" stroke="#F44336" stroke-width="3"/>
<circle cx="934.2419138228646" cy="321.58730158730157" fill="none" r="8" stroke="#F44336" stroke-width="3"/>
<circle cx="940.182293580778" cy="321.58730158730157" fill="none" r="8" stroke="#F44336" stroke-width="3"/>
<circle cx="948.1147125543303" cy="321.58730158730157" fill="none" r="8" stroke="#F44336" stroke-width="3"/>
<circle cx="940.182293580778" cy="321.58730158730157" fill="none" r="8" stroke="#F44336" stroke-width="3"/>
<circle cx="948.1147125543303" cy="321.58730158730157" fill="none" r="8" stroke="#F44336" stroke-width="3"/>
<circle cx="954.4749196823523" cy="321.58730158730157" fill="none" r="8" stroke="#F44336" stroke-width="3"/>
<circle cx="960.7984142516704" cy="321.58730158730157" fill="none" r="8" stroke="#F44336" stroke-width="3"/>
<circle cx="954.4749196823523" cy="321.58730158730157" fill="none" r="8" stroke="#F44336" stroke-width="3"/>
<circle cx="960.7984142516704" cy="321.58730158730157" fill="none" r="8" stroke="#F44336" stroke-width="3"/>
<circle cx="967.5784487498009" cy="321.58730158730157" fill="none" r="8" stroke="#F44336" stroke-width="3"/>
<circle cx="972.2930189148846" cy="321.58730158730157" fill="none" r="8" stroke="#F44336" stroke-width="3"/>
<circle cx="967.5784487498009" cy="321.58730158730157" fill="none" r="8" stroke="#F44336" stroke-width="3"/>
<circle cx="972.2930189148846" cy="321.58730158730157" fill="none" r="8" stroke="#F44336" stroke-width="3"/>
<circle cx="979.4928807831238" cy="321.58730158730157" fill="none" r="8" stroke="#F44336" stroke-width="3"/>
<circle cx="982.5985265439734" cy="321.58730158730157" fill="none" r="8" stroke="#F44336" stroke-width="3"/>
<circle cx="979.4928807831238" cy="321.58730158730157" fill="none" r="8" stroke="#F44336" stroke-width="3"/>
<circle cx="982.5985265439734" cy="321.58730158730157" fill="none" r="8" stroke="#F44336" stroke-width="3"/>
<circle cx="990.2182157823213" cy="321.58730158730157" fill="none" r="8" stroke="#F44336" stroke-width="3"/>
<circle cx="991.7149371389365" cy="321.58730158730157" fill="none" r="8" stroke="#F44336" stroke-width="3"/>
<circle cx="990.2182157823213" cy="321.58730158730157" fill="none" r="8" stroke="#F44336" stroke-width="3"/>
<circle cx="991.7149371389365" cy="321.58730158730157" fill="none" r="8" stroke="#F44336" stroke-width="3"/>
<circle cx="999.7544537473929" cy="321.58730158730157" fill="none" r="8" stroke="#F44336" stroke-width="3"/>
<circle cx="999.642250699774" cy="321.58730158730157" fill="none" r="8" stroke="#F44336" stroke-width="3"/>
<circle cx="999.7544537473929" cy="321.58730158730157" fill="none" r="8" stroke="#F44336" stroke-width="3"/>
<circle cx="999.642250699774" cy="321.58730158730157" fill="none" r="8" stroke="#F44336" stroke-width="3"/>
<circle cx="1008.1015946783392" cy="321.58730158730157" fill="none" r="8" stroke="#F44336" stroke-width="3"/>
<circle cx="1008.0154756484085" cy="321.58730158730157" fill="none" r="8" stroke="#F44336" stroke-width="3"/>
<circle cx="1008.1015946783392" cy="321.58730158730157" fill="none" r="8" stroke="#F44336" stroke-width="3"/>
<circle cx="1008.0154756484085" cy="321.58730158730157" fill="none" r="8" stroke="#F44336" stroke-width="3"/>
<circle cx="1015.2596385751596" cy="321.58730158730157" fill="none" r="8" stroke="#F44336" stroke-width="3"/>
<circle cx="1015.1996035629176" cy="321.58730158730157" fill="none" r="8" stroke="#F44336" stroke-width="3"/>
<circle cx="1015.2596385751596" cy="321.58730158730157" fill="none" r="8" stroke="#F44336" stroke-width="3"/>
<circle cx="1015.1996035629176" cy="321.58730158730157" fill="none" r="8" stroke="#F44336" stroke-width="3"/>
<circle cx="1021.2285854378545" cy="321.58730158730157" fill="none" r="8" stroke="#F44336" stroke-width="3"/>
<circle cx="1021.1946344433009" cy="321.58730158730157" fill="none" r="8" stroke="#F44336" stroke-width="3"/>
<circle cx="1021.2285854378545" cy="321.58730158730157" fill="none" r="8" stroke="#F44336" stroke-width="3"/>
<circle cx="1021.1946344433009" cy="321.58730158730157" fill="none" r="8" stroke="#F44336" stroke-width="3"/>
<circle cx="1026.0084352664237" cy="321.58730158730157" fill="none" r="8" stroke="#F44336" stroke-width="3"/>
<circle cx="1026.0005682895587" cy="321.58730158730157" fill="none" r="8" stroke="#F44336" stroke-width="3"/>
<circle cx="1026.0084352664237" cy="321.58730158730157" fill="none" r="8" stroke="#F44336" stroke-width="3"/>
<circle cx="1026.0005682895587" cy="321.58730158730157" fill="none" r="8" stroke="#F44336" stroke-width="3"/>
<circle cx="1029.5991880608674" cy="321.58730158730157" fill="none" r="8" stroke="#F44336" stroke-width="3"/>
<circle cx="1029.6174051016906" cy="321.58730158730157" fill="none" r="8" stroke="#F44336" stroke-width="3"/>
<circle cx="1032.0008438211853" cy="321.58730158730157" fill="none" r="8" stroke="#F44336" stroke-width="3"/>
<circle cx="1032.045144879697" cy="321.58730158730157" fill="none" r="8" stroke="#F44336" stroke-width="3"/>
<circle cx="1033.2134025473774" cy="321.58730158730157" fill="none" r="8" stroke="#F44336" stroke-width="3"/>
<circle cx="1033.283787623578" cy="321.58730158730157" fill="none" r="8" stroke="#F44336" stroke-width="3"/>
<circle cx="1033.2368642394445" cy="321.58730158730157" fill="none" r="8" stroke="#F44336" stroke-width="3"/>
<circle cx="1033.3333333333335" cy="321.58730158730157" fill="none" r="8" stroke="#F44336" stroke-width="3"/>
<circle cx="1033.2368642394445" cy="321.58730158730157" fill="none" r="8" stroke="#F44336" stroke-width="3"/>
<circle cx="1033.3333333333335" cy="321.58730158730157" fill="none" r="8" stroke="#F44336" stroke-width="3"/>
<circle cx="1033.2368642394445" cy="321.58730158730157" fill="none" r="8" stroke="#F44336" stroke-width="3"/>
<circle cx="1033.3333333333335" cy="321.58730158730157" fill="none" r="8" stroke="#F44336" stroke-width="3"/>
<circle cx="1033.2368642394445" cy="321.58730158730157" fill="none" r="8" stroke="#F44336" stroke-width="3"/>
<circle cx="1033.3333333333335" cy="321.58730158730157" fill="none" r="8" stroke="#F44336" stroke-width="3"/>
<circle cx="1033.2368642394445" cy="321.58730158730157" fill="none" r="8" stroke="#F44336" stroke-width="3"/>
<circle cx="1033.3333333333335" cy="321.58730158730157" fill="none" r="8" stroke="#F44336" stroke-width="3"/>
<circle cx="1033.2368642394445" cy="321.58730158730157" fill="none" r="8" stroke="#F44336" stroke-width="3"/>
<circle cx="1033.3333333333335" cy="321.58730158730157" fill="none" r="8" stroke="#F44336" stroke-width="3"/>
<circle cx="1033.2368642394445" cy="321.58730158730157" fill="none" r="8" stroke="#F44336" stroke-width="3"/>
<circle cx="1033.3333333333335" cy="321.58730158730157" fill="none" r="8" stroke="#F44336" stroke-width="3"/>
<circle cx="1033.2368642394445" cy="321.58730158730157" fill="none" r="8" stroke="#F44336" stroke-width="3"/>
<circle cx="1033.3333333333335" cy="321.58730158730157" fill="none" r="8" stroke="#F44336" stroke-width="3"/>
<circle cx="1033.2368642394445" cy="321.58730158730157" fill="none" r="8" stroke="#F44336" stroke-width="3"/>
<circle cx="1033.3333333333335" cy="321.58730158730157" fill="none" r="8" stroke="#F44336" stroke-width="3"/>
<circle cx="1033.2368642394445" cy="321.58730158730157" fill="none" r="8" stroke="#F44336" stroke-width="3"/>
<circle cx="1033.3333333333335" cy="321.58730158730157" fill="none" r="8" stroke="#F44336" stroke-width="3"/>
<circle cx="1033.2368642394445" cy="321.58730158730157" fill="none" r="8" stroke="#F44336" stroke-width="3"/>
<circle cx="1033.3333333333335" cy="321.58730158730157" fill="none" r="8" stroke="#F44336" stroke-width="3"/>
<circle cx="1033.2368642394445" cy="321.58730158730157" fill="none" r="8" stroke="#F44336" stroke-width="3"/>
<circle cx="1033.3333333333335" cy="321.58730158730157" fill="none" r="8" stroke="#F44336" stroke-width="3"/>
</g>
<g id="vehicles">
<rect fill="#4CAF50" height="6" rx="1" stroke="#333333" stroke-width="1" width="12" x="160.66666666666663" y="318.58730158730157"/>
<text fill="#333333" font-family="Arial, sans-serif" font-size="10" font-weight="bold" text-anchor="middle" x="166.66666666666663" y="313.58730158730157">
ego (t=0)
</text>
<rect fill="#4CAF50" height="6" opacity="0.8" rx="1" stroke="#333333" stroke-dasharray="3,3" stroke-width="2" width="12" x="1027.2368642394445" y="318.58730158730157"/>
<text fill="#333333" font-family="Arial, sans-serif" font-size="10" font-weight="bold" text-anchor="middle" x="1033.2368642394445" y="339.58730158730157">
ego (t=10.0)
</text>
<rect fill="#2196F3" height="6" rx="1" stroke="#333333" stroke-width="1" width="12" x="160.7788697142857" y="429.6984126984127"/>
<text fill="#333333" font-family="Arial, sans-serif" font-size="10" font-weight="bold" text-anchor="middle" x="166.7788697142857" y="424.6984126984127">
npc (t=0)
</text>
<rect fill="#2196F3" height="6" opacity="0.8" rx="1" stroke="#333333" stroke-dasharray="3,3" stroke-width="2" width="12" x="1027.3333333333335" y="318.58730158730157"/>
<text fill="#333333" font-family="Arial, sans-serif" font-size="10" font-weight="bold" text-anchor="middle" x="1033.3333333333335" y="339.58730158730157">
npc (t=10.0)
</text>
</g>
<g id="legend">
<rect fill="white" height="100" rx="3" stroke="#333333" stroke-width="1" width="150" x="970" y="420"/>
<text fill="#333333" font-family="Arial, sans-serif" font-size="12" font-weight="bold" text-anchor="middle" x="1045" y="435">
Legend
</text>
<rect fill="#4CAF50" height="8" width="12" x="980" y="445"/>
<text fill="#333333" font-family="Arial, sans-serif" font-size="10" text-anchor="start" x="1000" y="452">
Ego Vehicle
</text>
<rect fill="#2196F3" height="8" width="12" x="980" y="460"/>
<text fill="#333333" font-family="Arial, sans-serif" font-size="10" text-anchor="start" x="1000" y="467">
NPC Vehicle
</text>
<circle cx="986" cy="479" fill="#FF9800" r="4"/>
<text fill="#333333" font-family="Arial, sans-serif" font-size="10" text-anchor="start" x="1000" y="482">
Pedestrian
</text>
<circle cx="986" cy="498" fill="none" r="6" stroke="#F44336" stroke-width="2"/>
<text fill="#333333" font-family="Arial, sans-serif" font-size="10" text-anchor="start" x="1000" y="501">
Safety Violation
</text>
</g>
</svg>