<svg height="600" viewBox="0 0 1200 600" width="1200" xmlns="http://www.w3.org/2000/svg">
<rect fill="#F5F5F5" height="600" width="1200"/>
<g id="header">
<text fill="#333333" font-family="Arial, sans-serif" font-size="24" font-weight="bold" text-anchor="middle" x="600" y="30">
Scenario: cut_in_left
</text>
<text fill="#333333" font-family="Arial, sans-serif" font-size="12" text-anchor="middle" x="600" y="55">
ID: d23320b5 | Duration: 10.0s | Time Step: 0.10s
</text>
</g>
<g id="metrics">
<text fill="#333333" font-family="Arial, sans-serif" font-size="14" text-anchor="middle" x="600" y="80">
Min TTC: 0.01s | Min Distance: 0.00m | Max Accel: 3.00 m/s² | Max Decel: -8.00 m/s² | Constraints: 
</text>
<text fill="#F44336" font-family="Arial, sans-serif" font-size="14" font-weight="bold" text-anchor="start" x="920" y="80">
✗ VIOLATED
</text>
</g>
<rect fill="#2A2A2A" height="400" width="1040" x="80" y="120"/>
<g id="lane_markings">
<line opacity="0.6" stroke="#FFFFFF" stroke-dasharray="10,10" stroke-width="2" x1="80" x2="1120" y1="375.55555555555554" y2="375.55555555555554"/>
<line opacity="0.6" stroke="#FFFFFF" stroke-dasharray="10,10" stroke-width="2" x1="80" x2="1120" y1="264.44444444444446" y2="264.44444444444446"/>
<line stroke="#FFFFFF" stroke-width="3" x1="80" x2="1120" y1="153.33333333333334" y2="153.33333333333334"/>
<line stroke="#FFFFFF" stroke-width="3" x1="80" x2="1120" y1="486.6666666666667" y2="486.6666666666667"/>
</g>
<g id="trajectories">
<path d="M 166.66666666666669 321.58730158730157 L 185.10774341482937 321.58730158730157 L 202.49504434881138 321.58730158730157 L 218.82856946861264 321.58730158730157 L 234.10831877423323 321.58730158730157 L 248.334292265673 321.58730158730157 L 261.50648994293203 321.58730158730157 L 273.62491180601046 321.58730158730157 L 284.6895578549079 321.58730158730157 L 294.7004280896249 321.58730158730157 L 303.65752251016113 321.58730158730157 L 311.5608411165165 321.58730158730157 L 318.4103839086912 321.58730158730157 L 324.2061508866851 321.58730158730157 L 328.9481420504984 321.58730158730157 L 332.636357400131 321.58730158730157 L 335.2707969355828 321.58730158730157 L 336.851460656854 321.58730158730157 L 338.82729030844274 321.58730158730157 L 341.19828589034944 321.58730158730157 L 343.96444740257374 321.58730158730157 L 347.12577484511604 321.58730158730157 L 350.68226821797595 321.58730158730157 L 354.6339275211536 321.58730158730157 L 358.98075275464913 321.58730158730157 L 362.2738021739639 321.58730158730157 L 364.51307577909796 321.58730158730157 L 365.6985735700513 321.58730158730157 L 365.9115471063149 321.58730158730157 L 366.51968657289643 321.58730158730157 L 367.5229919697956 321.58730158730157 L 368.92146329701274 321.58730158730157 L 370.71510055454746 321.58730158730157 L 372.90390374239996 321.58730158730157 L 375.4878728605703 321.58730158730157 L 378.4670079090584 321.58730158730157 L 381.8413088878643 321.58730158730157 L 385.6107757969879 321.58730158730157 L 389.7754086364292 321.58730158730157 L 394.33520740618843 321.58730158730157 L 399.29017210626546 321.58730158730157 L 404.6403027366601 321.58730158730157 L 410.3855992973725 321.58730158730157 L 416.5260617884029 321.58730158730157 L 423.0616902097509 321.58730158730157 L 429.9924845614167 321.58730158730157 L 437.31844484340024 321.58730158730157 L 445.0395710557016 321.58730158730157 L 453.15586319832073 321.58730158730157 L 461.66732127125766 321.58730158730157 L 470.57394527451237 321.58730158730157 L 479.87573520808485 321.58730158730157 L 489.572691071975 321.58730158730157 L 499.66481286618307 321.58730158730157 L 510.1521005907087 321.58730158730157 L 521.0345542455524 321.58730158730157 L 532.3121738307136 321.58730158730157 L 543.9849593461927 321.58730158730157 L 556.0529107919895 321.58730158730157 L 568.5160281681041 321.58730158730157 L 581.3743114745365 321.58730158730157 L 594.6277607112867 321.58730158730157 L 608.2763758783547 321.58730158730157 L 622.3201569757404 321.58730158730157 L 636.7591040034438 321.58730158730157 L 651.5932169614651 321.58730158730157 L 666.822495849804 321.58730158730157 L 682.4469406684609 321.58730158730157 L 698.4665514174354 321.58730158730157 L 714.8813280967278 321.58730158730157 L 731.6912707063378 321.58730158730157 L 748.896379246266 321.58730158730157 L 766.4966537165116 321.58730158730157 L 784.4920941170748 321.58730158730157 L 802.882700447956 321.58730158730157 L 821.668472709155 321.58730158730157 L 840.8494109006718 321.58730158730157 L 860.4255150225063 321.58730158730157 L 878.9478433301601 321.58730158730157 L 896.4163958236331 321.58730158730157 L 912.8311725029255 321.58730158730157 L 928.1921733680373 321.58730158730157 L 942.4993984189681 321.58730158730157 L 955.7528476557181 321.58730158730157 L 967.9525210782876 321.58730158730157 L 979.0984186866764 321.58730158730157 L 989.1905404808842 321.58730158730157 L 998.2288864609117 321.58730158730157 L 1006.2134566267581 321.58730158730157 L 1013.1442509784239 321.58730158730157 L 1019.021269515909 321.58730158730157 L 1023.8445122392134 321.58730158730157 L 1027.613979148337 321.58730158730157 L 1030.32967024328 321.58730158730157 L 1031.991585524042 321.58730158730157 L 1032.5997249906236 321.58730158730157 L 1032.5997249906236 321.58730158730157 L 1032.5997249906236 321.58730158730157 L 1032.5997249906236 321.58730158730157 L 1032.5997249906236 321.58730158730157 L 1032.5997249906236 321.58730158730157 " fill="none" opacity="0.7" stroke="#8BC34A" stroke-width="3"/>
<circle cx="166.66666666666669" cy="321.58730158730157" fill="#8BC34A" opacity="0.5" r="2"/>
<circle cx="185.10774341482937" cy="321.58730158730157" fill="#8BC34A" opacity="0.5" r="2"/>
<circle cx="202.49504434881138" cy="321.58730158730157" fill="#8BC34A" opacity="0.5" r="2"/>
<circle cx="218.82856946861264" cy="321.58730158730157" fill="#8BC34A" opacity="0.5" r="2"/>
<circle cx="234.10831877423323" cy="321.58730158730157" fill="#8BC34A" opacity="0.5" r="2"/>
<circle cx="248.334292265673" cy="321.58730158730157" fill="#8BC34A" opacity="0.5" r="2"/>
<circle cx="261.50648994293203" cy="321.58730158730157" fill="#8BC34A" opacity="0.5" r="2"/>
<circle cx="273.62491180601046" cy="321.58730158730157" fill="#8BC34A" opacity="0.5" r="2"/>
<circle cx="284.6895578549079" cy="321.58730158730157" fill="#8BC34A" opacity="0.5" r="2"/>
<circle cx="294.7004280896249" cy="321.58730158730157" fill="#8BC34A" opacity="0.5" r="2"/>
<circle cx="303.65752251016113" cy="321.58730158730157" fill="#8BC34A" opacity="0.5" r="2"/>
<circle cx="311.5608411165165" cy="321.58730158730157" fill="#8BC34A" opacity="0.5" r="2"/>
<circle cx="318.4103839086912" cy="321.58730158730157" fill="#8BC34A" opacity="0.5" r="2"/>
<circle cx="324.2061508866851" cy="321.58730158730157" fill="#8BC34A" opacity="0.5" r="2"/>
<circle cx="328.9481420504984" cy="321.58730158730157" fill="#8BC34A" opacity="0.5" r="2"/>
<circle cx="332.636357400131" cy="321.58730158730157" fill="#8BC34A" opacity="0.5" r="2"/>
<circle cx="335.2707969355828" cy="321.58730158730157" fill="#8BC34A" opacity="0.5" r="2"/>
<circle cx="336.851460656854" cy="321.58730158730157" fill="#8BC34A" opacity="0.5" r="2"/>
<circle cx="338.82729030844274" cy="321.58730158730157" fill="#8BC34A" opacity="0.5" r="2"/>
<circle cx="341.19828589034944" cy="321.58730158730157" fill="#8BC34A" opacity="0.5" r="2"/>
<circle cx="343.96444740257374" cy="321.58730158730157" fill="#8BC34A" opacity="0.5" r="2"/>
<circle cx="347.12577484511604" cy="321.58730158730157" fill="#8BC34A" opacity="0.5" r="2"/>
<circle cx="350.68226821797595" cy="321.58730158730157" fill="#8BC34A" opacity="0.5" r="2"/>
<circle cx="354.6339275211536" cy="321.58730158730157" fill="#8BC34A" opacity="0.5" r="2"/>
<circle cx="358.98075275464913" cy="321.58730158730157" fill="#8BC34A" opacity="0.5" r="2"/>
<circle cx="362.2738021739639" cy="321.58730158730157" fill="#8BC34A" opacity="0.5" r="2"/>
<circle cx="364.51307577909796" cy="321.58730158730157" fill="#8BC34A" opacity="0.5" r="2"/>
<circle cx="365.6985735700513" cy="321.58730158730157" fill="#8BC34A" opacity="0.5" r="2"/>
<circle cx="365.9115471063149" cy="321.58730158730157" fill="#8BC34A" opacity="0.5" r="2"/>
<circle cx="366.51968657289643" cy="321.58730158730157" fill="#8BC34A" opacity="0.5" r="2"/>
<circle cx="367.5229919697956" cy="321.58730158730157" fill="#8BC34A" opacity="0.5" r="2"/>
<circle cx="368.92146329701274" cy="321.58730158730157" fill="#8BC34A" opacity="0.5" r="2"/>
<circle cx="370.71510055454746" cy="321.58730158730157" fill="#8BC34A" opacity="0.5" r="2"/>
<circle cx="372.90390374239996" cy="321.58730158730157" fill="#8BC34A" opacity="0.5" r="2"/>
<circle cx="375.4878728605703" cy="321.58730158730157" fill="#8BC34A" opacity="0.5" r="2"/>
<circle cx="378.4670079090584" cy="321.58730158730157" fill="#8BC34A" opacity="0.5" r="2"/>
<circle cx="381.8413088878643" cy="321.58730158730157" fill="#8BC34A" opacity="0.5" r="2"/>
<circle cx="385.6107757969879" cy="321.58730158730157" fill="#8BC34A" opacity="0.5" r="2"/>
<circle cx="389.7754086364292" cy="321.58730158730157" fill="#8BC34A" opacity="0.5" r="2"/>
<circle cx="394.33520740618843" cy="321.58730158730157" fill="#8BC34A" opacity="0.5" r="2"/>
<circle cx="399.29017210626546" cy="321.58730158730157" fill="#8BC34A" opacity="0.5" r="2"/>
<circle cx="404.6403027366601" cy="321.58730158730157" fill="#8BC34A" opacity="0.5" r="2"/>
<circle cx="410.3855992973725" cy="321.58730158730157" fill="#8BC34A" opacity="0.5" r="2"/>
<circle cx="416.5260617884029" cy="321.58730158730157" fill="#8BC34A" opacity="0.5" r="2"/>
<circle cx="423.0616902097509" cy="321.58730158730157" fill="#8BC34A" opacity="0.5" r="2"/>
<circle cx="429.9924845614167" cy="321.58730158730157" fill="#8BC34A" opacity="0.5" r="2"/>
<circle cx="437.31844484340024" cy="321.58730158730157" fill="#8BC34A" opacity="0.5" r="2"/>
<circle cx="445.0395710557016" cy="321.58730158730157" fill="#8BC34A" opacity="0.5" r="2"/>
<circle cx="453.15586319832073" cy="321.58730158730157" fill="#8BC34A" opacity="0.5" r="2"/>
<circle cx="461.66732127125766" cy="321.58730158730157" fill="#8BC34A" opacity="0.5" r="2"/>
<circle cx="470.57394527451237" cy="321.58730158730157" fill="#8BC34A" opacity="0.5" r="2"/>
<circle cx="479.87573520808485" cy="321.58730158730157" fill="#8BC34A" opacity="0.5" r="2"/>
<circle cx="489.572691071975" cy="321.58730158730157" fill="#8BC34A" opacity="0.5" r="2"/>
<circle cx="499.66481286618307" cy="321.58730158730157" fill="#8BC34A" opacity="0.5" r="2"/>
<circle cx="510.1521005907087" cy="321.58730158730157" fill="#8BC34A" opacity="0.5" r="2"/>
<circle cx="521.0345542455524" cy="321.58730158730157" fill="#8BC34A" opacity="0.5" r="2"/>
<circle cx="532.3121738307136" cy="321.58730158730157" fill="#8BC34A" opacity="0.5" r="2"/>
<circle cx="543.9849593461927" cy="321.58730158730157" fill="#8BC34A" opacity="0.5" r="2"/>
<circle cx="556.0529107919895" cy="321.58730158730157" fill="#8BC34A" opacity="0.5" r="2"/>
<circle cx="568.5160281681041" cy="321.58730158730157" fill="#8BC34A" opacity="0.5" r="2"/>
<circle cx="581.3743114745365" cy="321.58730158730157" fill="#8BC34A" opacity="0.5" r="2"/>
<circle cx="594.6277607112867" cy="321.58730158730157" fill="#8BC34A" opacity="0.5" r="2"/>
<circle cx="608.2763758783547" cy="321.58730158730157" fill="#8BC34A" opacity="0.5" r="2"/>
<circle cx="622.3201569757404" cy="321.58730158730157" fill="#8BC34A" opacity="0.5" r="2"/>
<circle cx="636.7591040034438" cy="321.58730158730157" fill="#8BC34A" opacity="0.5" r="2"/>
<circle cx="651.5932169614651" cy="321.58730158730157" fill="#8BC34A" opacity="0.5" r="2"/>
<circle cx="666.822495849804" cy="321.58730158730157" fill="#8BC34A" opacity="0.5" r="2"/>
<circle cx="682.4469406684609" cy="321.58730158730157" fill="#8BC34A" opacity="0.5" r="2"/>
<circle cx="698.4665514174354" cy="321.58730158730157" fill="#8BC34A" opacity="0.5" r="2"/>
<circle cx="714.8813280967278" cy="321.58730158730157" fill="#8BC34A" opacity="0.5" r="2"/>
<circle cx="731.6912707063378" cy="321.58730158730157" fill="#8BC34A" opacity="0.5" r="2"/>
<circle cx="748.896379246266" cy="321.58730158730157" fill="#8BC34A" opacity="0.5" r="2"/>
<circle cx="766.4966537165116" cy="321.58730158730157" fill="#8BC34A" opacity="0.5" r="2"/>
<circle cx="784.4920941170748" cy="321.58730158730157" fill="#8BC34A" opacity="0.5" r="2"/>
<circle cx="802.882700447956" cy="321.58730158730157" fill="#8BC34A" opacity="0.5" r="2"/>
<circle cx="821.668472709155" cy="321.58730158730157" fill="#8BC34A" opacity="0.5" r="2"/>
<circle cx="840.8494109006718" cy="321.58730158730157" fill="#8BC34A" opacity="0.5" r="2"/>
<circle cx="860.4255150225063" cy="321.58730158730157" fill="#8BC34A" opacity="0.5" r="2"/>
<circle cx="878.9478433301601" cy="321.58730158730157" fill="#8BC34A" opacity="0.5" r="2"/>
<circle cx="896.4163958236331" cy="321.58730158730157" fill="#8BC34A" opacity="0.5" r="2"/>
<circle cx="912.8311725029255" cy="321.58730158730157" fill="#8BC34A" opacity="0.5" r="2"/>
<circle cx="928.1921733680373" cy="321.58730158730157" fill="#8BC34A" opacity="0.5" r="2"/>
<circle cx="942.4993984189681" cy="321.58730158730157" fill="#8BC34A" opacity="0.5" r="2"/>
<circle cx="955.7528476557181" cy="321.58730158730157" fill="#8BC34A" opacity="0.5" r="2"/>
<circle cx="967.9525210782876" cy="321.58730158730157" fill="#8BC34A" opacity="0.5" r="2"/>
<circle cx="979.0984186866764" cy="321.58730158730157" fill="#8BC34A" opacity="0.5" r="2"/>
<circle cx="989.1905404808842" cy="321.58730158730157" fill="#8BC34A" opacity="0.5" r="2"/>
<circle cx="998.2288864609117" cy="321.58730158730157" fill="#8BC34A" opacity="0.5" r="2"/>
<circle cx="1006.2134566267581" cy="321.58730158730157" fill="#8BC34A" opacity="0.5" r="2"/>
<circle cx="1013.1442509784239" cy="321.58730158730157" fill="#8BC34A" opacity="0.5" r="2"/>
<circle cx="1019.021269515909" cy="321.58730158730157" fill="#8BC34A" opacity="0.5" r="2"/>
<circle cx="1023.8445122392134" cy="321.58730158730157" fill="#8BC34A" opacity="0.5" r="2"/>
<circle cx="1027.613979148337" cy="321.58730158730157" fill="#8BC34A" opacity="0.5" r="2"/>
<circle cx="1030.32967024328" cy="321.58730158730157" fill="#8BC34A" opacity="0.5" r="2"/>
<circle cx="1031.991585524042" cy="321.58730158730157" fill="#8BC34A" opacity="0.5" r="2"/>
<circle cx="1032.5997249906236" cy="321.58730158730157" fill="#8BC34A" opacity="0.5" r="2"/>
<circle cx="1032.5997249906236" cy="321.58730158730157" fill="#8BC34A" opacity="0.5" r="2"/>
<circle cx="1032.5997249906236" cy="321.58730158730157" fill="#8BC34A" opacity="0.5" r="2"/>
<circle cx="1032.5997249906236" cy="321.58730158730157" fill="#8BC34A" opacity="0.5" r="2"/>
<circle cx="1032.5997249906236" cy="321.58730158730157" fill="#8BC34A" opacity="0.5" r="2"/>
<circle cx="1032.5997249906236" cy="321.58730158730157" fill="#8BC34A" opacity="0.5" r="2"/>
<path d="M 168.03966060473778 432.6984126984127 L 189.1151768883523 432.6984126984127 L 209.13691735778605 432.6984126984127 L 228.10488201303917 432.6984126984127 L 246.0190708541114 432.6984126984127 L 262.879483881003 432.6984126984127 L 278.68612109371395 432.6984126984127 L 293.4389824922442 432.6984126984127 L 307.1380680765935 432.6984126984127 L 319.78337784676233 432.6984126984127 L 331.37491180275026 432.6984126984127 L 341.9126699445575 432.6984126984127 L 351.396652272184 432.6984126984127 L 359.82685878562984 432.6984126984127 L 367.2032894848949 432.6984126984127 L 373.52594436997936 432.6984126984127 L 378.79482344088285 432.6984126984127 L 383.00992669760586 432.6984126984127 L 386.17125414014794 432.6984126984127 L 388.2788057685095 432.6984126984127 L 389.33258158269024 432.6984126984127 L 389.33258158269024 432.6984126984127 L 389.33258158269024 432.6984126984127 L 389.33258158269024 432.6984126984127 L 389.33258158269024 432.6984126984127 L 389.33258158269024 432.6984126984127 L 389.33258158269024 432.6984126984127 L 389.50821088505376 432.6984126984127 L 390.0790061177348 432.6984126984127 L 391.0449672807339 432.6984126984127 L 392.4060943740507 432.6984126984127 L 394.16238739768517 432.6984126984127 L 396.3138463516376 432.6984126984127 L 398.8604712359076 432.6984126984127 L 401.8022620504954 432.6984126984127 L 405.139218795401 432.6984126984127 L 408.87134147062454 432.6984126984127 L 412.99863007616574 426.3492063492063 L 417.5210846120247 424.7142857142857 L 422.43870507820145 422.93650793650795 L 427.75149147469574 421.015873015873 L 433.4594438015081 418.95238095238096 L 439.5625620586382 416.74603174603175 L 446.0608462460859 414.39682539682536 L 452.95429636385154 411.90476190476187 L 460.24291241193487 409.26984126984127 L 467.9266943903361 406.49206349206344 L 476.00564229905495 403.57142857142856 L 484.4797561380916 400.5079365079365 L 493.349035907446 397.3015873015873 L 502.6134816071182 393.95238095238096 L 512.2730932371082 390.46031746031747 L 522.3278707974159 386.82539682539687 L 532.7778142880416 383.0476190476191 L 543.6229237089848 379.12698412698415 L 554.863199060246 382.1587301587302 L 566.4986403418247 377.95238095238096 L 578.5292475537215 373.6031746031746 L 590.9550206959357 369.11111111111114 L 603.775959768468 364.4761904761905 L 616.9920647713179 359.6984126984127 L 630.6033357044856 354.7777777777778 L 644.609772567971 349.7142857142857 L 659.0113753617743 344.5079365079365 L 673.8081440858954 339.1587301587302 L 689.0000787403342 333.6666666666667 L 704.5871793250907 328.031746031746 L 720.569445840165 322.25396825396825 L 736.9468782855572 328.1746031746032 L 753.719476661267 322.1111111111111 L 770.8872409672948 328.3174603174603 L 788.4501712036401 321.968253968254 L 804.9593256258048 316 L 820.4147042337888 321.58730158730157 L 834.8163070275921 321.58730158730157 L 848.1641340072147 321.58730158730157 L 860.4581851726565 321.58730158730157 L 872.9400521634827 321.58730158730157 L 885.817085084627 321.58730158730157 L 899.0892839360889 321.58730158730157 L 912.7566487178686 321.58730158730157 L 926.8191794299661 321.58730158730157 L 941.2768760723814 321.58730158730157 L 954.6807969006159 321.58730158730157 L 967.0309419146697 321.58730158730157 L 978.3273111145427 321.58730158730157 L 988.5699045002351 321.58730158730157 L 997.7587220717467 321.58730158730157 L 1005.8937638290777 321.58730158730157 L 1012.9750297722278 321.58730158730157 L 1019.0025199011973 321.58730158730157 L 1023.976234215986 321.58730158730157 L 1027.896172716594 321.58730158730157 L 1030.762335403021 321.58730158730157 L 1032.574722275268 321.58730158730157 L 1033.3333333333335 321.58730158730157 L 1033.3333333333335 321.58730158730157 L 1033.3333333333335 321.58730158730157 L 1033.3333333333335 321.58730158730157 L 1033.3333333333335 321.58730158730157 L 1033.3333333333335 321.58730158730157 " fill="none" opacity="0.7" stroke="#64B5F6" stroke-width="3"/>
<circle cx="168.03966060473778" cy="432.6984126984127" fill="#64B5F6" opacity="0.5" r="2"/>
<circle cx="189.1151768883523" cy="432.6984126984127" fill="#64B5F6" opacity="0.5" r="2"/>
<circle cx="209.13691735778605" cy="432.6984126984127" fill="#64B5F6" opacity="0.5" r="2"/>
<circle cx="228.10488201303917" cy="432.6984126984127" fill="#64B5F6" opacity="0.5" r="2"/>
<circle cx="246.0190708541114" cy="432.6984126984127" fill="#64B5F6" opacity="0.5" r="2"/>
<circle cx="262.879483881003" cy="432.6984126984127" fill="#64B5F6" opacity="0.5" r="2"/>
<circle cx="278.68612109371395" cy="432.6984126984127" fill="#64B5F6" opacity="0.5" r="2"/>
<circle cx="293.4389824922442" cy="432.6984126984127" fill="#64B5F6" opacity="0.5" r="2"/>
<circle cx="307.1380680765935" cy="432.6984126984127" fill="#64B5F6" opacity="0.5" r="2"/>
<circle cx="319.78337784676233" cy="432.6984126984127" fill="#64B5F6" opacity="0.5" r="2"/>
<circle cx="331.37491180275026" cy="432.6984126984127" fill="#64B5F6" opacity="0.5" r="2"/>
<circle cx="341.9126699445575" cy="432.6984126984127" fill="#64B5F6" opacity="0.5" r="2"/>
<circle cx="351.396652272184" cy="432.6984126984127" fill="#64B5F6" opacity="0.5" r="2"/>
<circle cx="359.82685878562984" cy="432.6984126984127" fill="#64B5F6" opacity="0.5" r="2"/>
<circle cx="367.2032894848949" cy="432.6984126984127" fill="#64B5F6" opacity="0.5" r="2"/>
<circle cx="373.52594436997936" cy="432.6984126984127" fill="#64B5F6" opacity="0.5" r="2"/>
<circle cx="378.79482344088285" cy="432.6984126984127" fill="#64B5F6" opacity="0.5" r="2"/>
<circle cx="383.00992669760586" cy="432.6984126984127" fill="#64B5F6" opacity="0.5" r="2"/>
<circle cx="386.17125414014794" cy="432.6984126984127" fill="#64B5F6" opacity="0.5" r="2"/>
<circle cx="388.2788057685095" cy="432.6984126984127" fill="#64B5F6" opacity="0.5" r="2"/>
<circle cx="389.33258158269024" cy="432.6984126984127" fill="#64B5F6" opacity="0.5" r="2"/>
<circle cx="389.33258158269024" cy="432.6984126984127" fill="#64B5F6" opacity="0.5" r="2"/>
<circle cx="389.33258158269024" cy="432.6984126984127" fill="#64B5F6" opacity="0.5" r="2"/>
<circle cx="389.33258158269024" cy="432.6984126984127" fill="#64B5F6" opacity="0.5" r="2"/>
<circle cx="389.33258158269024" cy="432.6984126984127" fill="#64B5F6" opacity="0.5" r="2"/>
<circle cx="389.33258158269024" cy="432.6984126984127" fill="#64B5F6" opacity="0.5" r="2"/>
<circle cx="389.33258158269024" cy="432.6984126984127" fill="#64B5F6" opacity="0.5" r="2"/>
<circle cx="389.50821088505376" cy="432.6984126984127" fill="#64B5F6" opacity="0.5" r="2"/>
<circle cx="390.0790061177348" cy="432.6984126984127" fill="#64B5F6" opacity="0.5" r="2"/>
<circle cx="391.0449672807339" cy="432.6984126984127" fill="#64B5F6" opacity="0.5" r="2"/>
<circle cx="392.4060943740507" cy="432.6984126984127" fill="#64B5F6" opacity="0.5" r="2"/>
<circle cx="394.16238739768517" cy="432.6984126984127" fill="#64B5F6" opacity="0.5" r="2"/>
<circle cx="396.3138463516376" cy="432.6984126984127" fill="#64B5F6" opacity="0.5" r="2"/>
<circle cx="398.8604712359076" cy="432.6984126984127" fill="#64B5F6" opacity="0.5" r="2"/>
<circle cx="401.8022620504954" cy="432.6984126984127" fill="#64B5F6" opacity="0.5" r="2"/>
<circle cx="405.139218795401" cy="432.6984126984127" fill="#64B5F6" opacity="0.5" r="2"/>
<circle cx="408.87134147062454" cy="432.6984126984127" fill="#64B5F6" opacity="0.5" r="2"/>
<circle cx="412.99863007616574" cy="426.3492063492063" fill="#64B5F6" opacity="0.5" r="2"/>
<circle cx="417.5210846120247" cy="424.7142857142857" fill="#64B5F6" opacity="0.5" r="2"/>
<circle cx="422.43870507820145" cy="422.93650793650795" fill="#64B5F6" opacity="0.5" r="2"/>
<circle cx="427.75149147469574" cy="421.015873015873" fill="#64B5F6" opacity="0.5" r="2"/>
<circle cx="433.4594438015081" cy="418.95238095238096" fill="#64B5F6" opacity="0.5" r="2"/>
<circle cx="439.5625620586382" cy="416.74603174603175" fill="#64B5F6" opacity="0.5" r="2"/>
<circle cx="446.0608462460859" cy="414.39682539682536" fill="#64B5F6" opacity="0.5" r="2"/>
<circle cx="452.95429636385154" cy="411.90476190476187" fill="#64B5F6" opacity="0.5" r="2"/>
<circle cx="460.24291241193487" cy="409.26984126984127" fill="#64B5F6" opacity="0.5" r="2"/>
<circle cx="467.9266943903361" cy="406.49206349206344" fill="#64B5F6" opacity="0.5" r="2"/>
<circle cx="476.00564229905495" cy="403.57142857142856" fill="#64B5F6" opacity="0.5" r="2"/>
<circle cx="484.4797561380916" cy="400.5079365079365" fill="#64B5F6" opacity="0.5" r="2"/>
<circle cx="493.349035907446" cy="397.3015873015873" fill="#64B5F6" opacity="0.5" r="2"/>
<circle cx="502.6134816071182" cy="393.95238095238096" fill="#64B5F6" opacity="0.5" r="2"/>
<circle cx="512.2730932371082" cy="390.46031746031747" fill="#64B5F6" opacity="0.5" r="2"/>
<circle cx="522.3278707974159" cy="386.82539682539687" fill="#64B5F6" opacity="0.5" r="2"/>
<circle cx="532.7778142880416" cy="383.0476190476191" fill="#64B5F6" opacity="0.5" r="2"/>
<circle cx="543.6229237089848" cy="379.12698412698415" fill="#64B5F6" opacity="0.5" r="2"/>
<circle cx="554.863199060246" cy="382.1587301587302" fill="#64B5F6" opacity="0.5" r="2"/>
<circle cx="566.4986403418247" cy="377.95238095238096" fill="#64B5F6" opacity="0.5" r="2"/>
<circle cx="578.5292475537215" cy="373.6031746031746" fill="#64B5F6" opacity="0.5" r="2"/>
<circle cx="590.9550206959357" cy="369.11111111111114" fill="#64B5F6" opacity="0.5" r="2"/>
<circle cx="603.775959768468" cy="364.4761904761905" fill="#64B5F6" opacity="0.5" r="2"/>
<circle cx="616.9920647713179" cy="359.6984126984127" fill="#64B5F6" opacity="0.5" r="2"/>
<circle cx="630.6033357044856" cy="354.7777777777778" fill="#64B5F6" opacity="0.5" r="2"/>
<circle cx="644.609772567971" cy="349.7142857142857" fill="#64B5F6" opacity="0.5" r="2"/>
<circle cx="659.0113753617743" cy="344.5079365079365" fill="#64B5F6" opacity="0.5" r="2"/>
<circle cx="673.8081440858954" cy="339.1587301587302" fill="#64B5F6" opacity="0.5" r="2"/>
<circle cx="689.0000787403342" cy="333.6666666666667" fill="#64B5F6" opacity="0.5" r="2"/>
<circle cx="704.5871793250907" cy="328.031746031746" fill="#64B5F6" opacity="0.5" r="2"/>
<circle cx="720.569445840165" cy="322.25396825396825" fill="#64B5F6" opacity="0.5" r="2"/>
<circle cx="736.9468782855572" cy="328.1746031746032" fill="#64B5F6" opacity="0.5" r="2"/>
<circle cx="753.719476661267" cy="322.1111111111111" fill="#64B5F6" opacity="0.5" r="2"/>
<circle cx="770.8872409672948" cy="328.3174603174603" fill="#64B5F6" opacity="0.5" r="2"/>
<circle cx="788.4501712036401" cy="321.968253968254" fill="#64B5F6" opacity="0.5" r="2"/>
<circle cx="804.9593256258048" cy="316" fill="#64B5F6" opacity="0.5" r="2"/>
<circle cx="820.4147042337888" cy="321.58730158730157" fill="#64B5F6" opacity="0.5" r="2"/>
<circle cx="834.8163070275921" cy="321.58730158730157" fill="#64B5F6" opacity="0.5" r="2"/>
<circle cx="848.1641340072147" cy="321.58730158730157" fill="#64B5F6" opacity="0.5" r="2"/>
<circle cx="860.4581851726565" cy="321.58730158730157" fill="#64B5F6" opacity="0.5" r="2"/>
<circle cx="872.9400521634827" cy="321.58730158730157" fill="#64B5F6" opacity="0.5" r="2"/>
<circle cx="885.817085084627" cy="321.58730158730157" fill="#64B5F6" opacity="0.5" r="2"/>
<circle cx="899.0892839360889" cy="321.58730158730157" fill="#64B5F6" opacity="0.5" r="2"/>
<circle cx="912.7566487178686" cy="321.58730158730157" fill="#64B5F6" opacity="0.5" r="2"/>
<circle cx="926.8191794299661" cy="321.58730158730157" fill="#64B5F6" opacity="0.5" r="2"/>
<circle cx="941.2768760723814" cy="321.58730158730157" fill="#64B5F6" opacity="0.5" r="2"/>
<circle cx="954.6807969006159" cy="321.58730158730157" fill="#64B5F6" opacity="0.5" r="2"/>
<circle cx="967.0309419146697" cy="321.58730158730157" fill="#64B5F6" opacity="0.5" r="2"/>
<circle cx="978.3273111145427" cy="321.58730158730157" fill="#64B5F6" opacity="0.5" r="2"/>
<circle cx="988.5699045002351" cy="321.58730158730157" fill="#64B5F6" opacity="0.5" r="2"/>
<circle cx="997.7587220717467" cy="321.58730158730157" fill="#64B5F6" opacity="0.5" r="2"/>
<circle cx="1005.8937638290777" cy="321.58730158730157" fill="#64B5F6" opacity="0.5" r="2"/>
<circle cx="1012.9750297722278" cy="321.58730158730157" fill="#64B5F6" opacity="0.5" r="2"/>
<circle cx="1019.0025199011973" cy="321.58730158730157" fill="#64B5F6" opacity="0.5" r="2"/>
<circle cx="1023.976234215986" cy="321.58730158730157" fill="#64B5F6" opacity="0.5" r="2"/>
<circle cx="1027.896172716594" cy="321.58730158730157" fill="#64B5F6" opacity="0.5" r="2"/>
<circle cx="1030.762335403021" cy="321.58730158730157" fill="#64B5F6" opacity="0.5" r="2"/>
<circle cx="1032.574722275268" cy="321.58730158730157" fill="#64B5F6" opacity="0.5" r="2"/>
<circle cx="1033.3333333333335" cy="321.58730158730157" fill="#64B5F6" opacity="0.5" r="2"/>
<circle cx="1033.3333333333335" cy="321.58730158730157" fill="#64B5F6" opacity="0.5" r="2"/>
<circle cx="1033.3333333333335" cy="321.58730158730157" fill="#64B5F6" opacity="0.5" r="2"/>
<circle cx="1033.3333333333335" cy="321.58730158730157" fill="#64B5F6" opacity="0.5" r="2"/>
<circle cx="1033.3333333333335" cy="321.58730158730157" fill="#64B5F6" opacity="0.5" r="2"/>
<circle cx="1033.3333333333335" cy="321.58730158730157" fill="#64B5F6" opacity="0.5" r="2"/>
<circle cx="766.4966537165116" cy="321.58730158730157" fill="none" r="8" stroke="#F44336" stroke-width="3"/>
<circle cx="804.9593256258048" cy="316" fill="none" r="8" stroke="#F44336" stroke-width="3"/>
<circle cx="766.4966537165116" cy="321.58730158730157" fill="none" r="8" stroke="#F44336" stroke-width="3"/>
<circle cx="804.9593256258048" cy="316" fill="none" r="8" stroke="#F44336" stroke-width="3"/>
<circle cx="784.4920941170748" cy="321.58730158730157" fill="none" r="8" stroke="#F44336" stroke-width="3"/>
<circle cx="820.4147042337888" cy="321.58730158730157" fill="none" r="8" stroke="#F44336" stroke-width="3"/>
<circle cx="784.4920941170748" cy="321.58730158730157" fill="none" r="8" stroke="#F44336" stroke-width="3"/>
<circle cx="820.4147042337888" cy="321.58730158730157" fill="none" r="8" stroke="#F44336" stroke-width="3"/>
<circle cx="802.882700447956" cy="321.58730158730157" fill="none" r="8" stroke="#F44336" stroke-width="3"/>
<circle cx="834.8163070275921" cy="321.58730158730157" fill="none" r="8" stroke="#F44336" stroke-width="3"/>
<circle cx="802.882700447956" cy="321.58730158730157" fill="none" r="8" stroke="#F44336" stroke-width="3"/>
<circle cx="834.8163070275921" cy="321.58730158730157" fill="none" r="8" stroke="#F44336" stroke-width="3"/>
<circle cx="821.668472709155" cy="321.58730158730157" fill="none" r="8" stroke="#F44336" stroke-width="3"/>
<circle cx="848.1641340072147" cy="321.58730158730157" fill="none" r="8" stroke="#F44336" stroke-width="3"/>
<circle cx="821.668472709155" cy="321.58730158730157" fill="none" r="8" stroke="#F44336" stroke-width="3"/>
<circle cx="848.1641340072147" cy="321.58730158730157" fill="none" r="8" stroke="#F44336" stroke-width="3"/>
<circle cx="840.8494109006718" cy="321.58730158730157" fill="none" r="8" stroke="#F44336" stroke-width="3"/>
<circle cx="860.4581851726565" cy="321.58730158730157" fill="none" r="8" stroke="#F44336" stroke-width="3"/>
<circle cx="840.8494109006718" cy="321.58730158730157" fill="none" r="8" stroke="#F44336" stroke-width="3"/>
<circle cx="860.4581851726565" cy="321.58730158730157" fill="none" r="8" stroke="#F44336" stroke-width="3"/>
<circle cx="860.4255150225063" cy="321.58730158730157" fill="none" r="8" stroke="#F44336" stroke-width="3"/>
<circle cx="872.9400521634827" cy="321.58730158730157" fill="none" r="8" stroke="#F44336" stroke-width="3"/>
<circle cx="860.4255150225063" cy="321.58730158730157" fill="none" r="8" stroke="#F44336" stroke-width="3"/>
<circle cx="872.9400521634827" cy="321.58730158730157" fill="none" r="8" stroke="#F44336" stroke-width="3"/>
<circle cx="878.9478433301601" cy="321.58730158730157" fill="none" r="8" stroke="#F44336" stroke-width="3"/>
<circle cx="885.817085084627" cy="321.58730158730157" fill="none" r="8" stroke="#F44336" stroke-width="3"/>
<circle cx="878.9478433301601" cy="321.58730158730157" fill="none" r="8" stroke="#F44336" stroke-width="3"/>
<circle cx="885.817085084627" cy="321.58730158730157" fill="none" r="8" stroke="#F44336" stroke-width="3"/>
<circle cx="896.4163958236331" cy="321.58730158730157" fill="none" r="8" stroke="#F44336" stroke-width="3"/>
<circle cx="899.0892839360889" cy="321.58730158730157" fill="none" r="8" stroke="#F44336" stroke-width="3"/>
<circle cx="896.4163958236331" cy="321.58730158730157" fill="none" r="8" stroke="#F44336" stroke-width="3"/>
<circle cx="899.0892839360889" cy="321.58730158730157" fill="none" r="8" stroke="#F44336" stroke-width="3"/>
<circle cx="912.8311725029255" cy="321.58730158730157" fill="none" r="8" stroke="#F44336" stroke-width="3"/>
<circle cx="912.7566487178686" cy="321.58730158730157" fill="none" r="8" stroke="#F44336" stroke-width="3"/>
<circle cx="928.1921733680373" cy="321.58730158730157" fill="none" r="8" stroke="#F44336" stroke-width="3"/>
<circle cx="926.8191794299661" cy="321.58730158730157" fill="none" r="8" stroke="#F44336" stroke-width="3"/>
<circle cx="928.1921733680373" cy="321.58730158730157" fill="none" r="8" stroke="#F44336" stroke-width="3"/>
<circle cx="926.8191794299661" cy="321.58730158730157" fill="none" r="8" stroke="#F44336" stroke-width="3"/>
<circle cx="942.4993984189681" cy="321.58730158730157" fill="none" r="8" stroke="#F44336" stroke-width="3"/>
<circle cx="941.2768760723814" cy="321.58730158730157" fill="none" r="8" stroke="#F44336" stroke-width="3"/>
<circle cx="942.4993984189681" cy="321.58730158730157" fill="none" r="8" stroke="#F44336" stroke-width="3"/>
<circle cx="941.2768760723814" cy="321.58730158730157" fill="none" r="8" stroke="#F44336" stroke-width="3"/>
<circle cx="955.7528476557181" cy="321.58730158730157" fill="none" r="8" stroke="#F44336" stroke-width="3"/>
<circle cx="954.6807969006159" cy="321.58730158730157" fill="none" r="8" stroke="#F44336" stroke-width="3"/>
<circle cx="955.7528476557181" cy="321.58730158730157" fill="none" r="8" stroke="#F44336" stroke-width="3"/>
<circle cx="954.6807969006159" cy="321.58730158730157" fill="none" r="8" stroke="#F44336" stroke-width="3"/>
<circle cx="967.9525210782876" cy="321.58730158730157" fill="none" r="8" stroke="#F44336" stroke-width="3"/>
<circle cx="967.0309419146697" cy="321.58730158730157" fill="none" r="8" stroke="#F44336" stroke-width="3"/>
<circle cx="967.9525210782876" cy="321.58730158730157" fill="none" r="8" stroke="#F44336" stroke-width="3"/>
<circle cx="967.0309419146697" cy="321.58730158730157" fill="none" r="8" stroke="#F44336" stroke-width="3"/>
<circle cx="979.0984186866764" cy="321.58730158730157" fill="none" r="8" stroke="#F44336" stroke-width="3"/>
<circle cx="978.3273111145427" cy="321.58730158730157" fill="none" r="8" stroke="#F44336" stroke-width="3"/>
<circle cx="979.0984186866764" cy="321.58730158730157" fill="none" r="8" stroke="#F44336" stroke-width="3"/>
<circle cx="978.3273111145427" cy="321.58730158730157" fill="none" r="8" stroke="#F44336" stroke-width="3"/>
<circle cx="989.1905404808842" cy="321.58730158730157" fill="none" r="8" stroke="#F44336" stroke-width="3"/>
<circle cx="988.5699045002351" cy="321.58730158730157" fill="none" r="8" stroke="#F44336" stroke-width="3"/>
<circle cx="989.1905404808842" cy="321.58730158730157" fill="none" r="8" stroke="#F44336" stroke-width="3"/>
<circle cx="988.5699045002351" cy="321.58730158730157" fill="none" r="8" stroke="#F44336" stroke-width="3"/>
<circle cx="998.2288864609117" cy="321.58730158730157" fill="none" r="8" stroke="#F44336" stroke-width="3"/>
<circle cx="997.7587220717467" cy="321.58730158730157" fill="none" r="8" stroke="#F44336" stroke-width="3"/>
<circle cx="998.2288864609117" cy="321.58730158730157" fill="none" r="8" stroke="#F44336" stroke-width="3"/>
<circle cx="997.7587220717467" cy="321.58730158730157" fill="none" r="8" stroke="#F44336" stroke-width="3"/>
<circle cx="1006.2134566267581" cy="321.58730158730157" fill="none" r="8" stroke="#F44336" stroke-width="3"/>
<circle cx="1005.8937638290777" cy="321.58730158730157" fill="none" r="8" stroke="#F44336" stroke-width="3"/>
<circle cx="1006.2134566267581" cy="321.58730158730157" fill="none" r="8" stroke="#F44336" stroke-width="3"/>
<circle cx="1005.8937638290777" cy="321.58730158730157" fill="none" r="8" stroke="#F44336" stroke-width="3"/>
<circle cx="1013.1442509784239" cy="321.58730158730157" fill="none" r="8" stroke="#F44336" stroke-width="3"/>
<circle cx="1012.9750297722278" cy="321.58730158730157" fill="none" r="8" stroke="#F44336" stroke-width="3"/>
<circle cx="1013.1442509784239" cy="321.58730158730157" fill="none" r="8" stroke="#F44336" stroke-width="3"/>
<circle cx="1012.9750297722278" cy="321.58730158730157" fill="none" r="8" stroke="#F44336" stroke-width="3"/>
<circle cx="1019.021269515909" cy="321.58730158730157" fill="none" r="8" stroke="#F44336" stroke-width="3"/>
<circle cx="1019.0025199011973" cy="321.58730158730157" fill="none" r="8" stroke="#F44336" stroke-width="3"/>
<circle cx="1019.021269515909" cy="321.58730158730157" fill="none" r="8" stroke="#F44336" stroke-width="3"/>
<circle cx="1019.0025199011973" cy="321.58730158730157" fill="none" r="8" stroke="#F44336" stroke-width="3"/>
<circle cx="1023.8445122392134" cy="321.58730158730157" fill="none" r="8" stroke="#F44336" stroke-width="3"/>
<circle cx="1023.976234215986" cy="321.58730158730157" fill="none" r="8" stroke="#F44336" stroke-width="3"/>
<circle cx="1027.613979148337" cy="321.58730158730157" fill="none" r="8" stroke="#F44336" stroke-width="3"/>
<circle cx="1027.896172716594" cy="321.58730158730157" fill="none" r="8" stroke="#F44336" stroke-width="3"/>
<circle cx="1030.32967024328" cy="321.58730158730157" fill="none" r="8" stroke="#F44336" stroke-width="3"/>
<circle cx="1030.762335403021" cy="321.58730158730157" fill="none" r="8" stroke="#F44336" stroke-width="3"/>
<circle cx="1031.991585524042" cy="321.58730158730157" fill="none" r="8" stroke="#F44336" stroke-width="3"/>
<circle cx="1032.574722275268" cy="321.58730158730157" fill="none" r="8" stroke="#F44336" stroke-width="3"/>
<circle cx="1032.5997249906236" cy="321.58730158730157" fill="none" r="8" stroke="#F44336" stroke-width="3"/>
<circle cx="1033.3333333333335" cy="321.58730158730157" fill="none" r="8" stroke="#F44336" stroke-width="3"/>
<circle cx="1032.5997249906236" cy="321.58730158730157" fill="none" r="8" stroke="#F44336" stroke-width="3"/>
<circle cx="1033.3333333333335" cy="321.58730158730157" fill="none" r="8" stroke="#F44336" stroke-width="3"/>
<circle cx="1032.5997249906236" cy="321.58730158730157" fill="none" r="8" stroke="#F44336" stroke-width="3"/>
<circle cx="1033.3333333333335" cy="321.58730158730157" fill="none" r="8" stroke="#F44336" stroke-width="3"/>
<circle cx="1032.5997249906236" cy="321.58730158730157" fill="none" r="8" stroke="#F44336" stroke-width="3"/>
<circle cx="1033.3333333333335" cy="321.58730158730157" fill="none" r="8" stroke="#F44336" stroke-width="3"/>
<circle cx="1032.5997249906236" cy="321.58730158730157" fill="none" r="8" stroke="#F44336" stroke-width="3"/>
<circle cx="1033.3333333333335" cy="321.58730158730157" fill="none" r="8" stroke="#F44336" stroke-width="3"/>
<circle cx="1032.5997249906236" cy="321.58730158730157" fill="none" r="8" stroke="#F44336" stroke-width="3"/>
<circle cx="1033.3333333333335" cy="321.58730158730157" fill="none" r="8" stroke="#F44336" stroke-width="3"/>
</g>
<g id="vehicles">
<rect fill="#4CAF50" height="6" rx="1" stroke="#333333" stroke-width="1" width="12" x="160.66666666666669" y="318.58730158730157"/>
<text fill="#333333" font-family="Arial, sans-serif" font-size="10" font-weight="bold" text-anchor="middle" x="166.66666666666669" y="313.58730158730157">
ego (t=0)
</text>
<rect fill="#4CAF50" height="6" opacity="0.8" rx="1" stroke="#333333" stroke-dasharray="3,3" stroke-width="2" width="12" x="1026.5997249906236" y="318.58730158730157"/>
<text fill="#333333" font-family="Arial, sans-serif" font-size="10" font-weight="bold" text-anchor="middle" x="1032.5997249906236" y="339.58730158730157">
ego (t=10.0)
</text>
<rect fill="#2196F3" height="6" rx="1" stroke="#333333" stroke-width="1" width="12" x="162.03966060473778" y="429.6984126984127"/>
<text fill="#333333" font-family="Arial, sans-serif" font-size="10" font-weight="bold" text-anchor="middle" x="168.03966060473778" y="424.6984126984127">
npc (t=0)
</text>
<rect fill="#2196F3" height="6" opacity="0.8" rx="1" stroke="#333333" stroke-dasharray="3,3" stroke-width="2" width="12" x="1027.3333333333335" y="318.58730158730157"/>
<text fill="#333333" font-family="Arial, sans-serif" font-size="10" font-weight="bold" text-anchor="middle" x="1033.3333333333335" y="339.58730158730157">
npc (t=10.0)
</text>
</g>
<g id="legend">
<rect fill="white" height="100" rx="3" stroke="#333333" stroke-width="1" width="150" x="970" y="420"/>
<text fill="#333333" font-family="Arial, sans-serif" font-size="12" font-weight="bold" text-anchor="middle" x="1045" y="435">
Legend
</text>
<rect fill="#4CAF50" height="8" width="12" x="980" y="445"/>
<text fill="#333333" font-family="Arial, sans-serif" font-size="10" text-anchor="start" x="1000" y="452">
Ego Vehicle
</text>
<rect fill="#2196F3" height="8" width="12" x="980" y="460"/>
<text fill="#333333" font-family="Arial, sans-serif" font-size="10" text-anchor="start" x="1000" y="467">
NPC Vehicle
</text>
<circle cx="986" cy="479" fill="#FF9800" r="4"/>
<text fill="#333333" font-family="Arial, sans-serif" font-size="10" text-anchor="start" x="1000" y="482">
Pedestrian
</text>
<circle cx="986" cy="498" fill="none" r="6" stroke="#F44336" stroke-width="2"/>
<text fill="#333333" font-family="Arial, sans-serif" font-size="10" text-anchor="start" x="1000" y="501">
Safety Violation
</text>
</g>
</svg>