<svg height="600" viewBox="0 0 1200 600" width="1200" xmlns="http://www.w3.org/2000/svg">
<rect fill="#F5F5F5" height="600" width="1200"/>
<g id="header">
<text fill="#333333" font-family="Arial, sans-serif" font-size="24" font-weight="bold" text-anchor="middle" x="600" y="30">
Scenario: cut_in_left
</text>
<text fill="#333333" font-family="Arial, sans-serif" font-size="12" text-anchor="middle" x="600" y="55">
ID: e4c29937 | Duration: 10.0s | Time Step: 0.10s
</text>
</g>
<g id="metrics">
<text fill="#333333" font-family="Arial, sans-serif" font-size="14" text-anchor="middle" x="600" y="80">
Min TTC: 18.32s | Min Distance: 19.00m | Max Accel: 0.00 m/s² | Max Decel: -0.48 m/s² | Constraints: 
</text>
<text fill="#4CAF50" font-family="Arial, sans-serif" font-size="14" font-weight="bold" text-anchor="start" x="920" y="80">
✓ SAFE
</text>
</g>
<rect fill="#2A2A2A" height="400" width="1040" x="80" y="120"/>
<g id="lane_markings">
<line opacity="0.6" stroke="#FFFFFF" stroke-dasharray="10,10" stroke-width="2" x1="80" x2="1120" y1="375.55555555555554" y2="375.55555555555554"/>
<line opacity="0.6" stroke="#FFFFFF" stroke-dasharray="10,10" stroke-width="2" x1="80" x2="1120" y1="264.44444444444446" y2="264.44444444444446"/>
<line stroke="#FFFFFF" stroke-width="3" x1="80" x2="1120" y1="153.33333333333334" y2="153.33333333333334"/>
<line stroke="#FFFFFF" stroke-width="3" x1="80" x2="1120" y1="486.6666666666667" y2="486.6666666666667"/>
</g>
<g id="trajectories">
<path d="M 166.66666666666666 320 L 174.4133996039181 320 L 182.16013254116956 320 L 189.90686547842097 320 L 197.6535984156724 320 L 205.40033135292384 320 L 213.1470642901753 320 L 220.89379722742675 320 L 228.64053016467815 320 L 236.3872631019296 320 L 244.13399603918106 320 L 251.8807289764325 320 L 259.62746191368393 320 L 267.37419485093534 320 L 275.1209277881868 320 L 282.8676607254382 320 L 290.6143936626896 320 L 298.36112659994114 320 L 306.10785953719255 320 L 313.854592474444 320 L 321.6013254116954 320 L 329.34805834894684 320 L 337.0947912861983 320 L 344.8415242234497 320 L 352.58825716070123 320 L 360.33499009795264 320 L 368.08172303520405 320 L 375.8284559724555 320 L 383.5751889097069 320 L 391.32192184695845 320 L 399.06865478420985 320 L 406.81538772146126 320 L 414.5621206587127 320 L 422.3088535959641 320 L 430.05558653321566 320 L 437.80231947046707 320 L 445.5490524077185 320 L 453.2957853449699 320 L 461.0425182822213 320 L 468.7892512194728 320 L 476.5359841567242 320 L 484.28271709397563 320 L 492.02945003122704 320 L 499.77618296847845 320 L 507.52291590573003 320 L 515.2696488429815 320 L 523.0163817802329 320 L 530.7631147174843 320 L 538.5098476547357 320 L 546.2565805919871 320 L 554.0033135292385 320 L 561.75004646649 320 L 569.4967794037415 320 L 577.243512340993 320 L 584.9902452782444 320 L 592.7369782154958 320 L 600.4837111527472 320 L 608.2304440899986 320 L 615.9771770272501 320 L 623.7239099645016 320 L 631.470642901753 320 L 639.2173758390044 320 L 646.9641087762558 320 L 654.7108417135074 320 L 662.4575746507588 320 L 670.2043075880102 320 L 677.9510405252616 320 L 685.697773462513 320 L 693.4445063997646 320 L 701.191239337016 320 L 708.9379722742674 320 L 716.6847052115188 320 L 724.4314381487702 320 L 732.1781710860217 320 L 739.9249040232731 320 L 747.6716369605246 320 L 755.418369897776 320 L 763.1651028350274 320 L 770.911835772279 320 L 778.6585687095304 320 L 786.4053016467818 320 L 794.1520345840332 320 L 801.8987675212846 320 L 809.6455004585362 320 L 817.3922333957876 320 L 825.138966333039 320 L 832.8856992702904 320 L 840.6324322075418 320 L 848.3791651447933 320 L 856.1258980820447 320 L 863.8726310192961 320 L 871.6193639565475 320 L 879.366096893799 320 L 887.1128298310505 320 L 894.859562768302 320 L 902.6062957055534 320 L 910.3530286428048 320 L 918.0997615800562 320 L 925.8464945173077 320 L 933.5932274545592 320 L 941.3399603918106 320 " fill="none" opacity="0.7" stroke="#8BC34A" stroke-width="3"/>
<circle cx="166.66666666666666" cy="320" fill="#8BC34A" opacity="0.5" r="2"/>
<circle cx="174.4133996039181" cy="320" fill="#8BC34A" opacity="0.5" r="2"/>
<circle cx="182.16013254116956" cy="320" fill="#8BC34A" opacity="0.5" r="2"/>
<circle cx="189.90686547842097" cy="320" fill="#8BC34A" opacity="0.5" r="2"/>
<circle cx="197.6535984156724" cy="320" fill="#8BC34A" opacity="0.5" r="2"/>
<circle cx="205.40033135292384" cy="320" fill="#8BC34A" opacity="0.5" r="2"/>
<circle cx="213.1470642901753" cy="320" fill="#8BC34A" opacity="0.5" r="2"/>
<circle cx="220.89379722742675" cy="320" fill="#8BC34A" opacity="0.5" r="2"/>
<circle cx="228.64053016467815" cy="320" fill="#8BC34A" opacity="0.5" r="2"/>
<circle cx="236.3872631019296" cy="320" fill="#8BC34A" opacity="0.5" r="2"/>
<circle cx="244.13399603918106" cy="320" fill="#8BC34A" opacity="0.5" r="2"/>
<circle cx="251.8807289764325" cy="320" fill="#8BC34A" opacity="0.5" r="2"/>
<circle cx="259.62746191368393" cy="320" fill="#8BC34A" opacity="0.5" r="2"/>
<circle cx="267.37419485093534" cy="320" fill="#8BC34A" opacity="0.5" r="2"/>
<circle cx="275.1209277881868" cy="320" fill="#8BC34A" opacity="0.5" r="2"/>
<circle cx="282.8676607254382" cy="320" fill="#8BC34A" opacity="0.5" r="2"/>
<circle cx="290.6143936626896" cy="320" fill="#8BC34A" opacity="0.5" r="2"/>
<circle cx="298.36112659994114" cy="320" fill="#8BC34A" opacity="0.5" r="2"/>
<circle cx="306.10785953719255" cy="320" fill="#8BC34A" opacity="0.5" r="2"/>
<circle cx="313.854592474444" cy="320" fill="#8BC34A" opacity="0.5" r="2"/>
<circle cx="321.6013254116954" cy="320" fill="#8BC34A" opacity="0.5" r="2"/>
<circle cx="329.34805834894684" cy="320" fill="#8BC34A" opacity="0.5" r="2"/>
<circle cx="337.0947912861983" cy="320" fill="#8BC34A" opacity="0.5" r="2"/>
<circle cx="344.8415242234497" cy="320" fill="#8BC34A" opacity="0.5" r="2"/>
<circle cx="352.58825716070123" cy="320" fill="#8BC34A" opacity="0.5" r="2"/>
<circle cx="360.33499009795264" cy="320" fill="#8BC34A" opacity="0.5" r="2"/>
<circle cx="368.08172303520405" cy="320" fill="#8BC34A" opacity="0.5" r="2"/>
<circle cx="375.8284559724555" cy="320" fill="#8BC34A" opacity="0.5" r="2"/>
<circle cx="383.5751889097069" cy="320" fill="#8BC34A" opacity="0.5" r="2"/>
<circle cx="391.32192184695845" cy="320" fill="#8BC34A" opacity="0.5" r="2"/>
<circle cx="399.06865478420985" cy="320" fill="#8BC34A" opacity="0.5" r="2"/>
<circle cx="406.81538772146126" cy="320" fill="#8BC34A" opacity="0.5" r="2"/>
<circle cx="414.5621206587127" cy="320" fill="#8BC34A" opacity="0.5" r="2"/>
<circle cx="422.3088535959641" cy="320" fill="#8BC34A" opacity="0.5" r="2"/>
<circle cx="430.05558653321566" cy="320" fill="#8BC34A" opacity="0.5" r="2"/>
<circle cx="437.80231947046707" cy="320" fill="#8BC34A" opacity="0.5" r="2"/>
<circle cx="445.5490524077185" cy="320" fill="#8BC34A" opacity="0.5" r="2"/>
<circle cx="453.2957853449699" cy="320" fill="#8BC34A" opacity="0.5" r="2"/>
<circle cx="461.0425182822213" cy="320" fill="#8BC34A" opacity="0.5" r="2"/>
<circle cx="468.7892512194728" cy="320" fill="#8BC34A" opacity="0.5" r="2"/>
<circle cx="476.5359841567242" cy="320" fill="#8BC34A" opacity="0.5" r="2"/>
<circle cx="484.28271709397563" cy="320" fill="#8BC34A" opacity="0.5" r="2"/>
<circle cx="492.02945003122704" cy="320" fill="#8BC34A" opacity="0.5" r="2"/>
<circle cx="499.77618296847845" cy="320" fill="#8BC34A" opacity="0.5" r="2"/>
<circle cx="507.52291590573003" cy="320" fill="#8BC34A" opacity="0.5" r="2"/>
<circle cx="515.2696488429815" cy="320" fill="#8BC34A" opacity="0.5" r="2"/>
<circle cx="523.0163817802329" cy="320" fill="#8BC34A" opacity="0.5" r="2"/>
<circle cx="530.7631147174843" cy="320" fill="#8BC34A" opacity="0.5" r="2"/>
<circle cx="538.5098476547357" cy="320" fill="#8BC34A" opacity="0.5" r="2"/>
<circle cx="546.2565805919871" cy="320" fill="#8BC34A" opacity="0.5" r="2"/>
<circle cx="554.0033135292385" cy="320" fill="#8BC34A" opacity="0.5" r="2"/>
<circle cx="561.75004646649" cy="320" fill="#8BC34A" opacity="0.5" r="2"/>
<circle cx="569.4967794037415" cy="320" fill="#8BC34A" opacity="0.5" r="2"/>
<circle cx="577.243512340993" cy="320" fill="#8BC34A" opacity="0.5" r="2"/>
<circle cx="584.9902452782444" cy="320" fill="#8BC34A" opacity="0.5" r="2"/>
<circle cx="592.7369782154958" cy="320" fill="#8BC34A" opacity="0.5" r="2"/>
<circle cx="600.4837111527472" cy="320" fill="#8BC34A" opacity="0.5" r="2"/>
<circle cx="608.2304440899986" cy="320" fill="#8BC34A" opacity="0.5" r="2"/>
<circle cx="615.9771770272501" cy="320" fill="#8BC34A" opacity="0.5" r="2"/>
<circle cx="623.7239099645016" cy="320" fill="#8BC34A" opacity="0.5" r="2"/>
<circle cx="631.470642901753" cy="320" fill="#8BC34A" opacity="0.5" r="2"/>
<circle cx="639.2173758390044" cy="320" fill="#8BC34A" opacity="0.5" r="2"/>
<circle cx="646.9641087762558" cy="320" fill="#8BC34A" opacity="0.5" r="2"/>
<circle cx="654.7108417135074" cy="320" fill="#8BC34A" opacity="0.5" r="2"/>
<circle cx="662.4575746507588" cy="320" fill="#8BC34A" opacity="0.5" r="2"/>
<circle cx="670.2043075880102" cy="320" fill="#8BC34A" opacity="0.5" r="2"/>
<circle cx="677.9510405252616" cy="320" fill="#8BC34A" opacity="0.5" r="2"/>
<circle cx="685.697773462513" cy="320" fill="#8BC34A" opacity="0.5" r="2"/>
<circle cx="693.4445063997646" cy="320" fill="#8BC34A" opacity="0.5" r="2"/>
<circle cx="701.191239337016" cy="320" fill="#8BC34A" opacity="0.5" r="2"/>
<circle cx="708.9379722742674" cy="320" fill="#8BC34A" opacity="0.5" r="2"/>
<circle cx="716.6847052115188" cy="320" fill="#8BC34A" opacity="0.5" r="2"/>
<circle cx="724.4314381487702" cy="320" fill="#8BC34A" opacity="0.5" r="2"/>
<circle cx="732.1781710860217" cy="320" fill="#8BC34A" opacity="0.5" r="2"/>
<circle cx="739.9249040232731" cy="320" fill="#8BC34A" opacity="0.5" r="2"/>
<circle cx="747.6716369605246" cy="320" fill="#8BC34A" opacity="0.5" r="2"/>
<circle cx="755.418369897776" cy="320" fill="#8BC34A" opacity="0.5" r="2"/>
<circle cx="763.1651028350274" cy="320" fill="#8BC34A" opacity="0.5" r="2"/>
<circle cx="770.911835772279" cy="320" fill="#8BC34A" opacity="0.5" r="2"/>
<circle cx="778.6585687095304" cy="320" fill="#8BC34A" opacity="0.5" r="2"/>
<circle cx="786.4053016467818" cy="320" fill="#8BC34A" opacity="0.5" r="2"/>
<circle cx="794.1520345840332" cy="320" fill="#8BC34A" opacity="0.5" r="2"/>
<circle cx="801.8987675212846" cy="320" fill="#8BC34A" opacity="0.5" r="2"/>
<circle cx="809.6455004585362" cy="320" fill="#8BC34A" opacity="0.5" r="2"/>
<circle cx="817.3922333957876" cy="320" fill="#8BC34A" opacity="0.5" r="2"/>
<circle cx="825.138966333039" cy="320" fill="#8BC34A" opacity="0.5" r="2"/>
<circle cx="832.8856992702904" cy="320" fill="#8BC34A" opacity="0.5" r="2"/>
<circle cx="840.6324322075418" cy="320" fill="#8BC34A" opacity="0.5" r="2"/>
<circle cx="848.3791651447933" cy="320" fill="#8BC34A" opacity="0.5" r="2"/>
<circle cx="856.1258980820447" cy="320" fill="#8BC34A" opacity="0.5" r="2"/>
<circle cx="863.8726310192961" cy="320" fill="#8BC34A" opacity="0.5" r="2"/>
<circle cx="871.6193639565475" cy="320" fill="#8BC34A" opacity="0.5" r="2"/>
<circle cx="879.366096893799" cy="320" fill="#8BC34A" opacity="0.5" r="2"/>
<circle cx="887.1128298310505" cy="320" fill="#8BC34A" opacity="0.5" r="2"/>
<circle cx="894.859562768302" cy="320" fill="#8BC34A" opacity="0.5" r="2"/>
<circle cx="902.6062957055534" cy="320" fill="#8BC34A" opacity="0.5" r="2"/>
<circle cx="910.3530286428048" cy="320" fill="#8BC34A" opacity="0.5" r="2"/>
<circle cx="918.0997615800562" cy="320" fill="#8BC34A" opacity="0.5" r="2"/>
<circle cx="925.8464945173077" cy="320" fill="#8BC34A" opacity="0.5" r="2"/>
<circle cx="933.5932274545592" cy="320" fill="#8BC34A" opacity="0.5" r="2"/>
<circle cx="941.3399603918106" cy="320" fill="#8BC34A" opacity="0.5" r="2"/>
<path d="M 190.94354259577545 431.1111111111111 L 200.52329105560432 431.1111111111111 L 210.07968899922201 431.1111111111111 L 219.6127364266285 431.1111111111111 L 229.1224333378238 431.1111111111111 L 238.60877973280796 431.1111111111111 L 248.07177561158093 431.1111111111111 L 257.51142097414265 431.1111111111111 L 266.9277158204933 431.1111111111111 L 276.32066015063276 431.1111111111111 L 285.690253964561 431.1111111111111 L 295.0364972622781 431.1111111111111 L 304.35939004378395 431.1111111111111 L 313.65893230907875 431.1111111111111 L 322.9351240581623 431.1111111111111 L 332.18796529103463 431.1111111111111 L 341.4174560076958 431.1111111111111 L 350.62359620814584 431.1111111111111 L 359.80638589238464 431.1111111111111 L 368.9658250604123 431.1111111111111 L 378.10191371222874 431.1111111111111 L 387.21465184783403 431.1111111111111 L 396.3040394672283 431.1111111111111 L 405.3700765704112 431.1111111111111 L 414.41276315738287 431.1111111111111 L 423.4320992281435 431.1111111111111 L 432.42808478269296 431.1111111111111 L 441.4007198210312 431.1111111111111 L 450.3500043431583 431.1111111111111 L 459.2759383490742 431.1111111111111 L 468.1785218387788 431.1111111111111 L 477.05775481227244 402.00150693188664 L 485.9136372695547 372.9684548925055 L 494.7461692106259 344.0119549929676 L 503.5553506354859 315.13200723327304 L 512.3411815441348 320 L 521.1036619365724 320 L 529.8427918127989 320 L 538.5585711728143 320 L 547.2510000166183 320 L 555.9200783442112 320 L 564.565806155593 320 L 573.1881834507635 320 L 581.787210229723 320 L 590.3628864924711 320 L 598.9152122390083 320 L 607.4441874693341 320 L 615.9498121834489 320 L 624.4320863813524 320 L 632.8910100630447 320 L 641.3265832285259 320 L 649.7388058777958 320 L 658.1276780108547 320 L 666.4931996277023 320 L 674.8353707283388 320 L 683.154191312764 320 L 691.4496613809781 320 L 699.721780932981 320 L 707.9705499687727 320 L 716.1959684883534 320 L 724.3980364917228 320 L 732.576753978881 320 L 740.7321209498281 320 L 748.864137404564 320 L 756.9728033430887 320 L 765.0581187654021 320 L 773.1200836715044 320 L 781.1586980613956 320 L 789.1739619350756 320 L 797.1658752925443 320 L 805.134438133802 320 L 813.0796504588484 320 L 821.0015122676837 320 L 828.9000235603078 320 L 836.7751843367207 320 L 844.6269945969224 320 L 852.455454340913 320 L 860.2605635686924 320 L 868.0423222802606 320 L 875.8007304756176 320 L 883.5357881547634 320 L 891.2474953176982 320 L 898.9358519644215 320 L 906.600858094934 320 L 914.2425137092351 320 L 921.8608188073251 320 L 929.4557733892038 320 L 937.0273774548714 320 L 944.5756310043278 320 L 952.1005340375731 320 L 959.6020865546072 320 L 967.08028855543 320 L 974.5351400400418 320 L 981.9666410084424 320 L 989.3747914606317 320 L 996.75959139661 320 L 1004.121040816377 320 L 1011.4591397199328 320 L 1018.7738881072775 320 L 1026.0652859784109 320 L 1033.3333333333333 320 " fill="none" opacity="0.7" stroke="#64B5F6" stroke-width="3"/>
<circle cx="190.94354259577545" cy="431.1111111111111" fill="#64B5F6" opacity="0.5" r="2"/>
<circle cx="200.52329105560432" cy="431.1111111111111" fill="#64B5F6" opacity="0.5" r="2"/>
<circle cx="210.07968899922201" cy="431.1111111111111" fill="#64B5F6" opacity="0.5" r="2"/>
<circle cx="219.6127364266285" cy="431.1111111111111" fill="#64B5F6" opacity="0.5" r="2"/>
<circle cx="229.1224333378238" cy="431.1111111111111" fill="#64B5F6" opacity="0.5" r="2"/>
<circle cx="238.60877973280796" cy="431.1111111111111" fill="#64B5F6" opacity="0.5" r="2"/>
<circle cx="248.07177561158093" cy="431.1111111111111" fill="#64B5F6" opacity="0.5" r="2"/>
<circle cx="257.51142097414265" cy="431.1111111111111" fill="#64B5F6" opacity="0.5" r="2"/>
<circle cx="266.9277158204933" cy="431.1111111111111" fill="#64B5F6" opacity="0.5" r="2"/>
<circle cx="276.32066015063276" cy="431.1111111111111" fill="#64B5F6" opacity="0.5" r="2"/>
<circle cx="285.690253964561" cy="431.1111111111111" fill="#64B5F6" opacity="0.5" r="2"/>
<circle cx="295.0364972622781" cy="431.1111111111111" fill="#64B5F6" opacity="0.5" r="2"/>
<circle cx="304.35939004378395" cy="431.1111111111111" fill="#64B5F6" opacity="0.5" r="2"/>
<circle cx="313.65893230907875" cy="431.1111111111111" fill="#64B5F6" opacity="0.5" r="2"/>
<circle cx="322.9351240581623" cy="431.1111111111111" fill="#64B5F6" opacity="0.5" r="2"/>
<circle cx="332.18796529103463" cy="431.1111111111111" fill="#64B5F6" opacity="0.5" r="2"/>
<circle cx="341.4174560076958" cy="431.1111111111111" fill="#64B5F6" opacity="0.5" r="2"/>
<circle cx="350.62359620814584" cy="431.1111111111111" fill="#64B5F6" opacity="0.5" r="2"/>
<circle cx="359.80638589238464" cy="431.1111111111111" fill="#64B5F6" opacity="0.5" r="2"/>
<circle cx="368.9658250604123" cy="431.1111111111111" fill="#64B5F6" opacity="0.5" r="2"/>
<circle cx="378.10191371222874" cy="431.1111111111111" fill="#64B5F6" opacity="0.5" r="2"/>
<circle cx="387.21465184783403" cy="431.1111111111111" fill="#64B5F6" opacity="0.5" r="2"/>
<circle cx="396.3040394672283" cy="431.1111111111111" fill="#64B5F6" opacity="0.5" r="2"/>
<circle cx="405.3700765704112" cy="431.1111111111111" fill="#64B5F6" opacity="0.5" r="2"/>
<circle cx="414.41276315738287" cy="431.1111111111111" fill="#64B5F6" opacity="0.5" r="2"/>
<circle cx="423.4320992281435" cy="431.1111111111111" fill="#64B5F6" opacity="0.5" r="2"/>
<circle cx="432.42808478269296" cy="431.1111111111111" fill="#64B5F6" opacity="0.5" r="2"/>
<circle cx="441.4007198210312" cy="431.1111111111111" fill="#64B5F6" opacity="0.5" r="2"/>
<circle cx="450.3500043431583" cy="431.1111111111111" fill="#64B5F6" opacity="0.5" r="2"/>
<circle cx="459.2759383490742" cy="431.1111111111111" fill="#64B5F6" opacity="0.5" r="2"/>
<circle cx="468.1785218387788" cy="431.1111111111111" fill="#64B5F6" opacity="0.5" r="2"/>
<circle cx="477.05775481227244" cy="402.00150693188664" fill="#64B5F6" opacity="0.5" r="2"/>
<circle cx="485.9136372695547" cy="372.9684548925055" fill="#64B5F6" opacity="0.5" r="2"/>
<circle cx="494.7461692106259" cy="344.0119549929676" fill="#64B5F6" opacity="0.5" r="2"/>
<circle cx="503.5553506354859" cy="315.13200723327304" fill="#64B5F6" opacity="0.5" r="2"/>
<circle cx="512.3411815441348" cy="320" fill="#64B5F6" opacity="0.5" r="2"/>
<circle cx="521.1036619365724" cy="320" fill="#64B5F6" opacity="0.5" r="2"/>
<circle cx="529.8427918127989" cy="320" fill="#64B5F6" opacity="0.5" r="2"/>
<circle cx="538.5585711728143" cy="320" fill="#64B5F6" opacity="0.5" r="2"/>
<circle cx="547.2510000166183" cy="320" fill="#64B5F6" opacity="0.5" r="2"/>
<circle cx="555.9200783442112" cy="320" fill="#64B5F6" opacity="0.5" r="2"/>
<circle cx="564.565806155593" cy="320" fill="#64B5F6" opacity="0.5" r="2"/>
<circle cx="573.1881834507635" cy="320" fill="#64B5F6" opacity="0.5" r="2"/>
<circle cx="581.787210229723" cy="320" fill="#64B5F6" opacity="0.5" r="2"/>
<circle cx="590.3628864924711" cy="320" fill="#64B5F6" opacity="0.5" r="2"/>
<circle cx="598.9152122390083" cy="320" fill="#64B5F6" opacity="0.5" r="2"/>
<circle cx="607.4441874693341" cy="320" fill="#64B5F6" opacity="0.5" r="2"/>
<circle cx="615.9498121834489" cy="320" fill="#64B5F6" opacity="0.5" r="2"/>
<circle cx="624.4320863813524" cy="320" fill="#64B5F6" opacity="0.5" r="2"/>
<circle cx="632.8910100630447" cy="320" fill="#64B5F6" opacity="0.5" r="2"/>
<circle cx="641.3265832285259" cy="320" fill="#64B5F6" opacity="0.5" r="2"/>
<circle cx="649.7388058777958" cy="320" fill="#64B5F6" opacity="0.5" r="2"/>
<circle cx="658.1276780108547" cy="320" fill="#64B5F6" opacity="0.5" r="2"/>
<circle cx="666.4931996277023" cy="320" fill="#64B5F6" opacity="0.5" r="2"/>
<circle cx="674.8353707283388" cy="320" fill="#64B5F6" opacity="0.5" r="2"/>
<circle cx="683.154191312764" cy="320" fill="#64B5F6" opacity="0.5" r="2"/>
<circle cx="691.4496613809781" cy="320" fill="#64B5F6" opacity="0.5" r="2"/>
<circle cx="699.721780932981" cy="320" fill="#64B5F6" opacity="0.5" r="2"/>
<circle cx="707.9705499687727" cy="320" fill="#64B5F6" opacity="0.5" r="2"/>
<circle cx="716.1959684883534" cy="320" fill="#64B5F6" opacity="0.5" r="2"/>
<circle cx="724.3980364917228" cy="320" fill="#64B5F6" opacity="0.5" r="2"/>
<circle cx="732.576753978881" cy="320" fill="#64B5F6" opacity="0.5" r="2"/>
<circle cx="740.7321209498281" cy="320" fill="#64B5F6" opacity="0.5" r="2"/>
<circle cx="748.864137404564" cy="320" fill="#64B5F6" opacity="0.5" r="2"/>
<circle cx="756.9728033430887" cy="320" fill="#64B5F6" opacity="0.5" r="2"/>
<circle cx="765.0581187654021" cy="320" fill="#64B5F6" opacity="0.5" r="2"/>
<circle cx="773.1200836715044" cy="320" fill="#64B5F6" opacity="0.5" r="2"/>
<circle cx="781.1586980613956" cy="320" fill="#64B5F6" opacity="0.5" r="2"/>
<circle cx="789.1739619350756" cy="320" fill="#64B5F6" opacity="0.5" r="2"/>
<circle cx="797.1658752925443" cy="320" fill="#64B5F6" opacity="0.5" r="2"/>
<circle cx="805.134438133802" cy="320" fill="#64B5F6" opacity="0.5" r="2"/>
<circle cx="813.0796504588484" cy="320" fill="#64B5F6" opacity="0.5" r="2"/>
<circle cx="821.0015122676837" cy="320" fill="#64B5F6" opacity="0.5" r="2"/>
<circle cx="828.9000235603078" cy="320" fill="#64B5F6" opacity="0.5" r="2"/>
<circle cx="836.7751843367207" cy="320" fill="#64B5F6" opacity="0.5" r="2"/>
<circle cx="844.6269945969224" cy="320" fill="#64B5F6" opacity="0.5" r="2"/>
<circle cx="852.455454340913" cy="320" fill="#64B5F6" opacity="0.5" r="2"/>
<circle cx="860.2605635686924" cy="320" fill="#64B5F6" opacity="0.5" r="2"/>
<circle cx="868.0423222802606" cy="320" fill="#64B5F6" opacity="0.5" r="2"/>
<circle cx="875.8007304756176" cy="320" fill="#64B5F6" opacity="0.5" r="2"/>
<circle cx="883.5357881547634" cy="320" fill="#64B5F6" opacity="0.5" r="2"/>
<circle cx="891.2474953176982" cy="320" fill="#64B5F6" opacity="0.5" r="2"/>
<circle cx="898.9358519644215" cy="320" fill="#64B5F6" opacity="0.5" r="2"/>
<circle cx="906.600858094934" cy="320" fill="#64B5F6" opacity="0.5" r="2"/>
<circle cx="914.2425137092351" cy="320" fill="#64B5F6" opacity="0.5" r="2"/>
<circle cx="921.8608188073251" cy="320" fill="#64B5F6" opacity="0.5" r="2"/>
<circle cx="929.4557733892038" cy="320" fill="#64B5F6" opacity="0.5" r="2"/>
<circle cx="937.0273774548714" cy="320" fill="#64B5F6" opacity="0.5" r="2"/>
<circle cx="944.5756310043278" cy="320" fill="#64B5F6" opacity="0.5" r="2"/>
<circle cx="952.1005340375731" cy="320" fill="#64B5F6" opacity="0.5" r="2"/>
<circle cx="959.6020865546072" cy="320" fill="#64B5F6" opacity="0.5" r="2"/>
<circle cx="967.08028855543" cy="320" fill="#64B5F6" opacity="0.5" r="2"/>
<circle cx="974.5351400400418" cy="320" fill="#64B5F6" opacity="0.5" r="2"/>
<circle cx="981.9666410084424" cy="320" fill="#64B5F6" opacity="0.5" r="2"/>
<circle cx="989.3747914606317" cy="320" fill="#64B5F6" opacity="0.5" r="2"/>
<circle cx="996.75959139661" cy="320" fill="#64B5F6" opacity="0.5" r="2"/>
<circle cx="1004.121040816377" cy="320" fill="#64B5F6" opacity="0.5" r="2"/>
<circle cx="1011.4591397199328" cy="320" fill="#64B5F6" opacity="0.5" r="2"/>
<circle cx="1018.7738881072775" cy="320" fill="#64B5F6" opacity="0.5" r="2"/>
<circle cx="1026.0652859784109" cy="320" fill="#64B5F6" opacity="0.5" r="2"/>
<circle cx="1033.3333333333333" cy="320" fill="#64B5F6" opacity="0.5" r="2"/>
</g>
<g id="vehicles">
<rect fill="#4CAF50" height="6" rx="1" stroke="#333333" stroke-width="1" width="12" x="160.66666666666666" y="317"/>
<text fill="#333333" font-family="Arial, sans-serif" font-size="10" font-weight="bold" text-anchor="middle" x="166.66666666666666" y="312">
ego (t=0)
</text>
<rect fill="#4CAF50" height="6" opacity="0.8" rx="1" stroke="#333333" stroke-dasharray="3,3" stroke-width="2" width="12" x="935.3399603918106" y="317"/>
<text fill="#333333" font-family="Arial, sans-serif" font-size="10" font-weight="bold" text-anchor="middle" x="941.3399603918106" y="338">
ego (t=10.0)
</text>
<rect fill="#2196F3" height="6" rx="1" stroke="#333333" stroke-width="1" width="12" x="184.94354259577545" y="428.1111111111111"/>
<text fill="#333333" font-family="Arial, sans-serif" font-size="10" font-weight="bold" text-anchor="middle" x="190.94354259577545" y="423.1111111111111">
npc (t=0)
</text>
<rect fill="#2196F3" height="6" opacity="0.8" rx="1" stroke="#333333" stroke-dasharray="3,3" stroke-width="2" width="12" x="1027.3333333333333" y="317"/>
<text fill="#333333" font-family="Arial, sans-serif" font-size="10" font-weight="bold" text-anchor="middle" x="1033.3333333333333" y="338">
npc (t=10.0)
</text>
</g>
<g id="legend">
<rect fill="white" height="100" rx="3" stroke="#333333" stroke-width="1" width="150" x="970" y="420"/>
<text fill="#333333" font-family="Arial, sans-serif" font-size="12" font-weight="bold" text-anchor="middle" x="1045" y="435">
Legend
</text>
<rect fill="#4CAF50" height="8" width="12" x="980" y="445"/>
<text fill="#333333" font-family="Arial, sans-serif" font-size="10" text-anchor="start" x="1000" y="452">
Ego Vehicle
</text>
<rect fill="#2196F3" height="8" width="12" x="980" y="460"/>
<text fill="#333333" font-family="Arial, sans-serif" font-size="10" text-anchor="start" x="1000" y="467">
NPC Vehicle
</text>
<circle cx="986" cy="479" fill="#FF9800" r="4"/>
<text fill="#333333" font-family="Arial, sans-serif" font-size="10" text-anchor="start" x="1000" y="482">
Pedestrian
</text>
<circle cx="986" cy="498" fill="none" r="6" stroke="#F44336" stroke-width="2"/>
<text fill="#333333" font-family="Arial, sans-serif" font-size="10" text-anchor="start" x="1000" y="501">
Safety Violation
</text>
</g>
</svg>