<svg height="600" viewBox="0 0 1200 600" width="1200" xmlns="http://www.w3.org/2000/svg">
<rect fill="#F5F5F5" height="600" width="1200"/>
<g id="header">
<text fill="#333333" font-family="Arial, sans-serif" font-size="24" font-weight="bold" text-anchor="middle" x="600" y="30">
Scenario: cut_in_left
</text>
<text fill="#333333" font-family="Arial, sans-serif" font-size="12" text-anchor="middle" x="600" y="55">
ID: a6ef60d2 | Duration: 10.0s | Time Step: 0.10s
</text>
</g>
<g id="metrics">
<text fill="#333333" font-family="Arial, sans-serif" font-size="14" text-anchor="middle" x="600" y="80">
Min TTC: 3.86s | Min Distance: 6.00m | Max Accel: 0.00 m/s² | Max Decel: -0.16 m/s² | Constraints: 
</text>
<text fill="#4CAF50" font-family="Arial, sans-serif" font-size="14" font-weight="bold" text-anchor="start" x="920" y="80">
✓ SAFE
</text>
</g>
<rect fill="#2A2A2A" height="400" width="1040" x="80" y="120"/>
<g id="lane_markings">
<line opacity="0.6" stroke="#FFFFFF" stroke-dasharray="10,10" stroke-width="2" x1="80" x2="1120" y1="375.55555555555554" y2="375.55555555555554"/>
<line opacity="0.6" stroke="#FFFFFF" stroke-dasharray="10,10" stroke-width="2" x1="80" x2="1120" y1="264.44444444444446" y2="264.44444444444446"/>
<line stroke="#FFFFFF" stroke-width="3" x1="80" x2="1120" y1="153.33333333333334" y2="153.33333333333334"/>
<line stroke="#FFFFFF" stroke-width="3" x1="80" x2="1120" y1="486.6666666666667" y2="486.6666666666667"/>
</g>
<g id="trajectories">
<path d="M 166.66666666666669 320 L 175.02008032128515 320 L 183.37349397590364 320 L 191.72690763052208 320 L 200.0803212851406 320 L 208.43373493975903 320 L 216.7871485943775 320 L 225.14056224899602 320 L 233.49397590361446 320 L 241.84738955823298 320 L 250.2008032128514 320 L 258.55421686746985 320 L 266.90763052208837 320 L 275.26104417670683 320 L 283.61445783132535 320 L 291.96787148594376 320 L 300.3212851405622 320 L 308.67469879518075 320 L 317.0281124497992 320 L 325.38152610441773 320 L 333.73493975903614 320 L 342.0883534136546 320 L 350.4417670682731 320 L 358.7951807228916 320 L 367.1485943775101 320 L 375.5020080321285 320 L 383.855421686747 320 L 392.2088353413655 320 L 400.5622489959839 320 L 408.9156626506024 320 L 417.26907630522084 320 L 425.6224899598393 320 L 433.9759036144579 320 L 442.32931726907634 320 L 450.6827309236948 320 L 459.0361445783132 320 L 467.3895582329317 320 L 475.74297188755025 320 L 484.0963855421687 320 L 492.4497991967872 320 L 500.8032128514056 320 L 509.15662650602405 320 L 517.5100401606426 320 L 525.8634538152611 320 L 534.2168674698795 320 L 542.570281124498 320 L 550.9236947791164 320 L 559.2771084337348 320 L 567.6305220883535 320 L 575.9839357429719 320 L 584.3373493975903 320 L 592.6907630522088 320 L 601.0441767068272 320 L 609.3975903614459 320 L 617.7510040160643 320 L 626.1044176706827 320 L 634.4578313253012 320 L 642.8112449799196 320 L 651.1646586345382 320 L 659.5180722891566 320 L 667.871485943775 320 L 676.2248995983936 320 L 684.578313253012 320 L 692.9317269076306 320 L 701.285140562249 320 L 709.6385542168674 320 L 717.9919678714859 320 L 726.3453815261043 320 L 734.698795180723 320 L 743.0522088353414 320 L 751.4056224899598 320 L 759.7590361445783 320 L 768.1124497991967 320 L 776.4658634538152 320 L 784.8192771084338 320 L 793.1726907630522 320 L 801.5261044176706 320 L 809.8795180722891 320 L 818.2329317269076 320 L 826.5863453815261 320 L 834.9397590361446 320 L 843.293172690763 320 L 851.6465863453815 320 L 860 320 L 868.3534136546185 320 L 876.7068273092369 320 L 885.0602409638553 320 L 893.4136546184739 320 L 901.7670682730924 320 L 910.1204819277109 320 L 918.4738955823293 320 L 926.8273092369477 320 L 935.1807228915662 320 L 943.5341365461848 320 L 951.8875502008033 320 L 960.2409638554217 320 L 968.5943775100401 320 L 976.9477911646586 320 L 985.3012048192771 320 L 993.6546184738957 320 L 1002.0080321285141 320 " fill="none" opacity="0.7" stroke="#8BC34A" stroke-width="3"/>
<circle cx="166.66666666666669" cy="320" fill="#8BC34A" opacity="0.5" r="2"/>
<circle cx="175.02008032128515" cy="320" fill="#8BC34A" opacity="0.5" r="2"/>
<circle cx="183.37349397590364" cy="320" fill="#8BC34A" opacity="0.5" r="2"/>
<circle cx="191.72690763052208" cy="320" fill="#8BC34A" opacity="0.5" r="2"/>
<circle cx="200.0803212851406" cy="320" fill="#8BC34A" opacity="0.5" r="2"/>
<circle cx="208.43373493975903" cy="320" fill="#8BC34A" opacity="0.5" r="2"/>
<circle cx="216.7871485943775" cy="320" fill="#8BC34A" opacity="0.5" r="2"/>
<circle cx="225.14056224899602" cy="320" fill="#8BC34A" opacity="0.5" r="2"/>
<circle cx="233.49397590361446" cy="320" fill="#8BC34A" opacity="0.5" r="2"/>
<circle cx="241.84738955823298" cy="320" fill="#8BC34A" opacity="0.5" r="2"/>
<circle cx="250.2008032128514" cy="320" fill="#8BC34A" opacity="0.5" r="2"/>
<circle cx="258.55421686746985" cy="320" fill="#8BC34A" opacity="0.5" r="2"/>
<circle cx="266.90763052208837" cy="320" fill="#8BC34A" opacity="0.5" r="2"/>
<circle cx="275.26104417670683" cy="320" fill="#8BC34A" opacity="0.5" r="2"/>
<circle cx="283.61445783132535" cy="320" fill="#8BC34A" opacity="0.5" r="2"/>
<circle cx="291.96787148594376" cy="320" fill="#8BC34A" opacity="0.5" r="2"/>
<circle cx="300.3212851405622" cy="320" fill="#8BC34A" opacity="0.5" r="2"/>
<circle cx="308.67469879518075" cy="320" fill="#8BC34A" opacity="0.5" r="2"/>
<circle cx="317.0281124497992" cy="320" fill="#8BC34A" opacity="0.5" r="2"/>
<circle cx="325.38152610441773" cy="320" fill="#8BC34A" opacity="0.5" r="2"/>
<circle cx="333.73493975903614" cy="320" fill="#8BC34A" opacity="0.5" r="2"/>
<circle cx="342.0883534136546" cy="320" fill="#8BC34A" opacity="0.5" r="2"/>
<circle cx="350.4417670682731" cy="320" fill="#8BC34A" opacity="0.5" r="2"/>
<circle cx="358.7951807228916" cy="320" fill="#8BC34A" opacity="0.5" r="2"/>
<circle cx="367.1485943775101" cy="320" fill="#8BC34A" opacity="0.5" r="2"/>
<circle cx="375.5020080321285" cy="320" fill="#8BC34A" opacity="0.5" r="2"/>
<circle cx="383.855421686747" cy="320" fill="#8BC34A" opacity="0.5" r="2"/>
<circle cx="392.2088353413655" cy="320" fill="#8BC34A" opacity="0.5" r="2"/>
<circle cx="400.5622489959839" cy="320" fill="#8BC34A" opacity="0.5" r="2"/>
<circle cx="408.9156626506024" cy="320" fill="#8BC34A" opacity="0.5" r="2"/>
<circle cx="417.26907630522084" cy="320" fill="#8BC34A" opacity="0.5" r="2"/>
<circle cx="425.6224899598393" cy="320" fill="#8BC34A" opacity="0.5" r="2"/>
<circle cx="433.9759036144579" cy="320" fill="#8BC34A" opacity="0.5" r="2"/>
<circle cx="442.32931726907634" cy="320" fill="#8BC34A" opacity="0.5" r="2"/>
<circle cx="450.6827309236948" cy="320" fill="#8BC34A" opacity="0.5" r="2"/>
<circle cx="459.0361445783132" cy="320" fill="#8BC34A" opacity="0.5" r="2"/>
<circle cx="467.3895582329317" cy="320" fill="#8BC34A" opacity="0.5" r="2"/>
<circle cx="475.74297188755025" cy="320" fill="#8BC34A" opacity="0.5" r="2"/>
<circle cx="484.0963855421687" cy="320" fill="#8BC34A" opacity="0.5" r="2"/>
<circle cx="492.4497991967872" cy="320" fill="#8BC34A" opacity="0.5" r="2"/>
<circle cx="500.8032128514056" cy="320" fill="#8BC34A" opacity="0.5" r="2"/>
<circle cx="509.15662650602405" cy="320" fill="#8BC34A" opacity="0.5" r="2"/>
<circle cx="517.5100401606426" cy="320" fill="#8BC34A" opacity="0.5" r="2"/>
<circle cx="525.8634538152611" cy="320" fill="#8BC34A" opacity="0.5" r="2"/>
<circle cx="534.2168674698795" cy="320" fill="#8BC34A" opacity="0.5" r="2"/>
<circle cx="542.570281124498" cy="320" fill="#8BC34A" opacity="0.5" r="2"/>
<circle cx="550.9236947791164" cy="320" fill="#8BC34A" opacity="0.5" r="2"/>
<circle cx="559.2771084337348" cy="320" fill="#8BC34A" opacity="0.5" r="2"/>
<circle cx="567.6305220883535" cy="320" fill="#8BC34A" opacity="0.5" r="2"/>
<circle cx="575.9839357429719" cy="320" fill="#8BC34A" opacity="0.5" r="2"/>
<circle cx="584.3373493975903" cy="320" fill="#8BC34A" opacity="0.5" r="2"/>
<circle cx="592.6907630522088" cy="320" fill="#8BC34A" opacity="0.5" r="2"/>
<circle cx="601.0441767068272" cy="320" fill="#8BC34A" opacity="0.5" r="2"/>
<circle cx="609.3975903614459" cy="320" fill="#8BC34A" opacity="0.5" r="2"/>
<circle cx="617.7510040160643" cy="320" fill="#8BC34A" opacity="0.5" r="2"/>
<circle cx="626.1044176706827" cy="320" fill="#8BC34A" opacity="0.5" r="2"/>
<circle cx="634.4578313253012" cy="320" fill="#8BC34A" opacity="0.5" r="2"/>
<circle cx="642.8112449799196" cy="320" fill="#8BC34A" opacity="0.5" r="2"/>
<circle cx="651.1646586345382" cy="320" fill="#8BC34A" opacity="0.5" r="2"/>
<circle cx="659.5180722891566" cy="320" fill="#8BC34A" opacity="0.5" r="2"/>
<circle cx="667.871485943775" cy="320" fill="#8BC34A" opacity="0.5" r="2"/>
<circle cx="676.2248995983936" cy="320" fill="#8BC34A" opacity="0.5" r="2"/>
<circle cx="684.578313253012" cy="320" fill="#8BC34A" opacity="0.5" r="2"/>
<circle cx="692.9317269076306" cy="320" fill="#8BC34A" opacity="0.5" r="2"/>
<circle cx="701.285140562249" cy="320" fill="#8BC34A" opacity="0.5" r="2"/>
<circle cx="709.6385542168674" cy="320" fill="#8BC34A" opacity="0.5" r="2"/>
<circle cx="717.9919678714859" cy="320" fill="#8BC34A" opacity="0.5" r="2"/>
<circle cx="726.3453815261043" cy="320" fill="#8BC34A" opacity="0.5" r="2"/>
<circle cx="734.698795180723" cy="320" fill="#8BC34A" opacity="0.5" r="2"/>
<circle cx="743.0522088353414" cy="320" fill="#8BC34A" opacity="0.5" r="2"/>
<circle cx="751.4056224899598" cy="320" fill="#8BC34A" opacity="0.5" r="2"/>
<circle cx="759.7590361445783" cy="320" fill="#8BC34A" opacity="0.5" r="2"/>
<circle cx="768.1124497991967" cy="320" fill="#8BC34A" opacity="0.5" r="2"/>
<circle cx="776.4658634538152" cy="320" fill="#8BC34A" opacity="0.5" r="2"/>
<circle cx="784.8192771084338" cy="320" fill="#8BC34A" opacity="0.5" r="2"/>
<circle cx="793.1726907630522" cy="320" fill="#8BC34A" opacity="0.5" r="2"/>
<circle cx="801.5261044176706" cy="320" fill="#8BC34A" opacity="0.5" r="2"/>
<circle cx="809.8795180722891" cy="320" fill="#8BC34A" opacity="0.5" r="2"/>
<circle cx="818.2329317269076" cy="320" fill="#8BC34A" opacity="0.5" r="2"/>
<circle cx="826.5863453815261" cy="320" fill="#8BC34A" opacity="0.5" r="2"/>
<circle cx="834.9397590361446" cy="320" fill="#8BC34A" opacity="0.5" r="2"/>
<circle cx="843.293172690763" cy="320" fill="#8BC34A" opacity="0.5" r="2"/>
<circle cx="851.6465863453815" cy="320" fill="#8BC34A" opacity="0.5" r="2"/>
<circle cx="860" cy="320" fill="#8BC34A" opacity="0.5" r="2"/>
<circle cx="868.3534136546185" cy="320" fill="#8BC34A" opacity="0.5" r="2"/>
<circle cx="876.7068273092369" cy="320" fill="#8BC34A" opacity="0.5" r="2"/>
<circle cx="885.0602409638553" cy="320" fill="#8BC34A" opacity="0.5" r="2"/>
<circle cx="893.4136546184739" cy="320" fill="#8BC34A" opacity="0.5" r="2"/>
<circle cx="901.7670682730924" cy="320" fill="#8BC34A" opacity="0.5" r="2"/>
<circle cx="910.1204819277109" cy="320" fill="#8BC34A" opacity="0.5" r="2"/>
<circle cx="918.4738955823293" cy="320" fill="#8BC34A" opacity="0.5" r="2"/>
<circle cx="926.8273092369477" cy="320" fill="#8BC34A" opacity="0.5" r="2"/>
<circle cx="935.1807228915662" cy="320" fill="#8BC34A" opacity="0.5" r="2"/>
<circle cx="943.5341365461848" cy="320" fill="#8BC34A" opacity="0.5" r="2"/>
<circle cx="951.8875502008033" cy="320" fill="#8BC34A" opacity="0.5" r="2"/>
<circle cx="960.2409638554217" cy="320" fill="#8BC34A" opacity="0.5" r="2"/>
<circle cx="968.5943775100401" cy="320" fill="#8BC34A" opacity="0.5" r="2"/>
<circle cx="976.9477911646586" cy="320" fill="#8BC34A" opacity="0.5" r="2"/>
<circle cx="985.3012048192771" cy="320" fill="#8BC34A" opacity="0.5" r="2"/>
<circle cx="993.6546184738957" cy="320" fill="#8BC34A" opacity="0.5" r="2"/>
<circle cx="1002.0080321285141" cy="320" fill="#8BC34A" opacity="0.5" r="2"/>
<path d="M 238.14859437751002 431.1111111111111 L 246.50200803212854 431.1111111111111 L 254.84730923694784 431.1111111111111 L 263.1844979919679 431.1111111111111 L 271.5135742971887 431.1111111111111 L 279.83453815261043 431.1111111111111 L 288.14738955823293 431.1111111111111 L 296.45212851405626 431.1111111111111 L 304.74875502008035 431.1111111111111 L 313.0372690763053 431.1111111111111 L 321.3176706827309 431.1111111111111 L 329.58995983935745 431.1111111111111 L 337.8541365461848 431.1111111111111 L 346.1102008032129 431.1111111111111 L 354.3581526104418 431.1111111111111 L 362.59799196787145 431.1111111111111 L 370.829718875502 431.1111111111111 L 379.05333333333334 431.1111111111111 L 387.26883534136545 431.1111111111111 L 395.4762248995984 431.1111111111111 L 403.67550200803214 431.1111111111111 L 411.8666666666667 431.1111111111111 L 420.049718875502 431.1111111111111 L 428.2246586345381 431.1111111111111 L 436.39148594377514 431.1111111111111 L 444.5502008032129 431.1111111111111 L 452.70080321285144 431.1111111111111 L 460.8432931726907 431.1111111111111 L 468.97767068273095 431.1111111111111 L 477.1039357429719 431.1111111111111 L 485.22208835341365 431.1111111111111 L 493.3321285140563 406.45421245421244 L 501.43405622489956 381.82197802197805 L 509.5278714859437 357.2144078144078 L 517.6135742971887 332.63150183150185 L 525.6911646586345 320 L 533.7606425702811 320 L 541.8220080321285 320 L 549.8752610441768 320 L 557.9204016064257 320 L 565.9574297188755 320 L 573.9863453815262 320 L 582.0071485943774 320 L 590.0198393574296 320 L 598.0244176706827 320 L 606.0208835341365 320 L 614.0092369477911 320 L 621.9894779116465 320 L 629.9616064257028 320 L 637.9256224899599 320 L 645.8815261044176 320 L 653.8293172690762 320 L 661.7689959839357 320 L 669.7005622489959 320 L 677.624016064257 320 L 685.5393574297188 320 L 693.4465863453815 320 L 701.3457028112449 320 L 709.2367068273091 320 L 717.1195983935742 320 L 724.9943775100402 320 L 732.8610441767069 320 L 740.7195983935743 320 L 748.5700401606425 320 L 756.4123694779116 320 L 764.2465863453816 320 L 772.0726907630523 320 L 779.8906827309237 320 L 787.700562248996 320 L 795.5023293172691 320 L 803.2959839357429 320 L 811.0815261044177 320 L 818.8589558232932 320 L 826.6282730923695 320 L 834.3894779116465 320 L 842.1425702811246 320 L 849.8875502008033 320 L 857.6244176706828 320 L 865.353172690763 320 L 873.0738152610442 320 L 880.7863453815261 320 L 888.4907630522089 320 L 896.1870682730923 320 L 903.8752610441767 320 L 911.5553413654618 320 L 919.2273092369478 320 L 926.8911646586345 320 L 934.546907630522 320 L 942.1945381526103 320 L 949.8340562248995 320 L 957.4654618473895 320 L 965.0887550200803 320 L 972.7039357429718 320 L 980.3110040160643 320 L 987.9099598393575 320 L 995.5008032128515 320 L 1003.0835341365461 320 L 1010.6581526104418 320 L 1018.2246586345382 320 L 1025.7830522088352 320 L 1033.3333333333335 320 " fill="none" opacity="0.7" stroke="#64B5F6" stroke-width="3"/>
<circle cx="238.14859437751002" cy="431.1111111111111" fill="#64B5F6" opacity="0.5" r="2"/>
<circle cx="246.50200803212854" cy="431.1111111111111" fill="#64B5F6" opacity="0.5" r="2"/>
<circle cx="254.84730923694784" cy="431.1111111111111" fill="#64B5F6" opacity="0.5" r="2"/>
<circle cx="263.1844979919679" cy="431.1111111111111" fill="#64B5F6" opacity="0.5" r="2"/>
<circle cx="271.5135742971887" cy="431.1111111111111" fill="#64B5F6" opacity="0.5" r="2"/>
<circle cx="279.83453815261043" cy="431.1111111111111" fill="#64B5F6" opacity="0.5" r="2"/>
<circle cx="288.14738955823293" cy="431.1111111111111" fill="#64B5F6" opacity="0.5" r="2"/>
<circle cx="296.45212851405626" cy="431.1111111111111" fill="#64B5F6" opacity="0.5" r="2"/>
<circle cx="304.74875502008035" cy="431.1111111111111" fill="#64B5F6" opacity="0.5" r="2"/>
<circle cx="313.0372690763053" cy="431.1111111111111" fill="#64B5F6" opacity="0.5" r="2"/>
<circle cx="321.3176706827309" cy="431.1111111111111" fill="#64B5F6" opacity="0.5" r="2"/>
<circle cx="329.58995983935745" cy="431.1111111111111" fill="#64B5F6" opacity="0.5" r="2"/>
<circle cx="337.8541365461848" cy="431.1111111111111" fill="#64B5F6" opacity="0.5" r="2"/>
<circle cx="346.1102008032129" cy="431.1111111111111" fill="#64B5F6" opacity="0.5" r="2"/>
<circle cx="354.3581526104418" cy="431.1111111111111" fill="#64B5F6" opacity="0.5" r="2"/>
<circle cx="362.59799196787145" cy="431.1111111111111" fill="#64B5F6" opacity="0.5" r="2"/>
<circle cx="370.829718875502" cy="431.1111111111111" fill="#64B5F6" opacity="0.5" r="2"/>
<circle cx="379.05333333333334" cy="431.1111111111111" fill="#64B5F6" opacity="0.5" r="2"/>
<circle cx="387.26883534136545" cy="431.1111111111111" fill="#64B5F6" opacity="0.5" r="2"/>
<circle cx="395.4762248995984" cy="431.1111111111111" fill="#64B5F6" opacity="0.5" r="2"/>
<circle cx="403.67550200803214" cy="431.1111111111111" fill="#64B5F6" opacity="0.5" r="2"/>
<circle cx="411.8666666666667" cy="431.1111111111111" fill="#64B5F6" opacity="0.5" r="2"/>
<circle cx="420.049718875502" cy="431.1111111111111" fill="#64B5F6" opacity="0.5" r="2"/>
<circle cx="428.2246586345381" cy="431.1111111111111" fill="#64B5F6" opacity="0.5" r="2"/>
<circle cx="436.39148594377514" cy="431.1111111111111" fill="#64B5F6" opacity="0.5" r="2"/>
<circle cx="444.5502008032129" cy="431.1111111111111" fill="#64B5F6" opacity="0.5" r="2"/>
<circle cx="452.70080321285144" cy="431.1111111111111" fill="#64B5F6" opacity="0.5" r="2"/>
<circle cx="460.8432931726907" cy="431.1111111111111" fill="#64B5F6" opacity="0.5" r="2"/>
<circle cx="468.97767068273095" cy="431.1111111111111" fill="#64B5F6" opacity="0.5" r="2"/>
<circle cx="477.1039357429719" cy="431.1111111111111" fill="#64B5F6" opacity="0.5" r="2"/>
<circle cx="485.22208835341365" cy="431.1111111111111" fill="#64B5F6" opacity="0.5" r="2"/>
<circle cx="493.3321285140563" cy="406.45421245421244" fill="#64B5F6" opacity="0.5" r="2"/>
<circle cx="501.43405622489956" cy="381.82197802197805" fill="#64B5F6" opacity="0.5" r="2"/>
<circle cx="509.5278714859437" cy="357.2144078144078" fill="#64B5F6" opacity="0.5" r="2"/>
<circle cx="517.6135742971887" cy="332.63150183150185" fill="#64B5F6" opacity="0.5" r="2"/>
<circle cx="525.6911646586345" cy="320" fill="#64B5F6" opacity="0.5" r="2"/>
<circle cx="533.7606425702811" cy="320" fill="#64B5F6" opacity="0.5" r="2"/>
<circle cx="541.8220080321285" cy="320" fill="#64B5F6" opacity="0.5" r="2"/>
<circle cx="549.8752610441768" cy="320" fill="#64B5F6" opacity="0.5" r="2"/>
<circle cx="557.9204016064257" cy="320" fill="#64B5F6" opacity="0.5" r="2"/>
<circle cx="565.9574297188755" cy="320" fill="#64B5F6" opacity="0.5" r="2"/>
<circle cx="573.9863453815262" cy="320" fill="#64B5F6" opacity="0.5" r="2"/>
<circle cx="582.0071485943774" cy="320" fill="#64B5F6" opacity="0.5" r="2"/>
<circle cx="590.0198393574296" cy="320" fill="#64B5F6" opacity="0.5" r="2"/>
<circle cx="598.0244176706827" cy="320" fill="#64B5F6" opacity="0.5" r="2"/>
<circle cx="606.0208835341365" cy="320" fill="#64B5F6" opacity="0.5" r="2"/>
<circle cx="614.0092369477911" cy="320" fill="#64B5F6" opacity="0.5" r="2"/>
<circle cx="621.9894779116465" cy="320" fill="#64B5F6" opacity="0.5" r="2"/>
<circle cx="629.9616064257028" cy="320" fill="#64B5F6" opacity="0.5" r="2"/>
<circle cx="637.9256224899599" cy="320" fill="#64B5F6" opacity="0.5" r="2"/>
<circle cx="645.8815261044176" cy="320" fill="#64B5F6" opacity="0.5" r="2"/>
<circle cx="653.8293172690762" cy="320" fill="#64B5F6" opacity="0.5" r="2"/>
<circle cx="661.7689959839357" cy="320" fill="#64B5F6" opacity="0.5" r="2"/>
<circle cx="669.7005622489959" cy="320" fill="#64B5F6" opacity="0.5" r="2"/>
<circle cx="677.624016064257" cy="320" fill="#64B5F6" opacity="0.5" r="2"/>
<circle cx="685.5393574297188" cy="320" fill="#64B5F6" opacity="0.5" r="2"/>
<circle cx="693.4465863453815" cy="320" fill="#64B5F6" opacity="0.5" r="2"/>
<circle cx="701.3457028112449" cy="320" fill="#64B5F6" opacity="0.5" r="2"/>
<circle cx="709.2367068273091" cy="320" fill="#64B5F6" opacity="0.5" r="2"/>
<circle cx="717.1195983935742" cy="320" fill="#64B5F6" opacity="0.5" r="2"/>
<circle cx="724.9943775100402" cy="320" fill="#64B5F6" opacity="0.5" r="2"/>
<circle cx="732.8610441767069" cy="320" fill="#64B5F6" opacity="0.5" r="2"/>
<circle cx="740.7195983935743" cy="320" fill="#64B5F6" opacity="0.5" r="2"/>
<circle cx="748.5700401606425" cy="320" fill="#64B5F6" opacity="0.5" r="2"/>
<circle cx="756.4123694779116" cy="320" fill="#64B5F6" opacity="0.5" r="2"/>
<circle cx="764.2465863453816" cy="320" fill="#64B5F6" opacity="0.5" r="2"/>
<circle cx="772.0726907630523" cy="320" fill="#64B5F6" opacity="0.5" r="2"/>
<circle cx="779.8906827309237" cy="320" fill="#64B5F6" opacity="0.5" r="2"/>
<circle cx="787.700562248996" cy="320" fill="#64B5F6" opacity="0.5" r="2"/>
<circle cx="795.5023293172691" cy="320" fill="#64B5F6" opacity="0.5" r="2"/>
<circle cx="803.2959839357429" cy="320" fill="#64B5F6" opacity="0.5" r="2"/>
<circle cx="811.0815261044177" cy="320" fill="#64B5F6" opacity="0.5" r="2"/>
<circle cx="818.8589558232932" cy="320" fill="#64B5F6" opacity="0.5" r="2"/>
<circle cx="826.6282730923695" cy="320" fill="#64B5F6" opacity="0.5" r="2"/>
<circle cx="834.3894779116465" cy="320" fill="#64B5F6" opacity="0.5" r="2"/>
<circle cx="842.1425702811246" cy="320" fill="#64B5F6" opacity="0.5" r="2"/>
<circle cx="849.8875502008033" cy="320" fill="#64B5F6" opacity="0.5" r="2"/>
<circle cx="857.6244176706828" cy="320" fill="#64B5F6" opacity="0.5" r="2"/>
<circle cx="865.353172690763" cy="320" fill="#64B5F6" opacity="0.5" r="2"/>
<circle cx="873.0738152610442" cy="320" fill="#64B5F6" opacity="0.5" r="2"/>
<circle cx="880.7863453815261" cy="320" fill="#64B5F6" opacity="0.5" r="2"/>
<circle cx="888.4907630522089" cy="320" fill="#64B5F6" opacity="0.5" r="2"/>
<circle cx="896.1870682730923" cy="320" fill="#64B5F6" opacity="0.5" r="2"/>
<circle cx="903.8752610441767" cy="320" fill="#64B5F6" opacity="0.5" r="2"/>
<circle cx="911.5553413654618" cy="320" fill="#64B5F6" opacity="0.5" r="2"/>
<circle cx="919.2273092369478" cy="320" fill="#64B5F6" opacity="0.5" r="2"/>
<circle cx="926.8911646586345" cy="320" fill="#64B5F6" opacity="0.5" r="2"/>
<circle cx="934.546907630522" cy="320" fill="#64B5F6" opacity="0.5" r="2"/>
<circle cx="942.1945381526103" cy="320" fill="#64B5F6" opacity="0.5" r="2"/>
<circle cx="949.8340562248995" cy="320" fill="#64B5F6" opacity="0.5" r="2"/>
<circle cx="957.4654618473895" cy="320" fill="#64B5F6" opacity="0.5" r="2"/>
<circle cx="965.0887550200803" cy="320" fill="#64B5F6" opacity="0.5" r="2"/>
<circle cx="972.7039357429718" cy="320" fill="#64B5F6" opacity="0.5" r="2"/>
<circle cx="980.3110040160643" cy="320" fill="#64B5F6" opacity="0.5" r="2"/>
<circle cx="987.9099598393575" cy="320" fill="#64B5F6" opacity="0.5" r="2"/>
<circle cx="995.5008032128515" cy="320" fill="#64B5F6" opacity="0.5" r="2"/>
<circle cx="1003.0835341365461" cy="320" fill="#64B5F6" opacity="0.5" r="2"/>
<circle cx="1010.6581526104418" cy="320" fill="#64B5F6" opacity="0.5" r="2"/>
<circle cx="1018.2246586345382" cy="320" fill="#64B5F6" opacity="0.5" r="2"/>
<circle cx="1025.7830522088352" cy="320" fill="#64B5F6" opacity="0.5" r="2"/>
<circle cx="1033.3333333333335" cy="320" fill="#64B5F6" opacity="0.5" r="2"/>
</g>
<g id="vehicles">
<rect fill="#4CAF50" height="6" rx="1" stroke="#333333" stroke-width="1" width="12" x="160.66666666666669" y="317"/>
<text fill="#333333" font-family="Arial, sans-serif" font-size="10" font-weight="bold" text-anchor="middle" x="166.66666666666669" y="312">
ego (t=0)
</text>
<rect fill="#4CAF50" height="6" opacity="0.8" rx="1" stroke="#333333" stroke-dasharray="3,3" stroke-width="2" width="12" x="996.0080321285141" y="317"/>
<text fill="#333333" font-family="Arial, sans-serif" font-size="10" font-weight="bold" text-anchor="middle" x="1002.0080321285141" y="338">
ego (t=10.0)
</text>
<rect fill="#2196F3" height="6" rx="1" stroke="#333333" stroke-width="1" width="12" x="232.14859437751002" y="428.1111111111111"/>
<text fill="#333333" font-family="Arial, sans-serif" font-size="10" font-weight="bold" text-anchor="middle" x="238.14859437751002" y="423.1111111111111">
npc (t=0)
</text>
<rect fill="#2196F3" height="6" opacity="0.8" rx="1" stroke="#333333" stroke-dasharray="3,3" stroke-width="2" width="12" x="1027.3333333333335" y="317"/>
<text fill="#333333" font-family="Arial, sans-serif" font-size="10" font-weight="bold" text-anchor="middle" x="1033.3333333333335" y="338">
npc (t=10.0)
</text>
</g>
<g id="legend">
<rect fill="white" height="100" rx="3" stroke="#333333" stroke-width="1" width="150" x="970" y="420"/>
<text fill="#333333" font-family="Arial, sans-serif" font-size="12" font-weight="bold" text-anchor="middle" x="1045" y="435">
Legend
</text>
<rect fill="#4CAF50" height="8" width="12" x="980" y="445"/>
<text fill="#333333" font-family="Arial, sans-serif" font-size="10" text-anchor="start" x="1000" y="452">
Ego Vehicle
</text>
<rect fill="#2196F3" height="8" width="12" x="980" y="460"/>
<text fill="#333333" font-family="Arial, sans-serif" font-size="10" text-anchor="start" x="1000" y="467">
NPC Vehicle
</text>
<circle cx="986" cy="479" fill="#FF9800" r="4"/>
<text fill="#333333" font-family="Arial, sans-serif" font-size="10" text-anchor="start" x="1000" y="482">
Pedestrian
</text>
<circle cx="986" cy="498" fill="none" r="6" stroke="#F44336" stroke-width="2"/>
<text fill="#333333" font-family="Arial, sans-serif" font-size="10" text-anchor="start" x="1000" y="501">
Safety Violation
</text>
</g>
</svg>