<svg height="600" viewBox="0 0 1200 600" width="1200" xmlns="http://www.w3.org/2000/svg">
<rect fill="#F5F5F5" height="600" width="1200"/>
<g id="header">
<text fill="#333333" font-family="Arial, sans-serif" font-size="24" font-weight="bold" text-anchor="middle" x="600" y="30">
Scenario: cut_in_left
</text>
<text fill="#333333" font-family="Arial, sans-serif" font-size="12" text-anchor="middle" x="600" y="55">
ID: 441f2e5d | Duration: 10.0s | Time Step: 0.10s
</text>
</g>
<g id="metrics">
<text fill="#333333" font-family="Arial, sans-serif" font-size="14" text-anchor="middle" x="600" y="80">
Min TTC: 3.03s | Min Distance: 9.61m | Max Accel: 0.00 m/s² | Max Decel: -0.72 m/s² | Constraints: 
</text>
<text fill="#4CAF50" font-family="Arial, sans-serif" font-size="14" font-weight="bold" text-anchor="start" x="920" y="80">
✓ SAFE
</text>
</g>
<rect fill="#2A2A2A" height="400" width="1040" x="80" y="120"/>
<g id="lane_markings">
<line opacity="0.6" stroke="#FFFFFF" stroke-dasharray="10,10" stroke-width="2" x1="80" x2="1120" y1="375.55555555555554" y2="375.55555555555554"/>
<line opacity="0.6" stroke="#FFFFFF" stroke-dasharray="10,10" stroke-width="2" x1="80" x2="1120" y1="264.44444444444446" y2="264.44444444444446"/>
<line stroke="#FFFFFF" stroke-width="3" x1="80" x2="1120" y1="153.33333333333334" y2="153.33333333333334"/>
<line stroke="#FFFFFF" stroke-width="3" x1="80" x2="1120" y1="486.6666666666667" y2="486.6666666666667"/>
</g>
<g id="trajectories">
<path d="M 166.66666666666666 320 L 174.84231252711555 320 L 183.01795838756448 320 L 191.19360424801334 320 L 199.3692501084623 320 L 207.5448959689112 320 L 215.72054182936006 320 L 223.89618768980898 320 L 232.07183355025788 320 L 240.2474794107068 320 L 248.4231252711557 320 L 256.59877113160456 320 L 264.7744169920535 320 L 272.95006285250236 320 L 281.12570871295134 320 L 289.3013545734002 320 L 297.47700043384907 320 L 305.65264629429805 320 L 313.8282921547469 320 L 322.00393801519584 320 L 330.17958387564477 320 L 338.35522973609363 320 L 346.53087559654256 320 L 354.7065214569914 320 L 362.88216731744035 320 L 371.0578131778893 320 L 379.23345903833814 320 L 387.40910489878706 320 L 395.58475075923593 320 L 403.7603966196849 320 L 411.9360424801338 320 L 420.11168834058265 320 L 428.28733420103157 320 L 436.4629800614805 320 L 444.6386259219294 320 L 452.8142717823783 320 L 460.98991764282715 320 L 469.16556350327613 320 L 477.341209363725 320 L 485.5168552241739 320 L 493.6925010846228 320 L 501.8681469450717 320 L 510.04379280552064 320 L 518.2194386659696 320 L 526.3950845264185 320 L 534.5707303868674 320 L 542.7463762473162 320 L 550.9220221077651 320 L 559.0976679682142 320 L 567.273313828663 320 L 575.4489596891119 320 L 583.6246055495608 320 L 591.8002514100097 320 L 599.9758972704586 320 L 608.1515431309075 320 L 616.3271889913564 320 L 624.5028348518052 320 L 632.6784807122541 320 L 640.8541265727032 320 L 649.0297724331521 320 L 657.2054182936009 320 L 665.3810641540498 320 L 673.5567100144987 320 L 681.7323558749476 320 L 689.9080017353965 320 L 698.0836475958454 320 L 706.2592934562942 320 L 714.4349393167431 320 L 722.6105851771922 320 L 730.7862310376411 320 L 738.9618768980899 320 L 747.1375227585388 320 L 755.3131686189877 320 L 763.4888144794367 320 L 771.6644603398855 320 L 779.8401062003345 320 L 788.0157520607834 320 L 796.1913979212322 320 L 804.3670437816812 320 L 812.5426896421301 320 L 820.718335502579 320 L 828.8939813630278 320 L 837.0696272234767 320 L 845.2452730839258 320 L 853.4209189443746 320 L 861.5965648048235 320 L 869.7722106652724 320 L 877.9478565257212 320 L 886.1235023861702 320 L 894.2991482466191 320 L 902.474794107068 320 L 910.650439967517 320 L 918.8260858279658 320 L 927.0017316884148 320 L 935.1773775488637 320 L 943.3530234093125 320 L 951.5286692697614 320 L 959.7043151302103 320 L 967.8799609906594 320 L 976.0556068511082 320 L 984.2312527115571 320 " fill="none" opacity="0.7" stroke="#8BC34A" stroke-width="3"/>
<circle cx="166.66666666666666" cy="320" fill="#8BC34A" opacity="0.5" r="2"/>
<circle cx="174.84231252711555" cy="320" fill="#8BC34A" opacity="0.5" r="2"/>
<circle cx="183.01795838756448" cy="320" fill="#8BC34A" opacity="0.5" r="2"/>
<circle cx="191.19360424801334" cy="320" fill="#8BC34A" opacity="0.5" r="2"/>
<circle cx="199.3692501084623" cy="320" fill="#8BC34A" opacity="0.5" r="2"/>
<circle cx="207.5448959689112" cy="320" fill="#8BC34A" opacity="0.5" r="2"/>
<circle cx="215.72054182936006" cy="320" fill="#8BC34A" opacity="0.5" r="2"/>
<circle cx="223.89618768980898" cy="320" fill="#8BC34A" opacity="0.5" r="2"/>
<circle cx="232.07183355025788" cy="320" fill="#8BC34A" opacity="0.5" r="2"/>
<circle cx="240.2474794107068" cy="320" fill="#8BC34A" opacity="0.5" r="2"/>
<circle cx="248.4231252711557" cy="320" fill="#8BC34A" opacity="0.5" r="2"/>
<circle cx="256.59877113160456" cy="320" fill="#8BC34A" opacity="0.5" r="2"/>
<circle cx="264.7744169920535" cy="320" fill="#8BC34A" opacity="0.5" r="2"/>
<circle cx="272.95006285250236" cy="320" fill="#8BC34A" opacity="0.5" r="2"/>
<circle cx="281.12570871295134" cy="320" fill="#8BC34A" opacity="0.5" r="2"/>
<circle cx="289.3013545734002" cy="320" fill="#8BC34A" opacity="0.5" r="2"/>
<circle cx="297.47700043384907" cy="320" fill="#8BC34A" opacity="0.5" r="2"/>
<circle cx="305.65264629429805" cy="320" fill="#8BC34A" opacity="0.5" r="2"/>
<circle cx="313.8282921547469" cy="320" fill="#8BC34A" opacity="0.5" r="2"/>
<circle cx="322.00393801519584" cy="320" fill="#8BC34A" opacity="0.5" r="2"/>
<circle cx="330.17958387564477" cy="320" fill="#8BC34A" opacity="0.5" r="2"/>
<circle cx="338.35522973609363" cy="320" fill="#8BC34A" opacity="0.5" r="2"/>
<circle cx="346.53087559654256" cy="320" fill="#8BC34A" opacity="0.5" r="2"/>
<circle cx="354.7065214569914" cy="320" fill="#8BC34A" opacity="0.5" r="2"/>
<circle cx="362.88216731744035" cy="320" fill="#8BC34A" opacity="0.5" r="2"/>
<circle cx="371.0578131778893" cy="320" fill="#8BC34A" opacity="0.5" r="2"/>
<circle cx="379.23345903833814" cy="320" fill="#8BC34A" opacity="0.5" r="2"/>
<circle cx="387.40910489878706" cy="320" fill="#8BC34A" opacity="0.5" r="2"/>
<circle cx="395.58475075923593" cy="320" fill="#8BC34A" opacity="0.5" r="2"/>
<circle cx="403.7603966196849" cy="320" fill="#8BC34A" opacity="0.5" r="2"/>
<circle cx="411.9360424801338" cy="320" fill="#8BC34A" opacity="0.5" r="2"/>
<circle cx="420.11168834058265" cy="320" fill="#8BC34A" opacity="0.5" r="2"/>
<circle cx="428.28733420103157" cy="320" fill="#8BC34A" opacity="0.5" r="2"/>
<circle cx="436.4629800614805" cy="320" fill="#8BC34A" opacity="0.5" r="2"/>
<circle cx="444.6386259219294" cy="320" fill="#8BC34A" opacity="0.5" r="2"/>
<circle cx="452.8142717823783" cy="320" fill="#8BC34A" opacity="0.5" r="2"/>
<circle cx="460.98991764282715" cy="320" fill="#8BC34A" opacity="0.5" r="2"/>
<circle cx="469.16556350327613" cy="320" fill="#8BC34A" opacity="0.5" r="2"/>
<circle cx="477.341209363725" cy="320" fill="#8BC34A" opacity="0.5" r="2"/>
<circle cx="485.5168552241739" cy="320" fill="#8BC34A" opacity="0.5" r="2"/>
<circle cx="493.6925010846228" cy="320" fill="#8BC34A" opacity="0.5" r="2"/>
<circle cx="501.8681469450717" cy="320" fill="#8BC34A" opacity="0.5" r="2"/>
<circle cx="510.04379280552064" cy="320" fill="#8BC34A" opacity="0.5" r="2"/>
<circle cx="518.2194386659696" cy="320" fill="#8BC34A" opacity="0.5" r="2"/>
<circle cx="526.3950845264185" cy="320" fill="#8BC34A" opacity="0.5" r="2"/>
<circle cx="534.5707303868674" cy="320" fill="#8BC34A" opacity="0.5" r="2"/>
<circle cx="542.7463762473162" cy="320" fill="#8BC34A" opacity="0.5" r="2"/>
<circle cx="550.9220221077651" cy="320" fill="#8BC34A" opacity="0.5" r="2"/>
<circle cx="559.0976679682142" cy="320" fill="#8BC34A" opacity="0.5" r="2"/>
<circle cx="567.273313828663" cy="320" fill="#8BC34A" opacity="0.5" r="2"/>
<circle cx="575.4489596891119" cy="320" fill="#8BC34A" opacity="0.5" r="2"/>
<circle cx="583.6246055495608" cy="320" fill="#8BC34A" opacity="0.5" r="2"/>
<circle cx="591.8002514100097" cy="320" fill="#8BC34A" opacity="0.5" r="2"/>
<circle cx="599.9758972704586" cy="320" fill="#8BC34A" opacity="0.5" r="2"/>
<circle cx="608.1515431309075" cy="320" fill="#8BC34A" opacity="0.5" r="2"/>
<circle cx="616.3271889913564" cy="320" fill="#8BC34A" opacity="0.5" r="2"/>
<circle cx="624.5028348518052" cy="320" fill="#8BC34A" opacity="0.5" r="2"/>
<circle cx="632.6784807122541" cy="320" fill="#8BC34A" opacity="0.5" r="2"/>
<circle cx="640.8541265727032" cy="320" fill="#8BC34A" opacity="0.5" r="2"/>
<circle cx="649.0297724331521" cy="320" fill="#8BC34A" opacity="0.5" r="2"/>
<circle cx="657.2054182936009" cy="320" fill="#8BC34A" opacity="0.5" r="2"/>
<circle cx="665.3810641540498" cy="320" fill="#8BC34A" opacity="0.5" r="2"/>
<circle cx="673.5567100144987" cy="320" fill="#8BC34A" opacity="0.5" r="2"/>
<circle cx="681.7323558749476" cy="320" fill="#8BC34A" opacity="0.5" r="2"/>
<circle cx="689.9080017353965" cy="320" fill="#8BC34A" opacity="0.5" r="2"/>
<circle cx="698.0836475958454" cy="320" fill="#8BC34A" opacity="0.5" r="2"/>
<circle cx="706.2592934562942" cy="320" fill="#8BC34A" opacity="0.5" r="2"/>
<circle cx="714.4349393167431" cy="320" fill="#8BC34A" opacity="0.5" r="2"/>
<circle cx="722.6105851771922" cy="320" fill="#8BC34A" opacity="0.5" r="2"/>
<circle cx="730.7862310376411" cy="320" fill="#8BC34A" opacity="0.5" r="2"/>
<circle cx="738.9618768980899" cy="320" fill="#8BC34A" opacity="0.5" r="2"/>
<circle cx="747.1375227585388" cy="320" fill="#8BC34A" opacity="0.5" r="2"/>
<circle cx="755.3131686189877" cy="320" fill="#8BC34A" opacity="0.5" r="2"/>
<circle cx="763.4888144794367" cy="320" fill="#8BC34A" opacity="0.5" r="2"/>
<circle cx="771.6644603398855" cy="320" fill="#8BC34A" opacity="0.5" r="2"/>
<circle cx="779.8401062003345" cy="320" fill="#8BC34A" opacity="0.5" r="2"/>
<circle cx="788.0157520607834" cy="320" fill="#8BC34A" opacity="0.5" r="2"/>
<circle cx="796.1913979212322" cy="320" fill="#8BC34A" opacity="0.5" r="2"/>
<circle cx="804.3670437816812" cy="320" fill="#8BC34A" opacity="0.5" r="2"/>
<circle cx="812.5426896421301" cy="320" fill="#8BC34A" opacity="0.5" r="2"/>
<circle cx="820.718335502579" cy="320" fill="#8BC34A" opacity="0.5" r="2"/>
<circle cx="828.8939813630278" cy="320" fill="#8BC34A" opacity="0.5" r="2"/>
<circle cx="837.0696272234767" cy="320" fill="#8BC34A" opacity="0.5" r="2"/>
<circle cx="845.2452730839258" cy="320" fill="#8BC34A" opacity="0.5" r="2"/>
<circle cx="853.4209189443746" cy="320" fill="#8BC34A" opacity="0.5" r="2"/>
<circle cx="861.5965648048235" cy="320" fill="#8BC34A" opacity="0.5" r="2"/>
<circle cx="869.7722106652724" cy="320" fill="#8BC34A" opacity="0.5" r="2"/>
<circle cx="877.9478565257212" cy="320" fill="#8BC34A" opacity="0.5" r="2"/>
<circle cx="886.1235023861702" cy="320" fill="#8BC34A" opacity="0.5" r="2"/>
<circle cx="894.2991482466191" cy="320" fill="#8BC34A" opacity="0.5" r="2"/>
<circle cx="902.474794107068" cy="320" fill="#8BC34A" opacity="0.5" r="2"/>
<circle cx="910.650439967517" cy="320" fill="#8BC34A" opacity="0.5" r="2"/>
<circle cx="918.8260858279658" cy="320" fill="#8BC34A" opacity="0.5" r="2"/>
<circle cx="927.0017316884148" cy="320" fill="#8BC34A" opacity="0.5" r="2"/>
<circle cx="935.1773775488637" cy="320" fill="#8BC34A" opacity="0.5" r="2"/>
<circle cx="943.3530234093125" cy="320" fill="#8BC34A" opacity="0.5" r="2"/>
<circle cx="951.5286692697614" cy="320" fill="#8BC34A" opacity="0.5" r="2"/>
<circle cx="959.7043151302103" cy="320" fill="#8BC34A" opacity="0.5" r="2"/>
<circle cx="967.8799609906594" cy="320" fill="#8BC34A" opacity="0.5" r="2"/>
<circle cx="976.0556068511082" cy="320" fill="#8BC34A" opacity="0.5" r="2"/>
<circle cx="984.2312527115571" cy="320" fill="#8BC34A" opacity="0.5" r="2"/>
<path d="M 192.72653784684752 431.1111111111111 L 202.94609517240863 431.1111111111111 L 213.12901634906683 431.1111111111111 L 223.27530137682203 431.1111111111111 L 233.38495025567437 431.1111111111111 L 243.4579629856236 431.1111111111111 L 253.49433956667 431.1111111111111 L 263.4940799988134 431.1111111111111 L 273.45718428205384 431.1111111111111 L 283.3836524163913 431.1111111111111 L 293.2734844018259 431.1111111111111 L 303.1266802383574 431.1111111111111 L 312.94323992598606 431.1111111111111 L 322.7231634647117 431.1111111111111 L 332.4664508545344 431.1111111111111 L 342.1731020954542 431.1111111111111 L 351.84311718747097 431.1111111111111 L 361.4764961305849 431.1111111111111 L 371.07323892479576 431.1111111111111 L 380.6333455701037 431.1111111111111 L 390.15681606650867 431.1111111111111 L 399.6436504140107 431.1111111111111 L 409.09384861260975 431.1111111111111 L 418.50741066230586 431.1111111111111 L 427.88433656309905 431.1111111111111 L 437.2246263149893 431.1111111111111 L 446.52827991797653 431.1111111111111 L 455.7952973720608 431.1111111111111 L 465.0256786772422 431.1111111111111 L 474.2194238335205 431.1111111111111 L 483.376532840896 431.1111111111111 L 492.49700569936846 402.7792752321054 L 501.58084240893805 374.5612458820006 L 510.6280429696046 346.45702306079664 L 519.6386073813683 318.46660676849353 L 528.612535644229 320 L 537.5498277581866 320 L 546.4504837232414 320 L 555.3145035393932 320 L 564.141887206642 320 L 572.9326347249878 320 L 581.6867460944308 320 L 590.4042213149708 320 L 599.0850603866078 320 L 607.729263309342 320 L 616.336830083173 320 L 624.9077607081011 320 L 633.4420551841263 320 L 641.9397135112486 320 L 650.4007356894679 320 L 658.8251217187842 320 L 667.2128715991976 320 L 675.563985330708 320 L 683.8784629133154 320 L 692.15630434702 320 L 700.3975096318215 320 L 708.6020787677201 320 L 716.7700117547157 320 L 724.9013085928085 320 L 732.9959692819982 320 L 741.0539938222851 320 L 749.0753822136687 320 L 757.0601344561497 320 L 765.0082505497277 320 L 772.9197304944026 320 L 780.7945742901746 320 L 788.6327819370437 320 L 796.4343534350098 320 L 804.1992887840728 320 L 811.9275879842331 320 L 819.6192510354903 320 L 827.2742779378447 320 L 834.892668691296 320 L 842.4744232958444 320 L 850.0195417514897 320 L 857.5280240582322 320 L 864.9998702160716 320 L 872.4350802250083 320 L 879.8336540850419 320 L 887.1955917961725 320 L 894.5208933584001 320 L 901.8095587717248 320 L 909.0615880361466 320 L 916.2769811516655 320 L 923.4557381182813 320 L 930.5978589359943 320 L 937.7033436048041 320 L 944.7721921247112 320 L 951.8044044957153 320 L 958.7999807178163 320 L 965.7589207910146 320 L 972.6812247153097 320 L 979.5668924907019 320 L 986.4159241171913 320 L 993.2283195947774 320 L 1000.0040789234608 320 L 1006.7432021032412 320 L 1013.4456891341187 320 L 1020.1115400160932 320 L 1026.7407547491648 320 L 1033.3333333333333 320 " fill="none" opacity="0.7" stroke="#64B5F6" stroke-width="3"/>
<circle cx="192.72653784684752" cy="431.1111111111111" fill="#64B5F6" opacity="0.5" r="2"/>
<circle cx="202.94609517240863" cy="431.1111111111111" fill="#64B5F6" opacity="0.5" r="2"/>
<circle cx="213.12901634906683" cy="431.1111111111111" fill="#64B5F6" opacity="0.5" r="2"/>
<circle cx="223.27530137682203" cy="431.1111111111111" fill="#64B5F6" opacity="0.5" r="2"/>
<circle cx="233.38495025567437" cy="431.1111111111111" fill="#64B5F6" opacity="0.5" r="2"/>
<circle cx="243.4579629856236" cy="431.1111111111111" fill="#64B5F6" opacity="0.5" r="2"/>
<circle cx="253.49433956667" cy="431.1111111111111" fill="#64B5F6" opacity="0.5" r="2"/>
<circle cx="263.4940799988134" cy="431.1111111111111" fill="#64B5F6" opacity="0.5" r="2"/>
<circle cx="273.45718428205384" cy="431.1111111111111" fill="#64B5F6" opacity="0.5" r="2"/>
<circle cx="283.3836524163913" cy="431.1111111111111" fill="#64B5F6" opacity="0.5" r="2"/>
<circle cx="293.2734844018259" cy="431.1111111111111" fill="#64B5F6" opacity="0.5" r="2"/>
<circle cx="303.1266802383574" cy="431.1111111111111" fill="#64B5F6" opacity="0.5" r="2"/>
<circle cx="312.94323992598606" cy="431.1111111111111" fill="#64B5F6" opacity="0.5" r="2"/>
<circle cx="322.7231634647117" cy="431.1111111111111" fill="#64B5F6" opacity="0.5" r="2"/>
<circle cx="332.4664508545344" cy="431.1111111111111" fill="#64B5F6" opacity="0.5" r="2"/>
<circle cx="342.1731020954542" cy="431.1111111111111" fill="#64B5F6" opacity="0.5" r="2"/>
<circle cx="351.84311718747097" cy="431.1111111111111" fill="#64B5F6" opacity="0.5" r="2"/>
<circle cx="361.4764961305849" cy="431.1111111111111" fill="#64B5F6" opacity="0.5" r="2"/>
<circle cx="371.07323892479576" cy="431.1111111111111" fill="#64B5F6" opacity="0.5" r="2"/>
<circle cx="380.6333455701037" cy="431.1111111111111" fill="#64B5F6" opacity="0.5" r="2"/>
<circle cx="390.15681606650867" cy="431.1111111111111" fill="#64B5F6" opacity="0.5" r="2"/>
<circle cx="399.6436504140107" cy="431.1111111111111" fill="#64B5F6" opacity="0.5" r="2"/>
<circle cx="409.09384861260975" cy="431.1111111111111" fill="#64B5F6" opacity="0.5" r="2"/>
<circle cx="418.50741066230586" cy="431.1111111111111" fill="#64B5F6" opacity="0.5" r="2"/>
<circle cx="427.88433656309905" cy="431.1111111111111" fill="#64B5F6" opacity="0.5" r="2"/>
<circle cx="437.2246263149893" cy="431.1111111111111" fill="#64B5F6" opacity="0.5" r="2"/>
<circle cx="446.52827991797653" cy="431.1111111111111" fill="#64B5F6" opacity="0.5" r="2"/>
<circle cx="455.7952973720608" cy="431.1111111111111" fill="#64B5F6" opacity="0.5" r="2"/>
<circle cx="465.0256786772422" cy="431.1111111111111" fill="#64B5F6" opacity="0.5" r="2"/>
<circle cx="474.2194238335205" cy="431.1111111111111" fill="#64B5F6" opacity="0.5" r="2"/>
<circle cx="483.376532840896" cy="431.1111111111111" fill="#64B5F6" opacity="0.5" r="2"/>
<circle cx="492.49700569936846" cy="402.7792752321054" fill="#64B5F6" opacity="0.5" r="2"/>
<circle cx="501.58084240893805" cy="374.5612458820006" fill="#64B5F6" opacity="0.5" r="2"/>
<circle cx="510.6280429696046" cy="346.45702306079664" fill="#64B5F6" opacity="0.5" r="2"/>
<circle cx="519.6386073813683" cy="318.46660676849353" fill="#64B5F6" opacity="0.5" r="2"/>
<circle cx="528.612535644229" cy="320" fill="#64B5F6" opacity="0.5" r="2"/>
<circle cx="537.5498277581866" cy="320" fill="#64B5F6" opacity="0.5" r="2"/>
<circle cx="546.4504837232414" cy="320" fill="#64B5F6" opacity="0.5" r="2"/>
<circle cx="555.3145035393932" cy="320" fill="#64B5F6" opacity="0.5" r="2"/>
<circle cx="564.141887206642" cy="320" fill="#64B5F6" opacity="0.5" r="2"/>
<circle cx="572.9326347249878" cy="320" fill="#64B5F6" opacity="0.5" r="2"/>
<circle cx="581.6867460944308" cy="320" fill="#64B5F6" opacity="0.5" r="2"/>
<circle cx="590.4042213149708" cy="320" fill="#64B5F6" opacity="0.5" r="2"/>
<circle cx="599.0850603866078" cy="320" fill="#64B5F6" opacity="0.5" r="2"/>
<circle cx="607.729263309342" cy="320" fill="#64B5F6" opacity="0.5" r="2"/>
<circle cx="616.336830083173" cy="320" fill="#64B5F6" opacity="0.5" r="2"/>
<circle cx="624.9077607081011" cy="320" fill="#64B5F6" opacity="0.5" r="2"/>
<circle cx="633.4420551841263" cy="320" fill="#64B5F6" opacity="0.5" r="2"/>
<circle cx="641.9397135112486" cy="320" fill="#64B5F6" opacity="0.5" r="2"/>
<circle cx="650.4007356894679" cy="320" fill="#64B5F6" opacity="0.5" r="2"/>
<circle cx="658.8251217187842" cy="320" fill="#64B5F6" opacity="0.5" r="2"/>
<circle cx="667.2128715991976" cy="320" fill="#64B5F6" opacity="0.5" r="2"/>
<circle cx="675.563985330708" cy="320" fill="#64B5F6" opacity="0.5" r="2"/>
<circle cx="683.8784629133154" cy="320" fill="#64B5F6" opacity="0.5" r="2"/>
<circle cx="692.15630434702" cy="320" fill="#64B5F6" opacity="0.5" r="2"/>
<circle cx="700.3975096318215" cy="320" fill="#64B5F6" opacity="0.5" r="2"/>
<circle cx="708.6020787677201" cy="320" fill="#64B5F6" opacity="0.5" r="2"/>
<circle cx="716.7700117547157" cy="320" fill="#64B5F6" opacity="0.5" r="2"/>
<circle cx="724.9013085928085" cy="320" fill="#64B5F6" opacity="0.5" r="2"/>
<circle cx="732.9959692819982" cy="320" fill="#64B5F6" opacity="0.5" r="2"/>
<circle cx="741.0539938222851" cy="320" fill="#64B5F6" opacity="0.5" r="2"/>
<circle cx="749.0753822136687" cy="320" fill="#64B5F6" opacity="0.5" r="2"/>
<circle cx="757.0601344561497" cy="320" fill="#64B5F6" opacity="0.5" r="2"/>
<circle cx="765.0082505497277" cy="320" fill="#64B5F6" opacity="0.5" r="2"/>
<circle cx="772.9197304944026" cy="320" fill="#64B5F6" opacity="0.5" r="2"/>
<circle cx="780.7945742901746" cy="320" fill="#64B5F6" opacity="0.5" r="2"/>
<circle cx="788.6327819370437" cy="320" fill="#64B5F6" opacity="0.5" r="2"/>
<circle cx="796.4343534350098" cy="320" fill="#64B5F6" opacity="0.5" r="2"/>
<circle cx="804.1992887840728" cy="320" fill="#64B5F6" opacity="0.5" r="2"/>
<circle cx="811.9275879842331" cy="320" fill="#64B5F6" opacity="0.5" r="2"/>
<circle cx="819.6192510354903" cy="320" fill="#64B5F6" opacity="0.5" r="2"/>
<circle cx="827.2742779378447" cy="320" fill="#64B5F6" opacity="0.5" r="2"/>
<circle cx="834.892668691296" cy="320" fill="#64B5F6" opacity="0.5" r="2"/>
<circle cx="842.4744232958444" cy="320" fill="#64B5F6" opacity="0.5" r="2"/>
<circle cx="850.0195417514897" cy="320" fill="#64B5F6" opacity="0.5" r="2"/>
<circle cx="857.5280240582322" cy="320" fill="#64B5F6" opacity="0.5" r="2"/>
<circle cx="864.9998702160716" cy="320" fill="#64B5F6" opacity="0.5" r="2"/>
<circle cx="872.4350802250083" cy="320" fill="#64B5F6" opacity="0.5" r="2"/>
<circle cx="879.8336540850419" cy="320" fill="#64B5F6" opacity="0.5" r="2"/>
<circle cx="887.1955917961725" cy="320" fill="#64B5F6" opacity="0.5" r="2"/>
<circle cx="894.5208933584001" cy="320" fill="#64B5F6" opacity="0.5" r="2"/>
<circle cx="901.8095587717248" cy="320" fill="#64B5F6" opacity="0.5" r="2"/>
<circle cx="909.0615880361466" cy="320" fill="#64B5F6" opacity="0.5" r="2"/>
<circle cx="916.2769811516655" cy="320" fill="#64B5F6" opacity="0.5" r="2"/>
<circle cx="923.4557381182813" cy="320" fill="#64B5F6" opacity="0.5" r="2"/>
<circle cx="930.5978589359943" cy="320" fill="#64B5F6" opacity="0.5" r="2"/>
<circle cx="937.7033436048041" cy="320" fill="#64B5F6" opacity="0.5" r="2"/>
<circle cx="944.7721921247112" cy="320" fill="#64B5F6" opacity="0.5" r="2"/>
<circle cx="951.8044044957153" cy="320" fill="#64B5F6" opacity="0.5" r="2"/>
<circle cx="958.7999807178163" cy="320" fill="#64B5F6" opacity="0.5" r="2"/>
<circle cx="965.7589207910146" cy="320" fill="#64B5F6" opacity="0.5" r="2"/>
<circle cx="972.6812247153097" cy="320" fill="#64B5F6" opacity="0.5" r="2"/>
<circle cx="979.5668924907019" cy="320" fill="#64B5F6" opacity="0.5" r="2"/>
<circle cx="986.4159241171913" cy="320" fill="#64B5F6" opacity="0.5" r="2"/>
<circle cx="993.2283195947774" cy="320" fill="#64B5F6" opacity="0.5" r="2"/>
<circle cx="1000.0040789234608" cy="320" fill="#64B5F6" opacity="0.5" r="2"/>
<circle cx="1006.7432021032412" cy="320" fill="#64B5F6" opacity="0.5" r="2"/>
<circle cx="1013.4456891341187" cy="320" fill="#64B5F6" opacity="0.5" r="2"/>
<circle cx="1020.1115400160932" cy="320" fill="#64B5F6" opacity="0.5" r="2"/>
<circle cx="1026.7407547491648" cy="320" fill="#64B5F6" opacity="0.5" r="2"/>
<circle cx="1033.3333333333333" cy="320" fill="#64B5F6" opacity="0.5" r="2"/>
</g>
<g id="vehicles">
<rect fill="#4CAF50" height="6" rx="1" stroke="#333333" stroke-width="1" width="12" x="160.66666666666666" y="317"/>
<text fill="#333333" font-family="Arial, sans-serif" font-size="10" font-weight="bold" text-anchor="middle" x="166.66666666666666" y="312">
ego (t=0)
</text>
<rect fill="#4CAF50" height="6" opacity="0.8" rx="1" stroke="#333333" stroke-dasharray="3,3" stroke-width="2" width="12" x="978.2312527115571" y="317"/>
<text fill="#333333" font-family="Arial, sans-serif" font-size="10" font-weight="bold" text-anchor="middle" x="984.2312527115571" y="338">
ego (t=10.0)
</text>
<rect fill="#2196F3" height="6" rx="1" stroke="#333333" stroke-width="1" width="12" x="186.72653784684752" y="428.1111111111111"/>
<text fill="#333333" font-family="Arial, sans-serif" font-size="10" font-weight="bold" text-anchor="middle" x="192.72653784684752" y="423.1111111111111">
npc (t=0)
</text>
<rect fill="#2196F3" height="6" opacity="0.8" rx="1" stroke="#333333" stroke-dasharray="3,3" stroke-width="2" width="12" x="1027.3333333333333" y="317"/>
<text fill="#333333" font-family="Arial, sans-serif" font-size="10" font-weight="bold" text-anchor="middle" x="1033.3333333333333" y="338">
npc (t=10.0)
</text>
</g>
<g id="legend">
<rect fill="white" height="100" rx="3" stroke="#333333" stroke-width="1" width="150" x="970" y="420"/>
<text fill="#333333" font-family="Arial, sans-serif" font-size="12" font-weight="bold" text-anchor="middle" x="1045" y="435">
Legend
</text>
<rect fill="#4CAF50" height="8" width="12" x="980" y="445"/>
<text fill="#333333" font-family="Arial, sans-serif" font-size="10" text-anchor="start" x="1000" y="452">
Ego Vehicle
</text>
<rect fill="#2196F3" height="8" width="12" x="980" y="460"/>
<text fill="#333333" font-family="Arial, sans-serif" font-size="10" text-anchor="start" x="1000" y="467">
NPC Vehicle
</text>
<circle cx="986" cy="479" fill="#FF9800" r="4"/>
<text fill="#333333" font-family="Arial, sans-serif" font-size="10" text-anchor="start" x="1000" y="482">
Pedestrian
</text>
<circle cx="986" cy="498" fill="none" r="6" stroke="#F44336" stroke-width="2"/>
<text fill="#333333" font-family="Arial, sans-serif" font-size="10" text-anchor="start" x="1000" y="501">
Safety Violation
</text>
</g>
</svg>