<svg height="600" viewBox="0 0 1200 600" width="1200" xmlns="http://www.w3.org/2000/svg">
<rect fill="#F5F5F5" height="600" width="1200"/>
<g id="header">
<text fill="#333333" font-family="Arial, sans-serif" font-size="24" font-weight="bold" text-anchor="middle" x="600" y="30">
Scenario: cut_in_left
</text>
<text fill="#333333" font-family="Arial, sans-serif" font-size="12" text-anchor="middle" x="600" y="55">
ID: 7f44d20a | Duration: 10.0s | Time Step: 0.10s
</text>
</g>
<g id="metrics">
<text fill="#333333" font-family="Arial, sans-serif" font-size="14" text-anchor="middle" x="600" y="80">
Min TTC: 24.77s | Min Distance: 20.93m | Max Accel: 0.00 m/s² | Max Decel: -0.48 m/s² | Constraints: 
</text>
<text fill="#4CAF50" font-family="Arial, sans-serif" font-size="14" font-weight="bold" text-anchor="start" x="920" y="80">
✓ SAFE
</text>
</g>
<rect fill="#2A2A2A" height="400" width="1040" x="80" y="120"/>
<g id="lane_markings">
<line opacity="0.6" stroke="#FFFFFF" stroke-dasharray="10,10" stroke-width="2" x1="80" x2="1120" y1="375.55555555555554" y2="375.55555555555554"/>
<line opacity="0.6" stroke="#FFFFFF" stroke-dasharray="10,10" stroke-width="2" x1="80" x2="1120" y1="264.44444444444446" y2="264.44444444444446"/>
<line stroke="#FFFFFF" stroke-width="3" x1="80" x2="1120" y1="153.33333333333334" y2="153.33333333333334"/>
<line stroke="#FFFFFF" stroke-width="3" x1="80" x2="1120" y1="486.6666666666667" y2="486.6666666666667"/>
</g>
<g id="trajectories">
<path d="M 166.66666666666669 320 L 174.32720568335213 320 L 181.98774470003758 320 L 189.64828371672303 320 L 197.30882273340842 320 L 204.9693617500939 320 L 212.62990076677934 320 L 220.2904397834648 320 L 227.95097880015024 320 L 235.61151781683566 320 L 243.27205683352113 320 L 250.93259585020655 320 L 258.593134866892 320 L 266.25367388357745 320 L 273.9142129002629 320 L 281.57475191694834 320 L 289.2352909336338 320 L 296.89582995031924 320 L 304.5563689670047 320 L 312.21690798369013 320 L 319.8774470003756 320 L 327.53798601706103 320 L 335.1985250337465 320 L 342.8590640504319 320 L 350.5196030671174 320 L 358.1801420838028 320 L 365.8406811004882 320 L 373.5012201171737 320 L 381.1617591338591 320 L 388.8222981505446 320 L 396.48283716723 320 L 404.14337618391545 320 L 411.80391520060095 320 L 419.46445421728635 320 L 427.12499323397185 320 L 434.78553225065724 320 L 442.4460712673427 320 L 450.10661028402814 320 L 457.7671493007136 320 L 465.42768831739903 320 L 473.0882273340845 320 L 480.74876635076987 320 L 488.4093053674554 320 L 496.0698443841408 320 L 503.73038340082627 320 L 511.3909224175117 320 L 519.0514614341971 320 L 526.7120004508827 320 L 534.372539467568 320 L 542.0330784842536 320 L 549.6936175009389 320 L 557.3541565176243 320 L 565.0146955343098 320 L 572.6752345509952 320 L 580.3357735676807 320 L 587.9963125843663 320 L 595.6568516010516 320 L 603.317390617737 320 L 610.9779296344225 320 L 618.6384686511079 320 L 626.2990076677935 320 L 633.9595466844788 320 L 641.6200857011643 320 L 649.2806247178497 320 L 656.9411637345352 320 L 664.6017027512206 320 L 672.2622417679061 320 L 679.9227807845915 320 L 687.583319801277 320 L 695.2438588179623 320 L 702.9043978346479 320 L 710.5649368513333 320 L 718.2254758680187 320 L 725.8860148847042 320 L 733.5465539013895 320 L 741.2070929180751 320 L 748.8676319347605 320 L 756.528170951446 320 L 764.1887099681313 320 L 771.8492489848168 320 L 779.5097880015023 320 L 787.1703270181878 320 L 794.8308660348732 320 L 802.4914050515586 320 L 810.151944068244 320 L 817.8124830849296 320 L 825.473022101615 320 L 833.1335611183003 320 L 840.7941001349858 320 L 848.4546391516712 320 L 856.1151781683568 320 L 863.7757171850423 320 L 871.4362562017276 320 L 879.096795218413 320 L 886.7573342350985 320 L 894.417873251784 320 L 902.0784122684694 320 L 909.7389512851548 320 L 917.3994903018403 320 L 925.0600293185257 320 L 932.7205683352113 320 " fill="none" opacity="0.7" stroke="#8BC34A" stroke-width="3"/>
<circle cx="166.66666666666669" cy="320" fill="#8BC34A" opacity="0.5" r="2"/>
<circle cx="174.32720568335213" cy="320" fill="#8BC34A" opacity="0.5" r="2"/>
<circle cx="181.98774470003758" cy="320" fill="#8BC34A" opacity="0.5" r="2"/>
<circle cx="189.64828371672303" cy="320" fill="#8BC34A" opacity="0.5" r="2"/>
<circle cx="197.30882273340842" cy="320" fill="#8BC34A" opacity="0.5" r="2"/>
<circle cx="204.9693617500939" cy="320" fill="#8BC34A" opacity="0.5" r="2"/>
<circle cx="212.62990076677934" cy="320" fill="#8BC34A" opacity="0.5" r="2"/>
<circle cx="220.2904397834648" cy="320" fill="#8BC34A" opacity="0.5" r="2"/>
<circle cx="227.95097880015024" cy="320" fill="#8BC34A" opacity="0.5" r="2"/>
<circle cx="235.61151781683566" cy="320" fill="#8BC34A" opacity="0.5" r="2"/>
<circle cx="243.27205683352113" cy="320" fill="#8BC34A" opacity="0.5" r="2"/>
<circle cx="250.93259585020655" cy="320" fill="#8BC34A" opacity="0.5" r="2"/>
<circle cx="258.593134866892" cy="320" fill="#8BC34A" opacity="0.5" r="2"/>
<circle cx="266.25367388357745" cy="320" fill="#8BC34A" opacity="0.5" r="2"/>
<circle cx="273.9142129002629" cy="320" fill="#8BC34A" opacity="0.5" r="2"/>
<circle cx="281.57475191694834" cy="320" fill="#8BC34A" opacity="0.5" r="2"/>
<circle cx="289.2352909336338" cy="320" fill="#8BC34A" opacity="0.5" r="2"/>
<circle cx="296.89582995031924" cy="320" fill="#8BC34A" opacity="0.5" r="2"/>
<circle cx="304.5563689670047" cy="320" fill="#8BC34A" opacity="0.5" r="2"/>
<circle cx="312.21690798369013" cy="320" fill="#8BC34A" opacity="0.5" r="2"/>
<circle cx="319.8774470003756" cy="320" fill="#8BC34A" opacity="0.5" r="2"/>
<circle cx="327.53798601706103" cy="320" fill="#8BC34A" opacity="0.5" r="2"/>
<circle cx="335.1985250337465" cy="320" fill="#8BC34A" opacity="0.5" r="2"/>
<circle cx="342.8590640504319" cy="320" fill="#8BC34A" opacity="0.5" r="2"/>
<circle cx="350.5196030671174" cy="320" fill="#8BC34A" opacity="0.5" r="2"/>
<circle cx="358.1801420838028" cy="320" fill="#8BC34A" opacity="0.5" r="2"/>
<circle cx="365.8406811004882" cy="320" fill="#8BC34A" opacity="0.5" r="2"/>
<circle cx="373.5012201171737" cy="320" fill="#8BC34A" opacity="0.5" r="2"/>
<circle cx="381.1617591338591" cy="320" fill="#8BC34A" opacity="0.5" r="2"/>
<circle cx="388.8222981505446" cy="320" fill="#8BC34A" opacity="0.5" r="2"/>
<circle cx="396.48283716723" cy="320" fill="#8BC34A" opacity="0.5" r="2"/>
<circle cx="404.14337618391545" cy="320" fill="#8BC34A" opacity="0.5" r="2"/>
<circle cx="411.80391520060095" cy="320" fill="#8BC34A" opacity="0.5" r="2"/>
<circle cx="419.46445421728635" cy="320" fill="#8BC34A" opacity="0.5" r="2"/>
<circle cx="427.12499323397185" cy="320" fill="#8BC34A" opacity="0.5" r="2"/>
<circle cx="434.78553225065724" cy="320" fill="#8BC34A" opacity="0.5" r="2"/>
<circle cx="442.4460712673427" cy="320" fill="#8BC34A" opacity="0.5" r="2"/>
<circle cx="450.10661028402814" cy="320" fill="#8BC34A" opacity="0.5" r="2"/>
<circle cx="457.7671493007136" cy="320" fill="#8BC34A" opacity="0.5" r="2"/>
<circle cx="465.42768831739903" cy="320" fill="#8BC34A" opacity="0.5" r="2"/>
<circle cx="473.0882273340845" cy="320" fill="#8BC34A" opacity="0.5" r="2"/>
<circle cx="480.74876635076987" cy="320" fill="#8BC34A" opacity="0.5" r="2"/>
<circle cx="488.4093053674554" cy="320" fill="#8BC34A" opacity="0.5" r="2"/>
<circle cx="496.0698443841408" cy="320" fill="#8BC34A" opacity="0.5" r="2"/>
<circle cx="503.73038340082627" cy="320" fill="#8BC34A" opacity="0.5" r="2"/>
<circle cx="511.3909224175117" cy="320" fill="#8BC34A" opacity="0.5" r="2"/>
<circle cx="519.0514614341971" cy="320" fill="#8BC34A" opacity="0.5" r="2"/>
<circle cx="526.7120004508827" cy="320" fill="#8BC34A" opacity="0.5" r="2"/>
<circle cx="534.372539467568" cy="320" fill="#8BC34A" opacity="0.5" r="2"/>
<circle cx="542.0330784842536" cy="320" fill="#8BC34A" opacity="0.5" r="2"/>
<circle cx="549.6936175009389" cy="320" fill="#8BC34A" opacity="0.5" r="2"/>
<circle cx="557.3541565176243" cy="320" fill="#8BC34A" opacity="0.5" r="2"/>
<circle cx="565.0146955343098" cy="320" fill="#8BC34A" opacity="0.5" r="2"/>
<circle cx="572.6752345509952" cy="320" fill="#8BC34A" opacity="0.5" r="2"/>
<circle cx="580.3357735676807" cy="320" fill="#8BC34A" opacity="0.5" r="2"/>
<circle cx="587.9963125843663" cy="320" fill="#8BC34A" opacity="0.5" r="2"/>
<circle cx="595.6568516010516" cy="320" fill="#8BC34A" opacity="0.5" r="2"/>
<circle cx="603.317390617737" cy="320" fill="#8BC34A" opacity="0.5" r="2"/>
<circle cx="610.9779296344225" cy="320" fill="#8BC34A" opacity="0.5" r="2"/>
<circle cx="618.6384686511079" cy="320" fill="#8BC34A" opacity="0.5" r="2"/>
<circle cx="626.2990076677935" cy="320" fill="#8BC34A" opacity="0.5" r="2"/>
<circle cx="633.9595466844788" cy="320" fill="#8BC34A" opacity="0.5" r="2"/>
<circle cx="641.6200857011643" cy="320" fill="#8BC34A" opacity="0.5" r="2"/>
<circle cx="649.2806247178497" cy="320" fill="#8BC34A" opacity="0.5" r="2"/>
<circle cx="656.9411637345352" cy="320" fill="#8BC34A" opacity="0.5" r="2"/>
<circle cx="664.6017027512206" cy="320" fill="#8BC34A" opacity="0.5" r="2"/>
<circle cx="672.2622417679061" cy="320" fill="#8BC34A" opacity="0.5" r="2"/>
<circle cx="679.9227807845915" cy="320" fill="#8BC34A" opacity="0.5" r="2"/>
<circle cx="687.583319801277" cy="320" fill="#8BC34A" opacity="0.5" r="2"/>
<circle cx="695.2438588179623" cy="320" fill="#8BC34A" opacity="0.5" r="2"/>
<circle cx="702.9043978346479" cy="320" fill="#8BC34A" opacity="0.5" r="2"/>
<circle cx="710.5649368513333" cy="320" fill="#8BC34A" opacity="0.5" r="2"/>
<circle cx="718.2254758680187" cy="320" fill="#8BC34A" opacity="0.5" r="2"/>
<circle cx="725.8860148847042" cy="320" fill="#8BC34A" opacity="0.5" r="2"/>
<circle cx="733.5465539013895" cy="320" fill="#8BC34A" opacity="0.5" r="2"/>
<circle cx="741.2070929180751" cy="320" fill="#8BC34A" opacity="0.5" r="2"/>
<circle cx="748.8676319347605" cy="320" fill="#8BC34A" opacity="0.5" r="2"/>
<circle cx="756.528170951446" cy="320" fill="#8BC34A" opacity="0.5" r="2"/>
<circle cx="764.1887099681313" cy="320" fill="#8BC34A" opacity="0.5" r="2"/>
<circle cx="771.8492489848168" cy="320" fill="#8BC34A" opacity="0.5" r="2"/>
<circle cx="779.5097880015023" cy="320" fill="#8BC34A" opacity="0.5" r="2"/>
<circle cx="787.1703270181878" cy="320" fill="#8BC34A" opacity="0.5" r="2"/>
<circle cx="794.8308660348732" cy="320" fill="#8BC34A" opacity="0.5" r="2"/>
<circle cx="802.4914050515586" cy="320" fill="#8BC34A" opacity="0.5" r="2"/>
<circle cx="810.151944068244" cy="320" fill="#8BC34A" opacity="0.5" r="2"/>
<circle cx="817.8124830849296" cy="320" fill="#8BC34A" opacity="0.5" r="2"/>
<circle cx="825.473022101615" cy="320" fill="#8BC34A" opacity="0.5" r="2"/>
<circle cx="833.1335611183003" cy="320" fill="#8BC34A" opacity="0.5" r="2"/>
<circle cx="840.7941001349858" cy="320" fill="#8BC34A" opacity="0.5" r="2"/>
<circle cx="848.4546391516712" cy="320" fill="#8BC34A" opacity="0.5" r="2"/>
<circle cx="856.1151781683568" cy="320" fill="#8BC34A" opacity="0.5" r="2"/>
<circle cx="863.7757171850423" cy="320" fill="#8BC34A" opacity="0.5" r="2"/>
<circle cx="871.4362562017276" cy="320" fill="#8BC34A" opacity="0.5" r="2"/>
<circle cx="879.096795218413" cy="320" fill="#8BC34A" opacity="0.5" r="2"/>
<circle cx="886.7573342350985" cy="320" fill="#8BC34A" opacity="0.5" r="2"/>
<circle cx="894.417873251784" cy="320" fill="#8BC34A" opacity="0.5" r="2"/>
<circle cx="902.0784122684694" cy="320" fill="#8BC34A" opacity="0.5" r="2"/>
<circle cx="909.7389512851548" cy="320" fill="#8BC34A" opacity="0.5" r="2"/>
<circle cx="917.3994903018403" cy="320" fill="#8BC34A" opacity="0.5" r="2"/>
<circle cx="925.0600293185257" cy="320" fill="#8BC34A" opacity="0.5" r="2"/>
<circle cx="932.7205683352113" cy="320" fill="#8BC34A" opacity="0.5" r="2"/>
<path d="M 190.67404149793447 431.1111111111111 L 200.2497152687913 431.1111111111111 L 209.80217528505207 431.1111111111111 L 219.33142154671685 431.1111111111111 L 228.8374540537856 431.1111111111111 L 238.32027280625837 431.1111111111111 L 247.77987780413505 431.1111111111111 L 257.2162690474158 431.1111111111111 L 266.62944653610043 431.1111111111111 L 276.01941027018916 431.1111111111111 L 285.3861602496818 431.1111111111111 L 294.7296964745785 431.1111111111111 L 304.0500189448791 431.1111111111111 L 313.34712766058374 431.1111111111111 L 322.6210226216923 431.1111111111111 L 331.87170382820483 431.1111111111111 L 341.0991712801214 431.1111111111111 L 350.303424977442 431.1111111111111 L 359.48446492016654 431.1111111111111 L 368.642291108295 431.1111111111111 L 377.7769035418275 431.1111111111111 L 386.888302220764 431.1111111111111 L 395.9764871451044 431.1111111111111 L 405.04145831484885 431.1111111111111 L 414.0832157299973 431.1111111111111 L 423.1017593905497 431.1111111111111 L 432.0970892965061 431.1111111111111 L 441.06920544786647 431.1111111111111 L 450.01810784463083 431.1111111111111 L 458.94379648679916 431.1111111111111 L 467.8462713743715 431.1111111111111 L 476.72553250734785 401.6738816738817 L 485.5815798857281 372.31361231361234 L 494.41441350951237 343.030303030303 L 503.22403337870065 313.82395382395384 L 512.0104394932929 320 L 520.7736318532891 320 L 529.5136104586893 320 L 538.2303753094935 320 L 546.9239264057016 320 L 555.5942637473139 320 L 564.24138733433 320 L 572.8652971667501 320 L 581.4659932445743 320 L 590.0434755678023 320 L 598.5977441364344 320 L 607.1287989504705 320 L 615.6366400099105 320 L 624.1212673147546 320 L 632.5826808650027 320 L 641.0208806606546 320 L 649.4358667017106 320 L 657.8276389881705 320 L 666.1961975200345 320 L 674.5415422973024 320 L 682.8636733199744 320 L 691.1625905880502 320 L 699.43829410153 320 L 707.6907838604141 320 L 715.9200598647019 320 L 724.1261221143936 320 L 732.3089706094895 320 L 740.4686053499893 320 L 748.6050263358931 320 L 756.7182335672007 320 L 764.8082270439126 320 L 772.8750067660283 320 L 780.918572733548 320 L 788.9389249464717 320 L 796.9360634047994 320 L 804.909988108531 320 L 812.8606990576667 320 L 820.7881962522063 320 L 828.69247969215 320 L 836.5735493774976 320 L 844.431405308249 320 L 852.2660474844048 320 L 860.0774759059643 320 L 867.8656905729279 320 L 875.6306914852953 320 L 883.3724786430669 320 L 891.0910520462423 320 L 898.7864116948218 320 L 906.4585575888052 320 L 914.1074897281927 320 L 921.7332081129841 320 L 929.3357127431796 320 L 936.915003618779 320 L 944.4710807397822 320 L 952.0039441061896 320 L 959.5135937180011 320 L 967.0000295752163 320 L 974.4632516778356 320 L 981.9032600258588 320 L 989.3200546192862 320 L 996.7136354581173 320 L 1004.0840025423527 320 L 1011.4311558719919 320 L 1018.7550954470352 320 L 1026.0558212674823 320 L 1033.3333333333335 320 " fill="none" opacity="0.7" stroke="#64B5F6" stroke-width="3"/>
<circle cx="190.67404149793447" cy="431.1111111111111" fill="#64B5F6" opacity="0.5" r="2"/>
<circle cx="200.2497152687913" cy="431.1111111111111" fill="#64B5F6" opacity="0.5" r="2"/>
<circle cx="209.80217528505207" cy="431.1111111111111" fill="#64B5F6" opacity="0.5" r="2"/>
<circle cx="219.33142154671685" cy="431.1111111111111" fill="#64B5F6" opacity="0.5" r="2"/>
<circle cx="228.8374540537856" cy="431.1111111111111" fill="#64B5F6" opacity="0.5" r="2"/>
<circle cx="238.32027280625837" cy="431.1111111111111" fill="#64B5F6" opacity="0.5" r="2"/>
<circle cx="247.77987780413505" cy="431.1111111111111" fill="#64B5F6" opacity="0.5" r="2"/>
<circle cx="257.2162690474158" cy="431.1111111111111" fill="#64B5F6" opacity="0.5" r="2"/>
<circle cx="266.62944653610043" cy="431.1111111111111" fill="#64B5F6" opacity="0.5" r="2"/>
<circle cx="276.01941027018916" cy="431.1111111111111" fill="#64B5F6" opacity="0.5" r="2"/>
<circle cx="285.3861602496818" cy="431.1111111111111" fill="#64B5F6" opacity="0.5" r="2"/>
<circle cx="294.7296964745785" cy="431.1111111111111" fill="#64B5F6" opacity="0.5" r="2"/>
<circle cx="304.0500189448791" cy="431.1111111111111" fill="#64B5F6" opacity="0.5" r="2"/>
<circle cx="313.34712766058374" cy="431.1111111111111" fill="#64B5F6" opacity="0.5" r="2"/>
<circle cx="322.6210226216923" cy="431.1111111111111" fill="#64B5F6" opacity="0.5" r="2"/>
<circle cx="331.87170382820483" cy="431.1111111111111" fill="#64B5F6" opacity="0.5" r="2"/>
<circle cx="341.0991712801214" cy="431.1111111111111" fill="#64B5F6" opacity="0.5" r="2"/>
<circle cx="350.303424977442" cy="431.1111111111111" fill="#64B5F6" opacity="0.5" r="2"/>
<circle cx="359.48446492016654" cy="431.1111111111111" fill="#64B5F6" opacity="0.5" r="2"/>
<circle cx="368.642291108295" cy="431.1111111111111" fill="#64B5F6" opacity="0.5" r="2"/>
<circle cx="377.7769035418275" cy="431.1111111111111" fill="#64B5F6" opacity="0.5" r="2"/>
<circle cx="386.888302220764" cy="431.1111111111111" fill="#64B5F6" opacity="0.5" r="2"/>
<circle cx="395.9764871451044" cy="431.1111111111111" fill="#64B5F6" opacity="0.5" r="2"/>
<circle cx="405.04145831484885" cy="431.1111111111111" fill="#64B5F6" opacity="0.5" r="2"/>
<circle cx="414.0832157299973" cy="431.1111111111111" fill="#64B5F6" opacity="0.5" r="2"/>
<circle cx="423.1017593905497" cy="431.1111111111111" fill="#64B5F6" opacity="0.5" r="2"/>
<circle cx="432.0970892965061" cy="431.1111111111111" fill="#64B5F6" opacity="0.5" r="2"/>
<circle cx="441.06920544786647" cy="431.1111111111111" fill="#64B5F6" opacity="0.5" r="2"/>
<circle cx="450.01810784463083" cy="431.1111111111111" fill="#64B5F6" opacity="0.5" r="2"/>
<circle cx="458.94379648679916" cy="431.1111111111111" fill="#64B5F6" opacity="0.5" r="2"/>
<circle cx="467.8462713743715" cy="431.1111111111111" fill="#64B5F6" opacity="0.5" r="2"/>
<circle cx="476.72553250734785" cy="401.6738816738817" fill="#64B5F6" opacity="0.5" r="2"/>
<circle cx="485.5815798857281" cy="372.31361231361234" fill="#64B5F6" opacity="0.5" r="2"/>
<circle cx="494.41441350951237" cy="343.030303030303" fill="#64B5F6" opacity="0.5" r="2"/>
<circle cx="503.22403337870065" cy="313.82395382395384" fill="#64B5F6" opacity="0.5" r="2"/>
<circle cx="512.0104394932929" cy="320" fill="#64B5F6" opacity="0.5" r="2"/>
<circle cx="520.7736318532891" cy="320" fill="#64B5F6" opacity="0.5" r="2"/>
<circle cx="529.5136104586893" cy="320" fill="#64B5F6" opacity="0.5" r="2"/>
<circle cx="538.2303753094935" cy="320" fill="#64B5F6" opacity="0.5" r="2"/>
<circle cx="546.9239264057016" cy="320" fill="#64B5F6" opacity="0.5" r="2"/>
<circle cx="555.5942637473139" cy="320" fill="#64B5F6" opacity="0.5" r="2"/>
<circle cx="564.24138733433" cy="320" fill="#64B5F6" opacity="0.5" r="2"/>
<circle cx="572.8652971667501" cy="320" fill="#64B5F6" opacity="0.5" r="2"/>
<circle cx="581.4659932445743" cy="320" fill="#64B5F6" opacity="0.5" r="2"/>
<circle cx="590.0434755678023" cy="320" fill="#64B5F6" opacity="0.5" r="2"/>
<circle cx="598.5977441364344" cy="320" fill="#64B5F6" opacity="0.5" r="2"/>
<circle cx="607.1287989504705" cy="320" fill="#64B5F6" opacity="0.5" r="2"/>
<circle cx="615.6366400099105" cy="320" fill="#64B5F6" opacity="0.5" r="2"/>
<circle cx="624.1212673147546" cy="320" fill="#64B5F6" opacity="0.5" r="2"/>
<circle cx="632.5826808650027" cy="320" fill="#64B5F6" opacity="0.5" r="2"/>
<circle cx="641.0208806606546" cy="320" fill="#64B5F6" opacity="0.5" r="2"/>
<circle cx="649.4358667017106" cy="320" fill="#64B5F6" opacity="0.5" r="2"/>
<circle cx="657.8276389881705" cy="320" fill="#64B5F6" opacity="0.5" r="2"/>
<circle cx="666.1961975200345" cy="320" fill="#64B5F6" opacity="0.5" r="2"/>
<circle cx="674.5415422973024" cy="320" fill="#64B5F6" opacity="0.5" r="2"/>
<circle cx="682.8636733199744" cy="320" fill="#64B5F6" opacity="0.5" r="2"/>
<circle cx="691.1625905880502" cy="320" fill="#64B5F6" opacity="0.5" r="2"/>
<circle cx="699.43829410153" cy="320" fill="#64B5F6" opacity="0.5" r="2"/>
<circle cx="707.6907838604141" cy="320" fill="#64B5F6" opacity="0.5" r="2"/>
<circle cx="715.9200598647019" cy="320" fill="#64B5F6" opacity="0.5" r="2"/>
<circle cx="724.1261221143936" cy="320" fill="#64B5F6" opacity="0.5" r="2"/>
<circle cx="732.3089706094895" cy="320" fill="#64B5F6" opacity="0.5" r="2"/>
<circle cx="740.4686053499893" cy="320" fill="#64B5F6" opacity="0.5" r="2"/>
<circle cx="748.6050263358931" cy="320" fill="#64B5F6" opacity="0.5" r="2"/>
<circle cx="756.7182335672007" cy="320" fill="#64B5F6" opacity="0.5" r="2"/>
<circle cx="764.8082270439126" cy="320" fill="#64B5F6" opacity="0.5" r="2"/>
<circle cx="772.8750067660283" cy="320" fill="#64B5F6" opacity="0.5" r="2"/>
<circle cx="780.918572733548" cy="320" fill="#64B5F6" opacity="0.5" r="2"/>
<circle cx="788.9389249464717" cy="320" fill="#64B5F6" opacity="0.5" r="2"/>
<circle cx="796.9360634047994" cy="320" fill="#64B5F6" opacity="0.5" r="2"/>
<circle cx="804.909988108531" cy="320" fill="#64B5F6" opacity="0.5" r="2"/>
<circle cx="812.8606990576667" cy="320" fill="#64B5F6" opacity="0.5" r="2"/>
<circle cx="820.7881962522063" cy="320" fill="#64B5F6" opacity="0.5" r="2"/>
<circle cx="828.69247969215" cy="320" fill="#64B5F6" opacity="0.5" r="2"/>
<circle cx="836.5735493774976" cy="320" fill="#64B5F6" opacity="0.5" r="2"/>
<circle cx="844.431405308249" cy="320" fill="#64B5F6" opacity="0.5" r="2"/>
<circle cx="852.2660474844048" cy="320" fill="#64B5F6" opacity="0.5" r="2"/>
<circle cx="860.0774759059643" cy="320" fill="#64B5F6" opacity="0.5" r="2"/>
<circle cx="867.8656905729279" cy="320" fill="#64B5F6" opacity="0.5" r="2"/>
<circle cx="875.6306914852953" cy="320" fill="#64B5F6" opacity="0.5" r="2"/>
<circle cx="883.3724786430669" cy="320" fill="#64B5F6" opacity="0.5" r="2"/>
<circle cx="891.0910520462423" cy="320" fill="#64B5F6" opacity="0.5" r="2"/>
<circle cx="898.7864116948218" cy="320" fill="#64B5F6" opacity="0.5" r="2"/>
<circle cx="906.4585575888052" cy="320" fill="#64B5F6" opacity="0.5" r="2"/>
<circle cx="914.1074897281927" cy="320" fill="#64B5F6" opacity="0.5" r="2"/>
<circle cx="921.7332081129841" cy="320" fill="#64B5F6" opacity="0.5" r="2"/>
<circle cx="929.3357127431796" cy="320" fill="#64B5F6" opacity="0.5" r="2"/>
<circle cx="936.915003618779" cy="320" fill="#64B5F6" opacity="0.5" r="2"/>
<circle cx="944.4710807397822" cy="320" fill="#64B5F6" opacity="0.5" r="2"/>
<circle cx="952.0039441061896" cy="320" fill="#64B5F6" opacity="0.5" r="2"/>
<circle cx="959.5135937180011" cy="320" fill="#64B5F6" opacity="0.5" r="2"/>
<circle cx="967.0000295752163" cy="320" fill="#64B5F6" opacity="0.5" r="2"/>
<circle cx="974.4632516778356" cy="320" fill="#64B5F6" opacity="0.5" r="2"/>
<circle cx="981.9032600258588" cy="320" fill="#64B5F6" opacity="0.5" r="2"/>
<circle cx="989.3200546192862" cy="320" fill="#64B5F6" opacity="0.5" r="2"/>
<circle cx="996.7136354581173" cy="320" fill="#64B5F6" opacity="0.5" r="2"/>
<circle cx="1004.0840025423527" cy="320" fill="#64B5F6" opacity="0.5" r="2"/>
<circle cx="1011.4311558719919" cy="320" fill="#64B5F6" opacity="0.5" r="2"/>
<circle cx="1018.7550954470352" cy="320" fill="#64B5F6" opacity="0.5" r="2"/>
<circle cx="1026.0558212674823" cy="320" fill="#64B5F6" opacity="0.5" r="2"/>
<circle cx="1033.3333333333335" cy="320" fill="#64B5F6" opacity="0.5" r="2"/>
</g>
<g id="vehicles">
<rect fill="#4CAF50" height="6" rx="1" stroke="#333333" stroke-width="1" width="12" x="160.66666666666669" y="317"/>
<text fill="#333333" font-family="Arial, sans-serif" font-size="10" font-weight="bold" text-anchor="middle" x="166.66666666666669" y="312">
ego (t=0)
</text>
<rect fill="#4CAF50" height="6" opacity="0.8" rx="1" stroke="#333333" stroke-dasharray="3,3" stroke-width="2" width="12" x="926.7205683352113" y="317"/>
<text fill="#333333" font-family="Arial, sans-serif" font-size="10" font-weight="bold" text-anchor="middle" x="932.7205683352113" y="338">
ego (t=10.0)
</text>
<rect fill="#2196F3" height="6" rx="1" stroke="#333333" stroke-width="1" width="12" x="184.67404149793447" y="428.1111111111111"/>
<text fill="#333333" font-family="Arial, sans-serif" font-size="10" font-weight="bold" text-anchor="middle" x="190.67404149793447" y="423.1111111111111">
npc (t=0)
</text>
<rect fill="#2196F3" height="6" opacity="0.8" rx="1" stroke="#333333" stroke-dasharray="3,3" stroke-width="2" width="12" x="1027.3333333333335" y="317"/>
<text fill="#333333" font-family="Arial, sans-serif" font-size="10" font-weight="bold" text-anchor="middle" x="1033.3333333333335" y="338">
npc (t=10.0)
</text>
</g>
<g id="legend">
<rect fill="white" height="100" rx="3" stroke="#333333" stroke-width="1" width="150" x="970" y="420"/>
<text fill="#333333" font-family="Arial, sans-serif" font-size="12" font-weight="bold" text-anchor="middle" x="1045" y="435">
Legend
</text>
<rect fill="#4CAF50" height="8" width="12" x="980" y="445"/>
<text fill="#333333" font-family="Arial, sans-serif" font-size="10" text-anchor="start" x="1000" y="452">
Ego Vehicle
</text>
<rect fill="#2196F3" height="8" width="12" x="980" y="460"/>
<text fill="#333333" font-family="Arial, sans-serif" font-size="10" text-anchor="start" x="1000" y="467">
NPC Vehicle
</text>
<circle cx="986" cy="479" fill="#FF9800" r="4"/>
<text fill="#333333" font-family="Arial, sans-serif" font-size="10" text-anchor="start" x="1000" y="482">
Pedestrian
</text>
<circle cx="986" cy="498" fill="none" r="6" stroke="#F44336" stroke-width="2"/>
<text fill="#333333" font-family="Arial, sans-serif" font-size="10" text-anchor="start" x="1000" y="501">
Safety Violation
</text>
</g>
</svg>