<svg height="600" viewBox="0 0 1200 600" width="1200" xmlns="http://www.w3.org/2000/svg">
<rect fill="#F5F5F5" height="600" width="1200"/>
<g id="header">
<text fill="#333333" font-family="Arial, sans-serif" font-size="24" font-weight="bold" text-anchor="middle" x="600" y="30">
Scenario: cut_in_left
</text>
<text fill="#333333" font-family="Arial, sans-serif" font-size="12" text-anchor="middle" x="600" y="55">
ID: 7f3f9a60 | Duration: 10.0s | Time Step: 0.10s
</text>
</g>
<g id="metrics">
<text fill="#333333" font-family="Arial, sans-serif" font-size="14" text-anchor="middle" x="600" y="80">
Min TTC: 17.99s | Min Distance: 5.08m | Max Accel: 0.00 m/s² | Max Decel: -0.06 m/s² | Constraints: 
</text>
<text fill="#4CAF50" font-family="Arial, sans-serif" font-size="14" font-weight="bold" text-anchor="start" x="920" y="80">
✓ SAFE
</text>
</g>
<rect fill="#2A2A2A" height="400" width="1040" x="80" y="120"/>
<g id="lane_markings">
<line opacity="0.6" stroke="#FFFFFF" stroke-dasharray="10,10" stroke-width="2" x1="80" x2="1120" y1="375.55555555555554" y2="375.55555555555554"/>
<line opacity="0.6" stroke="#FFFFFF" stroke-dasharray="10,10" stroke-width="2" x1="80" x2="1120" y1="264.44444444444446" y2="264.44444444444446"/>
<line stroke="#FFFFFF" stroke-width="3" x1="80" x2="1120" y1="153.33333333333334" y2="153.33333333333334"/>
<line stroke="#FFFFFF" stroke-width="3" x1="80" x2="1120" y1="486.6666666666667" y2="486.6666666666667"/>
</g>
<g id="trajectories">
<path d="M 166.66666666666669 320 L 175.06680647102968 320 L 183.46694627539264 320 L 191.8670860797556 320 L 200.2672258841186 320 L 208.66736568848157 320 L 217.06750549284456 320 L 225.46764529720753 320 L 233.8677851015705 320 L 242.26792490593348 320 L 250.66806471029648 320 L 259.06820451465944 320 L 267.46834431902244 320 L 275.86848412338543 320 L 284.2686239277484 320 L 292.66876373211136 320 L 301.0689035364743 320 L 309.46904334083735 320 L 317.8691831452003 320 L 326.2693229495633 320 L 334.66946275392627 320 L 343.0696025582892 320 L 351.4697423626522 320 L 359.8698821670152 320 L 368.2700219713782 320 L 376.6701617757411 320 L 385.0703015801041 320 L 393.4704413844671 320 L 401.87058118883004 320 L 410.2707209931931 320 L 418.67086079755603 320 L 427.07100060191897 320 L 435.471140406282 320 L 443.87128021064495 320 L 452.27142001500795 320 L 460.67155981937094 320 L 469.0716996237339 320 L 477.47183942809687 320 L 485.8719792324598 320 L 494.27211903682286 320 L 502.6722588411858 320 L 511.07239864554873 320 L 519.4725384499118 320 L 527.8726782542747 320 L 536.2728180586378 320 L 544.6729578630006 320 L 553.0730976673636 320 L 561.4732374717266 320 L 569.8733772760896 320 L 578.2735170804526 320 L 586.6736568848155 320 L 595.0737966891785 320 L 603.4739364935415 320 L 611.8740762979046 320 L 620.2742161022675 320 L 628.6743559066305 320 L 637.0744957109935 320 L 645.4746355153563 320 L 653.8747753197194 320 L 662.2749151240824 320 L 670.6750549284453 320 L 679.0751947328083 320 L 687.4753345371713 320 L 695.8754743415343 320 L 704.2756141458973 320 L 712.6757539502603 320 L 721.0758937546232 320 L 729.4760335589862 320 L 737.8761733633493 320 L 746.2763131677121 320 L 754.6764529720751 320 L 763.0765927764381 320 L 771.476732580801 320 L 779.8768723851641 320 L 788.2770121895271 320 L 796.67715199389 320 L 805.077291798253 320 L 813.4774316026159 320 L 821.877571406979 320 L 830.277711211342 320 L 838.677851015705 320 L 847.0779908200678 320 L 855.4781306244308 320 L 863.8782704287939 320 L 872.2784102331568 320 L 880.6785500375198 320 L 889.0786898418828 320 L 897.4788296462457 320 L 905.8789694506088 320 L 914.2791092549718 320 L 922.6792490593347 320 L 931.0793888636977 320 L 939.4795286680605 320 L 947.8796684724236 320 L 956.2798082767866 320 L 964.6799480811496 320 L 973.0800878855125 320 L 981.4802276898755 320 L 989.8803674942386 320 L 998.2805072986015 320 L 1006.6806471029645 320 " fill="none" opacity="0.7" stroke="#8BC34A" stroke-width="3"/>
<circle cx="166.66666666666669" cy="320" fill="#8BC34A" opacity="0.5" r="2"/>
<circle cx="175.06680647102968" cy="320" fill="#8BC34A" opacity="0.5" r="2"/>
<circle cx="183.46694627539264" cy="320" fill="#8BC34A" opacity="0.5" r="2"/>
<circle cx="191.8670860797556" cy="320" fill="#8BC34A" opacity="0.5" r="2"/>
<circle cx="200.2672258841186" cy="320" fill="#8BC34A" opacity="0.5" r="2"/>
<circle cx="208.66736568848157" cy="320" fill="#8BC34A" opacity="0.5" r="2"/>
<circle cx="217.06750549284456" cy="320" fill="#8BC34A" opacity="0.5" r="2"/>
<circle cx="225.46764529720753" cy="320" fill="#8BC34A" opacity="0.5" r="2"/>
<circle cx="233.8677851015705" cy="320" fill="#8BC34A" opacity="0.5" r="2"/>
<circle cx="242.26792490593348" cy="320" fill="#8BC34A" opacity="0.5" r="2"/>
<circle cx="250.66806471029648" cy="320" fill="#8BC34A" opacity="0.5" r="2"/>
<circle cx="259.06820451465944" cy="320" fill="#8BC34A" opacity="0.5" r="2"/>
<circle cx="267.46834431902244" cy="320" fill="#8BC34A" opacity="0.5" r="2"/>
<circle cx="275.86848412338543" cy="320" fill="#8BC34A" opacity="0.5" r="2"/>
<circle cx="284.2686239277484" cy="320" fill="#8BC34A" opacity="0.5" r="2"/>
<circle cx="292.66876373211136" cy="320" fill="#8BC34A" opacity="0.5" r="2"/>
<circle cx="301.0689035364743" cy="320" fill="#8BC34A" opacity="0.5" r="2"/>
<circle cx="309.46904334083735" cy="320" fill="#8BC34A" opacity="0.5" r="2"/>
<circle cx="317.8691831452003" cy="320" fill="#8BC34A" opacity="0.5" r="2"/>
<circle cx="326.2693229495633" cy="320" fill="#8BC34A" opacity="0.5" r="2"/>
<circle cx="334.66946275392627" cy="320" fill="#8BC34A" opacity="0.5" r="2"/>
<circle cx="343.0696025582892" cy="320" fill="#8BC34A" opacity="0.5" r="2"/>
<circle cx="351.4697423626522" cy="320" fill="#8BC34A" opacity="0.5" r="2"/>
<circle cx="359.8698821670152" cy="320" fill="#8BC34A" opacity="0.5" r="2"/>
<circle cx="368.2700219713782" cy="320" fill="#8BC34A" opacity="0.5" r="2"/>
<circle cx="376.6701617757411" cy="320" fill="#8BC34A" opacity="0.5" r="2"/>
<circle cx="385.0703015801041" cy="320" fill="#8BC34A" opacity="0.5" r="2"/>
<circle cx="393.4704413844671" cy="320" fill="#8BC34A" opacity="0.5" r="2"/>
<circle cx="401.87058118883004" cy="320" fill="#8BC34A" opacity="0.5" r="2"/>
<circle cx="410.2707209931931" cy="320" fill="#8BC34A" opacity="0.5" r="2"/>
<circle cx="418.67086079755603" cy="320" fill="#8BC34A" opacity="0.5" r="2"/>
<circle cx="427.07100060191897" cy="320" fill="#8BC34A" opacity="0.5" r="2"/>
<circle cx="435.471140406282" cy="320" fill="#8BC34A" opacity="0.5" r="2"/>
<circle cx="443.87128021064495" cy="320" fill="#8BC34A" opacity="0.5" r="2"/>
<circle cx="452.27142001500795" cy="320" fill="#8BC34A" opacity="0.5" r="2"/>
<circle cx="460.67155981937094" cy="320" fill="#8BC34A" opacity="0.5" r="2"/>
<circle cx="469.0716996237339" cy="320" fill="#8BC34A" opacity="0.5" r="2"/>
<circle cx="477.47183942809687" cy="320" fill="#8BC34A" opacity="0.5" r="2"/>
<circle cx="485.8719792324598" cy="320" fill="#8BC34A" opacity="0.5" r="2"/>
<circle cx="494.27211903682286" cy="320" fill="#8BC34A" opacity="0.5" r="2"/>
<circle cx="502.6722588411858" cy="320" fill="#8BC34A" opacity="0.5" r="2"/>
<circle cx="511.07239864554873" cy="320" fill="#8BC34A" opacity="0.5" r="2"/>
<circle cx="519.4725384499118" cy="320" fill="#8BC34A" opacity="0.5" r="2"/>
<circle cx="527.8726782542747" cy="320" fill="#8BC34A" opacity="0.5" r="2"/>
<circle cx="536.2728180586378" cy="320" fill="#8BC34A" opacity="0.5" r="2"/>
<circle cx="544.6729578630006" cy="320" fill="#8BC34A" opacity="0.5" r="2"/>
<circle cx="553.0730976673636" cy="320" fill="#8BC34A" opacity="0.5" r="2"/>
<circle cx="561.4732374717266" cy="320" fill="#8BC34A" opacity="0.5" r="2"/>
<circle cx="569.8733772760896" cy="320" fill="#8BC34A" opacity="0.5" r="2"/>
<circle cx="578.2735170804526" cy="320" fill="#8BC34A" opacity="0.5" r="2"/>
<circle cx="586.6736568848155" cy="320" fill="#8BC34A" opacity="0.5" r="2"/>
<circle cx="595.0737966891785" cy="320" fill="#8BC34A" opacity="0.5" r="2"/>
<circle cx="603.4739364935415" cy="320" fill="#8BC34A" opacity="0.5" r="2"/>
<circle cx="611.8740762979046" cy="320" fill="#8BC34A" opacity="0.5" r="2"/>
<circle cx="620.2742161022675" cy="320" fill="#8BC34A" opacity="0.5" r="2"/>
<circle cx="628.6743559066305" cy="320" fill="#8BC34A" opacity="0.5" r="2"/>
<circle cx="637.0744957109935" cy="320" fill="#8BC34A" opacity="0.5" r="2"/>
<circle cx="645.4746355153563" cy="320" fill="#8BC34A" opacity="0.5" r="2"/>
<circle cx="653.8747753197194" cy="320" fill="#8BC34A" opacity="0.5" r="2"/>
<circle cx="662.2749151240824" cy="320" fill="#8BC34A" opacity="0.5" r="2"/>
<circle cx="670.6750549284453" cy="320" fill="#8BC34A" opacity="0.5" r="2"/>
<circle cx="679.0751947328083" cy="320" fill="#8BC34A" opacity="0.5" r="2"/>
<circle cx="687.4753345371713" cy="320" fill="#8BC34A" opacity="0.5" r="2"/>
<circle cx="695.8754743415343" cy="320" fill="#8BC34A" opacity="0.5" r="2"/>
<circle cx="704.2756141458973" cy="320" fill="#8BC34A" opacity="0.5" r="2"/>
<circle cx="712.6757539502603" cy="320" fill="#8BC34A" opacity="0.5" r="2"/>
<circle cx="721.0758937546232" cy="320" fill="#8BC34A" opacity="0.5" r="2"/>
<circle cx="729.4760335589862" cy="320" fill="#8BC34A" opacity="0.5" r="2"/>
<circle cx="737.8761733633493" cy="320" fill="#8BC34A" opacity="0.5" r="2"/>
<circle cx="746.2763131677121" cy="320" fill="#8BC34A" opacity="0.5" r="2"/>
<circle cx="754.6764529720751" cy="320" fill="#8BC34A" opacity="0.5" r="2"/>
<circle cx="763.0765927764381" cy="320" fill="#8BC34A" opacity="0.5" r="2"/>
<circle cx="771.476732580801" cy="320" fill="#8BC34A" opacity="0.5" r="2"/>
<circle cx="779.8768723851641" cy="320" fill="#8BC34A" opacity="0.5" r="2"/>
<circle cx="788.2770121895271" cy="320" fill="#8BC34A" opacity="0.5" r="2"/>
<circle cx="796.67715199389" cy="320" fill="#8BC34A" opacity="0.5" r="2"/>
<circle cx="805.077291798253" cy="320" fill="#8BC34A" opacity="0.5" r="2"/>
<circle cx="813.4774316026159" cy="320" fill="#8BC34A" opacity="0.5" r="2"/>
<circle cx="821.877571406979" cy="320" fill="#8BC34A" opacity="0.5" r="2"/>
<circle cx="830.277711211342" cy="320" fill="#8BC34A" opacity="0.5" r="2"/>
<circle cx="838.677851015705" cy="320" fill="#8BC34A" opacity="0.5" r="2"/>
<circle cx="847.0779908200678" cy="320" fill="#8BC34A" opacity="0.5" r="2"/>
<circle cx="855.4781306244308" cy="320" fill="#8BC34A" opacity="0.5" r="2"/>
<circle cx="863.8782704287939" cy="320" fill="#8BC34A" opacity="0.5" r="2"/>
<circle cx="872.2784102331568" cy="320" fill="#8BC34A" opacity="0.5" r="2"/>
<circle cx="880.6785500375198" cy="320" fill="#8BC34A" opacity="0.5" r="2"/>
<circle cx="889.0786898418828" cy="320" fill="#8BC34A" opacity="0.5" r="2"/>
<circle cx="897.4788296462457" cy="320" fill="#8BC34A" opacity="0.5" r="2"/>
<circle cx="905.8789694506088" cy="320" fill="#8BC34A" opacity="0.5" r="2"/>
<circle cx="914.2791092549718" cy="320" fill="#8BC34A" opacity="0.5" r="2"/>
<circle cx="922.6792490593347" cy="320" fill="#8BC34A" opacity="0.5" r="2"/>
<circle cx="931.0793888636977" cy="320" fill="#8BC34A" opacity="0.5" r="2"/>
<circle cx="939.4795286680605" cy="320" fill="#8BC34A" opacity="0.5" r="2"/>
<circle cx="947.8796684724236" cy="320" fill="#8BC34A" opacity="0.5" r="2"/>
<circle cx="956.2798082767866" cy="320" fill="#8BC34A" opacity="0.5" r="2"/>
<circle cx="964.6799480811496" cy="320" fill="#8BC34A" opacity="0.5" r="2"/>
<circle cx="973.0800878855125" cy="320" fill="#8BC34A" opacity="0.5" r="2"/>
<circle cx="981.4802276898755" cy="320" fill="#8BC34A" opacity="0.5" r="2"/>
<circle cx="989.8803674942386" cy="320" fill="#8BC34A" opacity="0.5" r="2"/>
<circle cx="998.2805072986015" cy="320" fill="#8BC34A" opacity="0.5" r="2"/>
<circle cx="1006.6806471029645" cy="320" fill="#8BC34A" opacity="0.5" r="2"/>
<path d="M 193.31935289703566 431.1111111111111 L 201.86471938312664 431.1111111111111 L 210.40715199685945 431.1111111111111 L 218.94665073823415 431.1111111111111 L 227.4832156072507 431.1111111111111 L 236.01684660390913 431.1111111111111 L 244.5475437282094 431.1111111111111 L 253.07530698015154 431.1111111111111 L 261.60013635973553 431.1111111111111 L 270.1220318669614 431.1111111111111 L 278.64099350182914 431.1111111111111 L 287.1570212643387 431.1111111111111 L 295.6701151544901 431.1111111111111 L 304.18027517228336 431.1111111111111 L 312.6875013177185 431.1111111111111 L 321.19179359079556 431.1111111111111 L 329.6931519915144 431.1111111111111 L 338.1915765198751 431.1111111111111 L 346.68706717587764 431.1111111111111 L 355.1796239595221 431.1111111111111 L 363.6692468708084 431.1111111111111 L 372.1559359097365 431.1111111111111 L 380.6396910763066 431.1111111111111 L 389.12051237051844 431.1111111111111 L 397.59839979237216 431.1111111111111 L 406.0733533418677 431.1111111111111 L 414.5453730190052 431.1111111111111 L 423.01445882378454 431.1111111111111 L 431.48061075620564 431.1111111111111 L 439.9438288162687 431.1111111111111 L 448.4041130039735 431.1111111111111 L 456.8614633193203 405.5413165266107 L 465.31587976230884 379.98039215686276 L 473.7673623329393 354.4283380018674 L 482.21591103121165 328.8851540616247 L 490.66152585712587 320 L 499.1042068106819 320 L 507.5439538918797 320 L 515.9807671007195 320 L 524.4146464372011 320 L 532.8455919013245 320 L 541.2736034930899 320 L 549.698681212497 320 L 558.1208250595462 320 L 566.540035034237 320 L 574.9563111365698 320 L 583.3696533665443 320 L 591.7800617241608 320 L 600.1875362094192 320 L 608.5920768223193 320 L 616.9936835628614 320 L 625.3923564310454 320 L 633.7880954268711 320 L 642.1809005503387 320 L 650.5707718014481 320 L 658.9577091801996 320 L 667.3417126865927 320 L 675.7227823206277 320 L 684.1009180823047 320 L 692.4761199716233 320 L 700.8483879885841 320 L 709.2177221331866 320 L 717.5841224054309 320 L 725.9475888053171 320 L 734.3081213328452 320 L 742.6657199880152 320 L 751.0203847708269 320 L 759.3721156812805 320 L 767.7209127193761 320 L 776.0667758851134 320 L 784.4097051784926 320 L 792.7497005995137 320 L 801.0867621481766 320 L 809.4208898244815 320 L 817.7520836284281 320 L 826.0803435600166 320 L 834.4056696192471 320 L 842.7280618061192 320 L 851.0475201206333 320 L 859.3640445627893 320 L 867.677635132587 320 L 875.9882918300267 320 L 884.2960146551081 320 L 892.6008036078316 320 L 900.9026586881969 320 L 909.201579896204 320 L 917.4975672318529 320 L 925.7906206951437 320 L 934.0807402860764 320 L 942.3679260046509 320 L 950.6521778508672 320 L 958.9334958247256 320 L 967.2118799262257 320 L 975.4873301553677 320 L 983.7598465121515 320 L 992.0294289965772 320 L 1000.2960776086447 320 L 1008.5597923483541 320 L 1016.8205732157053 320 L 1025.0784202106984 320 L 1033.3333333333335 320 " fill="none" opacity="0.7" stroke="#64B5F6" stroke-width="3"/>
<circle cx="193.31935289703566" cy="431.1111111111111" fill="#64B5F6" opacity="0.5" r="2"/>
<circle cx="201.86471938312664" cy="431.1111111111111" fill="#64B5F6" opacity="0.5" r="2"/>
<circle cx="210.40715199685945" cy="431.1111111111111" fill="#64B5F6" opacity="0.5" r="2"/>
<circle cx="218.94665073823415" cy="431.1111111111111" fill="#64B5F6" opacity="0.5" r="2"/>
<circle cx="227.4832156072507" cy="431.1111111111111" fill="#64B5F6" opacity="0.5" r="2"/>
<circle cx="236.01684660390913" cy="431.1111111111111" fill="#64B5F6" opacity="0.5" r="2"/>
<circle cx="244.5475437282094" cy="431.1111111111111" fill="#64B5F6" opacity="0.5" r="2"/>
<circle cx="253.07530698015154" cy="431.1111111111111" fill="#64B5F6" opacity="0.5" r="2"/>
<circle cx="261.60013635973553" cy="431.1111111111111" fill="#64B5F6" opacity="0.5" r="2"/>
<circle cx="270.1220318669614" cy="431.1111111111111" fill="#64B5F6" opacity="0.5" r="2"/>
<circle cx="278.64099350182914" cy="431.1111111111111" fill="#64B5F6" opacity="0.5" r="2"/>
<circle cx="287.1570212643387" cy="431.1111111111111" fill="#64B5F6" opacity="0.5" r="2"/>
<circle cx="295.6701151544901" cy="431.1111111111111" fill="#64B5F6" opacity="0.5" r="2"/>
<circle cx="304.18027517228336" cy="431.1111111111111" fill="#64B5F6" opacity="0.5" r="2"/>
<circle cx="312.6875013177185" cy="431.1111111111111" fill="#64B5F6" opacity="0.5" r="2"/>
<circle cx="321.19179359079556" cy="431.1111111111111" fill="#64B5F6" opacity="0.5" r="2"/>
<circle cx="329.6931519915144" cy="431.1111111111111" fill="#64B5F6" opacity="0.5" r="2"/>
<circle cx="338.1915765198751" cy="431.1111111111111" fill="#64B5F6" opacity="0.5" r="2"/>
<circle cx="346.68706717587764" cy="431.1111111111111" fill="#64B5F6" opacity="0.5" r="2"/>
<circle cx="355.1796239595221" cy="431.1111111111111" fill="#64B5F6" opacity="0.5" r="2"/>
<circle cx="363.6692468708084" cy="431.1111111111111" fill="#64B5F6" opacity="0.5" r="2"/>
<circle cx="372.1559359097365" cy="431.1111111111111" fill="#64B5F6" opacity="0.5" r="2"/>
<circle cx="380.6396910763066" cy="431.1111111111111" fill="#64B5F6" opacity="0.5" r="2"/>
<circle cx="389.12051237051844" cy="431.1111111111111" fill="#64B5F6" opacity="0.5" r="2"/>
<circle cx="397.59839979237216" cy="431.1111111111111" fill="#64B5F6" opacity="0.5" r="2"/>
<circle cx="406.0733533418677" cy="431.1111111111111" fill="#64B5F6" opacity="0.5" r="2"/>
<circle cx="414.5453730190052" cy="431.1111111111111" fill="#64B5F6" opacity="0.5" r="2"/>
<circle cx="423.01445882378454" cy="431.1111111111111" fill="#64B5F6" opacity="0.5" r="2"/>
<circle cx="431.48061075620564" cy="431.1111111111111" fill="#64B5F6" opacity="0.5" r="2"/>
<circle cx="439.9438288162687" cy="431.1111111111111" fill="#64B5F6" opacity="0.5" r="2"/>
<circle cx="448.4041130039735" cy="431.1111111111111" fill="#64B5F6" opacity="0.5" r="2"/>
<circle cx="456.8614633193203" cy="405.5413165266107" fill="#64B5F6" opacity="0.5" r="2"/>
<circle cx="465.31587976230884" cy="379.98039215686276" fill="#64B5F6" opacity="0.5" r="2"/>
<circle cx="473.7673623329393" cy="354.4283380018674" fill="#64B5F6" opacity="0.5" r="2"/>
<circle cx="482.21591103121165" cy="328.8851540616247" fill="#64B5F6" opacity="0.5" r="2"/>
<circle cx="490.66152585712587" cy="320" fill="#64B5F6" opacity="0.5" r="2"/>
<circle cx="499.1042068106819" cy="320" fill="#64B5F6" opacity="0.5" r="2"/>
<circle cx="507.5439538918797" cy="320" fill="#64B5F6" opacity="0.5" r="2"/>
<circle cx="515.9807671007195" cy="320" fill="#64B5F6" opacity="0.5" r="2"/>
<circle cx="524.4146464372011" cy="320" fill="#64B5F6" opacity="0.5" r="2"/>
<circle cx="532.8455919013245" cy="320" fill="#64B5F6" opacity="0.5" r="2"/>
<circle cx="541.2736034930899" cy="320" fill="#64B5F6" opacity="0.5" r="2"/>
<circle cx="549.698681212497" cy="320" fill="#64B5F6" opacity="0.5" r="2"/>
<circle cx="558.1208250595462" cy="320" fill="#64B5F6" opacity="0.5" r="2"/>
<circle cx="566.540035034237" cy="320" fill="#64B5F6" opacity="0.5" r="2"/>
<circle cx="574.9563111365698" cy="320" fill="#64B5F6" opacity="0.5" r="2"/>
<circle cx="583.3696533665443" cy="320" fill="#64B5F6" opacity="0.5" r="2"/>
<circle cx="591.7800617241608" cy="320" fill="#64B5F6" opacity="0.5" r="2"/>
<circle cx="600.1875362094192" cy="320" fill="#64B5F6" opacity="0.5" r="2"/>
<circle cx="608.5920768223193" cy="320" fill="#64B5F6" opacity="0.5" r="2"/>
<circle cx="616.9936835628614" cy="320" fill="#64B5F6" opacity="0.5" r="2"/>
<circle cx="625.3923564310454" cy="320" fill="#64B5F6" opacity="0.5" r="2"/>
<circle cx="633.7880954268711" cy="320" fill="#64B5F6" opacity="0.5" r="2"/>
<circle cx="642.1809005503387" cy="320" fill="#64B5F6" opacity="0.5" r="2"/>
<circle cx="650.5707718014481" cy="320" fill="#64B5F6" opacity="0.5" r="2"/>
<circle cx="658.9577091801996" cy="320" fill="#64B5F6" opacity="0.5" r="2"/>
<circle cx="667.3417126865927" cy="320" fill="#64B5F6" opacity="0.5" r="2"/>
<circle cx="675.7227823206277" cy="320" fill="#64B5F6" opacity="0.5" r="2"/>
<circle cx="684.1009180823047" cy="320" fill="#64B5F6" opacity="0.5" r="2"/>
<circle cx="692.4761199716233" cy="320" fill="#64B5F6" opacity="0.5" r="2"/>
<circle cx="700.8483879885841" cy="320" fill="#64B5F6" opacity="0.5" r="2"/>
<circle cx="709.2177221331866" cy="320" fill="#64B5F6" opacity="0.5" r="2"/>
<circle cx="717.5841224054309" cy="320" fill="#64B5F6" opacity="0.5" r="2"/>
<circle cx="725.9475888053171" cy="320" fill="#64B5F6" opacity="0.5" r="2"/>
<circle cx="734.3081213328452" cy="320" fill="#64B5F6" opacity="0.5" r="2"/>
<circle cx="742.6657199880152" cy="320" fill="#64B5F6" opacity="0.5" r="2"/>
<circle cx="751.0203847708269" cy="320" fill="#64B5F6" opacity="0.5" r="2"/>
<circle cx="759.3721156812805" cy="320" fill="#64B5F6" opacity="0.5" r="2"/>
<circle cx="767.7209127193761" cy="320" fill="#64B5F6" opacity="0.5" r="2"/>
<circle cx="776.0667758851134" cy="320" fill="#64B5F6" opacity="0.5" r="2"/>
<circle cx="784.4097051784926" cy="320" fill="#64B5F6" opacity="0.5" r="2"/>
<circle cx="792.7497005995137" cy="320" fill="#64B5F6" opacity="0.5" r="2"/>
<circle cx="801.0867621481766" cy="320" fill="#64B5F6" opacity="0.5" r="2"/>
<circle cx="809.4208898244815" cy="320" fill="#64B5F6" opacity="0.5" r="2"/>
<circle cx="817.7520836284281" cy="320" fill="#64B5F6" opacity="0.5" r="2"/>
<circle cx="826.0803435600166" cy="320" fill="#64B5F6" opacity="0.5" r="2"/>
<circle cx="834.4056696192471" cy="320" fill="#64B5F6" opacity="0.5" r="2"/>
<circle cx="842.7280618061192" cy="320" fill="#64B5F6" opacity="0.5" r="2"/>
<circle cx="851.0475201206333" cy="320" fill="#64B5F6" opacity="0.5" r="2"/>
<circle cx="859.3640445627893" cy="320" fill="#64B5F6" opacity="0.5" r="2"/>
<circle cx="867.677635132587" cy="320" fill="#64B5F6" opacity="0.5" r="2"/>
<circle cx="875.9882918300267" cy="320" fill="#64B5F6" opacity="0.5" r="2"/>
<circle cx="884.2960146551081" cy="320" fill="#64B5F6" opacity="0.5" r="2"/>
<circle cx="892.6008036078316" cy="320" fill="#64B5F6" opacity="0.5" r="2"/>
<circle cx="900.9026586881969" cy="320" fill="#64B5F6" opacity="0.5" r="2"/>
<circle cx="909.201579896204" cy="320" fill="#64B5F6" opacity="0.5" r="2"/>
<circle cx="917.4975672318529" cy="320" fill="#64B5F6" opacity="0.5" r="2"/>
<circle cx="925.7906206951437" cy="320" fill="#64B5F6" opacity="0.5" r="2"/>
<circle cx="934.0807402860764" cy="320" fill="#64B5F6" opacity="0.5" r="2"/>
<circle cx="942.3679260046509" cy="320" fill="#64B5F6" opacity="0.5" r="2"/>
<circle cx="950.6521778508672" cy="320" fill="#64B5F6" opacity="0.5" r="2"/>
<circle cx="958.9334958247256" cy="320" fill="#64B5F6" opacity="0.5" r="2"/>
<circle cx="967.2118799262257" cy="320" fill="#64B5F6" opacity="0.5" r="2"/>
<circle cx="975.4873301553677" cy="320" fill="#64B5F6" opacity="0.5" r="2"/>
<circle cx="983.7598465121515" cy="320" fill="#64B5F6" opacity="0.5" r="2"/>
<circle cx="992.0294289965772" cy="320" fill="#64B5F6" opacity="0.5" r="2"/>
<circle cx="1000.2960776086447" cy="320" fill="#64B5F6" opacity="0.5" r="2"/>
<circle cx="1008.5597923483541" cy="320" fill="#64B5F6" opacity="0.5" r="2"/>
<circle cx="1016.8205732157053" cy="320" fill="#64B5F6" opacity="0.5" r="2"/>
<circle cx="1025.0784202106984" cy="320" fill="#64B5F6" opacity="0.5" r="2"/>
<circle cx="1033.3333333333335" cy="320" fill="#64B5F6" opacity="0.5" r="2"/>
</g>
<g id="vehicles">
<rect fill="#4CAF50" height="6" rx="1" stroke="#333333" stroke-width="1" width="12" x="160.66666666666669" y="317"/>
<text fill="#333333" font-family="Arial, sans-serif" font-size="10" font-weight="bold" text-anchor="middle" x="166.66666666666669" y="312">
ego (t=0)
</text>
<rect fill="#4CAF50" height="6" opacity="0.8" rx="1" stroke="#333333" stroke-dasharray="3,3" stroke-width="2" width="12" x="1000.6806471029645" y="317"/>
<text fill="#333333" font-family="Arial, sans-serif" font-size="10" font-weight="bold" text-anchor="middle" x="1006.6806471029645" y="338">
ego (t=10.0)
</text>
<rect fill="#2196F3" height="6" rx="1" stroke="#333333" stroke-width="1" width="12" x="187.31935289703566" y="428.1111111111111"/>
<text fill="#333333" font-family="Arial, sans-serif" font-size="10" font-weight="bold" text-anchor="middle" x="193.31935289703566" y="423.1111111111111">
npc (t=0)
</text>
<rect fill="#2196F3" height="6" opacity="0.8" rx="1" stroke="#333333" stroke-dasharray="3,3" stroke-width="2" width="12" x="1027.3333333333335" y="317"/>
<text fill="#333333" font-family="Arial, sans-serif" font-size="10" font-weight="bold" text-anchor="middle" x="1033.3333333333335" y="338">
npc (t=10.0)
</text>
</g>
<g id="legend">
<rect fill="white" height="100" rx="3" stroke="#333333" stroke-width="1" width="150" x="970" y="420"/>
<text fill="#333333" font-family="Arial, sans-serif" font-size="12" font-weight="bold" text-anchor="middle" x="1045" y="435">
Legend
</text>
<rect fill="#4CAF50" height="8" width="12" x="980" y="445"/>
<text fill="#333333" font-family="Arial, sans-serif" font-size="10" text-anchor="start" x="1000" y="452">
Ego Vehicle
</text>
<rect fill="#2196F3" height="8" width="12" x="980" y="460"/>
<text fill="#333333" font-family="Arial, sans-serif" font-size="10" text-anchor="start" x="1000" y="467">
NPC Vehicle
</text>
<circle cx="986" cy="479" fill="#FF9800" r="4"/>
<text fill="#333333" font-family="Arial, sans-serif" font-size="10" text-anchor="start" x="1000" y="482">
Pedestrian
</text>
<circle cx="986" cy="498" fill="none" r="6" stroke="#F44336" stroke-width="2"/>
<text fill="#333333" font-family="Arial, sans-serif" font-size="10" text-anchor="start" x="1000" y="501">
Safety Violation
</text>
</g>
</svg>