<svg height="600" viewBox="0 0 1200 600" width="1200" xmlns="http://www.w3.org/2000/svg">
<rect fill="#F5F5F5" height="600" width="1200"/>
<g id="header">
<text fill="#333333" font-family="Arial, sans-serif" font-size="24" font-weight="bold" text-anchor="middle" x="600" y="30">
Scenario: pedestrian_crossing
</text>
<text fill="#333333" font-family="Arial, sans-serif" font-size="12" text-anchor="middle" x="600" y="55">
ID: 7160cfb1 | Duration: 10.0s | Time Step: 0.30s
</text>
</g>
<g id="metrics">
<text fill="#333333" font-family="Arial, sans-serif" font-size="14" text-anchor="middle" x="600" y="80">
Min TTC: 1.61s | Min Distance: 4.30m | Max Accel: 0.00 m/s² | Max Decel: -5.00 m/s² | Constraints: 
</text>
<text fill="#F44336" font-family="Arial, sans-serif" font-size="14" font-weight="bold" text-anchor="start" x="920" y="80">
✗ VIOLATED
</text>
</g>
<rect fill="#2A2A2A" height="400" width="1040" x="80" y="120"/>
<g id="lane_markings">
<line opacity="0.6" stroke="#FFFFFF" stroke-dasharray="10,10" stroke-width="2" x1="80" x2="1120" y1="358.46153846153845" y2="358.46153846153845"/>
<line stroke="#FFFFFF" stroke-width="3" x1="80" x2="1120" y1="230.25641025641025" y2="230.25641025641025"/>
<line stroke="#FFFFFF" stroke-width="3" x1="80" x2="1120" y1="486.66666666666663" y2="486.66666666666663"/>
</g>
<g id="trajectories">
<path d="M 166.66666666666669 424.3956043956044 L 340.7252440725244 424.3956043956044 L 482.1478382147838 424.3956043956044 L 590.934449093445 424.3956043956044 L 667.0850767085077 424.3956043956044 L 710.5997210599721 424.3956043956044 L 721.4783821478383 424.3956043956044 L 721.4783821478383 424.3956043956044 L 721.4783821478383 424.3956043956044 L 721.4783821478383 424.3956043956044 L 721.4783821478383 424.3956043956044 L 721.4783821478383 424.3956043956044 L 721.4783821478383 424.3956043956044 L 721.4783821478383 424.3956043956044 L 721.4783821478383 424.3956043956044 L 721.4783821478383 424.3956043956044 L 721.4783821478383 424.3956043956044 L 721.4783821478383 424.3956043956044 L 721.4783821478383 424.3956043956044 L 721.4783821478383 424.3956043956044 L 721.4783821478383 424.3956043956044 L 721.4783821478383 424.3956043956044 L 721.4783821478383 424.3956043956044 L 721.4783821478383 424.3956043956044 L 721.4783821478383 424.3956043956044 L 721.4783821478383 424.3956043956044 L 721.4783821478383 424.3956043956044 L 721.4783821478383 424.3956043956044 L 721.4783821478383 424.3956043956044 L 721.4783821478383 424.3956043956044 L 721.4783821478383 424.3956043956044 L 721.4783821478383 424.3956043956044 L 721.4783821478383 424.3956043956044 L 721.4783821478383 424.3956043956044 L 721.4783821478383 424.3956043956044 " fill="none" opacity="0.7" stroke="#8BC34A" stroke-width="3"/>
<circle cx="166.66666666666669" cy="424.3956043956044" fill="#8BC34A" opacity="0.5" r="2"/>
<circle cx="340.7252440725244" cy="424.3956043956044" fill="#8BC34A" opacity="0.5" r="2"/>
<circle cx="482.1478382147838" cy="424.3956043956044" fill="#8BC34A" opacity="0.5" r="2"/>
<circle cx="590.934449093445" cy="424.3956043956044" fill="#8BC34A" opacity="0.5" r="2"/>
<circle cx="667.0850767085077" cy="424.3956043956044" fill="#8BC34A" opacity="0.5" r="2"/>
<circle cx="710.5997210599721" cy="424.3956043956044" fill="#8BC34A" opacity="0.5" r="2"/>
<circle cx="721.4783821478383" cy="424.3956043956044" fill="#8BC34A" opacity="0.5" r="2"/>
<circle cx="721.4783821478383" cy="424.3956043956044" fill="#8BC34A" opacity="0.5" r="2"/>
<circle cx="721.4783821478383" cy="424.3956043956044" fill="#8BC34A" opacity="0.5" r="2"/>
<circle cx="721.4783821478383" cy="424.3956043956044" fill="#8BC34A" opacity="0.5" r="2"/>
<circle cx="721.4783821478383" cy="424.3956043956044" fill="#8BC34A" opacity="0.5" r="2"/>
<circle cx="721.4783821478383" cy="424.3956043956044" fill="#8BC34A" opacity="0.5" r="2"/>
<circle cx="721.4783821478383" cy="424.3956043956044" fill="#8BC34A" opacity="0.5" r="2"/>
<circle cx="721.4783821478383" cy="424.3956043956044" fill="#8BC34A" opacity="0.5" r="2"/>
<circle cx="721.4783821478383" cy="424.3956043956044" fill="#8BC34A" opacity="0.5" r="2"/>
<circle cx="721.4783821478383" cy="424.3956043956044" fill="#8BC34A" opacity="0.5" r="2"/>
<circle cx="721.4783821478383" cy="424.3956043956044" fill="#8BC34A" opacity="0.5" r="2"/>
<circle cx="721.4783821478383" cy="424.3956043956044" fill="#8BC34A" opacity="0.5" r="2"/>
<circle cx="721.4783821478383" cy="424.3956043956044" fill="#8BC34A" opacity="0.5" r="2"/>
<circle cx="721.4783821478383" cy="424.3956043956044" fill="#8BC34A" opacity="0.5" r="2"/>
<circle cx="721.4783821478383" cy="424.3956043956044" fill="#8BC34A" opacity="0.5" r="2"/>
<circle cx="721.4783821478383" cy="424.3956043956044" fill="#8BC34A" opacity="0.5" r="2"/>
<circle cx="721.4783821478383" cy="424.3956043956044" fill="#8BC34A" opacity="0.5" r="2"/>
<circle cx="721.4783821478383" cy="424.3956043956044" fill="#8BC34A" opacity="0.5" r="2"/>
<circle cx="721.4783821478383" cy="424.3956043956044" fill="#8BC34A" opacity="0.5" r="2"/>
<circle cx="721.4783821478383" cy="424.3956043956044" fill="#8BC34A" opacity="0.5" r="2"/>
<circle cx="721.4783821478383" cy="424.3956043956044" fill="#8BC34A" opacity="0.5" r="2"/>
<circle cx="721.4783821478383" cy="424.3956043956044" fill="#8BC34A" opacity="0.5" r="2"/>
<circle cx="721.4783821478383" cy="424.3956043956044" fill="#8BC34A" opacity="0.5" r="2"/>
<circle cx="721.4783821478383" cy="424.3956043956044" fill="#8BC34A" opacity="0.5" r="2"/>
<circle cx="721.4783821478383" cy="424.3956043956044" fill="#8BC34A" opacity="0.5" r="2"/>
<circle cx="721.4783821478383" cy="424.3956043956044" fill="#8BC34A" opacity="0.5" r="2"/>
<circle cx="721.4783821478383" cy="424.3956043956044" fill="#8BC34A" opacity="0.5" r="2"/>
<circle cx="721.4783821478383" cy="424.3956043956044" fill="#8BC34A" opacity="0.5" r="2"/>
<circle cx="721.4783821478383" cy="424.3956043956044" fill="#8BC34A" opacity="0.5" r="2"/>
<path d="M 965.8856345885634 424.3956043956044 L 992.4295676429567 409.01098901098896 L 1012.4463040446304 393.6263736263736 L 1025.9358437935844 378.2417582417582 L 1032.8981868898186 362.85714285714283 L 1033.3333333333333 347.4725274725274 L 1033.3333333333333 332.08791208791206 L 1033.3333333333333 316.7032967032967 L 1033.3333333333333 301.31868131868134 L 1033.3333333333333 285.93406593406587 L 1033.3333333333333 270.5494505494505 L 1033.3333333333333 255.16483516483513 L 1033.3333333333333 239.78021978021974 L 1033.3333333333333 224.39560439560438 L 1033.3333333333333 212.3076923076923 L 1033.3333333333333 203.5164835164835 L 1033.3333333333333 198.02197802197801 L 1033.3333333333333 195.8241758241758 L 1033.3333333333333 196.9230769230769 L 1033.3333333333333 201.31868131868129 L 1033.3333333333333 209.010989010989 L 1033.3333333333333 219.08424908424908 L 1033.3333333333333 225.86080586080584 L 1033.3333333333333 229.34065934065933 L 1033.3333333333333 229.52380952380952 L 1033.3333333333333 226.41025641025638 L 1033.3333333333333 219.99999999999997 L 1033.3333333333333 210.2930402930403 L 1033.3333333333333 197.28937728937728 L 1033.3333333333333 181.90476190476187 L 1033.3333333333333 169.8168498168498 L 1033.3333333333333 161.025641025641 L 1033.3333333333333 155.53113553113556 L 1033.3333333333333 153.33333333333334 L 1033.3333333333333 153.33333333333334 " fill="none" opacity="0.7" stroke="#FFB74D" stroke-width="3"/>
<circle cx="965.8856345885634" cy="424.3956043956044" fill="#FFB74D" opacity="0.5" r="2"/>
<circle cx="992.4295676429567" cy="409.01098901098896" fill="#FFB74D" opacity="0.5" r="2"/>
<circle cx="1012.4463040446304" cy="393.6263736263736" fill="#FFB74D" opacity="0.5" r="2"/>
<circle cx="1025.9358437935844" cy="378.2417582417582" fill="#FFB74D" opacity="0.5" r="2"/>
<circle cx="1032.8981868898186" cy="362.85714285714283" fill="#FFB74D" opacity="0.5" r="2"/>
<circle cx="1033.3333333333333" cy="347.4725274725274" fill="#FFB74D" opacity="0.5" r="2"/>
<circle cx="1033.3333333333333" cy="332.08791208791206" fill="#FFB74D" opacity="0.5" r="2"/>
<circle cx="1033.3333333333333" cy="316.7032967032967" fill="#FFB74D" opacity="0.5" r="2"/>
<circle cx="1033.3333333333333" cy="301.31868131868134" fill="#FFB74D" opacity="0.5" r="2"/>
<circle cx="1033.3333333333333" cy="285.93406593406587" fill="#FFB74D" opacity="0.5" r="2"/>
<circle cx="1033.3333333333333" cy="270.5494505494505" fill="#FFB74D" opacity="0.5" r="2"/>
<circle cx="1033.3333333333333" cy="255.16483516483513" fill="#FFB74D" opacity="0.5" r="2"/>
<circle cx="1033.3333333333333" cy="239.78021978021974" fill="#FFB74D" opacity="0.5" r="2"/>
<circle cx="1033.3333333333333" cy="224.39560439560438" fill="#FFB74D" opacity="0.5" r="2"/>
<circle cx="1033.3333333333333" cy="212.3076923076923" fill="#FFB74D" opacity="0.5" r="2"/>
<circle cx="1033.3333333333333" cy="203.5164835164835" fill="#FFB74D" opacity="0.5" r="2"/>
<circle cx="1033.3333333333333" cy="198.02197802197801" fill="#FFB74D" opacity="0.5" r="2"/>
<circle cx="1033.3333333333333" cy="195.8241758241758" fill="#FFB74D" opacity="0.5" r="2"/>
<circle cx="1033.3333333333333" cy="196.9230769230769" fill="#FFB74D" opacity="0.5" r="2"/>
<circle cx="1033.3333333333333" cy="201.31868131868129" fill="#FFB74D" opacity="0.5" r="2"/>
<circle cx="1033.3333333333333" cy="209.010989010989" fill="#FFB74D" opacity="0.5" r="2"/>
<circle cx="1033.3333333333333" cy="219.08424908424908" fill="#FFB74D" opacity="0.5" r="2"/>
<circle cx="1033.3333333333333" cy="225.86080586080584" fill="#FFB74D" opacity="0.5" r="2"/>
<circle cx="1033.3333333333333" cy="229.34065934065933" fill="#FFB74D" opacity="0.5" r="2"/>
<circle cx="1033.3333333333333" cy="229.52380952380952" fill="#FFB74D" opacity="0.5" r="2"/>
<circle cx="1033.3333333333333" cy="226.41025641025638" fill="#FFB74D" opacity="0.5" r="2"/>
<circle cx="1033.3333333333333" cy="219.99999999999997" fill="#FFB74D" opacity="0.5" r="2"/>
<circle cx="1033.3333333333333" cy="210.2930402930403" fill="#FFB74D" opacity="0.5" r="2"/>
<circle cx="1033.3333333333333" cy="197.28937728937728" fill="#FFB74D" opacity="0.5" r="2"/>
<circle cx="1033.3333333333333" cy="181.90476190476187" fill="#FFB74D" opacity="0.5" r="2"/>
<circle cx="1033.3333333333333" cy="169.8168498168498" fill="#FFB74D" opacity="0.5" r="2"/>
<circle cx="1033.3333333333333" cy="161.025641025641" fill="#FFB74D" opacity="0.5" r="2"/>
<circle cx="1033.3333333333333" cy="155.53113553113556" fill="#FFB74D" opacity="0.5" r="2"/>
<circle cx="1033.3333333333333" cy="153.33333333333334" fill="#FFB74D" opacity="0.5" r="2"/>
<circle cx="1033.3333333333333" cy="153.33333333333334" fill="#FFB74D" opacity="0.5" r="2"/>
<circle cx="166.66666666666669" cy="424.3956043956044" fill="none" r="8" stroke="#F44336" stroke-width="3"/>
<circle cx="965.8856345885634" cy="424.3956043956044" fill="none" r="8" stroke="#F44336" stroke-width="3"/>
<circle cx="340.7252440725244" cy="424.3956043956044" fill="none" r="8" stroke="#F44336" stroke-width="3"/>
<circle cx="992.4295676429567" cy="409.01098901098896" fill="none" r="8" stroke="#F44336" stroke-width="3"/>
<circle cx="482.1478382147838" cy="424.3956043956044" fill="none" r="8" stroke="#F44336" stroke-width="3"/>
<circle cx="1012.4463040446304" cy="393.6263736263736" fill="none" r="8" stroke="#F44336" stroke-width="3"/>
<circle cx="590.934449093445" cy="424.3956043956044" fill="none" r="8" stroke="#F44336" stroke-width="3"/>
<circle cx="1025.9358437935844" cy="378.2417582417582" fill="none" r="8" stroke="#F44336" stroke-width="3"/>
</g>
<g id="vehicles">
<rect fill="#4CAF50" height="6" rx="1" stroke="#333333" stroke-width="1" width="12" x="160.66666666666669" y="421.3956043956044"/>
<text fill="#333333" font-family="Arial, sans-serif" font-size="10" font-weight="bold" text-anchor="middle" x="166.66666666666669" y="416.3956043956044">
ego (t=0)
</text>
<rect fill="#4CAF50" height="6" opacity="0.8" rx="1" stroke="#333333" stroke-dasharray="3,3" stroke-width="2" width="12" x="715.4783821478383" y="421.3956043956044"/>
<text fill="#333333" font-family="Arial, sans-serif" font-size="10" font-weight="bold" text-anchor="middle" x="721.4783821478383" y="442.3956043956044">
ego (t=10.2)
</text>
<circle cx="965.8856345885634" cy="424.3956043956044" fill="#FF9800" r="3" stroke="#333333" stroke-width="1"/>
<text fill="#333333" font-family="Arial, sans-serif" font-size="10" font-weight="bold" text-anchor="middle" x="965.8856345885634" y="416.3956043956044">
pedestrian (t=0)
</text>
<circle cx="1033.3333333333333" cy="153.33333333333334" fill="#FF9800" opacity="0.8" r="3" stroke="#333333" stroke-dasharray="3,3" stroke-width="2"/>
<text fill="#333333" font-family="Arial, sans-serif" font-size="10" font-weight="bold" text-anchor="middle" x="1033.3333333333333" y="171.33333333333334">
pedestrian (t=10.2)
</text>
</g>
<g id="legend">
<rect fill="white" height="100" rx="3" stroke="#333333" stroke-width="1" width="150" x="970" y="420"/>
<text fill="#333333" font-family="Arial, sans-serif" font-size="12" font-weight="bold" text-anchor="middle" x="1045" y="435">
Legend
</text>
<rect fill="#4CAF50" height="8" width="12" x="980" y="445"/>
<text fill="#333333" font-family="Arial, sans-serif" font-size="10" text-anchor="start" x="1000" y="452">
Ego Vehicle
</text>
<rect fill="#2196F3" height="8" width="12" x="980" y="460"/>
<text fill="#333333" font-family="Arial, sans-serif" font-size="10" text-anchor="start" x="1000" y="467">
NPC Vehicle
</text>
<circle cx="986" cy="479" fill="#FF9800" r="4"/>
<text fill="#333333" font-family="Arial, sans-serif" font-size="10" text-anchor="start" x="1000" y="482">
Pedestrian
</text>
<circle cx="986" cy="498" fill="none" r="6" stroke="#F44336" stroke-width="2"/>
<text fill="#333333" font-family="Arial, sans-serif" font-size="10" text-anchor="start" x="1000" y="501">
Safety Violation
</text>
</g>
</svg>